G75*
%MOIN*%
%OFA0B0*%
%FSLAX25Y25*%
%IPPOS*%
%LPD*%
%AMOC8*
5,1,8,0,0,1.08239X$1,22.5*
%
%ADD10C,0.05937*%
%ADD11C,0.01956*%
%ADD12C,0.07874*%
%ADD13R,0.07400X0.07400*%
%ADD14OC8,0.07400*%
%ADD15R,0.06496X0.06496*%
%ADD16C,0.06496*%
%ADD17C,0.07400*%
%ADD18R,0.02362X0.02362*%
%ADD19C,0.01811*%
%ADD20R,0.08858X0.11417*%
%ADD21R,0.09055X0.03937*%
%ADD22R,0.11417X0.08858*%
%ADD23R,0.03937X0.09055*%
%ADD24C,0.05362*%
%ADD25C,0.00600*%
%ADD26C,0.04500*%
%ADD27C,0.01800*%
D10*
X0442518Y0377631D02*
X0448455Y0377631D01*
X0448455Y0387631D02*
X0442518Y0387631D01*
D11*
X0471300Y0370256D02*
X0471300Y0367960D01*
X0467666Y0367960D01*
X0467666Y0370256D01*
X0471300Y0370256D01*
X0471300Y0369915D02*
X0467666Y0369915D01*
X0467666Y0363208D02*
X0467666Y0360912D01*
X0467666Y0363208D02*
X0471300Y0363208D01*
X0471300Y0360912D01*
X0467666Y0360912D01*
X0467666Y0362867D02*
X0471300Y0362867D01*
X0487646Y0379606D02*
X0489942Y0379606D01*
X0489942Y0375972D01*
X0487646Y0375972D01*
X0487646Y0379606D01*
X0487646Y0377927D02*
X0489942Y0377927D01*
X0494693Y0375972D02*
X0496989Y0375972D01*
X0494693Y0375972D02*
X0494693Y0379606D01*
X0496989Y0379606D01*
X0496989Y0375972D01*
X0496989Y0377927D02*
X0494693Y0377927D01*
X0494693Y0384239D02*
X0496989Y0384239D01*
X0494693Y0384239D02*
X0494693Y0387873D01*
X0496989Y0387873D01*
X0496989Y0384239D01*
X0496989Y0386194D02*
X0494693Y0386194D01*
X0489942Y0387873D02*
X0487646Y0387873D01*
X0489942Y0387873D02*
X0489942Y0384239D01*
X0487646Y0384239D01*
X0487646Y0387873D01*
X0487646Y0386194D02*
X0489942Y0386194D01*
D12*
X0481688Y0290190D02*
X0473814Y0290190D01*
X0473814Y0321686D01*
X0481688Y0321686D01*
X0481688Y0290190D01*
X0481688Y0298063D02*
X0473814Y0298063D01*
X0473814Y0305936D02*
X0481688Y0305936D01*
X0481688Y0313809D02*
X0473814Y0313809D01*
X0473814Y0321682D02*
X0481688Y0321682D01*
X0460428Y0290190D02*
X0452554Y0290190D01*
X0452554Y0321686D01*
X0460428Y0321686D01*
X0460428Y0290190D01*
X0460428Y0298063D02*
X0452554Y0298063D01*
X0452554Y0305936D02*
X0460428Y0305936D01*
X0460428Y0313809D02*
X0452554Y0313809D01*
X0452554Y0321682D02*
X0460428Y0321682D01*
X0322357Y0323655D02*
X0314483Y0323655D01*
X0322357Y0323655D02*
X0322357Y0292159D01*
X0314483Y0292159D01*
X0314483Y0323655D01*
X0314483Y0300032D02*
X0322357Y0300032D01*
X0322357Y0307905D02*
X0314483Y0307905D01*
X0314483Y0315778D02*
X0322357Y0315778D01*
X0322357Y0323651D02*
X0314483Y0323651D01*
X0301097Y0323655D02*
X0293223Y0323655D01*
X0301097Y0323655D02*
X0301097Y0292159D01*
X0293223Y0292159D01*
X0293223Y0323655D01*
X0293223Y0300032D02*
X0301097Y0300032D01*
X0301097Y0307905D02*
X0293223Y0307905D01*
X0293223Y0315778D02*
X0301097Y0315778D01*
X0301097Y0323651D02*
X0293223Y0323651D01*
D13*
X0392199Y0313458D03*
D14*
X0382199Y0313458D03*
X0382199Y0323458D03*
X0382199Y0333458D03*
X0392199Y0333458D03*
X0392199Y0323458D03*
D15*
X0449010Y0354560D03*
X0507672Y0419915D03*
D16*
X0507672Y0429915D03*
X0507672Y0439915D03*
X0507672Y0449915D03*
X0507672Y0459915D03*
X0507672Y0469915D03*
X0507672Y0479915D03*
X0507672Y0489915D03*
X0507672Y0499915D03*
X0507672Y0509915D03*
X0449010Y0364560D03*
D17*
X0270664Y0269915D03*
X0270664Y0279915D03*
X0270664Y0289915D03*
X0270664Y0299915D03*
X0270664Y0309915D03*
X0270664Y0319915D03*
X0296254Y0272670D03*
X0306254Y0272670D03*
X0316254Y0272670D03*
X0326254Y0272670D03*
X0336254Y0272670D03*
X0346254Y0272670D03*
D18*
X0462790Y0392749D03*
X0465152Y0392749D03*
D19*
X0441766Y0319462D02*
X0441766Y0317650D01*
X0438144Y0317650D01*
X0438144Y0319462D01*
X0441766Y0319462D01*
X0441766Y0319460D02*
X0438144Y0319460D01*
X0438144Y0311943D02*
X0438144Y0310131D01*
X0438144Y0311943D02*
X0441766Y0311943D01*
X0441766Y0310131D01*
X0438144Y0310131D01*
X0438144Y0311941D02*
X0441766Y0311941D01*
X0332632Y0312099D02*
X0332632Y0313911D01*
X0336254Y0313911D01*
X0336254Y0312099D01*
X0332632Y0312099D01*
X0332632Y0313909D02*
X0336254Y0313909D01*
X0336254Y0319619D02*
X0336254Y0321431D01*
X0336254Y0319619D02*
X0332632Y0319619D01*
X0332632Y0321431D01*
X0336254Y0321431D01*
X0336254Y0321429D02*
X0332632Y0321429D01*
D20*
X0471254Y0338025D03*
D21*
X0461412Y0341765D03*
X0461412Y0334285D03*
D22*
X0306491Y0366962D03*
D23*
X0310231Y0376804D03*
X0302751Y0376804D03*
D24*
X0306884Y0357710D03*
X0303735Y0336450D03*
X0256491Y0341174D03*
X0256491Y0349836D03*
X0272239Y0484482D03*
X0272239Y0492356D03*
X0310034Y0493143D03*
X0317121Y0493143D03*
X0317121Y0484482D03*
X0309247Y0484482D03*
D25*
X0293187Y0469531D02*
X0289587Y0469531D01*
X0258087Y0438031D01*
X0258087Y0353431D01*
X0260187Y0351331D01*
X0260187Y0348331D01*
X0256887Y0345031D01*
X0255087Y0345031D01*
X0252687Y0342631D01*
X0252687Y0339631D01*
X0267687Y0324631D01*
X0272487Y0324631D01*
X0288087Y0309031D01*
X0288087Y0290431D01*
X0300987Y0277531D01*
X0331287Y0277531D01*
X0336087Y0272731D01*
X0336254Y0272670D01*
X0382199Y0323458D02*
X0381987Y0323731D01*
X0316887Y0388831D01*
X0316887Y0390931D01*
X0316887Y0395431D02*
X0377487Y0334831D01*
X0377487Y0331531D01*
X0380787Y0328231D01*
X0387687Y0328231D01*
X0392187Y0323731D01*
X0392199Y0323458D01*
X0396987Y0318031D02*
X0392487Y0313531D01*
X0392199Y0313458D01*
X0396987Y0318031D02*
X0396987Y0335431D01*
X0332787Y0399631D01*
X0324687Y0399631D01*
X0304287Y0420031D01*
X0301887Y0423331D02*
X0296187Y0429031D01*
X0296187Y0438631D01*
X0303087Y0438031D02*
X0292587Y0448531D01*
X0292587Y0461731D01*
X0294687Y0463831D01*
X0294687Y0466231D01*
X0292587Y0468331D01*
X0290187Y0468331D01*
X0283887Y0462031D01*
X0283887Y0409231D01*
X0283587Y0408931D01*
X0283587Y0406531D01*
X0305187Y0384931D01*
X0309987Y0384931D01*
X0313287Y0381631D01*
X0313287Y0354257D01*
X0312687Y0353657D01*
X0300387Y0353657D01*
X0299787Y0354257D01*
X0299787Y0373831D01*
X0302487Y0376531D01*
X0302751Y0376804D01*
X0310287Y0386131D02*
X0310587Y0386131D01*
X0316587Y0380131D01*
X0316587Y0374131D01*
X0310287Y0386131D02*
X0288087Y0408331D01*
X0288087Y0438631D01*
X0295887Y0447631D02*
X0293787Y0449731D01*
X0293787Y0461131D01*
X0295887Y0463231D01*
X0295887Y0466831D01*
X0293187Y0469531D01*
X0291387Y0465031D02*
X0291387Y0409531D01*
X0304287Y0396631D01*
X0313587Y0395431D02*
X0316887Y0395431D01*
X0329187Y0369631D02*
X0329187Y0352531D01*
X0270664Y0319915D02*
X0270387Y0320131D01*
X0251487Y0339031D01*
X0251487Y0343231D01*
X0256287Y0348031D01*
X0256287Y0349831D01*
X0256491Y0349836D01*
X0261387Y0381031D02*
X0261387Y0403831D01*
X0277887Y0420331D01*
X0301887Y0423331D02*
X0320187Y0423331D01*
X0366687Y0469831D01*
X0507387Y0469831D01*
X0507672Y0469915D01*
X0511887Y0471631D02*
X0509187Y0474331D01*
X0369387Y0474331D01*
X0345987Y0450931D01*
X0297087Y0450931D01*
X0295887Y0447631D02*
X0302487Y0447631D01*
X0308787Y0441331D01*
X0308787Y0440731D01*
X0303087Y0438031D02*
X0303087Y0426631D01*
X0311787Y0433231D02*
X0317187Y0433231D01*
X0311787Y0433231D02*
X0301287Y0443731D01*
X0301287Y0444331D01*
X0336987Y0435631D02*
X0496287Y0435631D01*
X0499737Y0432181D01*
X0499587Y0432031D01*
X0499587Y0390931D01*
X0495841Y0386056D02*
X0495987Y0385831D01*
X0495987Y0378031D01*
X0495841Y0377789D01*
X0488794Y0377789D02*
X0488787Y0378031D01*
X0482187Y0378031D01*
X0478887Y0386131D02*
X0475587Y0389431D01*
X0478887Y0386131D02*
X0488787Y0386131D01*
X0488794Y0386056D01*
X0489087Y0392731D02*
X0495687Y0386131D01*
X0495841Y0386056D01*
X0489087Y0392731D02*
X0479787Y0392731D01*
X0465387Y0392731D01*
X0465152Y0392749D01*
X0499737Y0432181D02*
X0507387Y0439831D01*
X0507672Y0439915D01*
X0511887Y0424231D02*
X0507687Y0420031D01*
X0507672Y0419915D01*
X0511887Y0424231D02*
X0511887Y0471631D01*
X0507672Y0459915D02*
X0507387Y0459631D01*
X0486987Y0439231D01*
X0351087Y0439231D01*
X0447987Y0347131D02*
X0460587Y0334531D01*
X0461187Y0334531D01*
X0461412Y0334285D01*
D26*
X0447987Y0347131D03*
X0482187Y0378031D03*
X0475587Y0389431D03*
X0479787Y0392731D03*
X0499587Y0390931D03*
X0525087Y0390931D03*
X0514587Y0499831D03*
X0408087Y0395131D03*
X0388287Y0409531D03*
X0375687Y0386131D03*
X0381387Y0365731D03*
X0329187Y0369631D03*
X0316587Y0374131D03*
X0316887Y0390931D03*
X0313587Y0395431D03*
X0304287Y0396631D03*
X0312687Y0416131D03*
X0304287Y0420031D03*
X0303087Y0426631D03*
X0296187Y0438631D03*
X0301287Y0444331D03*
X0297087Y0450931D03*
X0291387Y0465031D03*
X0288087Y0438631D03*
X0280587Y0427531D03*
X0277887Y0420331D03*
X0263787Y0454531D03*
X0308787Y0440731D03*
X0317187Y0433231D03*
X0323487Y0447031D03*
X0323487Y0456631D03*
X0336987Y0435631D03*
X0351087Y0439231D03*
X0329187Y0352531D03*
X0290787Y0337831D03*
X0271587Y0351031D03*
X0261387Y0381031D03*
X0211287Y0374431D03*
X0386787Y0242131D03*
X0381087Y0180331D03*
X0388287Y0577831D03*
X0395787Y0602731D03*
D27*
X0395787Y0534631D01*
X0440487Y0489931D01*
X0507387Y0489931D01*
X0507672Y0489915D01*
X0507687Y0499831D02*
X0507672Y0499915D01*
X0507687Y0499831D02*
X0514587Y0499831D01*
X0525087Y0390931D02*
X0506187Y0372031D01*
X0474387Y0372031D01*
X0473787Y0371431D01*
X0473787Y0366631D01*
X0469887Y0362731D01*
X0469483Y0362060D01*
X0469287Y0361831D01*
X0469287Y0349831D01*
X0461487Y0342031D01*
X0461412Y0341765D01*
X0471254Y0338025D02*
X0471387Y0337831D01*
X0471387Y0312331D01*
X0477687Y0306031D01*
X0477751Y0305938D01*
X0456491Y0305938D02*
X0456387Y0306031D01*
X0451587Y0310831D01*
X0440187Y0310831D01*
X0439955Y0311037D01*
X0439287Y0318031D02*
X0429387Y0308131D01*
X0381087Y0308131D01*
X0381087Y0180331D01*
X0381087Y0308131D02*
X0379887Y0308131D01*
X0367587Y0320431D01*
X0334587Y0320431D01*
X0334443Y0320525D01*
X0333987Y0321331D01*
X0304287Y0351031D01*
X0271587Y0351031D01*
X0256587Y0341431D02*
X0256491Y0341174D01*
X0256587Y0341431D02*
X0298287Y0383131D01*
X0305187Y0383131D01*
X0309987Y0378331D01*
X0309987Y0376831D01*
X0310231Y0376804D01*
X0306491Y0366962D02*
X0306491Y0358104D01*
X0306884Y0357710D01*
X0303735Y0336450D02*
X0297160Y0329875D01*
X0297160Y0307907D01*
X0318420Y0307907D02*
X0318687Y0308131D01*
X0323487Y0312931D01*
X0334287Y0312931D01*
X0334443Y0313005D01*
X0439287Y0318031D02*
X0439955Y0318556D01*
X0440187Y0318631D01*
X0440187Y0345631D01*
X0448887Y0354331D01*
X0449010Y0354560D01*
X0449787Y0354931D01*
X0463887Y0369031D01*
X0469287Y0369031D01*
X0469483Y0369108D01*
X0473787Y0371431D02*
X0457587Y0387631D01*
X0457587Y0392749D01*
X0462790Y0392749D01*
X0457587Y0387631D02*
X0445487Y0387631D01*
M02*
