G75*
%MOIN*%
%OFA0B0*%
%FSLAX25Y25*%
%IPPOS*%
%LPD*%
%AMOC8*
5,1,8,0,0,1.08239X$1,22.5*
%
%ADD10C,0.05937*%
%ADD11C,0.07874*%
%ADD12R,0.07400X0.07400*%
%ADD13OC8,0.07400*%
%ADD14R,0.06496X0.06496*%
%ADD15C,0.06496*%
%ADD16C,0.07400*%
%ADD17C,0.05362*%
%ADD18C,0.04500*%
%ADD19C,0.00600*%
%ADD20C,0.01800*%
D10*
X0442518Y0377631D02*
X0448455Y0377631D01*
X0448455Y0387631D02*
X0442518Y0387631D01*
D11*
X0452554Y0290190D02*
X0460428Y0290190D01*
X0452554Y0290190D02*
X0452554Y0321686D01*
X0460428Y0321686D01*
X0460428Y0290190D01*
X0460428Y0298063D02*
X0452554Y0298063D01*
X0452554Y0305936D02*
X0460428Y0305936D01*
X0460428Y0313809D02*
X0452554Y0313809D01*
X0452554Y0321682D02*
X0460428Y0321682D01*
X0473814Y0290190D02*
X0481688Y0290190D01*
X0473814Y0290190D02*
X0473814Y0321686D01*
X0481688Y0321686D01*
X0481688Y0290190D01*
X0481688Y0298063D02*
X0473814Y0298063D01*
X0473814Y0305936D02*
X0481688Y0305936D01*
X0481688Y0313809D02*
X0473814Y0313809D01*
X0473814Y0321682D02*
X0481688Y0321682D01*
X0322357Y0323655D02*
X0314483Y0323655D01*
X0322357Y0323655D02*
X0322357Y0292159D01*
X0314483Y0292159D01*
X0314483Y0323655D01*
X0314483Y0300032D02*
X0322357Y0300032D01*
X0322357Y0307905D02*
X0314483Y0307905D01*
X0314483Y0315778D02*
X0322357Y0315778D01*
X0322357Y0323651D02*
X0314483Y0323651D01*
X0301097Y0323655D02*
X0293223Y0323655D01*
X0301097Y0323655D02*
X0301097Y0292159D01*
X0293223Y0292159D01*
X0293223Y0323655D01*
X0293223Y0300032D02*
X0301097Y0300032D01*
X0301097Y0307905D02*
X0293223Y0307905D01*
X0293223Y0315778D02*
X0301097Y0315778D01*
X0301097Y0323651D02*
X0293223Y0323651D01*
D12*
X0296884Y0372789D03*
D13*
X0296884Y0382789D03*
X0306884Y0382789D03*
X0306884Y0372789D03*
X0316884Y0372789D03*
X0316884Y0382789D03*
D14*
X0449010Y0354560D03*
X0507672Y0419915D03*
D15*
X0507672Y0429915D03*
X0507672Y0439915D03*
X0507672Y0449915D03*
X0507672Y0459915D03*
X0507672Y0469915D03*
X0507672Y0479915D03*
X0507672Y0489915D03*
X0507672Y0499915D03*
X0507672Y0509915D03*
X0449010Y0364560D03*
D16*
X0270664Y0269915D03*
X0270664Y0279915D03*
X0270664Y0289915D03*
X0270664Y0299915D03*
X0270664Y0309915D03*
X0270664Y0319915D03*
X0296254Y0272670D03*
X0306254Y0272670D03*
X0316254Y0272670D03*
X0326254Y0272670D03*
X0336254Y0272670D03*
X0346254Y0272670D03*
D17*
X0258066Y0342749D03*
X0258066Y0354560D03*
X0272239Y0484482D03*
X0272239Y0492356D03*
X0310821Y0493143D03*
X0317121Y0493143D03*
X0317121Y0484482D03*
X0310821Y0484482D03*
D18*
X0311487Y0460831D03*
X0310587Y0443131D03*
X0303687Y0438631D03*
X0303387Y0425731D03*
X0319287Y0428431D03*
X0327387Y0436231D03*
X0294687Y0447931D03*
X0288087Y0453931D03*
X0285087Y0447931D03*
X0270687Y0445831D03*
X0280587Y0427531D03*
X0271887Y0401431D03*
X0266787Y0394531D03*
X0252687Y0376231D03*
X0211287Y0374431D03*
X0193287Y0395131D03*
X0291387Y0465031D03*
X0325587Y0380731D03*
X0325587Y0334531D03*
X0321987Y0330631D03*
X0342387Y0307831D03*
X0351387Y0307831D03*
X0330987Y0300631D03*
X0386787Y0242131D03*
X0394287Y0270031D03*
X0390387Y0314431D03*
X0445587Y0310831D03*
X0466887Y0288031D03*
X0461487Y0378031D03*
X0465687Y0389431D03*
X0501087Y0386131D03*
X0525087Y0390931D03*
X0514587Y0499831D03*
X0395787Y0602731D03*
X0388287Y0577831D03*
X0377187Y0439831D03*
X0380487Y0420031D03*
X0381387Y0409531D03*
X0390087Y0410431D03*
X0373287Y0403831D03*
X0381387Y0377431D03*
D19*
X0385587Y0410431D02*
X0390087Y0410431D01*
X0435987Y0410431D01*
X0445287Y0419731D01*
X0507387Y0419731D01*
X0507672Y0419915D01*
X0511887Y0416131D02*
X0511887Y0435631D01*
X0507687Y0439831D01*
X0507672Y0439915D01*
X0507387Y0429931D02*
X0507672Y0429915D01*
X0507387Y0429931D02*
X0380487Y0429931D01*
X0380487Y0441031D01*
X0353187Y0468331D01*
X0290187Y0468331D01*
X0270687Y0448831D01*
X0270687Y0445831D01*
X0267387Y0444631D02*
X0276837Y0435181D01*
X0252687Y0411031D01*
X0252687Y0376231D01*
X0271887Y0401431D02*
X0272187Y0401431D01*
X0291387Y0420631D01*
X0291387Y0451231D01*
X0346587Y0451231D01*
X0357987Y0439831D01*
X0377187Y0439831D01*
X0380487Y0429931D02*
X0380487Y0420031D01*
X0385587Y0410431D02*
X0348087Y0447931D01*
X0294687Y0447931D01*
X0291387Y0451231D02*
X0291387Y0465031D01*
X0289887Y0469831D02*
X0267387Y0447331D01*
X0267387Y0444631D01*
X0276837Y0435181D02*
X0288387Y0446731D01*
X0288387Y0453631D01*
X0288087Y0453931D01*
X0289887Y0469831D02*
X0507387Y0469831D01*
X0507672Y0469915D01*
X0511887Y0416131D02*
X0455787Y0360031D01*
X0446487Y0360031D01*
X0425037Y0338581D01*
X0327387Y0436231D01*
X0322587Y0431731D02*
X0335787Y0418531D01*
X0335787Y0382531D01*
X0390387Y0327931D01*
X0390387Y0314431D01*
X0394287Y0307831D02*
X0425037Y0338581D01*
X0394287Y0307831D02*
X0394287Y0270031D01*
X0354687Y0291031D02*
X0336387Y0272731D01*
X0336254Y0272670D01*
X0354687Y0291031D02*
X0354687Y0356131D01*
X0319287Y0391531D01*
X0319287Y0428431D01*
X0322587Y0431731D02*
X0311787Y0431731D01*
X0304887Y0438631D01*
X0303687Y0438631D01*
X0303387Y0425731D02*
X0303387Y0402931D01*
X0325587Y0380731D01*
X0316884Y0372789D02*
X0316587Y0372931D01*
X0312087Y0377431D01*
X0295587Y0377431D01*
X0291987Y0381031D01*
X0291987Y0381331D01*
X0271887Y0401431D01*
D20*
X0228387Y0395131D02*
X0279987Y0343531D01*
X0321987Y0343531D01*
X0341787Y0323731D01*
X0341787Y0308431D01*
X0342387Y0307831D01*
X0351387Y0307831D01*
X0330987Y0300631D02*
X0325887Y0300631D01*
X0318687Y0307831D01*
X0318420Y0307907D01*
X0297387Y0308131D02*
X0297160Y0307907D01*
X0297387Y0308131D02*
X0297387Y0314431D01*
X0313587Y0330631D01*
X0321987Y0330631D01*
X0325587Y0334531D02*
X0266187Y0334531D01*
X0258087Y0342631D01*
X0258066Y0342749D01*
X0228387Y0395131D02*
X0193287Y0395131D01*
X0395787Y0534631D02*
X0395787Y0602731D01*
X0395787Y0534631D02*
X0440187Y0490231D01*
X0506787Y0490231D01*
X0507672Y0489915D01*
X0507687Y0489631D01*
X0507687Y0486631D01*
X0513687Y0480631D01*
X0513687Y0415231D01*
X0453087Y0354631D01*
X0449187Y0354631D01*
X0449010Y0354560D01*
X0451587Y0310831D02*
X0445587Y0310831D01*
X0451587Y0310831D02*
X0456387Y0306031D01*
X0456491Y0305938D01*
X0466887Y0294931D02*
X0466887Y0288031D01*
X0466887Y0294931D02*
X0477687Y0305731D01*
X0477751Y0305938D01*
X0507687Y0499831D02*
X0507672Y0499915D01*
X0507687Y0499831D02*
X0514587Y0499831D01*
M02*
