G75*
%MOIN*%
%OFA0B0*%
%FSLAX25Y25*%
%IPPOS*%
%LPD*%
%AMOC8*
5,1,8,0,0,1.08239X$1,22.5*
%
%ADD10R,0.03150X0.01378*%
%ADD11C,0.05937*%
%ADD12C,0.01956*%
%ADD13C,0.01959*%
%ADD14R,0.07400X0.07400*%
%ADD15OC8,0.07400*%
%ADD16R,0.06496X0.06496*%
%ADD17C,0.06496*%
%ADD18C,0.07400*%
%ADD19R,0.02362X0.02362*%
%ADD20R,0.08858X0.11417*%
%ADD21R,0.09055X0.03937*%
%ADD22R,0.11417X0.08858*%
%ADD23R,0.03937X0.09055*%
%ADD24C,0.01811*%
%ADD25R,0.10000X0.04000*%
%ADD26R,0.07874X0.07874*%
%ADD27R,0.04724X0.02165*%
%ADD28R,0.01102X0.06150*%
%ADD29R,0.06150X0.01102*%
%ADD30C,0.00453*%
%ADD31R,0.04331X0.07480*%
%ADD32R,0.08268X0.05512*%
%ADD33C,0.01575*%
%ADD34C,0.01600*%
%ADD35C,0.05362*%
%ADD36C,0.00600*%
%ADD37C,0.04500*%
%ADD38C,0.01800*%
D10*
X0295861Y0482316D03*
X0295861Y0484875D03*
X0295861Y0487434D03*
X0302160Y0487434D03*
X0302160Y0484875D03*
X0302160Y0482316D03*
D11*
X0442518Y0387631D02*
X0448455Y0387631D01*
X0448455Y0377631D02*
X0442518Y0377631D01*
D12*
X0471300Y0370256D02*
X0471300Y0367960D01*
X0467666Y0367960D01*
X0467666Y0370256D01*
X0471300Y0370256D01*
X0471300Y0369915D02*
X0467666Y0369915D01*
X0467666Y0363208D02*
X0467666Y0360912D01*
X0467666Y0363208D02*
X0471300Y0363208D01*
X0471300Y0360912D01*
X0467666Y0360912D01*
X0467666Y0362867D02*
X0471300Y0362867D01*
X0487646Y0379606D02*
X0489942Y0379606D01*
X0489942Y0375972D01*
X0487646Y0375972D01*
X0487646Y0379606D01*
X0487646Y0377927D02*
X0489942Y0377927D01*
X0494693Y0375972D02*
X0496989Y0375972D01*
X0494693Y0375972D02*
X0494693Y0379606D01*
X0496989Y0379606D01*
X0496989Y0375972D01*
X0496989Y0377927D02*
X0494693Y0377927D01*
X0494693Y0384239D02*
X0496989Y0384239D01*
X0494693Y0384239D02*
X0494693Y0387873D01*
X0496989Y0387873D01*
X0496989Y0384239D01*
X0496989Y0386194D02*
X0494693Y0386194D01*
X0489942Y0387873D02*
X0487646Y0387873D01*
X0489942Y0387873D02*
X0489942Y0384239D01*
X0487646Y0384239D01*
X0487646Y0387873D01*
X0487646Y0386194D02*
X0489942Y0386194D01*
X0529083Y0389652D02*
X0529083Y0391948D01*
X0532717Y0391948D01*
X0532717Y0389652D01*
X0529083Y0389652D01*
X0529083Y0391607D02*
X0532717Y0391607D01*
X0532717Y0396700D02*
X0532717Y0398996D01*
X0532717Y0396700D02*
X0529083Y0396700D01*
X0529083Y0398996D01*
X0532717Y0398996D01*
X0532717Y0398655D02*
X0529083Y0398655D01*
X0404764Y0393090D02*
X0404764Y0390794D01*
X0401130Y0390794D01*
X0401130Y0393090D01*
X0404764Y0393090D01*
X0404764Y0392749D02*
X0401130Y0392749D01*
X0401130Y0386043D02*
X0401130Y0383747D01*
X0401130Y0386043D02*
X0404764Y0386043D01*
X0404764Y0383747D01*
X0401130Y0383747D01*
X0401130Y0385702D02*
X0404764Y0385702D01*
X0404764Y0378523D02*
X0404764Y0376227D01*
X0401130Y0376227D01*
X0401130Y0378523D01*
X0404764Y0378523D01*
X0404764Y0378182D02*
X0401130Y0378182D01*
X0401130Y0371476D02*
X0401130Y0369180D01*
X0401130Y0371476D02*
X0404764Y0371476D01*
X0404764Y0369180D01*
X0401130Y0369180D01*
X0401130Y0371135D02*
X0404764Y0371135D01*
X0389509Y0369672D02*
X0387213Y0369672D01*
X0387213Y0373306D01*
X0389509Y0373306D01*
X0389509Y0369672D01*
X0389509Y0371627D02*
X0387213Y0371627D01*
X0382462Y0373306D02*
X0380166Y0373306D01*
X0382462Y0373306D02*
X0382462Y0369672D01*
X0380166Y0369672D01*
X0380166Y0373306D01*
X0380166Y0371627D02*
X0382462Y0371627D01*
X0370815Y0373117D02*
X0370815Y0375413D01*
X0374449Y0375413D01*
X0374449Y0373117D01*
X0370815Y0373117D01*
X0370815Y0375072D02*
X0374449Y0375072D01*
X0374449Y0380164D02*
X0374449Y0382460D01*
X0374449Y0380164D02*
X0370815Y0380164D01*
X0370815Y0382460D01*
X0374449Y0382460D01*
X0374449Y0382119D02*
X0370815Y0382119D01*
X0380166Y0405590D02*
X0382462Y0405590D01*
X0382462Y0401956D01*
X0380166Y0401956D01*
X0380166Y0405590D01*
X0380166Y0403911D02*
X0382462Y0403911D01*
X0387213Y0401956D02*
X0389509Y0401956D01*
X0387213Y0401956D02*
X0387213Y0405590D01*
X0389509Y0405590D01*
X0389509Y0401956D01*
X0389509Y0403911D02*
X0387213Y0403911D01*
X0355067Y0438865D02*
X0355067Y0441161D01*
X0358701Y0441161D01*
X0358701Y0438865D01*
X0355067Y0438865D01*
X0355067Y0440820D02*
X0358701Y0440820D01*
X0358701Y0445912D02*
X0358701Y0448208D01*
X0358701Y0445912D02*
X0355067Y0445912D01*
X0355067Y0448208D01*
X0358701Y0448208D01*
X0358701Y0447867D02*
X0355067Y0447867D01*
X0355067Y0454219D02*
X0355067Y0456515D01*
X0358701Y0456515D01*
X0358701Y0454219D01*
X0355067Y0454219D01*
X0355067Y0456174D02*
X0358701Y0456174D01*
X0358701Y0461267D02*
X0358701Y0463563D01*
X0358701Y0461267D02*
X0355067Y0461267D01*
X0355067Y0463563D01*
X0358701Y0463563D01*
X0358701Y0463222D02*
X0355067Y0463222D01*
X0346595Y0468885D02*
X0344299Y0468885D01*
X0344299Y0472519D01*
X0346595Y0472519D01*
X0346595Y0468885D01*
X0346595Y0470840D02*
X0344299Y0470840D01*
X0339548Y0472519D02*
X0337252Y0472519D01*
X0339548Y0472519D02*
X0339548Y0468885D01*
X0337252Y0468885D01*
X0337252Y0472519D01*
X0337252Y0470840D02*
X0339548Y0470840D01*
X0289115Y0481090D02*
X0286819Y0481090D01*
X0286819Y0484724D01*
X0289115Y0484724D01*
X0289115Y0481090D01*
X0289115Y0483045D02*
X0286819Y0483045D01*
X0282068Y0484724D02*
X0279772Y0484724D01*
X0282068Y0484724D02*
X0282068Y0481090D01*
X0279772Y0481090D01*
X0279772Y0484724D01*
X0279772Y0483045D02*
X0282068Y0483045D01*
X0282068Y0492991D02*
X0279772Y0492991D01*
X0282068Y0492991D02*
X0282068Y0489357D01*
X0279772Y0489357D01*
X0279772Y0492991D01*
X0279772Y0491312D02*
X0282068Y0491312D01*
X0286819Y0489357D02*
X0289115Y0489357D01*
X0286819Y0489357D02*
X0286819Y0492991D01*
X0289115Y0492991D01*
X0289115Y0489357D01*
X0289115Y0491312D02*
X0286819Y0491312D01*
X0270512Y0459232D02*
X0270512Y0456936D01*
X0266878Y0456936D01*
X0266878Y0459232D01*
X0270512Y0459232D01*
X0270512Y0458891D02*
X0266878Y0458891D01*
X0266878Y0452185D02*
X0266878Y0449889D01*
X0266878Y0452185D02*
X0270512Y0452185D01*
X0270512Y0449889D01*
X0266878Y0449889D01*
X0266878Y0451844D02*
X0270512Y0451844D01*
X0281740Y0423700D02*
X0284036Y0423700D01*
X0284036Y0420066D01*
X0281740Y0420066D01*
X0281740Y0423700D01*
X0281740Y0422021D02*
X0284036Y0422021D01*
X0288788Y0420066D02*
X0291084Y0420066D01*
X0288788Y0420066D02*
X0288788Y0423700D01*
X0291084Y0423700D01*
X0291084Y0420066D01*
X0291084Y0422021D02*
X0288788Y0422021D01*
X0308118Y0422913D02*
X0310414Y0422913D01*
X0310414Y0419279D01*
X0308118Y0419279D01*
X0308118Y0422913D01*
X0308118Y0421234D02*
X0310414Y0421234D01*
X0315166Y0419279D02*
X0317462Y0419279D01*
X0315166Y0419279D02*
X0315166Y0422913D01*
X0317462Y0422913D01*
X0317462Y0419279D01*
X0317462Y0421234D02*
X0315166Y0421234D01*
X0224548Y0372428D02*
X0222252Y0372428D01*
X0222252Y0376062D01*
X0224548Y0376062D01*
X0224548Y0372428D01*
X0224548Y0374383D02*
X0222252Y0374383D01*
X0217501Y0376062D02*
X0215205Y0376062D01*
X0217501Y0376062D02*
X0217501Y0372428D01*
X0215205Y0372428D01*
X0215205Y0376062D01*
X0215205Y0374383D02*
X0217501Y0374383D01*
X0363701Y0277263D02*
X0363701Y0274967D01*
X0360067Y0274967D01*
X0360067Y0277263D01*
X0363701Y0277263D01*
X0363701Y0276922D02*
X0360067Y0276922D01*
X0360067Y0270216D02*
X0360067Y0267920D01*
X0360067Y0270216D02*
X0363701Y0270216D01*
X0363701Y0267920D01*
X0360067Y0267920D01*
X0360067Y0269875D02*
X0363701Y0269875D01*
X0390795Y0238267D02*
X0393091Y0238267D01*
X0393091Y0234633D01*
X0390795Y0234633D01*
X0390795Y0238267D01*
X0390795Y0236588D02*
X0393091Y0236588D01*
X0397843Y0234633D02*
X0400139Y0234633D01*
X0397843Y0234633D02*
X0397843Y0238267D01*
X0400139Y0238267D01*
X0400139Y0234633D01*
X0400139Y0236588D02*
X0397843Y0236588D01*
X0399162Y0527448D02*
X0399162Y0529744D01*
X0402796Y0529744D01*
X0402796Y0527448D01*
X0399162Y0527448D01*
X0399162Y0529403D02*
X0402796Y0529403D01*
X0402796Y0534495D02*
X0402796Y0536791D01*
X0402796Y0534495D02*
X0399162Y0534495D01*
X0399162Y0536791D01*
X0402796Y0536791D01*
X0402796Y0536450D02*
X0399162Y0536450D01*
D13*
X0392057Y0582292D02*
X0392057Y0589664D01*
X0399665Y0589664D01*
X0399665Y0582292D01*
X0392057Y0582292D01*
X0392057Y0584250D02*
X0399665Y0584250D01*
X0399665Y0586208D02*
X0392057Y0586208D01*
X0392057Y0588166D02*
X0399665Y0588166D01*
X0399665Y0606859D02*
X0399665Y0614231D01*
X0399665Y0606859D02*
X0392057Y0606859D01*
X0392057Y0614231D01*
X0399665Y0614231D01*
X0399665Y0608817D02*
X0392057Y0608817D01*
X0392057Y0610775D02*
X0399665Y0610775D01*
X0399665Y0612733D02*
X0392057Y0612733D01*
X0213799Y0391701D02*
X0206427Y0391701D01*
X0206427Y0399309D01*
X0213799Y0399309D01*
X0213799Y0391701D01*
X0213799Y0393659D02*
X0206427Y0393659D01*
X0206427Y0395617D02*
X0213799Y0395617D01*
X0213799Y0397575D02*
X0206427Y0397575D01*
X0189232Y0399309D02*
X0181860Y0399309D01*
X0189232Y0399309D02*
X0189232Y0391701D01*
X0181860Y0391701D01*
X0181860Y0399309D01*
X0181860Y0393659D02*
X0189232Y0393659D01*
X0189232Y0395617D02*
X0181860Y0395617D01*
X0181860Y0397575D02*
X0189232Y0397575D01*
X0384704Y0200845D02*
X0384704Y0193473D01*
X0377096Y0193473D01*
X0377096Y0200845D01*
X0384704Y0200845D01*
X0384704Y0195431D02*
X0377096Y0195431D01*
X0377096Y0197389D02*
X0384704Y0197389D01*
X0384704Y0199347D02*
X0377096Y0199347D01*
X0377096Y0176278D02*
X0377096Y0168906D01*
X0377096Y0176278D02*
X0384704Y0176278D01*
X0384704Y0168906D01*
X0377096Y0168906D01*
X0377096Y0170864D02*
X0384704Y0170864D01*
X0384704Y0172822D02*
X0377096Y0172822D01*
X0377096Y0174780D02*
X0384704Y0174780D01*
X0569655Y0383955D02*
X0577027Y0383955D01*
X0577027Y0376347D01*
X0569655Y0376347D01*
X0569655Y0383955D01*
X0569655Y0378305D02*
X0577027Y0378305D01*
X0577027Y0380263D02*
X0569655Y0380263D01*
X0569655Y0382221D02*
X0577027Y0382221D01*
X0594222Y0376347D02*
X0601594Y0376347D01*
X0594222Y0376347D02*
X0594222Y0383955D01*
X0601594Y0383955D01*
X0601594Y0376347D01*
X0601594Y0378305D02*
X0594222Y0378305D01*
X0594222Y0380263D02*
X0601594Y0380263D01*
X0601594Y0382221D02*
X0594222Y0382221D01*
D14*
X0296884Y0372789D03*
D15*
X0296884Y0382789D03*
X0306884Y0382789D03*
X0306884Y0372789D03*
X0316884Y0372789D03*
X0316884Y0382789D03*
D16*
X0449010Y0354560D03*
X0507672Y0419915D03*
D17*
X0507672Y0429915D03*
X0507672Y0439915D03*
X0507672Y0449915D03*
X0507672Y0459915D03*
X0507672Y0469915D03*
X0507672Y0479915D03*
X0507672Y0489915D03*
X0507672Y0499915D03*
X0507672Y0509915D03*
X0449010Y0364560D03*
D18*
X0270664Y0269915D03*
X0270664Y0279915D03*
X0270664Y0289915D03*
X0270664Y0299915D03*
X0270664Y0309915D03*
X0270664Y0319915D03*
X0296254Y0272670D03*
X0306254Y0272670D03*
X0316254Y0272670D03*
X0326254Y0272670D03*
X0336254Y0272670D03*
X0346254Y0272670D03*
D19*
X0465152Y0393537D03*
X0467514Y0393537D03*
D20*
X0554325Y0394718D03*
X0424010Y0286844D03*
X0232672Y0386056D03*
D21*
X0242514Y0382316D03*
X0242514Y0389796D03*
X0414168Y0290584D03*
X0414168Y0283104D03*
X0544483Y0390978D03*
X0544483Y0398458D03*
D22*
X0376569Y0578379D03*
X0358459Y0324442D03*
X0399010Y0214600D03*
D23*
X0395270Y0224442D03*
X0402751Y0224442D03*
X0362199Y0334285D03*
X0354719Y0334285D03*
X0372829Y0568537D03*
X0380310Y0568537D03*
D24*
X0383715Y0547710D02*
X0385527Y0547710D01*
X0385527Y0544088D01*
X0383715Y0544088D01*
X0383715Y0547710D01*
X0383715Y0545898D02*
X0385527Y0545898D01*
X0385527Y0547708D02*
X0383715Y0547708D01*
X0391234Y0544088D02*
X0393046Y0544088D01*
X0391234Y0544088D02*
X0391234Y0547710D01*
X0393046Y0547710D01*
X0393046Y0544088D01*
X0393046Y0545898D02*
X0391234Y0545898D01*
X0391234Y0547708D02*
X0393046Y0547708D01*
X0376412Y0528124D02*
X0376412Y0526312D01*
X0372790Y0526312D01*
X0372790Y0528124D01*
X0376412Y0528124D01*
X0376412Y0528122D02*
X0372790Y0528122D01*
X0372790Y0520604D02*
X0372790Y0518792D01*
X0372790Y0520604D02*
X0376412Y0520604D01*
X0376412Y0518792D01*
X0372790Y0518792D01*
X0372790Y0520602D02*
X0376412Y0520602D01*
X0377298Y0414167D02*
X0375486Y0414167D01*
X0375486Y0417789D01*
X0377298Y0417789D01*
X0377298Y0414167D01*
X0377298Y0415977D02*
X0375486Y0415977D01*
X0375486Y0417787D02*
X0377298Y0417787D01*
X0383715Y0417789D02*
X0385527Y0417789D01*
X0385527Y0414167D01*
X0383715Y0414167D01*
X0383715Y0417789D01*
X0383715Y0415977D02*
X0385527Y0415977D01*
X0385527Y0417787D02*
X0383715Y0417787D01*
X0391234Y0414167D02*
X0393046Y0414167D01*
X0391234Y0414167D02*
X0391234Y0417789D01*
X0393046Y0417789D01*
X0393046Y0414167D01*
X0393046Y0415977D02*
X0391234Y0415977D01*
X0391234Y0417787D02*
X0393046Y0417787D01*
X0369779Y0417789D02*
X0367967Y0417789D01*
X0369779Y0417789D02*
X0369779Y0414167D01*
X0367967Y0414167D01*
X0367967Y0417789D01*
X0367967Y0415977D02*
X0369779Y0415977D01*
X0369779Y0417787D02*
X0367967Y0417787D01*
X0441766Y0319462D02*
X0441766Y0317650D01*
X0438144Y0317650D01*
X0438144Y0319462D01*
X0441766Y0319462D01*
X0441766Y0319460D02*
X0438144Y0319460D01*
X0438144Y0311943D02*
X0438144Y0310131D01*
X0438144Y0311943D02*
X0441766Y0311943D01*
X0441766Y0310131D01*
X0438144Y0310131D01*
X0438144Y0311941D02*
X0441766Y0311941D01*
X0402495Y0262592D02*
X0400683Y0262592D01*
X0400683Y0266214D01*
X0402495Y0266214D01*
X0402495Y0262592D01*
X0402495Y0264402D02*
X0400683Y0264402D01*
X0400683Y0266212D02*
X0402495Y0266212D01*
X0394975Y0266214D02*
X0393163Y0266214D01*
X0394975Y0266214D02*
X0394975Y0262592D01*
X0393163Y0262592D01*
X0393163Y0266214D01*
X0393163Y0264402D02*
X0394975Y0264402D01*
X0394975Y0266212D02*
X0393163Y0266212D01*
X0389897Y0245663D02*
X0388085Y0245663D01*
X0388085Y0249285D01*
X0389897Y0249285D01*
X0389897Y0245663D01*
X0389897Y0247473D02*
X0388085Y0247473D01*
X0388085Y0249283D02*
X0389897Y0249283D01*
X0382377Y0249285D02*
X0380565Y0249285D01*
X0382377Y0249285D02*
X0382377Y0245663D01*
X0380565Y0245663D01*
X0380565Y0249285D01*
X0380565Y0247473D02*
X0382377Y0247473D01*
X0382377Y0249283D02*
X0380565Y0249283D01*
X0334995Y0299501D02*
X0334995Y0301313D01*
X0338617Y0301313D01*
X0338617Y0299501D01*
X0334995Y0299501D01*
X0334995Y0301311D02*
X0338617Y0301311D01*
X0338617Y0307020D02*
X0338617Y0308832D01*
X0338617Y0307020D02*
X0334995Y0307020D01*
X0334995Y0308832D01*
X0338617Y0308832D01*
X0338617Y0308830D02*
X0334995Y0308830D01*
X0253892Y0379816D02*
X0253892Y0381628D01*
X0257514Y0381628D01*
X0257514Y0379816D01*
X0253892Y0379816D01*
X0253892Y0381626D02*
X0257514Y0381626D01*
X0257514Y0387335D02*
X0257514Y0389147D01*
X0257514Y0387335D02*
X0253892Y0387335D01*
X0253892Y0389147D01*
X0257514Y0389147D01*
X0257514Y0389145D02*
X0253892Y0389145D01*
X0264562Y0398477D02*
X0264562Y0400289D01*
X0268184Y0400289D01*
X0268184Y0398477D01*
X0264562Y0398477D01*
X0264562Y0400287D02*
X0268184Y0400287D01*
X0268184Y0405997D02*
X0268184Y0407809D01*
X0268184Y0405997D02*
X0264562Y0405997D01*
X0264562Y0407809D01*
X0268184Y0407809D01*
X0268184Y0407807D02*
X0264562Y0407807D01*
X0248952Y0371253D02*
X0247140Y0371253D01*
X0247140Y0374875D01*
X0248952Y0374875D01*
X0248952Y0371253D01*
X0248952Y0373063D02*
X0247140Y0373063D01*
X0247140Y0374873D02*
X0248952Y0374873D01*
X0241432Y0374875D02*
X0239620Y0374875D01*
X0241432Y0374875D02*
X0241432Y0371253D01*
X0239620Y0371253D01*
X0239620Y0374875D01*
X0239620Y0373063D02*
X0241432Y0373063D01*
X0241432Y0374873D02*
X0239620Y0374873D01*
X0493163Y0399285D02*
X0494975Y0399285D01*
X0494975Y0395663D01*
X0493163Y0395663D01*
X0493163Y0399285D01*
X0493163Y0397473D02*
X0494975Y0397473D01*
X0494975Y0399283D02*
X0493163Y0399283D01*
X0500683Y0395663D02*
X0502495Y0395663D01*
X0500683Y0395663D02*
X0500683Y0399285D01*
X0502495Y0399285D01*
X0502495Y0395663D01*
X0502495Y0397473D02*
X0500683Y0397473D01*
X0500683Y0399283D02*
X0502495Y0399283D01*
X0521294Y0399384D02*
X0521294Y0397572D01*
X0517672Y0397572D01*
X0517672Y0399384D01*
X0521294Y0399384D01*
X0521294Y0399382D02*
X0517672Y0399382D01*
X0517672Y0391864D02*
X0517672Y0390052D01*
X0517672Y0391864D02*
X0521294Y0391864D01*
X0521294Y0390052D01*
X0517672Y0390052D01*
X0517672Y0391862D02*
X0521294Y0391862D01*
D25*
X0299010Y0495891D03*
X0299010Y0521891D03*
D26*
X0376176Y0628576D03*
X0387987Y0628576D03*
X0618695Y0395111D03*
X0618695Y0383300D03*
X0398223Y0150623D03*
X0386412Y0150623D03*
X0164365Y0375426D03*
X0164365Y0387237D03*
D27*
X0466727Y0385466D03*
X0466727Y0377985D03*
X0476963Y0377985D03*
X0476963Y0381726D03*
X0476963Y0385466D03*
D28*
X0312987Y0432588D03*
X0311018Y0432588D03*
X0309050Y0432588D03*
X0307081Y0432588D03*
X0305113Y0432588D03*
X0303144Y0432588D03*
X0301176Y0432588D03*
X0299207Y0432588D03*
X0297239Y0432588D03*
X0295270Y0432588D03*
X0293302Y0432588D03*
X0291333Y0432588D03*
X0289365Y0432588D03*
X0287396Y0432588D03*
X0285428Y0432588D03*
X0283459Y0432588D03*
X0283459Y0471021D03*
X0285428Y0471021D03*
X0287396Y0471021D03*
X0289365Y0471021D03*
X0291333Y0471021D03*
X0293302Y0471021D03*
X0295270Y0471021D03*
X0297239Y0471021D03*
X0299207Y0471021D03*
X0301176Y0471021D03*
X0303144Y0471021D03*
X0305113Y0471021D03*
X0307081Y0471021D03*
X0309050Y0471021D03*
X0311018Y0471021D03*
X0312987Y0471021D03*
D29*
X0317440Y0466568D03*
X0317440Y0464600D03*
X0317440Y0462631D03*
X0317440Y0460663D03*
X0317440Y0458694D03*
X0317440Y0456726D03*
X0317440Y0454757D03*
X0317440Y0452789D03*
X0317440Y0450820D03*
X0317440Y0448852D03*
X0317440Y0446883D03*
X0317440Y0444915D03*
X0317440Y0442946D03*
X0317440Y0440978D03*
X0317440Y0439009D03*
X0317440Y0437041D03*
X0279006Y0437041D03*
X0279006Y0439009D03*
X0279006Y0440978D03*
X0279006Y0442946D03*
X0279006Y0444915D03*
X0279006Y0446883D03*
X0279006Y0448852D03*
X0279006Y0450820D03*
X0279006Y0452789D03*
X0279006Y0454757D03*
X0279006Y0456726D03*
X0279006Y0458694D03*
X0279006Y0460663D03*
X0279006Y0462631D03*
X0279006Y0464600D03*
X0279006Y0466568D03*
D30*
X0378764Y0393921D02*
X0378764Y0393467D01*
X0378764Y0393921D02*
X0383824Y0393921D01*
X0383824Y0393467D01*
X0378764Y0393467D01*
X0378764Y0393919D02*
X0383824Y0393919D01*
X0385122Y0392778D02*
X0385576Y0392778D01*
X0385122Y0392778D02*
X0385122Y0397838D01*
X0385576Y0397838D01*
X0385576Y0392778D01*
X0385576Y0393230D02*
X0385122Y0393230D01*
X0385122Y0393682D02*
X0385576Y0393682D01*
X0385576Y0394134D02*
X0385122Y0394134D01*
X0385122Y0394586D02*
X0385576Y0394586D01*
X0385576Y0395038D02*
X0385122Y0395038D01*
X0385122Y0395490D02*
X0385576Y0395490D01*
X0385576Y0395942D02*
X0385122Y0395942D01*
X0385122Y0396394D02*
X0385576Y0396394D01*
X0385576Y0396846D02*
X0385122Y0396846D01*
X0385122Y0397298D02*
X0385576Y0397298D01*
X0385576Y0397750D02*
X0385122Y0397750D01*
X0386882Y0392778D02*
X0387336Y0392778D01*
X0386882Y0392778D02*
X0386882Y0397838D01*
X0387336Y0397838D01*
X0387336Y0392778D01*
X0387336Y0393230D02*
X0386882Y0393230D01*
X0386882Y0393682D02*
X0387336Y0393682D01*
X0387336Y0394134D02*
X0386882Y0394134D01*
X0386882Y0394586D02*
X0387336Y0394586D01*
X0387336Y0395038D02*
X0386882Y0395038D01*
X0386882Y0395490D02*
X0387336Y0395490D01*
X0387336Y0395942D02*
X0386882Y0395942D01*
X0386882Y0396394D02*
X0387336Y0396394D01*
X0387336Y0396846D02*
X0386882Y0396846D01*
X0386882Y0397298D02*
X0387336Y0397298D01*
X0387336Y0397750D02*
X0386882Y0397750D01*
X0388638Y0392778D02*
X0389092Y0392778D01*
X0388638Y0392778D02*
X0388638Y0397838D01*
X0389092Y0397838D01*
X0389092Y0392778D01*
X0389092Y0393230D02*
X0388638Y0393230D01*
X0388638Y0393682D02*
X0389092Y0393682D01*
X0389092Y0394134D02*
X0388638Y0394134D01*
X0388638Y0394586D02*
X0389092Y0394586D01*
X0389092Y0395038D02*
X0388638Y0395038D01*
X0388638Y0395490D02*
X0389092Y0395490D01*
X0389092Y0395942D02*
X0388638Y0395942D01*
X0388638Y0396394D02*
X0389092Y0396394D01*
X0389092Y0396846D02*
X0388638Y0396846D01*
X0388638Y0397298D02*
X0389092Y0397298D01*
X0389092Y0397750D02*
X0388638Y0397750D01*
X0390398Y0392778D02*
X0390852Y0392778D01*
X0390398Y0392778D02*
X0390398Y0397838D01*
X0390852Y0397838D01*
X0390852Y0392778D01*
X0390852Y0393230D02*
X0390398Y0393230D01*
X0390398Y0393682D02*
X0390852Y0393682D01*
X0390852Y0394134D02*
X0390398Y0394134D01*
X0390398Y0394586D02*
X0390852Y0394586D01*
X0390852Y0395038D02*
X0390398Y0395038D01*
X0390398Y0395490D02*
X0390852Y0395490D01*
X0390852Y0395942D02*
X0390398Y0395942D01*
X0390398Y0396394D02*
X0390852Y0396394D01*
X0390852Y0396846D02*
X0390398Y0396846D01*
X0390398Y0397298D02*
X0390852Y0397298D01*
X0390852Y0397750D02*
X0390398Y0397750D01*
X0392150Y0393921D02*
X0392150Y0393467D01*
X0392150Y0393921D02*
X0397210Y0393921D01*
X0397210Y0393467D01*
X0392150Y0393467D01*
X0392150Y0393919D02*
X0397210Y0393919D01*
X0397210Y0392189D02*
X0397210Y0391735D01*
X0392150Y0391735D01*
X0392150Y0392189D01*
X0397210Y0392189D01*
X0397210Y0392187D02*
X0392150Y0392187D01*
X0392150Y0390457D02*
X0392150Y0390003D01*
X0392150Y0390457D02*
X0397210Y0390457D01*
X0397210Y0390003D01*
X0392150Y0390003D01*
X0392150Y0390455D02*
X0397210Y0390455D01*
X0392150Y0388724D02*
X0392150Y0388270D01*
X0392150Y0388724D02*
X0397210Y0388724D01*
X0397210Y0388270D01*
X0392150Y0388270D01*
X0392150Y0388722D02*
X0397210Y0388722D01*
X0392150Y0386992D02*
X0392150Y0386538D01*
X0392150Y0386992D02*
X0397210Y0386992D01*
X0397210Y0386538D01*
X0392150Y0386538D01*
X0392150Y0386990D02*
X0397210Y0386990D01*
X0392150Y0385260D02*
X0392150Y0384806D01*
X0392150Y0385260D02*
X0397210Y0385260D01*
X0397210Y0384806D01*
X0392150Y0384806D01*
X0392150Y0385258D02*
X0397210Y0385258D01*
X0392150Y0383527D02*
X0392150Y0383073D01*
X0392150Y0383527D02*
X0397210Y0383527D01*
X0397210Y0383073D01*
X0392150Y0383073D01*
X0392150Y0383525D02*
X0397210Y0383525D01*
X0392150Y0381795D02*
X0392150Y0381341D01*
X0392150Y0381795D02*
X0397210Y0381795D01*
X0397210Y0381341D01*
X0392150Y0381341D01*
X0392150Y0381793D02*
X0397210Y0381793D01*
X0390852Y0377424D02*
X0390398Y0377424D01*
X0390398Y0382484D01*
X0390852Y0382484D01*
X0390852Y0377424D01*
X0390852Y0377876D02*
X0390398Y0377876D01*
X0390398Y0378328D02*
X0390852Y0378328D01*
X0390852Y0378780D02*
X0390398Y0378780D01*
X0390398Y0379232D02*
X0390852Y0379232D01*
X0390852Y0379684D02*
X0390398Y0379684D01*
X0390398Y0380136D02*
X0390852Y0380136D01*
X0390852Y0380588D02*
X0390398Y0380588D01*
X0390398Y0381040D02*
X0390852Y0381040D01*
X0390852Y0381492D02*
X0390398Y0381492D01*
X0390398Y0381944D02*
X0390852Y0381944D01*
X0390852Y0382396D02*
X0390398Y0382396D01*
X0389092Y0377424D02*
X0388638Y0377424D01*
X0388638Y0382484D01*
X0389092Y0382484D01*
X0389092Y0377424D01*
X0389092Y0377876D02*
X0388638Y0377876D01*
X0388638Y0378328D02*
X0389092Y0378328D01*
X0389092Y0378780D02*
X0388638Y0378780D01*
X0388638Y0379232D02*
X0389092Y0379232D01*
X0389092Y0379684D02*
X0388638Y0379684D01*
X0388638Y0380136D02*
X0389092Y0380136D01*
X0389092Y0380588D02*
X0388638Y0380588D01*
X0388638Y0381040D02*
X0389092Y0381040D01*
X0389092Y0381492D02*
X0388638Y0381492D01*
X0388638Y0381944D02*
X0389092Y0381944D01*
X0389092Y0382396D02*
X0388638Y0382396D01*
X0387336Y0377424D02*
X0386882Y0377424D01*
X0386882Y0382484D01*
X0387336Y0382484D01*
X0387336Y0377424D01*
X0387336Y0377876D02*
X0386882Y0377876D01*
X0386882Y0378328D02*
X0387336Y0378328D01*
X0387336Y0378780D02*
X0386882Y0378780D01*
X0386882Y0379232D02*
X0387336Y0379232D01*
X0387336Y0379684D02*
X0386882Y0379684D01*
X0386882Y0380136D02*
X0387336Y0380136D01*
X0387336Y0380588D02*
X0386882Y0380588D01*
X0386882Y0381040D02*
X0387336Y0381040D01*
X0387336Y0381492D02*
X0386882Y0381492D01*
X0386882Y0381944D02*
X0387336Y0381944D01*
X0387336Y0382396D02*
X0386882Y0382396D01*
X0385576Y0377424D02*
X0385122Y0377424D01*
X0385122Y0382484D01*
X0385576Y0382484D01*
X0385576Y0377424D01*
X0385576Y0377876D02*
X0385122Y0377876D01*
X0385122Y0378328D02*
X0385576Y0378328D01*
X0385576Y0378780D02*
X0385122Y0378780D01*
X0385122Y0379232D02*
X0385576Y0379232D01*
X0385576Y0379684D02*
X0385122Y0379684D01*
X0385122Y0380136D02*
X0385576Y0380136D01*
X0385576Y0380588D02*
X0385122Y0380588D01*
X0385122Y0381040D02*
X0385576Y0381040D01*
X0385576Y0381492D02*
X0385122Y0381492D01*
X0385122Y0381944D02*
X0385576Y0381944D01*
X0385576Y0382396D02*
X0385122Y0382396D01*
X0378764Y0381795D02*
X0378764Y0381341D01*
X0378764Y0381795D02*
X0383824Y0381795D01*
X0383824Y0381341D01*
X0378764Y0381341D01*
X0378764Y0381793D02*
X0383824Y0381793D01*
X0378764Y0383073D02*
X0378764Y0383527D01*
X0383824Y0383527D01*
X0383824Y0383073D01*
X0378764Y0383073D01*
X0378764Y0383525D02*
X0383824Y0383525D01*
X0378764Y0384806D02*
X0378764Y0385260D01*
X0383824Y0385260D01*
X0383824Y0384806D01*
X0378764Y0384806D01*
X0378764Y0385258D02*
X0383824Y0385258D01*
X0378764Y0386538D02*
X0378764Y0386992D01*
X0383824Y0386992D01*
X0383824Y0386538D01*
X0378764Y0386538D01*
X0378764Y0386990D02*
X0383824Y0386990D01*
X0378764Y0388270D02*
X0378764Y0388724D01*
X0383824Y0388724D01*
X0383824Y0388270D01*
X0378764Y0388270D01*
X0378764Y0388722D02*
X0383824Y0388722D01*
X0378764Y0390003D02*
X0378764Y0390457D01*
X0383824Y0390457D01*
X0383824Y0390003D01*
X0378764Y0390003D01*
X0378764Y0390455D02*
X0383824Y0390455D01*
X0383824Y0391735D02*
X0383824Y0392189D01*
X0383824Y0391735D02*
X0378764Y0391735D01*
X0378764Y0392189D01*
X0383824Y0392189D01*
X0383824Y0392187D02*
X0378764Y0392187D01*
D31*
X0346412Y0444363D03*
X0337357Y0444363D03*
X0337357Y0458930D03*
X0346412Y0458930D03*
D32*
X0384247Y0457513D03*
X0384247Y0439796D03*
X0420073Y0439796D03*
X0420073Y0457513D03*
D33*
X0391097Y0660071D02*
X0387751Y0660071D01*
X0387751Y0661647D01*
X0391097Y0661647D01*
X0391097Y0660071D01*
X0391097Y0661645D02*
X0387751Y0661645D01*
X0377987Y0661647D02*
X0374641Y0661647D01*
X0377987Y0661647D02*
X0377987Y0660071D01*
X0374641Y0660071D01*
X0374641Y0661647D01*
X0374641Y0661645D02*
X0377987Y0661645D01*
X0136806Y0389560D02*
X0136806Y0386214D01*
X0135230Y0386214D01*
X0135230Y0389560D01*
X0136806Y0389560D01*
X0136806Y0387788D02*
X0135230Y0387788D01*
X0135230Y0389362D02*
X0136806Y0389362D01*
X0135230Y0376450D02*
X0135230Y0373104D01*
X0135230Y0376450D02*
X0136806Y0376450D01*
X0136806Y0373104D01*
X0135230Y0373104D01*
X0135230Y0374678D02*
X0136806Y0374678D01*
X0136806Y0376252D02*
X0135230Y0376252D01*
X0383696Y0125427D02*
X0387042Y0125427D01*
X0387042Y0123851D01*
X0383696Y0123851D01*
X0383696Y0125427D01*
X0383696Y0125425D02*
X0387042Y0125425D01*
X0396806Y0123851D02*
X0400152Y0123851D01*
X0396806Y0123851D02*
X0396806Y0125427D01*
X0400152Y0125427D01*
X0400152Y0123851D01*
X0400152Y0125425D02*
X0396806Y0125425D01*
X0649403Y0380978D02*
X0649403Y0384324D01*
X0650979Y0384324D01*
X0650979Y0380978D01*
X0649403Y0380978D01*
X0649403Y0382552D02*
X0650979Y0382552D01*
X0650979Y0384126D02*
X0649403Y0384126D01*
X0650979Y0394088D02*
X0650979Y0397434D01*
X0650979Y0394088D02*
X0649403Y0394088D01*
X0649403Y0397434D01*
X0650979Y0397434D01*
X0650979Y0395662D02*
X0649403Y0395662D01*
X0649403Y0397236D02*
X0650979Y0397236D01*
D34*
X0320270Y0479757D02*
X0303587Y0479757D01*
X0303587Y0480227D01*
X0304315Y0480227D01*
X0305135Y0481047D01*
X0305135Y0483041D01*
X0305175Y0483081D01*
X0305412Y0483491D01*
X0305535Y0483949D01*
X0305535Y0484875D01*
X0302160Y0484875D01*
X0302160Y0484875D01*
X0305535Y0484875D01*
X0305535Y0485801D01*
X0305412Y0486259D01*
X0305175Y0486669D01*
X0305135Y0486710D01*
X0305135Y0488703D01*
X0304315Y0489523D01*
X0300005Y0489523D01*
X0299185Y0488703D01*
X0299185Y0486710D01*
X0299145Y0486669D01*
X0298908Y0486259D01*
X0298836Y0485989D01*
X0298836Y0486144D01*
X0298825Y0486155D01*
X0298836Y0486165D01*
X0298836Y0488703D01*
X0298787Y0488752D01*
X0298787Y0492278D01*
X0298999Y0492491D01*
X0304590Y0492491D01*
X0305410Y0493311D01*
X0305410Y0497080D01*
X0320270Y0497080D01*
X0320270Y0479757D01*
X0320270Y0480345D02*
X0304432Y0480345D01*
X0305135Y0481943D02*
X0320270Y0481943D01*
X0320270Y0483542D02*
X0305426Y0483542D01*
X0305535Y0485140D02*
X0320270Y0485140D01*
X0320270Y0486739D02*
X0305135Y0486739D01*
X0305135Y0488337D02*
X0320270Y0488337D01*
X0320270Y0489936D02*
X0298787Y0489936D01*
X0298787Y0491534D02*
X0320270Y0491534D01*
X0320270Y0493133D02*
X0305232Y0493133D01*
X0305410Y0494731D02*
X0320270Y0494731D01*
X0320270Y0496330D02*
X0305410Y0496330D01*
X0299185Y0488337D02*
X0298836Y0488337D01*
X0298836Y0486739D02*
X0299185Y0486739D01*
X0294187Y0489831D02*
X0292639Y0489831D01*
X0291493Y0490978D01*
X0291493Y0493977D01*
X0290100Y0495370D01*
X0285834Y0495370D01*
X0284601Y0494136D01*
X0284530Y0494308D01*
X0284226Y0494763D01*
X0283839Y0495150D01*
X0283384Y0495454D01*
X0282878Y0495663D01*
X0282341Y0495770D01*
X0281183Y0495770D01*
X0281183Y0491437D01*
X0280657Y0491437D01*
X0280657Y0490911D01*
X0281183Y0490911D01*
X0281183Y0486579D01*
X0281183Y0483170D01*
X0280657Y0483170D01*
X0280657Y0490911D01*
X0276994Y0490911D01*
X0276994Y0489084D01*
X0277101Y0488547D01*
X0277310Y0488041D01*
X0277614Y0487586D01*
X0278001Y0487199D01*
X0278239Y0487041D01*
X0278001Y0486882D01*
X0277614Y0486495D01*
X0277310Y0486040D01*
X0277101Y0485534D01*
X0276994Y0484998D01*
X0276994Y0483170D01*
X0280657Y0483170D01*
X0280657Y0482644D01*
X0276994Y0482644D01*
X0276994Y0480816D01*
X0277101Y0480279D01*
X0277310Y0479774D01*
X0277321Y0479757D01*
X0265940Y0479757D01*
X0265940Y0497080D01*
X0292610Y0497080D01*
X0292610Y0493311D01*
X0293430Y0492491D01*
X0294187Y0492491D01*
X0294187Y0489831D01*
X0294187Y0489936D02*
X0292535Y0489936D01*
X0291493Y0491534D02*
X0294187Y0491534D01*
X0292789Y0493133D02*
X0291493Y0493133D01*
X0290738Y0494731D02*
X0292610Y0494731D01*
X0292610Y0496330D02*
X0265940Y0496330D01*
X0265940Y0494731D02*
X0277593Y0494731D01*
X0277614Y0494763D02*
X0277310Y0494308D01*
X0277101Y0493802D01*
X0276994Y0493265D01*
X0276994Y0491437D01*
X0280657Y0491437D01*
X0280657Y0495770D01*
X0279498Y0495770D01*
X0278961Y0495663D01*
X0278456Y0495454D01*
X0278001Y0495150D01*
X0277614Y0494763D01*
X0276994Y0493133D02*
X0265940Y0493133D01*
X0265940Y0491534D02*
X0276994Y0491534D01*
X0276994Y0489936D02*
X0265940Y0489936D01*
X0265940Y0488337D02*
X0277187Y0488337D01*
X0277858Y0486739D02*
X0265940Y0486739D01*
X0265940Y0485140D02*
X0277022Y0485140D01*
X0276994Y0483542D02*
X0265940Y0483542D01*
X0265940Y0481943D02*
X0276994Y0481943D01*
X0277088Y0480345D02*
X0265940Y0480345D01*
X0280657Y0483542D02*
X0281183Y0483542D01*
X0281183Y0485140D02*
X0280657Y0485140D01*
X0280657Y0486739D02*
X0281183Y0486739D01*
X0281183Y0488337D02*
X0280657Y0488337D01*
X0280657Y0489936D02*
X0281183Y0489936D01*
X0281183Y0491534D02*
X0280657Y0491534D01*
X0280657Y0493133D02*
X0281183Y0493133D01*
X0281183Y0494731D02*
X0280657Y0494731D01*
X0284246Y0494731D02*
X0285196Y0494731D01*
D35*
X0272239Y0492356D03*
X0272239Y0484482D03*
X0310821Y0484482D03*
X0317121Y0484482D03*
X0317121Y0493143D03*
X0310821Y0493143D03*
X0258066Y0354560D03*
X0258066Y0342749D03*
D36*
X0254187Y0344131D02*
X0257787Y0347731D01*
X0257787Y0354331D01*
X0258066Y0354560D01*
X0254187Y0344131D02*
X0254187Y0336331D01*
X0270387Y0320131D01*
X0270664Y0319915D01*
X0275487Y0294931D02*
X0270687Y0290131D01*
X0270664Y0289915D01*
X0275487Y0294931D02*
X0275487Y0402331D01*
X0273687Y0404131D01*
X0273687Y0444331D01*
X0273987Y0444631D01*
X0273987Y0444931D01*
X0275787Y0446731D01*
X0278787Y0446731D01*
X0279006Y0446883D01*
X0278787Y0448831D02*
X0279006Y0448852D01*
X0278787Y0448831D02*
X0273687Y0448831D01*
X0270687Y0445831D01*
X0274887Y0443731D02*
X0274887Y0410431D01*
X0277287Y0408031D01*
X0277287Y0286531D01*
X0270687Y0279931D01*
X0270664Y0279915D01*
X0321087Y0327031D02*
X0316887Y0331231D01*
X0316887Y0372631D01*
X0316884Y0372789D01*
X0311487Y0380731D02*
X0308187Y0377431D01*
X0301587Y0377431D01*
X0297087Y0372931D01*
X0296884Y0372789D01*
X0292587Y0368131D02*
X0302187Y0368131D01*
X0306687Y0372631D01*
X0306884Y0372789D01*
X0311487Y0380731D02*
X0311487Y0409831D01*
X0295287Y0426031D01*
X0295287Y0432331D01*
X0295270Y0432588D01*
X0293487Y0432331D02*
X0293487Y0426031D01*
X0306687Y0412831D01*
X0306687Y0382831D01*
X0306884Y0382789D01*
X0316587Y0382831D02*
X0316884Y0382789D01*
X0316587Y0382831D02*
X0316587Y0420931D01*
X0316314Y0421096D01*
X0316287Y0421231D01*
X0315387Y0421231D01*
X0307287Y0429331D01*
X0307287Y0432331D01*
X0307081Y0432588D01*
X0305187Y0432631D02*
X0305113Y0432588D01*
X0305187Y0432331D01*
X0305187Y0429331D01*
X0309087Y0425431D01*
X0309087Y0421231D01*
X0309266Y0421096D01*
X0313587Y0424831D02*
X0309087Y0429331D01*
X0309087Y0432331D01*
X0309050Y0432588D01*
X0311018Y0432588D02*
X0311187Y0432331D01*
X0311187Y0429331D01*
X0312087Y0428431D01*
X0319287Y0428431D01*
X0318387Y0424831D02*
X0313587Y0424831D01*
X0318387Y0424831D02*
X0365187Y0378031D01*
X0365187Y0319531D01*
X0356787Y0311131D01*
X0350187Y0311131D01*
X0340587Y0301531D01*
X0340587Y0286831D01*
X0326487Y0272731D01*
X0326254Y0272670D01*
X0324387Y0267931D02*
X0321087Y0271231D01*
X0321087Y0327031D01*
X0362199Y0334285D02*
X0362187Y0334531D01*
X0362187Y0343531D01*
X0325587Y0380131D01*
X0325587Y0380731D01*
X0293187Y0385831D02*
X0291987Y0384631D01*
X0291987Y0368731D01*
X0292587Y0368131D01*
X0293187Y0385831D02*
X0293187Y0424531D01*
X0291387Y0426331D01*
X0291387Y0432331D01*
X0291333Y0432588D01*
X0293302Y0432588D02*
X0293487Y0432331D01*
X0299187Y0432631D02*
X0299187Y0435631D01*
X0291387Y0443431D01*
X0291387Y0447931D01*
X0288087Y0451231D01*
X0288087Y0453931D01*
X0284187Y0453331D02*
X0288387Y0449131D01*
X0288387Y0446731D01*
X0286587Y0444931D01*
X0286587Y0436831D01*
X0286437Y0436681D01*
X0286287Y0436831D01*
X0284487Y0436831D01*
X0283587Y0435931D01*
X0283587Y0432631D01*
X0283459Y0432588D01*
X0285387Y0432331D02*
X0285428Y0432588D01*
X0285387Y0432331D02*
X0285387Y0429331D01*
X0283137Y0427081D01*
X0282987Y0427231D01*
X0280887Y0427231D01*
X0280587Y0427531D01*
X0282987Y0426931D02*
X0283137Y0427081D01*
X0282987Y0426931D02*
X0282987Y0422131D01*
X0282888Y0421883D01*
X0289887Y0422131D02*
X0289887Y0426931D01*
X0287487Y0429331D01*
X0287487Y0432331D01*
X0287396Y0432588D01*
X0287187Y0432631D01*
X0287187Y0435931D01*
X0286437Y0436681D01*
X0278787Y0444631D02*
X0279006Y0444915D01*
X0278787Y0444631D02*
X0275787Y0444631D01*
X0274887Y0443731D01*
X0274287Y0451231D02*
X0268887Y0451231D01*
X0268695Y0451037D01*
X0266487Y0454531D02*
X0262587Y0450631D01*
X0262587Y0403231D01*
X0266187Y0399631D01*
X0266373Y0399383D01*
X0266487Y0399331D01*
X0266487Y0394831D01*
X0266787Y0394531D01*
X0271887Y0401431D02*
X0266487Y0406831D01*
X0266373Y0406903D01*
X0289936Y0421883D02*
X0289887Y0422131D01*
X0299207Y0432588D02*
X0299187Y0432631D01*
X0301176Y0432588D02*
X0301287Y0432631D01*
X0301287Y0436231D01*
X0303687Y0438631D01*
X0305187Y0435631D02*
X0305187Y0432631D01*
X0303387Y0432331D02*
X0303144Y0432588D01*
X0303387Y0432331D02*
X0303387Y0425731D01*
X0305187Y0435631D02*
X0306987Y0437431D01*
X0306987Y0439531D01*
X0310587Y0443131D01*
X0313887Y0446431D01*
X0313887Y0447031D01*
X0314037Y0447181D01*
X0314187Y0447031D01*
X0317187Y0447031D01*
X0317440Y0446883D01*
X0317440Y0448852D02*
X0317187Y0449131D01*
X0314187Y0449131D01*
X0313287Y0450031D01*
X0313287Y0453631D01*
X0314187Y0454531D01*
X0317187Y0454531D01*
X0317440Y0454757D01*
X0317487Y0454831D01*
X0325887Y0454831D01*
X0337887Y0466831D01*
X0341787Y0466831D01*
X0345387Y0470431D01*
X0345447Y0470702D01*
X0344787Y0470131D01*
X0330687Y0484231D01*
X0317187Y0484231D01*
X0317121Y0484482D01*
X0302160Y0482316D02*
X0301887Y0482131D01*
X0301887Y0476731D01*
X0299487Y0474331D01*
X0299487Y0471031D01*
X0299207Y0471021D01*
X0300987Y0470731D02*
X0301176Y0471021D01*
X0300987Y0470731D02*
X0300987Y0467731D01*
X0300837Y0467581D01*
X0307587Y0460831D01*
X0311487Y0460831D01*
X0317187Y0460831D01*
X0317440Y0460663D01*
X0317487Y0458731D02*
X0317440Y0458694D01*
X0317487Y0458731D02*
X0320487Y0458731D01*
X0332187Y0470431D01*
X0338187Y0470431D01*
X0338400Y0470702D01*
X0345447Y0470702D02*
X0345687Y0470431D01*
X0348987Y0470431D01*
X0356787Y0462631D01*
X0356884Y0462415D01*
X0357087Y0462331D01*
X0360687Y0458731D01*
X0360687Y0457531D01*
X0384087Y0457531D01*
X0384247Y0457513D01*
X0384387Y0457531D01*
X0419787Y0457531D01*
X0420073Y0457513D01*
X0419787Y0439831D02*
X0420073Y0439796D01*
X0419787Y0439831D02*
X0384387Y0439831D01*
X0384247Y0439796D01*
X0384087Y0439831D01*
X0377187Y0439831D01*
X0378387Y0423331D02*
X0381687Y0423331D01*
X0384387Y0420631D01*
X0384387Y0419731D01*
X0393687Y0419731D01*
X0394887Y0418531D01*
X0394887Y0393931D01*
X0394680Y0393694D01*
X0394887Y0393931D02*
X0399087Y0393931D01*
X0400287Y0395131D01*
X0405387Y0395131D01*
X0406887Y0393631D01*
X0406887Y0390031D01*
X0405387Y0388531D01*
X0395187Y0388531D01*
X0394680Y0388497D01*
X0394887Y0388531D01*
X0394887Y0390031D01*
X0394680Y0390230D01*
X0394680Y0391962D02*
X0394887Y0392131D01*
X0402687Y0392131D01*
X0402947Y0391942D01*
X0402947Y0384895D02*
X0402987Y0384631D01*
X0402987Y0383131D01*
X0406887Y0379231D01*
X0406887Y0375031D01*
X0402687Y0370831D01*
X0402947Y0370328D01*
X0402687Y0370531D01*
X0390087Y0370531D01*
X0388887Y0371731D01*
X0388361Y0371489D01*
X0388587Y0371731D01*
X0388587Y0379831D01*
X0388865Y0379954D01*
X0388887Y0380131D01*
X0390387Y0380131D01*
X0390625Y0379954D01*
X0390687Y0380131D01*
X0391887Y0381331D01*
X0394587Y0381331D01*
X0394680Y0381568D01*
X0394887Y0381631D01*
X0394887Y0383131D01*
X0394680Y0383300D01*
X0394887Y0383431D01*
X0394887Y0384931D01*
X0394680Y0385033D01*
X0394887Y0386731D02*
X0394680Y0386765D01*
X0394887Y0386731D02*
X0397587Y0386731D01*
X0399087Y0385231D01*
X0399087Y0381031D01*
X0402687Y0377431D01*
X0402947Y0377375D01*
X0388865Y0379954D02*
X0388587Y0380131D01*
X0387387Y0380131D01*
X0387109Y0379954D01*
X0387087Y0380131D01*
X0385587Y0380131D01*
X0385349Y0379954D01*
X0385287Y0379831D01*
X0383787Y0379831D01*
X0381387Y0377431D01*
X0378387Y0374431D01*
X0372687Y0374431D01*
X0372632Y0374265D01*
X0369987Y0371131D02*
X0368787Y0372331D01*
X0368787Y0377431D01*
X0372387Y0381031D01*
X0372632Y0381312D01*
X0372687Y0381331D01*
X0377487Y0381331D01*
X0377487Y0389131D01*
X0378387Y0390031D01*
X0381087Y0390031D01*
X0381294Y0390230D01*
X0381387Y0390331D01*
X0381387Y0391831D01*
X0381294Y0391962D01*
X0381387Y0392131D01*
X0381387Y0393631D01*
X0381294Y0393694D01*
X0381687Y0393631D01*
X0382737Y0394681D01*
X0373437Y0403981D01*
X0373287Y0403831D01*
X0373437Y0403981D02*
X0371487Y0405931D01*
X0371487Y0416131D01*
X0371337Y0416281D01*
X0371187Y0416131D01*
X0369087Y0416131D01*
X0368873Y0415978D01*
X0371337Y0416281D02*
X0378387Y0423331D01*
X0380487Y0420031D02*
X0376587Y0416131D01*
X0376392Y0415978D01*
X0376587Y0415831D01*
X0376587Y0402631D01*
X0380187Y0399031D01*
X0386187Y0399031D01*
X0387087Y0398131D01*
X0387087Y0395431D01*
X0387109Y0395308D01*
X0388587Y0395431D02*
X0388865Y0395308D01*
X0388587Y0395431D02*
X0388587Y0403531D01*
X0388361Y0403773D01*
X0388287Y0403831D01*
X0388287Y0407731D01*
X0384687Y0411331D01*
X0384687Y0415831D01*
X0384621Y0415978D01*
X0384387Y0416131D01*
X0384387Y0419731D01*
X0391887Y0415831D02*
X0392140Y0415978D01*
X0391887Y0415831D02*
X0391887Y0410431D01*
X0390087Y0410431D01*
X0391887Y0410431D02*
X0391887Y0396631D01*
X0390687Y0395431D01*
X0390625Y0395308D01*
X0385349Y0395308D02*
X0385287Y0395131D01*
X0383187Y0395131D01*
X0382737Y0394681D01*
X0381294Y0381568D02*
X0381087Y0381331D01*
X0377487Y0381331D01*
X0375687Y0371431D02*
X0375387Y0371131D01*
X0369987Y0371131D01*
X0375687Y0371431D02*
X0381087Y0371431D01*
X0381314Y0371489D01*
X0381314Y0403773D02*
X0381387Y0403831D01*
X0381387Y0409531D01*
X0357087Y0440131D02*
X0356884Y0440013D01*
X0357087Y0440131D02*
X0357087Y0441631D01*
X0360687Y0445231D01*
X0360687Y0457531D01*
X0356884Y0455367D02*
X0356787Y0455131D01*
X0349887Y0455131D01*
X0348987Y0454231D01*
X0342087Y0454231D01*
X0337587Y0458731D01*
X0337357Y0458930D01*
X0337287Y0458731D01*
X0331587Y0453031D01*
X0317487Y0453031D01*
X0317440Y0452789D01*
X0317440Y0450820D02*
X0317487Y0450631D01*
X0340287Y0450631D01*
X0346287Y0444631D01*
X0346412Y0444363D01*
X0346587Y0444631D01*
X0348987Y0447031D01*
X0356787Y0447031D01*
X0356884Y0447060D01*
X0338487Y0435931D02*
X0494187Y0435931D01*
X0494187Y0397531D01*
X0494069Y0397474D01*
X0495687Y0393631D02*
X0498687Y0396631D01*
X0498687Y0441031D01*
X0507387Y0449731D01*
X0507672Y0449915D01*
X0507687Y0450031D01*
X0511887Y0454231D01*
X0511887Y0461731D01*
X0509487Y0464131D01*
X0507387Y0464131D01*
X0451887Y0519631D01*
X0374787Y0519631D01*
X0374601Y0519698D01*
X0317440Y0456726D02*
X0317187Y0456631D01*
X0314187Y0456631D01*
X0312087Y0454531D01*
X0312087Y0449131D01*
X0314037Y0447181D01*
X0317440Y0440978D02*
X0317487Y0440731D01*
X0333687Y0440731D01*
X0338487Y0435931D01*
X0327387Y0436231D02*
X0324687Y0438931D01*
X0317487Y0438931D01*
X0317440Y0439009D01*
X0317440Y0437041D02*
X0317487Y0436831D01*
X0322287Y0436831D01*
X0334587Y0424531D01*
X0461487Y0424531D01*
X0492387Y0393631D01*
X0495687Y0393631D01*
X0490587Y0390031D02*
X0492687Y0387931D01*
X0492687Y0381031D01*
X0495687Y0378031D01*
X0495841Y0377789D01*
X0488794Y0377789D02*
X0488787Y0378031D01*
X0488787Y0385831D01*
X0488794Y0386056D01*
X0488487Y0385831D01*
X0481587Y0385831D01*
X0479787Y0387631D01*
X0474387Y0387631D01*
X0473487Y0386731D01*
X0473487Y0381931D01*
X0465387Y0381931D01*
X0463287Y0384031D01*
X0463287Y0387031D01*
X0465687Y0389431D01*
X0467487Y0391231D01*
X0467487Y0393331D01*
X0467514Y0393537D01*
X0466887Y0385531D02*
X0466727Y0385466D01*
X0466887Y0385531D02*
X0470487Y0385531D01*
X0474987Y0390031D01*
X0490587Y0390031D01*
X0495841Y0386056D02*
X0495987Y0386131D01*
X0501087Y0386131D01*
X0476963Y0381726D02*
X0476787Y0381931D01*
X0473487Y0381931D01*
X0466727Y0377985D02*
X0466587Y0378031D01*
X0461487Y0378031D01*
X0494187Y0435931D02*
X0494187Y0446431D01*
X0507387Y0459631D01*
X0507672Y0459915D01*
X0390387Y0314431D02*
X0414087Y0290731D01*
X0414168Y0290584D01*
X0394287Y0270031D02*
X0394287Y0264631D01*
X0394069Y0264403D01*
X0361884Y0269068D02*
X0361587Y0268831D01*
X0348987Y0268831D01*
X0348087Y0267931D01*
X0324387Y0267931D01*
X0346254Y0272670D02*
X0346287Y0272731D01*
X0349587Y0276031D01*
X0361587Y0276031D01*
X0361884Y0276115D01*
X0252687Y0376231D02*
X0249687Y0373231D01*
X0248187Y0373231D01*
X0248046Y0373064D01*
X0285087Y0447931D02*
X0282387Y0450631D01*
X0279087Y0450631D01*
X0279006Y0450820D01*
X0278787Y0452731D02*
X0279006Y0452789D01*
X0279087Y0453031D01*
X0282387Y0453031D01*
X0282837Y0453481D01*
X0282987Y0453331D01*
X0284187Y0453331D01*
X0282987Y0453631D02*
X0282837Y0453481D01*
X0282987Y0453631D02*
X0282987Y0459631D01*
X0282837Y0459781D01*
X0282987Y0459931D01*
X0290787Y0459931D01*
X0296187Y0465331D01*
X0296187Y0466831D01*
X0296337Y0466981D01*
X0296487Y0466831D01*
X0300087Y0466831D01*
X0300837Y0467581D01*
X0296337Y0466981D02*
X0295287Y0468031D01*
X0295287Y0470731D01*
X0295270Y0471021D01*
X0294987Y0471031D01*
X0293487Y0471031D01*
X0293302Y0471021D01*
X0291387Y0470731D02*
X0291333Y0471021D01*
X0291387Y0470731D02*
X0291387Y0465031D01*
X0297087Y0471031D02*
X0297239Y0471021D01*
X0297087Y0471031D02*
X0297087Y0474331D01*
X0295887Y0475531D01*
X0295887Y0482131D01*
X0295861Y0482316D01*
X0295587Y0484831D02*
X0295861Y0484875D01*
X0295587Y0484831D02*
X0289887Y0484831D01*
X0288087Y0483031D01*
X0287967Y0482907D01*
X0280920Y0482907D02*
X0280287Y0482431D01*
X0280287Y0468031D01*
X0279087Y0466831D01*
X0279006Y0466568D01*
X0279087Y0466531D01*
X0279087Y0464731D01*
X0279006Y0464600D01*
X0278787Y0464431D01*
X0275787Y0464431D01*
X0274887Y0463531D01*
X0274887Y0461731D01*
X0275787Y0460831D01*
X0278787Y0460831D01*
X0279006Y0460663D01*
X0279087Y0460531D01*
X0282087Y0460531D01*
X0282837Y0459781D01*
X0279006Y0458694D02*
X0278787Y0458431D01*
X0278637Y0458281D01*
X0278787Y0458131D01*
X0278787Y0456931D01*
X0279006Y0456726D01*
X0278487Y0458131D02*
X0268887Y0458131D01*
X0268695Y0458084D01*
X0266487Y0454531D02*
X0278787Y0454531D01*
X0279006Y0454757D01*
X0278787Y0452731D02*
X0275787Y0452731D01*
X0274287Y0451231D01*
X0278487Y0458131D02*
X0278637Y0458281D01*
D37*
X0288087Y0453931D03*
X0285087Y0447931D03*
X0294687Y0447931D03*
X0303687Y0438631D03*
X0310587Y0443131D03*
X0319287Y0428431D03*
X0327387Y0436231D03*
X0303387Y0425731D03*
X0280587Y0427531D03*
X0270687Y0445831D03*
X0291387Y0465031D03*
X0311487Y0460831D03*
X0377187Y0439831D03*
X0380487Y0420031D03*
X0381387Y0409531D03*
X0390087Y0410431D03*
X0373287Y0403831D03*
X0381387Y0377431D03*
X0325587Y0380731D03*
X0325587Y0334531D03*
X0321987Y0330631D03*
X0342387Y0307831D03*
X0351387Y0307831D03*
X0330987Y0300631D03*
X0386787Y0242131D03*
X0394287Y0270031D03*
X0390387Y0314431D03*
X0445587Y0310831D03*
X0466887Y0288031D03*
X0461487Y0378031D03*
X0465687Y0389431D03*
X0501087Y0386131D03*
X0525087Y0390931D03*
X0514587Y0499831D03*
X0395787Y0602731D03*
X0388287Y0577831D03*
X0271887Y0401431D03*
X0266787Y0394531D03*
X0252687Y0376231D03*
X0211287Y0374431D03*
X0193287Y0395131D03*
D38*
X0186387Y0395131D01*
X0185546Y0395505D01*
X0185487Y0395431D01*
X0172887Y0395431D01*
X0165087Y0387631D01*
X0164365Y0387237D01*
X0164187Y0387331D01*
X0163887Y0387631D01*
X0136287Y0387631D01*
X0136018Y0387887D01*
X0136287Y0375031D02*
X0136018Y0374777D01*
X0136287Y0375031D02*
X0163887Y0375031D01*
X0164187Y0375331D01*
X0164365Y0375426D01*
X0165087Y0375931D01*
X0174987Y0385831D01*
X0232587Y0385831D01*
X0232672Y0386056D01*
X0240687Y0380431D02*
X0240687Y0373231D01*
X0240526Y0373064D01*
X0240087Y0374431D01*
X0223587Y0374431D01*
X0223400Y0374245D01*
X0216353Y0374245D02*
X0216087Y0374431D01*
X0211287Y0374431D01*
X0210387Y0395431D02*
X0210113Y0395505D01*
X0210387Y0395431D02*
X0236787Y0395431D01*
X0241887Y0390331D01*
X0242514Y0389796D01*
X0242787Y0389731D01*
X0243987Y0388531D01*
X0255687Y0388531D01*
X0255703Y0388241D01*
X0256287Y0387631D01*
X0262287Y0381631D01*
X0262287Y0349531D01*
X0258087Y0345331D01*
X0258087Y0342931D01*
X0258066Y0342749D01*
X0255703Y0380722D02*
X0255687Y0380731D01*
X0243987Y0380731D01*
X0243087Y0381631D01*
X0242514Y0382316D01*
X0242487Y0382231D01*
X0240687Y0380431D01*
X0321987Y0330631D02*
X0327987Y0324631D01*
X0358287Y0324631D01*
X0358459Y0324442D01*
X0354719Y0334285D02*
X0354687Y0334531D01*
X0325587Y0334531D01*
X0336806Y0307926D02*
X0336987Y0307831D01*
X0342387Y0307831D01*
X0351387Y0307831D02*
X0374487Y0307831D01*
X0374487Y0192331D01*
X0380787Y0186031D01*
X0380787Y0173431D01*
X0380900Y0172592D01*
X0381087Y0172531D01*
X0381087Y0156031D01*
X0385887Y0151231D01*
X0386412Y0150623D01*
X0386187Y0150331D01*
X0385587Y0149731D01*
X0385587Y0124831D01*
X0385369Y0124639D01*
X0398479Y0124639D02*
X0398487Y0124831D01*
X0398487Y0150331D01*
X0398223Y0150623D01*
X0398787Y0151231D01*
X0398787Y0214531D01*
X0399010Y0214600D01*
X0394587Y0223831D02*
X0395270Y0224442D01*
X0395187Y0224731D01*
X0395187Y0233131D01*
X0392487Y0235831D01*
X0391943Y0236450D01*
X0392187Y0236731D01*
X0386787Y0242131D01*
X0381687Y0247231D01*
X0381471Y0247474D01*
X0382587Y0247531D01*
X0386787Y0251731D01*
X0387687Y0251731D01*
X0397587Y0261631D01*
X0397587Y0266731D01*
X0399387Y0268531D01*
X0399687Y0268531D01*
X0414087Y0282931D01*
X0414168Y0283104D01*
X0424010Y0286844D02*
X0424287Y0287131D01*
X0465987Y0287131D01*
X0466887Y0288031D01*
X0445587Y0310831D02*
X0440187Y0310831D01*
X0439955Y0311037D01*
X0439887Y0318331D02*
X0439955Y0318556D01*
X0440487Y0319231D01*
X0448887Y0327631D01*
X0448887Y0353731D01*
X0449010Y0354560D01*
X0449187Y0354631D01*
X0468687Y0354631D01*
X0473787Y0359731D01*
X0473787Y0364531D01*
X0469887Y0368431D01*
X0469483Y0369108D01*
X0469587Y0369331D01*
X0476787Y0376531D01*
X0476787Y0377731D01*
X0476963Y0377985D01*
X0477687Y0378331D01*
X0479187Y0378331D01*
X0480387Y0379531D01*
X0486687Y0373231D01*
X0577587Y0373231D01*
X0584187Y0379831D01*
X0597087Y0379831D01*
X0597908Y0380151D01*
X0597987Y0380431D01*
X0615687Y0380431D01*
X0618087Y0382831D01*
X0618695Y0383300D01*
X0618987Y0383131D01*
X0619287Y0382831D01*
X0650187Y0382831D01*
X0650191Y0382651D01*
X0650187Y0395731D02*
X0650191Y0395761D01*
X0650187Y0395731D02*
X0619587Y0395731D01*
X0618987Y0395131D01*
X0618695Y0395111D01*
X0618087Y0394831D01*
X0554487Y0394831D01*
X0554325Y0394718D01*
X0545187Y0390631D02*
X0555387Y0380431D01*
X0573087Y0380431D01*
X0573341Y0380151D01*
X0545187Y0390631D02*
X0544483Y0390978D01*
X0544287Y0391231D01*
X0531687Y0391231D01*
X0530900Y0390800D01*
X0530787Y0390931D01*
X0525087Y0390931D01*
X0519687Y0390931D01*
X0519483Y0390958D01*
X0518787Y0391531D01*
X0491787Y0391531D01*
X0486987Y0396331D01*
X0465687Y0396331D01*
X0462841Y0393485D01*
X0462790Y0393537D01*
X0465152Y0393537D01*
X0462841Y0393485D02*
X0451287Y0381931D01*
X0453087Y0380131D01*
X0453087Y0378931D01*
X0469287Y0362731D01*
X0469287Y0362131D01*
X0469483Y0362060D01*
X0480387Y0379531D02*
X0480987Y0380131D01*
X0480987Y0383431D01*
X0479187Y0385231D01*
X0477087Y0385231D01*
X0476963Y0385466D01*
X0451287Y0381931D02*
X0445587Y0387631D01*
X0445487Y0387631D01*
X0445487Y0377631D02*
X0445587Y0377431D01*
X0445587Y0368131D01*
X0448887Y0364831D01*
X0449010Y0364560D01*
X0439887Y0318331D02*
X0388887Y0318331D01*
X0378387Y0307831D01*
X0374487Y0307831D01*
X0336806Y0300407D02*
X0336687Y0300631D01*
X0330987Y0300631D01*
X0389487Y0248131D02*
X0388991Y0247474D01*
X0389187Y0247231D01*
X0389187Y0246331D01*
X0398787Y0236731D01*
X0398991Y0236450D01*
X0399087Y0235531D01*
X0402687Y0231931D01*
X0402687Y0224731D01*
X0402751Y0224442D01*
X0394587Y0223831D02*
X0381087Y0210331D01*
X0381087Y0197431D01*
X0380900Y0197159D01*
X0389487Y0248131D02*
X0401487Y0260131D01*
X0401487Y0264331D01*
X0401589Y0264403D01*
X0501589Y0397474D02*
X0501687Y0397531D01*
X0518487Y0397531D01*
X0519387Y0398431D01*
X0519483Y0398478D01*
X0520287Y0398131D01*
X0530787Y0398131D01*
X0530900Y0397848D01*
X0531387Y0398731D01*
X0544287Y0398731D01*
X0544483Y0398458D01*
X0400979Y0528596D02*
X0400887Y0528631D01*
X0384687Y0544831D01*
X0384621Y0545899D01*
X0384087Y0546631D01*
X0372987Y0557731D01*
X0372987Y0568531D01*
X0372829Y0568537D01*
X0380310Y0568537D02*
X0380787Y0567931D01*
X0391587Y0557131D01*
X0391587Y0546631D01*
X0392140Y0545899D01*
X0392187Y0545731D01*
X0392187Y0544531D01*
X0400887Y0535831D01*
X0400979Y0535643D01*
X0384621Y0545899D02*
X0384387Y0545731D01*
X0374787Y0536131D01*
X0374787Y0527431D01*
X0374601Y0527218D01*
X0380310Y0568537D02*
X0380487Y0568831D01*
X0380487Y0570031D01*
X0388287Y0577831D01*
X0395787Y0585331D01*
X0395787Y0585931D01*
X0395861Y0585978D01*
X0395787Y0602731D02*
X0395787Y0609631D01*
X0395861Y0610545D01*
X0395787Y0610831D01*
X0395787Y0620731D01*
X0388587Y0627931D01*
X0387987Y0628576D01*
X0387987Y0628831D01*
X0389187Y0630031D01*
X0389187Y0660631D01*
X0389424Y0660859D01*
X0376314Y0660859D02*
X0376287Y0660631D01*
X0376287Y0628831D01*
X0376176Y0628576D01*
X0376587Y0627931D01*
X0376587Y0578431D01*
X0376569Y0578379D01*
X0299010Y0495891D02*
X0298887Y0495631D01*
X0296487Y0493231D01*
X0296487Y0488131D01*
X0295861Y0487434D01*
X0295587Y0487531D01*
X0291687Y0487531D01*
X0288087Y0491131D01*
X0287967Y0491174D01*
M02*
