%
M48
M72
T01C0.01500
T02C0.02362
T03C0.03937
T04C0.04000
T05C0.04331
T06C0.05512
%
T01
X290787Y337831
X315687Y354031
X290487Y371731
X307887Y396631
X313587Y408931
X309687Y414031
X304587Y412831
X303987Y417931
X294987Y414931
X289287Y409831
X293787Y432331
X301587Y441331
X309687Y432331
X313587Y435931
X318987Y432331
X335487Y438031
X340587Y434731
X331887Y450331
X313887Y450031
X298287Y458731
X281187Y448531
X325287Y411631
X328587Y403231
X379887Y445831
X395487Y443431
X360687Y460231
X385887Y410431
X407487Y399931
X389787Y356131
X463587Y369031
X471987Y381931
X477087Y389431
X482187Y378031
X525087Y390931
X514587Y495931
X514587Y505831
X396387Y540331
X389187Y645331
X150087Y387631
X211287Y374431
X252687Y376231
X386787Y242131
X385587Y137431
X634887Y382831
T02
X318302Y475033
X317908Y484088
X319483Y490781
X295861Y486450
X295861Y478576
X293499Y496293
X282869Y495899
X270664Y492749
X270664Y484482
X270664Y476214
X257278Y346686
X257672Y337631
T03
X445487Y377631
X445487Y387631
T04
X270664Y269915
X270664Y279915
X270664Y289915
X270664Y299915
X270664Y309915
X270664Y319915
X296254Y272670
X306254Y272670
X316254Y272670
X326254Y272670
X336254Y272670
X346254Y272670
X382199Y313458
X382199Y323458
X382199Y333458
X392199Y333458
X392199Y323458
X392199Y313458
T05
X449010Y354560
X449010Y364560
X508066Y425820
X508066Y435820
X508066Y445820
X508066Y455820
X508066Y465820
X508066Y475820
X508066Y485820
X508066Y495820
X508066Y505820
X508066Y515820
T06
X435428Y416568
X435428Y358694
X340546Y358694
X340546Y416568
M30
