G75*
%MOIN*%
%OFA0B0*%
%FSLAX25Y25*%
%IPPOS*%
%LPD*%
%AMOC8*
5,1,8,0,0,1.08239X$1,22.5*
%
%ADD10C,0.01600*%
%ADD11C,0.00500*%
%ADD12C,0.00400*%
%ADD13C,0.00000*%
%ADD14C,0.00472*%
%ADD15C,0.01181*%
%ADD16C,0.00600*%
D10*
X0248223Y0247867D02*
X0368302Y0247867D01*
X0368302Y0107016D01*
X0407672Y0106180D02*
X0407672Y0247867D01*
X0527751Y0247867D01*
X0527751Y0367946D01*
X0668602Y0367946D01*
X0669438Y0407316D02*
X0527751Y0407316D01*
X0527751Y0527395D01*
X0407672Y0527395D01*
X0407672Y0668247D01*
X0368302Y0669082D02*
X0368302Y0527395D01*
X0248223Y0527395D01*
X0248223Y0407316D01*
X0107371Y0407316D01*
X0106536Y0367946D02*
X0248223Y0367946D01*
X0248223Y0247867D01*
X0368301Y0107016D02*
X0367321Y0106552D01*
X0366352Y0106065D01*
X0365396Y0105554D01*
X0364452Y0105019D01*
X0363521Y0104462D01*
X0362605Y0103882D01*
X0361703Y0103280D01*
X0360816Y0102656D01*
X0359945Y0102010D01*
X0359089Y0101343D01*
X0358250Y0100656D01*
X0357429Y0099948D01*
X0356625Y0099220D01*
X0355839Y0098473D01*
X0355071Y0097707D01*
X0354323Y0096922D01*
X0353593Y0096119D01*
X0352884Y0095299D01*
X0352195Y0094461D01*
X0351527Y0093607D01*
X0350880Y0092736D01*
X0350255Y0091850D01*
X0349651Y0090949D01*
X0349070Y0090034D01*
X0348511Y0089104D01*
X0347975Y0088161D01*
X0347463Y0087206D01*
X0346974Y0086238D01*
X0346508Y0085258D01*
X0346067Y0084267D01*
X0345651Y0083266D01*
X0345259Y0082255D01*
X0344892Y0081234D01*
X0344550Y0080205D01*
X0344233Y0079168D01*
X0343942Y0078123D01*
X0343676Y0077071D01*
X0343436Y0076014D01*
X0343223Y0074950D01*
X0343035Y0073882D01*
X0342874Y0072810D01*
X0342739Y0071734D01*
X0342630Y0070655D01*
X0342548Y0069573D01*
X0342492Y0068490D01*
X0342463Y0067406D01*
X0342460Y0066322D01*
X0342484Y0065237D01*
X0342535Y0064154D01*
X0342612Y0063072D01*
X0342715Y0061993D01*
X0342845Y0060916D01*
X0343001Y0059843D01*
X0343184Y0058774D01*
X0343392Y0057709D01*
X0343627Y0056650D01*
X0343887Y0055598D01*
X0344173Y0054552D01*
X0344485Y0053513D01*
X0344822Y0052482D01*
X0345184Y0051460D01*
X0345571Y0050447D01*
X0345983Y0049443D01*
X0346420Y0048450D01*
X0346880Y0047468D01*
X0347364Y0046498D01*
X0347872Y0045540D01*
X0348404Y0044594D01*
X0348958Y0043662D01*
X0349535Y0042744D01*
X0350134Y0041840D01*
X0350755Y0040951D01*
X0351398Y0040077D01*
X0352062Y0039220D01*
X0352747Y0038379D01*
X0353452Y0037555D01*
X0354177Y0036749D01*
X0354922Y0035960D01*
X0355686Y0035190D01*
X0356468Y0034439D01*
X0357269Y0033708D01*
X0358087Y0032996D01*
X0358923Y0032304D01*
X0359775Y0031633D01*
X0360643Y0030984D01*
X0361527Y0030355D01*
X0362426Y0029749D01*
X0363340Y0029164D01*
X0364267Y0028603D01*
X0365209Y0028064D01*
X0366163Y0027548D01*
X0367129Y0027056D01*
X0368107Y0026588D01*
X0369097Y0026144D01*
X0370097Y0025724D01*
X0371107Y0025328D01*
X0372126Y0024958D01*
X0373154Y0024613D01*
X0382063Y0051895D01*
X0393477Y0051059D02*
X0400715Y0023221D01*
X0400714Y0023221D02*
X0401758Y0023530D01*
X0402793Y0023865D01*
X0403820Y0024225D01*
X0404837Y0024610D01*
X0405845Y0025020D01*
X0406843Y0025454D01*
X0407829Y0025913D01*
X0408805Y0026395D01*
X0409768Y0026902D01*
X0410718Y0027431D01*
X0411655Y0027984D01*
X0412578Y0028560D01*
X0413487Y0029158D01*
X0414382Y0029778D01*
X0415260Y0030419D01*
X0416123Y0031082D01*
X0416969Y0031766D01*
X0417798Y0032471D01*
X0418610Y0033195D01*
X0419404Y0033939D01*
X0420179Y0034703D01*
X0420935Y0035485D01*
X0421673Y0036285D01*
X0422390Y0037103D01*
X0423087Y0037939D01*
X0423763Y0038791D01*
X0424418Y0039660D01*
X0425052Y0040544D01*
X0425664Y0041443D01*
X0426254Y0042358D01*
X0426822Y0043286D01*
X0427366Y0044228D01*
X0427887Y0045183D01*
X0428385Y0046151D01*
X0428859Y0047130D01*
X0429309Y0048121D01*
X0429734Y0049122D01*
X0430135Y0050134D01*
X0430511Y0051155D01*
X0430862Y0052185D01*
X0431187Y0053223D01*
X0431487Y0054269D01*
X0431762Y0055322D01*
X0432010Y0056381D01*
X0432233Y0057446D01*
X0432429Y0058516D01*
X0432599Y0059591D01*
X0432743Y0060669D01*
X0432861Y0061751D01*
X0432952Y0062835D01*
X0433016Y0063921D01*
X0433054Y0065009D01*
X0433065Y0066097D01*
X0433049Y0067184D01*
X0433007Y0068272D01*
X0432939Y0069358D01*
X0432844Y0070441D01*
X0432722Y0071523D01*
X0432574Y0072601D01*
X0432399Y0073674D01*
X0432199Y0074744D01*
X0431972Y0075808D01*
X0431719Y0076866D01*
X0431441Y0077918D01*
X0431137Y0078963D01*
X0430807Y0080000D01*
X0430452Y0081028D01*
X0430072Y0082048D01*
X0429667Y0083058D01*
X0429238Y0084057D01*
X0428784Y0085046D01*
X0428307Y0086024D01*
X0427805Y0086989D01*
X0427280Y0087942D01*
X0426732Y0088882D01*
X0426161Y0089808D01*
X0425567Y0090720D01*
X0424952Y0091617D01*
X0424314Y0092499D01*
X0423656Y0093365D01*
X0422976Y0094215D01*
X0422276Y0095048D01*
X0421555Y0095863D01*
X0420815Y0096660D01*
X0420056Y0097439D01*
X0419277Y0098200D01*
X0418481Y0098941D01*
X0417666Y0099662D01*
X0416834Y0100363D01*
X0415985Y0101044D01*
X0415120Y0101703D01*
X0414239Y0102342D01*
X0413342Y0102958D01*
X0412431Y0103553D01*
X0411505Y0104124D01*
X0410566Y0104674D01*
X0409613Y0105200D01*
X0408648Y0105702D01*
X0407671Y0106181D01*
X0393477Y0051060D02*
X0393863Y0051177D01*
X0394247Y0051303D01*
X0394627Y0051438D01*
X0395004Y0051583D01*
X0395377Y0051737D01*
X0395746Y0051900D01*
X0396111Y0052072D01*
X0396472Y0052252D01*
X0396828Y0052442D01*
X0397180Y0052640D01*
X0397527Y0052847D01*
X0397868Y0053062D01*
X0398204Y0053285D01*
X0398535Y0053517D01*
X0398859Y0053756D01*
X0399178Y0054004D01*
X0399491Y0054259D01*
X0399797Y0054522D01*
X0400097Y0054792D01*
X0400390Y0055069D01*
X0400676Y0055354D01*
X0400956Y0055645D01*
X0401228Y0055943D01*
X0401492Y0056248D01*
X0401749Y0056559D01*
X0401999Y0056876D01*
X0402240Y0057200D01*
X0402474Y0057529D01*
X0402700Y0057863D01*
X0402917Y0058203D01*
X0403126Y0058549D01*
X0403326Y0058899D01*
X0403518Y0059254D01*
X0403701Y0059614D01*
X0403875Y0059978D01*
X0404040Y0060346D01*
X0404196Y0060718D01*
X0404343Y0061094D01*
X0404481Y0061474D01*
X0404610Y0061856D01*
X0404729Y0062242D01*
X0404838Y0062630D01*
X0404938Y0063021D01*
X0405029Y0063414D01*
X0405110Y0063810D01*
X0405181Y0064207D01*
X0405242Y0064606D01*
X0405294Y0065006D01*
X0405336Y0065408D01*
X0405368Y0065810D01*
X0405390Y0066213D01*
X0405402Y0066616D01*
X0405405Y0067020D01*
X0405397Y0067423D01*
X0405380Y0067827D01*
X0405353Y0068229D01*
X0405316Y0068631D01*
X0405269Y0069032D01*
X0405212Y0069431D01*
X0405146Y0069830D01*
X0405070Y0070226D01*
X0404984Y0070620D01*
X0404889Y0071012D01*
X0404784Y0071402D01*
X0404670Y0071789D01*
X0404546Y0072173D01*
X0404413Y0072554D01*
X0404270Y0072932D01*
X0404119Y0073306D01*
X0403958Y0073676D01*
X0403788Y0074042D01*
X0403610Y0074404D01*
X0403422Y0074761D01*
X0403226Y0075114D01*
X0403021Y0075462D01*
X0402808Y0075805D01*
X0402587Y0076142D01*
X0402357Y0076474D01*
X0402120Y0076800D01*
X0401874Y0077120D01*
X0401621Y0077435D01*
X0401360Y0077742D01*
X0401091Y0078044D01*
X0400816Y0078339D01*
X0400533Y0078627D01*
X0400243Y0078907D01*
X0399947Y0079181D01*
X0399643Y0079448D01*
X0399334Y0079707D01*
X0399018Y0079958D01*
X0398696Y0080201D01*
X0398369Y0080437D01*
X0398035Y0080664D01*
X0397696Y0080884D01*
X0397352Y0081095D01*
X0397003Y0081297D01*
X0396649Y0081491D01*
X0396291Y0081676D01*
X0395928Y0081852D01*
X0395560Y0082020D01*
X0395189Y0082178D01*
X0394814Y0082327D01*
X0394436Y0082467D01*
X0394054Y0082598D01*
X0393669Y0082719D01*
X0393281Y0082831D01*
X0392891Y0082933D01*
X0392498Y0083026D01*
X0392103Y0083109D01*
X0391706Y0083183D01*
X0391308Y0083246D01*
X0390908Y0083300D01*
X0390507Y0083345D01*
X0390104Y0083379D01*
X0389702Y0083404D01*
X0389298Y0083418D01*
X0388895Y0083423D01*
X0388491Y0083418D01*
X0388088Y0083403D01*
X0387685Y0083378D01*
X0387283Y0083344D01*
X0386882Y0083299D01*
X0386482Y0083245D01*
X0386084Y0083181D01*
X0385687Y0083107D01*
X0385292Y0083024D01*
X0384899Y0082931D01*
X0384509Y0082828D01*
X0384121Y0082716D01*
X0383736Y0082594D01*
X0383355Y0082464D01*
X0382976Y0082323D01*
X0382601Y0082174D01*
X0382230Y0082015D01*
X0381863Y0081848D01*
X0381500Y0081671D01*
X0381142Y0081486D01*
X0380788Y0081292D01*
X0380439Y0081089D01*
X0380095Y0080878D01*
X0379756Y0080659D01*
X0379423Y0080431D01*
X0379095Y0080195D01*
X0378774Y0079951D01*
X0378458Y0079700D01*
X0378149Y0079441D01*
X0377846Y0079174D01*
X0377549Y0078900D01*
X0377260Y0078619D01*
X0376977Y0078331D01*
X0376702Y0078036D01*
X0376433Y0077735D01*
X0376173Y0077427D01*
X0375920Y0077112D01*
X0375674Y0076792D01*
X0375437Y0076466D01*
X0375207Y0076133D01*
X0374986Y0075796D01*
X0374773Y0075453D01*
X0374569Y0075105D01*
X0374373Y0074752D01*
X0374186Y0074395D01*
X0374007Y0074033D01*
X0373838Y0073667D01*
X0373677Y0073296D01*
X0373526Y0072922D01*
X0373384Y0072544D01*
X0373251Y0072163D01*
X0373127Y0071779D01*
X0373013Y0071392D01*
X0372908Y0071002D01*
X0372813Y0070610D01*
X0372728Y0070216D01*
X0372652Y0069819D01*
X0372586Y0069421D01*
X0372530Y0069022D01*
X0372483Y0068621D01*
X0372446Y0068219D01*
X0372419Y0067816D01*
X0372402Y0067413D01*
X0372395Y0067009D01*
X0372398Y0066606D01*
X0372411Y0066202D01*
X0372433Y0065799D01*
X0372465Y0065397D01*
X0372507Y0064996D01*
X0372559Y0064596D01*
X0372621Y0064197D01*
X0372692Y0063800D01*
X0372773Y0063404D01*
X0372864Y0063011D01*
X0372964Y0062620D01*
X0373074Y0062232D01*
X0373194Y0061846D01*
X0373322Y0061464D01*
X0373460Y0061084D01*
X0373608Y0060709D01*
X0373764Y0060337D01*
X0373929Y0059969D01*
X0374104Y0059605D01*
X0374287Y0059245D01*
X0374479Y0058890D01*
X0374680Y0058540D01*
X0374889Y0058195D01*
X0375106Y0057855D01*
X0375332Y0057520D01*
X0375566Y0057191D01*
X0375807Y0056868D01*
X0376057Y0056551D01*
X0376314Y0056240D01*
X0376579Y0055936D01*
X0376851Y0055638D01*
X0377131Y0055346D01*
X0377417Y0055062D01*
X0377711Y0054785D01*
X0378011Y0054515D01*
X0378317Y0054252D01*
X0378630Y0053997D01*
X0378949Y0053750D01*
X0379274Y0053511D01*
X0379605Y0053279D01*
X0379941Y0053056D01*
X0380282Y0052841D01*
X0380629Y0052635D01*
X0380981Y0052437D01*
X0381337Y0052248D01*
X0381698Y0052067D01*
X0382063Y0051895D01*
X0051415Y0382141D02*
X0051532Y0381755D01*
X0051658Y0381371D01*
X0051793Y0380991D01*
X0051938Y0380614D01*
X0052092Y0380241D01*
X0052255Y0379872D01*
X0052427Y0379507D01*
X0052607Y0379146D01*
X0052797Y0378790D01*
X0052995Y0378438D01*
X0053202Y0378091D01*
X0053417Y0377750D01*
X0053640Y0377414D01*
X0053872Y0377083D01*
X0054111Y0376759D01*
X0054359Y0376440D01*
X0054614Y0376127D01*
X0054877Y0375821D01*
X0055147Y0375521D01*
X0055424Y0375228D01*
X0055709Y0374942D01*
X0056000Y0374662D01*
X0056298Y0374390D01*
X0056603Y0374126D01*
X0056914Y0373869D01*
X0057231Y0373619D01*
X0057555Y0373378D01*
X0057884Y0373144D01*
X0058218Y0372918D01*
X0058558Y0372701D01*
X0058904Y0372492D01*
X0059254Y0372292D01*
X0059609Y0372100D01*
X0059969Y0371917D01*
X0060333Y0371743D01*
X0060701Y0371578D01*
X0061073Y0371422D01*
X0061449Y0371275D01*
X0061829Y0371137D01*
X0062211Y0371008D01*
X0062597Y0370889D01*
X0062985Y0370780D01*
X0063376Y0370680D01*
X0063769Y0370589D01*
X0064165Y0370508D01*
X0064562Y0370437D01*
X0064961Y0370376D01*
X0065361Y0370324D01*
X0065763Y0370282D01*
X0066165Y0370250D01*
X0066568Y0370228D01*
X0066971Y0370216D01*
X0067375Y0370213D01*
X0067778Y0370221D01*
X0068182Y0370238D01*
X0068584Y0370265D01*
X0068986Y0370302D01*
X0069387Y0370349D01*
X0069786Y0370406D01*
X0070185Y0370472D01*
X0070581Y0370548D01*
X0070975Y0370634D01*
X0071367Y0370729D01*
X0071757Y0370834D01*
X0072144Y0370948D01*
X0072528Y0371072D01*
X0072909Y0371205D01*
X0073287Y0371348D01*
X0073661Y0371499D01*
X0074031Y0371660D01*
X0074397Y0371830D01*
X0074759Y0372008D01*
X0075116Y0372196D01*
X0075469Y0372392D01*
X0075817Y0372597D01*
X0076160Y0372810D01*
X0076497Y0373031D01*
X0076829Y0373261D01*
X0077155Y0373498D01*
X0077475Y0373744D01*
X0077790Y0373997D01*
X0078097Y0374258D01*
X0078399Y0374527D01*
X0078694Y0374802D01*
X0078982Y0375085D01*
X0079262Y0375375D01*
X0079536Y0375671D01*
X0079803Y0375975D01*
X0080062Y0376284D01*
X0080313Y0376600D01*
X0080556Y0376922D01*
X0080792Y0377249D01*
X0081019Y0377583D01*
X0081239Y0377922D01*
X0081450Y0378266D01*
X0081652Y0378615D01*
X0081846Y0378969D01*
X0082031Y0379327D01*
X0082207Y0379690D01*
X0082375Y0380058D01*
X0082533Y0380429D01*
X0082682Y0380804D01*
X0082822Y0381182D01*
X0082953Y0381564D01*
X0083074Y0381949D01*
X0083186Y0382337D01*
X0083288Y0382727D01*
X0083381Y0383120D01*
X0083464Y0383515D01*
X0083538Y0383912D01*
X0083601Y0384310D01*
X0083655Y0384710D01*
X0083700Y0385111D01*
X0083734Y0385514D01*
X0083759Y0385916D01*
X0083773Y0386320D01*
X0083778Y0386723D01*
X0083773Y0387127D01*
X0083758Y0387530D01*
X0083733Y0387933D01*
X0083699Y0388335D01*
X0083654Y0388736D01*
X0083600Y0389136D01*
X0083536Y0389534D01*
X0083462Y0389931D01*
X0083379Y0390326D01*
X0083286Y0390719D01*
X0083183Y0391109D01*
X0083071Y0391497D01*
X0082949Y0391882D01*
X0082819Y0392263D01*
X0082678Y0392642D01*
X0082529Y0393017D01*
X0082370Y0393388D01*
X0082203Y0393755D01*
X0082026Y0394118D01*
X0081841Y0394476D01*
X0081647Y0394830D01*
X0081444Y0395179D01*
X0081233Y0395523D01*
X0081014Y0395862D01*
X0080786Y0396195D01*
X0080550Y0396523D01*
X0080306Y0396844D01*
X0080055Y0397160D01*
X0079796Y0397469D01*
X0079529Y0397772D01*
X0079255Y0398069D01*
X0078974Y0398358D01*
X0078686Y0398641D01*
X0078391Y0398916D01*
X0078090Y0399185D01*
X0077782Y0399445D01*
X0077467Y0399698D01*
X0077147Y0399944D01*
X0076821Y0400181D01*
X0076488Y0400411D01*
X0076151Y0400632D01*
X0075808Y0400845D01*
X0075460Y0401049D01*
X0075107Y0401245D01*
X0074750Y0401432D01*
X0074388Y0401611D01*
X0074022Y0401780D01*
X0073651Y0401941D01*
X0073277Y0402092D01*
X0072899Y0402234D01*
X0072518Y0402367D01*
X0072134Y0402491D01*
X0071747Y0402605D01*
X0071357Y0402710D01*
X0070965Y0402805D01*
X0070571Y0402890D01*
X0070174Y0402966D01*
X0069776Y0403032D01*
X0069377Y0403088D01*
X0068976Y0403135D01*
X0068574Y0403172D01*
X0068171Y0403199D01*
X0067768Y0403216D01*
X0067364Y0403223D01*
X0066961Y0403220D01*
X0066557Y0403207D01*
X0066154Y0403185D01*
X0065752Y0403153D01*
X0065351Y0403111D01*
X0064951Y0403059D01*
X0064552Y0402997D01*
X0064155Y0402926D01*
X0063759Y0402845D01*
X0063366Y0402754D01*
X0062975Y0402654D01*
X0062587Y0402544D01*
X0062201Y0402424D01*
X0061819Y0402296D01*
X0061439Y0402158D01*
X0061064Y0402010D01*
X0060692Y0401854D01*
X0060324Y0401689D01*
X0059960Y0401514D01*
X0059600Y0401331D01*
X0059245Y0401139D01*
X0058895Y0400938D01*
X0058550Y0400729D01*
X0058210Y0400512D01*
X0057875Y0400286D01*
X0057546Y0400052D01*
X0057223Y0399811D01*
X0056906Y0399561D01*
X0056595Y0399304D01*
X0056291Y0399039D01*
X0055993Y0398767D01*
X0055701Y0398487D01*
X0055417Y0398201D01*
X0055140Y0397907D01*
X0054870Y0397607D01*
X0054607Y0397301D01*
X0054352Y0396988D01*
X0054105Y0396669D01*
X0053866Y0396344D01*
X0053634Y0396013D01*
X0053411Y0395677D01*
X0053196Y0395336D01*
X0052990Y0394989D01*
X0052792Y0394637D01*
X0052603Y0394281D01*
X0052422Y0393920D01*
X0052250Y0393555D01*
X0024968Y0402463D01*
X0023576Y0374903D02*
X0051415Y0382141D01*
X0023576Y0374903D02*
X0023885Y0373859D01*
X0024220Y0372824D01*
X0024580Y0371797D01*
X0024965Y0370780D01*
X0025375Y0369772D01*
X0025809Y0368774D01*
X0026268Y0367788D01*
X0026750Y0366812D01*
X0027257Y0365849D01*
X0027786Y0364899D01*
X0028339Y0363962D01*
X0028915Y0363039D01*
X0029513Y0362130D01*
X0030133Y0361235D01*
X0030774Y0360357D01*
X0031437Y0359494D01*
X0032121Y0358648D01*
X0032826Y0357819D01*
X0033550Y0357007D01*
X0034294Y0356213D01*
X0035058Y0355438D01*
X0035840Y0354682D01*
X0036640Y0353944D01*
X0037458Y0353227D01*
X0038294Y0352530D01*
X0039146Y0351854D01*
X0040015Y0351199D01*
X0040899Y0350565D01*
X0041798Y0349953D01*
X0042713Y0349363D01*
X0043641Y0348795D01*
X0044583Y0348251D01*
X0045538Y0347730D01*
X0046506Y0347232D01*
X0047485Y0346758D01*
X0048476Y0346308D01*
X0049477Y0345883D01*
X0050489Y0345482D01*
X0051510Y0345106D01*
X0052540Y0344755D01*
X0053578Y0344430D01*
X0054624Y0344130D01*
X0055677Y0343855D01*
X0056736Y0343607D01*
X0057801Y0343384D01*
X0058871Y0343188D01*
X0059946Y0343018D01*
X0061024Y0342874D01*
X0062106Y0342756D01*
X0063190Y0342665D01*
X0064276Y0342601D01*
X0065364Y0342563D01*
X0066452Y0342552D01*
X0067539Y0342568D01*
X0068627Y0342610D01*
X0069713Y0342678D01*
X0070796Y0342773D01*
X0071878Y0342895D01*
X0072956Y0343043D01*
X0074029Y0343218D01*
X0075099Y0343418D01*
X0076163Y0343645D01*
X0077221Y0343898D01*
X0078273Y0344176D01*
X0079318Y0344480D01*
X0080355Y0344810D01*
X0081383Y0345165D01*
X0082403Y0345545D01*
X0083413Y0345950D01*
X0084412Y0346379D01*
X0085401Y0346833D01*
X0086379Y0347310D01*
X0087344Y0347812D01*
X0088297Y0348337D01*
X0089237Y0348885D01*
X0090163Y0349456D01*
X0091075Y0350050D01*
X0091972Y0350665D01*
X0092854Y0351303D01*
X0093720Y0351961D01*
X0094570Y0352641D01*
X0095403Y0353341D01*
X0096218Y0354062D01*
X0097015Y0354802D01*
X0097794Y0355561D01*
X0098555Y0356340D01*
X0099296Y0357136D01*
X0100017Y0357951D01*
X0100718Y0358783D01*
X0101399Y0359632D01*
X0102058Y0360497D01*
X0102697Y0361378D01*
X0103313Y0362275D01*
X0103908Y0363186D01*
X0104479Y0364112D01*
X0105029Y0365051D01*
X0105555Y0366004D01*
X0106057Y0366969D01*
X0106536Y0367946D01*
X0107371Y0407317D02*
X0106907Y0408297D01*
X0106420Y0409266D01*
X0105909Y0410222D01*
X0105374Y0411166D01*
X0104817Y0412097D01*
X0104237Y0413013D01*
X0103635Y0413915D01*
X0103011Y0414802D01*
X0102365Y0415673D01*
X0101698Y0416529D01*
X0101011Y0417368D01*
X0100303Y0418189D01*
X0099575Y0418993D01*
X0098828Y0419779D01*
X0098062Y0420547D01*
X0097277Y0421295D01*
X0096474Y0422025D01*
X0095654Y0422734D01*
X0094816Y0423423D01*
X0093962Y0424091D01*
X0093091Y0424738D01*
X0092205Y0425363D01*
X0091304Y0425967D01*
X0090389Y0426548D01*
X0089459Y0427107D01*
X0088516Y0427643D01*
X0087561Y0428155D01*
X0086593Y0428644D01*
X0085613Y0429110D01*
X0084622Y0429551D01*
X0083621Y0429967D01*
X0082610Y0430359D01*
X0081589Y0430726D01*
X0080560Y0431068D01*
X0079523Y0431385D01*
X0078478Y0431676D01*
X0077426Y0431942D01*
X0076369Y0432182D01*
X0075305Y0432395D01*
X0074237Y0432583D01*
X0073165Y0432744D01*
X0072089Y0432879D01*
X0071010Y0432988D01*
X0069928Y0433070D01*
X0068845Y0433126D01*
X0067761Y0433155D01*
X0066677Y0433158D01*
X0065592Y0433134D01*
X0064509Y0433083D01*
X0063427Y0433006D01*
X0062348Y0432903D01*
X0061271Y0432773D01*
X0060198Y0432617D01*
X0059129Y0432434D01*
X0058064Y0432226D01*
X0057005Y0431991D01*
X0055953Y0431731D01*
X0054907Y0431445D01*
X0053868Y0431133D01*
X0052837Y0430796D01*
X0051815Y0430434D01*
X0050802Y0430047D01*
X0049798Y0429635D01*
X0048805Y0429198D01*
X0047823Y0428738D01*
X0046853Y0428254D01*
X0045895Y0427746D01*
X0044949Y0427214D01*
X0044017Y0426660D01*
X0043099Y0426083D01*
X0042195Y0425484D01*
X0041306Y0424863D01*
X0040432Y0424220D01*
X0039575Y0423556D01*
X0038734Y0422871D01*
X0037910Y0422166D01*
X0037104Y0421441D01*
X0036315Y0420696D01*
X0035545Y0419932D01*
X0034794Y0419150D01*
X0034063Y0418349D01*
X0033351Y0417531D01*
X0032659Y0416695D01*
X0031988Y0415843D01*
X0031339Y0414975D01*
X0030710Y0414091D01*
X0030104Y0413192D01*
X0029519Y0412278D01*
X0028958Y0411351D01*
X0028419Y0410409D01*
X0027903Y0409455D01*
X0027411Y0408489D01*
X0026943Y0407511D01*
X0026499Y0406521D01*
X0026079Y0405521D01*
X0025683Y0404511D01*
X0025313Y0403492D01*
X0024968Y0402464D01*
X0382497Y0724203D02*
X0375259Y0752042D01*
X0402819Y0750650D02*
X0393911Y0723368D01*
X0375259Y0752042D02*
X0374215Y0751733D01*
X0373180Y0751398D01*
X0372153Y0751038D01*
X0371136Y0750653D01*
X0370128Y0750243D01*
X0369130Y0749809D01*
X0368144Y0749350D01*
X0367168Y0748868D01*
X0366205Y0748361D01*
X0365255Y0747832D01*
X0364318Y0747279D01*
X0363395Y0746703D01*
X0362486Y0746105D01*
X0361591Y0745485D01*
X0360713Y0744844D01*
X0359850Y0744181D01*
X0359004Y0743497D01*
X0358175Y0742792D01*
X0357363Y0742068D01*
X0356569Y0741324D01*
X0355794Y0740560D01*
X0355038Y0739778D01*
X0354300Y0738978D01*
X0353583Y0738160D01*
X0352886Y0737324D01*
X0352210Y0736472D01*
X0351555Y0735603D01*
X0350921Y0734719D01*
X0350309Y0733820D01*
X0349719Y0732905D01*
X0349151Y0731977D01*
X0348607Y0731035D01*
X0348086Y0730080D01*
X0347588Y0729112D01*
X0347114Y0728133D01*
X0346664Y0727142D01*
X0346239Y0726141D01*
X0345838Y0725129D01*
X0345462Y0724108D01*
X0345111Y0723078D01*
X0344786Y0722040D01*
X0344486Y0720994D01*
X0344211Y0719941D01*
X0343963Y0718882D01*
X0343740Y0717817D01*
X0343544Y0716747D01*
X0343374Y0715672D01*
X0343230Y0714594D01*
X0343112Y0713512D01*
X0343021Y0712428D01*
X0342957Y0711342D01*
X0342919Y0710254D01*
X0342908Y0709166D01*
X0342924Y0708079D01*
X0342966Y0706991D01*
X0343034Y0705905D01*
X0343129Y0704822D01*
X0343251Y0703740D01*
X0343399Y0702662D01*
X0343574Y0701589D01*
X0343774Y0700519D01*
X0344001Y0699455D01*
X0344254Y0698397D01*
X0344532Y0697345D01*
X0344836Y0696300D01*
X0345166Y0695263D01*
X0345521Y0694235D01*
X0345901Y0693215D01*
X0346306Y0692205D01*
X0346735Y0691206D01*
X0347189Y0690217D01*
X0347666Y0689239D01*
X0348168Y0688274D01*
X0348693Y0687321D01*
X0349241Y0686381D01*
X0349812Y0685455D01*
X0350406Y0684543D01*
X0351021Y0683646D01*
X0351659Y0682764D01*
X0352317Y0681898D01*
X0352997Y0681048D01*
X0353697Y0680215D01*
X0354418Y0679400D01*
X0355158Y0678603D01*
X0355917Y0677824D01*
X0356696Y0677063D01*
X0357492Y0676322D01*
X0358307Y0675601D01*
X0359139Y0674900D01*
X0359988Y0674219D01*
X0360853Y0673560D01*
X0361734Y0672921D01*
X0362631Y0672305D01*
X0363542Y0671710D01*
X0364468Y0671139D01*
X0365407Y0670589D01*
X0366360Y0670063D01*
X0367325Y0669561D01*
X0368302Y0669082D01*
X0382497Y0724203D02*
X0382111Y0724086D01*
X0381727Y0723960D01*
X0381347Y0723825D01*
X0380970Y0723680D01*
X0380597Y0723526D01*
X0380228Y0723363D01*
X0379863Y0723191D01*
X0379502Y0723011D01*
X0379146Y0722821D01*
X0378794Y0722623D01*
X0378447Y0722416D01*
X0378106Y0722201D01*
X0377770Y0721978D01*
X0377439Y0721746D01*
X0377115Y0721507D01*
X0376796Y0721259D01*
X0376483Y0721004D01*
X0376177Y0720741D01*
X0375877Y0720471D01*
X0375584Y0720194D01*
X0375298Y0719909D01*
X0375018Y0719618D01*
X0374746Y0719320D01*
X0374482Y0719015D01*
X0374225Y0718704D01*
X0373975Y0718387D01*
X0373734Y0718063D01*
X0373500Y0717734D01*
X0373274Y0717400D01*
X0373057Y0717060D01*
X0372848Y0716714D01*
X0372648Y0716364D01*
X0372456Y0716009D01*
X0372273Y0715649D01*
X0372099Y0715285D01*
X0371934Y0714917D01*
X0371778Y0714545D01*
X0371631Y0714169D01*
X0371493Y0713789D01*
X0371364Y0713407D01*
X0371245Y0713021D01*
X0371136Y0712633D01*
X0371036Y0712242D01*
X0370945Y0711849D01*
X0370864Y0711453D01*
X0370793Y0711056D01*
X0370732Y0710657D01*
X0370680Y0710257D01*
X0370638Y0709855D01*
X0370606Y0709453D01*
X0370584Y0709050D01*
X0370572Y0708647D01*
X0370569Y0708243D01*
X0370577Y0707840D01*
X0370594Y0707436D01*
X0370621Y0707034D01*
X0370658Y0706632D01*
X0370705Y0706231D01*
X0370762Y0705832D01*
X0370828Y0705433D01*
X0370904Y0705037D01*
X0370990Y0704643D01*
X0371085Y0704251D01*
X0371190Y0703861D01*
X0371304Y0703474D01*
X0371428Y0703090D01*
X0371561Y0702709D01*
X0371704Y0702331D01*
X0371855Y0701957D01*
X0372016Y0701587D01*
X0372186Y0701221D01*
X0372364Y0700859D01*
X0372552Y0700502D01*
X0372748Y0700149D01*
X0372953Y0699801D01*
X0373166Y0699458D01*
X0373387Y0699121D01*
X0373617Y0698789D01*
X0373854Y0698463D01*
X0374100Y0698143D01*
X0374353Y0697828D01*
X0374614Y0697521D01*
X0374883Y0697219D01*
X0375158Y0696924D01*
X0375441Y0696636D01*
X0375731Y0696356D01*
X0376027Y0696082D01*
X0376331Y0695815D01*
X0376640Y0695556D01*
X0376956Y0695305D01*
X0377278Y0695062D01*
X0377605Y0694826D01*
X0377939Y0694599D01*
X0378278Y0694379D01*
X0378622Y0694168D01*
X0378971Y0693966D01*
X0379325Y0693772D01*
X0379683Y0693587D01*
X0380046Y0693411D01*
X0380414Y0693243D01*
X0380785Y0693085D01*
X0381160Y0692936D01*
X0381538Y0692796D01*
X0381920Y0692665D01*
X0382305Y0692544D01*
X0382693Y0692432D01*
X0383083Y0692330D01*
X0383476Y0692237D01*
X0383871Y0692154D01*
X0384268Y0692080D01*
X0384666Y0692017D01*
X0385066Y0691963D01*
X0385467Y0691918D01*
X0385870Y0691884D01*
X0386272Y0691859D01*
X0386676Y0691845D01*
X0387079Y0691840D01*
X0387483Y0691845D01*
X0387886Y0691860D01*
X0388289Y0691885D01*
X0388691Y0691919D01*
X0389092Y0691964D01*
X0389492Y0692018D01*
X0389890Y0692082D01*
X0390287Y0692156D01*
X0390682Y0692239D01*
X0391075Y0692332D01*
X0391465Y0692435D01*
X0391853Y0692547D01*
X0392238Y0692669D01*
X0392619Y0692799D01*
X0392998Y0692940D01*
X0393373Y0693089D01*
X0393744Y0693248D01*
X0394111Y0693415D01*
X0394474Y0693592D01*
X0394832Y0693777D01*
X0395186Y0693971D01*
X0395535Y0694174D01*
X0395879Y0694385D01*
X0396218Y0694604D01*
X0396551Y0694832D01*
X0396879Y0695068D01*
X0397200Y0695312D01*
X0397516Y0695563D01*
X0397825Y0695822D01*
X0398128Y0696089D01*
X0398425Y0696363D01*
X0398714Y0696644D01*
X0398997Y0696932D01*
X0399272Y0697227D01*
X0399541Y0697528D01*
X0399801Y0697836D01*
X0400054Y0698151D01*
X0400300Y0698471D01*
X0400537Y0698797D01*
X0400767Y0699130D01*
X0400988Y0699467D01*
X0401201Y0699810D01*
X0401405Y0700158D01*
X0401601Y0700511D01*
X0401788Y0700868D01*
X0401967Y0701230D01*
X0402136Y0701596D01*
X0402297Y0701967D01*
X0402448Y0702341D01*
X0402590Y0702719D01*
X0402723Y0703100D01*
X0402847Y0703484D01*
X0402961Y0703871D01*
X0403066Y0704261D01*
X0403161Y0704653D01*
X0403246Y0705047D01*
X0403322Y0705444D01*
X0403388Y0705842D01*
X0403444Y0706241D01*
X0403491Y0706642D01*
X0403528Y0707044D01*
X0403555Y0707447D01*
X0403572Y0707850D01*
X0403579Y0708254D01*
X0403576Y0708657D01*
X0403563Y0709061D01*
X0403541Y0709464D01*
X0403509Y0709866D01*
X0403467Y0710267D01*
X0403415Y0710667D01*
X0403353Y0711066D01*
X0403282Y0711463D01*
X0403201Y0711859D01*
X0403110Y0712252D01*
X0403010Y0712643D01*
X0402900Y0713031D01*
X0402780Y0713417D01*
X0402652Y0713799D01*
X0402514Y0714179D01*
X0402366Y0714554D01*
X0402210Y0714926D01*
X0402045Y0715294D01*
X0401870Y0715658D01*
X0401687Y0716018D01*
X0401495Y0716373D01*
X0401294Y0716723D01*
X0401085Y0717068D01*
X0400868Y0717408D01*
X0400642Y0717743D01*
X0400408Y0718072D01*
X0400167Y0718395D01*
X0399917Y0718712D01*
X0399660Y0719023D01*
X0399395Y0719327D01*
X0399123Y0719625D01*
X0398843Y0719917D01*
X0398557Y0720201D01*
X0398263Y0720478D01*
X0397963Y0720748D01*
X0397657Y0721011D01*
X0397344Y0721266D01*
X0397025Y0721513D01*
X0396700Y0721752D01*
X0396369Y0721984D01*
X0396033Y0722207D01*
X0395692Y0722422D01*
X0395345Y0722628D01*
X0394993Y0722826D01*
X0394637Y0723015D01*
X0394276Y0723196D01*
X0393911Y0723368D01*
X0402819Y0750649D02*
X0403847Y0750304D01*
X0404866Y0749934D01*
X0405876Y0749538D01*
X0406876Y0749118D01*
X0407866Y0748674D01*
X0408844Y0748206D01*
X0409810Y0747714D01*
X0410764Y0747198D01*
X0411706Y0746659D01*
X0412633Y0746098D01*
X0413547Y0745513D01*
X0414446Y0744907D01*
X0415330Y0744278D01*
X0416198Y0743629D01*
X0417050Y0742958D01*
X0417886Y0742266D01*
X0418704Y0741554D01*
X0419505Y0740823D01*
X0420287Y0740072D01*
X0421051Y0739302D01*
X0421796Y0738513D01*
X0422521Y0737707D01*
X0423226Y0736883D01*
X0423911Y0736042D01*
X0424575Y0735185D01*
X0425218Y0734311D01*
X0425839Y0733422D01*
X0426438Y0732518D01*
X0427015Y0731600D01*
X0427569Y0730668D01*
X0428101Y0729722D01*
X0428609Y0728764D01*
X0429093Y0727794D01*
X0429553Y0726812D01*
X0429990Y0725819D01*
X0430402Y0724815D01*
X0430789Y0723802D01*
X0431151Y0722780D01*
X0431488Y0721749D01*
X0431800Y0720710D01*
X0432086Y0719664D01*
X0432346Y0718612D01*
X0432581Y0717553D01*
X0432789Y0716488D01*
X0432972Y0715419D01*
X0433128Y0714346D01*
X0433258Y0713269D01*
X0433361Y0712190D01*
X0433438Y0711108D01*
X0433489Y0710025D01*
X0433513Y0708940D01*
X0433510Y0707856D01*
X0433481Y0706772D01*
X0433425Y0705689D01*
X0433343Y0704607D01*
X0433234Y0703528D01*
X0433099Y0702452D01*
X0432938Y0701380D01*
X0432750Y0700312D01*
X0432537Y0699248D01*
X0432297Y0698191D01*
X0432031Y0697139D01*
X0431740Y0696094D01*
X0431423Y0695057D01*
X0431081Y0694028D01*
X0430714Y0693007D01*
X0430322Y0691996D01*
X0429906Y0690995D01*
X0429465Y0690004D01*
X0428999Y0689024D01*
X0428510Y0688056D01*
X0427998Y0687101D01*
X0427462Y0686158D01*
X0426903Y0685228D01*
X0426322Y0684313D01*
X0425718Y0683412D01*
X0425093Y0682526D01*
X0424446Y0681655D01*
X0423778Y0680801D01*
X0423089Y0679963D01*
X0422380Y0679143D01*
X0421650Y0678340D01*
X0420902Y0677555D01*
X0420134Y0676789D01*
X0419348Y0676042D01*
X0418544Y0675314D01*
X0417723Y0674606D01*
X0416884Y0673919D01*
X0416028Y0673252D01*
X0415157Y0672606D01*
X0414270Y0671982D01*
X0413368Y0671380D01*
X0412452Y0670800D01*
X0411521Y0670243D01*
X0410577Y0669708D01*
X0409621Y0669197D01*
X0408652Y0668710D01*
X0407672Y0668246D01*
X0724558Y0393121D02*
X0724441Y0393507D01*
X0724315Y0393891D01*
X0724180Y0394271D01*
X0724035Y0394648D01*
X0723881Y0395021D01*
X0723718Y0395390D01*
X0723546Y0395755D01*
X0723366Y0396116D01*
X0723176Y0396472D01*
X0722978Y0396824D01*
X0722771Y0397171D01*
X0722556Y0397512D01*
X0722333Y0397848D01*
X0722101Y0398179D01*
X0721862Y0398503D01*
X0721614Y0398822D01*
X0721359Y0399135D01*
X0721096Y0399441D01*
X0720826Y0399741D01*
X0720549Y0400034D01*
X0720264Y0400320D01*
X0719973Y0400600D01*
X0719675Y0400872D01*
X0719370Y0401136D01*
X0719059Y0401393D01*
X0718742Y0401643D01*
X0718418Y0401884D01*
X0718089Y0402118D01*
X0717755Y0402344D01*
X0717415Y0402561D01*
X0717069Y0402770D01*
X0716719Y0402970D01*
X0716364Y0403162D01*
X0716004Y0403345D01*
X0715640Y0403519D01*
X0715272Y0403684D01*
X0714900Y0403840D01*
X0714524Y0403987D01*
X0714144Y0404125D01*
X0713762Y0404254D01*
X0713376Y0404373D01*
X0712988Y0404482D01*
X0712597Y0404582D01*
X0712204Y0404673D01*
X0711808Y0404754D01*
X0711411Y0404825D01*
X0711012Y0404886D01*
X0710612Y0404938D01*
X0710210Y0404980D01*
X0709808Y0405012D01*
X0709405Y0405034D01*
X0709002Y0405046D01*
X0708598Y0405049D01*
X0708195Y0405041D01*
X0707791Y0405024D01*
X0707389Y0404997D01*
X0706987Y0404960D01*
X0706586Y0404913D01*
X0706187Y0404856D01*
X0705788Y0404790D01*
X0705392Y0404714D01*
X0704998Y0404628D01*
X0704606Y0404533D01*
X0704216Y0404428D01*
X0703829Y0404314D01*
X0703445Y0404190D01*
X0703064Y0404057D01*
X0702686Y0403914D01*
X0702312Y0403763D01*
X0701942Y0403602D01*
X0701576Y0403432D01*
X0701214Y0403254D01*
X0700857Y0403066D01*
X0700504Y0402870D01*
X0700156Y0402665D01*
X0699813Y0402452D01*
X0699476Y0402231D01*
X0699144Y0402001D01*
X0698818Y0401764D01*
X0698498Y0401518D01*
X0698183Y0401265D01*
X0697876Y0401004D01*
X0697574Y0400735D01*
X0697279Y0400460D01*
X0696991Y0400177D01*
X0696711Y0399887D01*
X0696437Y0399591D01*
X0696170Y0399287D01*
X0695911Y0398978D01*
X0695660Y0398662D01*
X0695417Y0398340D01*
X0695181Y0398013D01*
X0694954Y0397679D01*
X0694734Y0397340D01*
X0694523Y0396996D01*
X0694321Y0396647D01*
X0694127Y0396293D01*
X0693942Y0395935D01*
X0693766Y0395572D01*
X0693598Y0395204D01*
X0693440Y0394833D01*
X0693291Y0394458D01*
X0693151Y0394080D01*
X0693020Y0393698D01*
X0692899Y0393313D01*
X0692787Y0392925D01*
X0692685Y0392535D01*
X0692592Y0392142D01*
X0692509Y0391747D01*
X0692435Y0391350D01*
X0692372Y0390952D01*
X0692318Y0390552D01*
X0692273Y0390151D01*
X0692239Y0389748D01*
X0692214Y0389346D01*
X0692200Y0388942D01*
X0692195Y0388539D01*
X0692200Y0388135D01*
X0692215Y0387732D01*
X0692240Y0387329D01*
X0692274Y0386927D01*
X0692319Y0386526D01*
X0692373Y0386126D01*
X0692437Y0385728D01*
X0692511Y0385331D01*
X0692594Y0384936D01*
X0692687Y0384543D01*
X0692790Y0384153D01*
X0692902Y0383765D01*
X0693024Y0383380D01*
X0693154Y0382999D01*
X0693295Y0382620D01*
X0693444Y0382245D01*
X0693603Y0381874D01*
X0693770Y0381507D01*
X0693947Y0381144D01*
X0694132Y0380786D01*
X0694326Y0380432D01*
X0694529Y0380083D01*
X0694740Y0379739D01*
X0694959Y0379400D01*
X0695187Y0379067D01*
X0695423Y0378739D01*
X0695667Y0378418D01*
X0695918Y0378102D01*
X0696177Y0377793D01*
X0696444Y0377490D01*
X0696718Y0377193D01*
X0696999Y0376904D01*
X0697287Y0376621D01*
X0697582Y0376346D01*
X0697883Y0376077D01*
X0698191Y0375817D01*
X0698506Y0375564D01*
X0698826Y0375318D01*
X0699152Y0375081D01*
X0699485Y0374851D01*
X0699822Y0374630D01*
X0700165Y0374417D01*
X0700513Y0374213D01*
X0700866Y0374017D01*
X0701223Y0373830D01*
X0701585Y0373651D01*
X0701951Y0373482D01*
X0702322Y0373321D01*
X0702696Y0373170D01*
X0703074Y0373028D01*
X0703455Y0372895D01*
X0703839Y0372771D01*
X0704226Y0372657D01*
X0704616Y0372552D01*
X0705008Y0372457D01*
X0705402Y0372372D01*
X0705799Y0372296D01*
X0706197Y0372230D01*
X0706596Y0372174D01*
X0706997Y0372127D01*
X0707399Y0372090D01*
X0707802Y0372063D01*
X0708205Y0372046D01*
X0708609Y0372039D01*
X0709012Y0372042D01*
X0709416Y0372055D01*
X0709819Y0372077D01*
X0710221Y0372109D01*
X0710622Y0372151D01*
X0711022Y0372203D01*
X0711421Y0372265D01*
X0711818Y0372336D01*
X0712214Y0372417D01*
X0712607Y0372508D01*
X0712998Y0372608D01*
X0713386Y0372718D01*
X0713772Y0372838D01*
X0714154Y0372966D01*
X0714534Y0373104D01*
X0714909Y0373252D01*
X0715281Y0373408D01*
X0715649Y0373573D01*
X0716013Y0373748D01*
X0716373Y0373931D01*
X0716728Y0374123D01*
X0717078Y0374324D01*
X0717423Y0374533D01*
X0717763Y0374750D01*
X0718098Y0374976D01*
X0718427Y0375210D01*
X0718750Y0375451D01*
X0719067Y0375701D01*
X0719378Y0375958D01*
X0719682Y0376223D01*
X0719980Y0376495D01*
X0720272Y0376775D01*
X0720556Y0377061D01*
X0720833Y0377355D01*
X0721103Y0377655D01*
X0721366Y0377961D01*
X0721621Y0378274D01*
X0721868Y0378593D01*
X0722107Y0378918D01*
X0722339Y0379249D01*
X0722562Y0379585D01*
X0722777Y0379926D01*
X0722983Y0380273D01*
X0723181Y0380625D01*
X0723370Y0380981D01*
X0723551Y0381342D01*
X0723723Y0381707D01*
X0751005Y0372799D01*
X0752397Y0400359D02*
X0724558Y0393121D01*
X0752397Y0400359D02*
X0752088Y0401403D01*
X0751753Y0402438D01*
X0751393Y0403465D01*
X0751008Y0404482D01*
X0750598Y0405490D01*
X0750164Y0406488D01*
X0749705Y0407474D01*
X0749223Y0408450D01*
X0748716Y0409413D01*
X0748187Y0410363D01*
X0747634Y0411300D01*
X0747058Y0412223D01*
X0746460Y0413132D01*
X0745840Y0414027D01*
X0745199Y0414905D01*
X0744536Y0415768D01*
X0743852Y0416614D01*
X0743147Y0417443D01*
X0742423Y0418255D01*
X0741679Y0419049D01*
X0740915Y0419824D01*
X0740133Y0420580D01*
X0739333Y0421318D01*
X0738515Y0422035D01*
X0737679Y0422732D01*
X0736827Y0423408D01*
X0735958Y0424063D01*
X0735074Y0424697D01*
X0734175Y0425309D01*
X0733260Y0425899D01*
X0732332Y0426467D01*
X0731390Y0427011D01*
X0730435Y0427532D01*
X0729467Y0428030D01*
X0728488Y0428504D01*
X0727497Y0428954D01*
X0726496Y0429379D01*
X0725484Y0429780D01*
X0724463Y0430156D01*
X0723433Y0430507D01*
X0722395Y0430832D01*
X0721349Y0431132D01*
X0720296Y0431407D01*
X0719237Y0431655D01*
X0718172Y0431878D01*
X0717102Y0432074D01*
X0716027Y0432244D01*
X0714949Y0432388D01*
X0713867Y0432506D01*
X0712783Y0432597D01*
X0711697Y0432661D01*
X0710609Y0432699D01*
X0709521Y0432710D01*
X0708434Y0432694D01*
X0707346Y0432652D01*
X0706260Y0432584D01*
X0705177Y0432489D01*
X0704095Y0432367D01*
X0703017Y0432219D01*
X0701944Y0432044D01*
X0700874Y0431844D01*
X0699810Y0431617D01*
X0698752Y0431364D01*
X0697700Y0431086D01*
X0696655Y0430782D01*
X0695618Y0430452D01*
X0694590Y0430097D01*
X0693570Y0429717D01*
X0692560Y0429312D01*
X0691561Y0428883D01*
X0690572Y0428429D01*
X0689594Y0427952D01*
X0688629Y0427450D01*
X0687676Y0426925D01*
X0686736Y0426377D01*
X0685810Y0425806D01*
X0684898Y0425212D01*
X0684001Y0424597D01*
X0683119Y0423959D01*
X0682253Y0423301D01*
X0681403Y0422621D01*
X0680570Y0421921D01*
X0679755Y0421200D01*
X0678958Y0420460D01*
X0678179Y0419701D01*
X0677418Y0418922D01*
X0676677Y0418126D01*
X0675956Y0417311D01*
X0675255Y0416479D01*
X0674574Y0415630D01*
X0673915Y0414765D01*
X0673276Y0413884D01*
X0672660Y0412987D01*
X0672065Y0412076D01*
X0671494Y0411150D01*
X0670944Y0410211D01*
X0670418Y0409258D01*
X0669916Y0408293D01*
X0669437Y0407316D01*
X0668602Y0367946D02*
X0669066Y0366966D01*
X0669553Y0365997D01*
X0670064Y0365041D01*
X0670599Y0364097D01*
X0671156Y0363166D01*
X0671736Y0362250D01*
X0672338Y0361348D01*
X0672962Y0360461D01*
X0673608Y0359590D01*
X0674275Y0358734D01*
X0674962Y0357895D01*
X0675670Y0357074D01*
X0676398Y0356270D01*
X0677145Y0355484D01*
X0677911Y0354716D01*
X0678696Y0353968D01*
X0679499Y0353238D01*
X0680319Y0352529D01*
X0681157Y0351840D01*
X0682011Y0351172D01*
X0682882Y0350525D01*
X0683768Y0349900D01*
X0684669Y0349296D01*
X0685584Y0348715D01*
X0686514Y0348156D01*
X0687457Y0347620D01*
X0688412Y0347108D01*
X0689380Y0346619D01*
X0690360Y0346153D01*
X0691351Y0345712D01*
X0692352Y0345296D01*
X0693363Y0344904D01*
X0694384Y0344537D01*
X0695413Y0344195D01*
X0696450Y0343878D01*
X0697495Y0343587D01*
X0698547Y0343321D01*
X0699604Y0343081D01*
X0700668Y0342868D01*
X0701736Y0342680D01*
X0702808Y0342519D01*
X0703884Y0342384D01*
X0704963Y0342275D01*
X0706045Y0342193D01*
X0707128Y0342137D01*
X0708212Y0342108D01*
X0709296Y0342105D01*
X0710381Y0342129D01*
X0711464Y0342180D01*
X0712546Y0342257D01*
X0713625Y0342360D01*
X0714702Y0342490D01*
X0715775Y0342646D01*
X0716844Y0342829D01*
X0717909Y0343037D01*
X0718968Y0343272D01*
X0720020Y0343532D01*
X0721066Y0343818D01*
X0722105Y0344130D01*
X0723136Y0344467D01*
X0724158Y0344829D01*
X0725171Y0345216D01*
X0726175Y0345628D01*
X0727168Y0346065D01*
X0728150Y0346525D01*
X0729120Y0347009D01*
X0730078Y0347517D01*
X0731024Y0348049D01*
X0731956Y0348603D01*
X0732874Y0349180D01*
X0733778Y0349779D01*
X0734667Y0350400D01*
X0735541Y0351043D01*
X0736398Y0351707D01*
X0737239Y0352392D01*
X0738063Y0353097D01*
X0738869Y0353822D01*
X0739658Y0354567D01*
X0740428Y0355331D01*
X0741179Y0356113D01*
X0741910Y0356914D01*
X0742622Y0357732D01*
X0743314Y0358568D01*
X0743985Y0359420D01*
X0744634Y0360288D01*
X0745263Y0361172D01*
X0745869Y0362071D01*
X0746454Y0362985D01*
X0747015Y0363912D01*
X0747554Y0364854D01*
X0748070Y0365808D01*
X0748562Y0366774D01*
X0749030Y0367752D01*
X0749474Y0368742D01*
X0749894Y0369742D01*
X0750290Y0370752D01*
X0750660Y0371771D01*
X0751005Y0372799D01*
D11*
X0435231Y0363025D02*
X0431294Y0363025D01*
X0431294Y0399442D01*
X0431294Y0412237D01*
X0431294Y0415190D01*
X0431294Y0421096D01*
X0435231Y0421096D01*
X0431294Y0421096D02*
X0431294Y0467808D01*
X0431292Y0467906D01*
X0431286Y0468004D01*
X0431277Y0468102D01*
X0431263Y0468199D01*
X0431246Y0468296D01*
X0431225Y0468392D01*
X0431200Y0468487D01*
X0431172Y0468581D01*
X0431139Y0468673D01*
X0431104Y0468765D01*
X0431064Y0468855D01*
X0431022Y0468943D01*
X0430975Y0469030D01*
X0430926Y0469114D01*
X0430873Y0469197D01*
X0430817Y0469277D01*
X0430757Y0469356D01*
X0430695Y0469432D01*
X0430630Y0469505D01*
X0430562Y0469576D01*
X0430491Y0469644D01*
X0430418Y0469709D01*
X0430342Y0469771D01*
X0430263Y0469831D01*
X0430183Y0469887D01*
X0430100Y0469940D01*
X0430016Y0469989D01*
X0429929Y0470036D01*
X0429841Y0470078D01*
X0429751Y0470118D01*
X0429659Y0470153D01*
X0429567Y0470186D01*
X0429473Y0470214D01*
X0429378Y0470239D01*
X0429282Y0470260D01*
X0429185Y0470277D01*
X0429088Y0470291D01*
X0428990Y0470300D01*
X0428892Y0470306D01*
X0428794Y0470308D01*
X0407672Y0470308D01*
X0407672Y0480151D01*
X0393892Y0480151D01*
X0393892Y0484088D01*
X0382081Y0484088D01*
X0382081Y0480151D01*
X0393892Y0480151D01*
X0382081Y0480151D02*
X0368302Y0480151D01*
X0368302Y0470308D01*
X0407672Y0470308D01*
X0417514Y0468340D02*
X0426825Y0468340D01*
X0426923Y0468338D01*
X0427021Y0468332D01*
X0427119Y0468323D01*
X0427216Y0468309D01*
X0427313Y0468292D01*
X0427409Y0468271D01*
X0427504Y0468246D01*
X0427598Y0468218D01*
X0427690Y0468185D01*
X0427782Y0468150D01*
X0427872Y0468110D01*
X0427960Y0468068D01*
X0428047Y0468021D01*
X0428131Y0467972D01*
X0428214Y0467919D01*
X0428294Y0467863D01*
X0428373Y0467803D01*
X0428449Y0467741D01*
X0428522Y0467676D01*
X0428593Y0467608D01*
X0428661Y0467537D01*
X0428726Y0467464D01*
X0428788Y0467388D01*
X0428848Y0467309D01*
X0428904Y0467229D01*
X0428957Y0467146D01*
X0429006Y0467062D01*
X0429053Y0466975D01*
X0429095Y0466887D01*
X0429135Y0466797D01*
X0429170Y0466705D01*
X0429203Y0466613D01*
X0429231Y0466519D01*
X0429256Y0466424D01*
X0429277Y0466328D01*
X0429294Y0466231D01*
X0429308Y0466134D01*
X0429317Y0466036D01*
X0429323Y0465938D01*
X0429325Y0465840D01*
X0429325Y0456529D01*
X0417514Y0468340D01*
X0397829Y0427001D02*
X0378144Y0427001D01*
X0344680Y0415190D01*
X0344680Y0421096D01*
X0340743Y0421096D01*
X0344680Y0421096D02*
X0344680Y0467808D01*
X0344682Y0467906D01*
X0344688Y0468004D01*
X0344697Y0468102D01*
X0344711Y0468199D01*
X0344728Y0468296D01*
X0344749Y0468392D01*
X0344774Y0468487D01*
X0344802Y0468581D01*
X0344835Y0468673D01*
X0344870Y0468765D01*
X0344910Y0468855D01*
X0344952Y0468943D01*
X0344999Y0469030D01*
X0345048Y0469114D01*
X0345101Y0469197D01*
X0345157Y0469277D01*
X0345217Y0469356D01*
X0345279Y0469432D01*
X0345344Y0469505D01*
X0345412Y0469576D01*
X0345483Y0469644D01*
X0345556Y0469709D01*
X0345632Y0469771D01*
X0345711Y0469831D01*
X0345791Y0469887D01*
X0345874Y0469940D01*
X0345958Y0469989D01*
X0346045Y0470036D01*
X0346133Y0470078D01*
X0346223Y0470118D01*
X0346315Y0470153D01*
X0346407Y0470186D01*
X0346501Y0470214D01*
X0346596Y0470239D01*
X0346692Y0470260D01*
X0346789Y0470277D01*
X0346886Y0470291D01*
X0346984Y0470300D01*
X0347082Y0470306D01*
X0347180Y0470308D01*
X0368302Y0470308D01*
X0358459Y0468340D02*
X0349148Y0468340D01*
X0349050Y0468338D01*
X0348952Y0468332D01*
X0348854Y0468323D01*
X0348757Y0468309D01*
X0348660Y0468292D01*
X0348564Y0468271D01*
X0348469Y0468246D01*
X0348375Y0468218D01*
X0348283Y0468185D01*
X0348191Y0468150D01*
X0348101Y0468110D01*
X0348013Y0468068D01*
X0347926Y0468021D01*
X0347842Y0467972D01*
X0347759Y0467919D01*
X0347679Y0467863D01*
X0347600Y0467803D01*
X0347524Y0467741D01*
X0347451Y0467676D01*
X0347380Y0467608D01*
X0347312Y0467537D01*
X0347247Y0467464D01*
X0347185Y0467388D01*
X0347125Y0467309D01*
X0347069Y0467229D01*
X0347016Y0467146D01*
X0346967Y0467062D01*
X0346920Y0466975D01*
X0346878Y0466887D01*
X0346838Y0466797D01*
X0346803Y0466705D01*
X0346770Y0466613D01*
X0346742Y0466519D01*
X0346717Y0466424D01*
X0346696Y0466328D01*
X0346679Y0466231D01*
X0346665Y0466134D01*
X0346656Y0466036D01*
X0346650Y0465938D01*
X0346648Y0465840D01*
X0346648Y0456529D01*
X0358459Y0468340D01*
X0397829Y0427001D02*
X0431294Y0415190D01*
X0431294Y0412237D02*
X0435231Y0412237D01*
X0435231Y0412238D02*
X0435362Y0412240D01*
X0435493Y0412246D01*
X0435624Y0412255D01*
X0435755Y0412269D01*
X0435885Y0412287D01*
X0436014Y0412308D01*
X0436143Y0412333D01*
X0436271Y0412362D01*
X0436398Y0412395D01*
X0436525Y0412431D01*
X0436649Y0412471D01*
X0436773Y0412515D01*
X0436896Y0412563D01*
X0437016Y0412614D01*
X0437136Y0412669D01*
X0437253Y0412727D01*
X0437369Y0412788D01*
X0437483Y0412853D01*
X0437595Y0412922D01*
X0437705Y0412994D01*
X0437813Y0413068D01*
X0437919Y0413147D01*
X0438022Y0413228D01*
X0438122Y0413312D01*
X0438220Y0413399D01*
X0438316Y0413489D01*
X0438409Y0413582D01*
X0438499Y0413678D01*
X0438586Y0413776D01*
X0438670Y0413876D01*
X0438751Y0413979D01*
X0438830Y0414085D01*
X0438904Y0414193D01*
X0438976Y0414303D01*
X0439045Y0414415D01*
X0439110Y0414529D01*
X0439171Y0414645D01*
X0439229Y0414762D01*
X0439284Y0414882D01*
X0439335Y0415002D01*
X0439383Y0415125D01*
X0439427Y0415249D01*
X0439467Y0415373D01*
X0439503Y0415500D01*
X0439536Y0415627D01*
X0439565Y0415755D01*
X0439590Y0415884D01*
X0439611Y0416013D01*
X0439629Y0416143D01*
X0439643Y0416274D01*
X0439652Y0416405D01*
X0439658Y0416536D01*
X0439660Y0416667D01*
X0439658Y0416798D01*
X0439652Y0416929D01*
X0439643Y0417060D01*
X0439629Y0417191D01*
X0439611Y0417321D01*
X0439590Y0417450D01*
X0439565Y0417579D01*
X0439536Y0417707D01*
X0439503Y0417834D01*
X0439467Y0417961D01*
X0439427Y0418085D01*
X0439383Y0418209D01*
X0439335Y0418332D01*
X0439284Y0418452D01*
X0439229Y0418572D01*
X0439171Y0418689D01*
X0439110Y0418805D01*
X0439045Y0418919D01*
X0438976Y0419031D01*
X0438904Y0419141D01*
X0438830Y0419249D01*
X0438751Y0419355D01*
X0438670Y0419458D01*
X0438586Y0419558D01*
X0438499Y0419656D01*
X0438409Y0419752D01*
X0438316Y0419845D01*
X0438220Y0419935D01*
X0438122Y0420022D01*
X0438022Y0420106D01*
X0437919Y0420187D01*
X0437813Y0420266D01*
X0437705Y0420340D01*
X0437595Y0420412D01*
X0437483Y0420481D01*
X0437369Y0420546D01*
X0437253Y0420607D01*
X0437136Y0420665D01*
X0437016Y0420720D01*
X0436896Y0420771D01*
X0436773Y0420819D01*
X0436649Y0420863D01*
X0436525Y0420903D01*
X0436398Y0420939D01*
X0436271Y0420972D01*
X0436143Y0421001D01*
X0436014Y0421026D01*
X0435885Y0421047D01*
X0435755Y0421065D01*
X0435624Y0421079D01*
X0435493Y0421088D01*
X0435362Y0421094D01*
X0435231Y0421096D01*
X0431294Y0399442D02*
X0397829Y0411253D01*
X0397829Y0367946D01*
X0431294Y0356135D01*
X0431294Y0354167D02*
X0435231Y0354167D01*
X0431294Y0354167D02*
X0431294Y0363025D01*
X0435231Y0363025D02*
X0435362Y0363023D01*
X0435493Y0363017D01*
X0435624Y0363008D01*
X0435755Y0362994D01*
X0435885Y0362976D01*
X0436014Y0362955D01*
X0436143Y0362930D01*
X0436271Y0362901D01*
X0436398Y0362868D01*
X0436525Y0362832D01*
X0436649Y0362792D01*
X0436773Y0362748D01*
X0436896Y0362700D01*
X0437016Y0362649D01*
X0437136Y0362594D01*
X0437253Y0362536D01*
X0437369Y0362475D01*
X0437483Y0362410D01*
X0437595Y0362341D01*
X0437705Y0362269D01*
X0437813Y0362195D01*
X0437919Y0362116D01*
X0438022Y0362035D01*
X0438122Y0361951D01*
X0438220Y0361864D01*
X0438316Y0361774D01*
X0438409Y0361681D01*
X0438499Y0361585D01*
X0438586Y0361487D01*
X0438670Y0361387D01*
X0438751Y0361284D01*
X0438830Y0361178D01*
X0438904Y0361070D01*
X0438976Y0360960D01*
X0439045Y0360848D01*
X0439110Y0360734D01*
X0439171Y0360618D01*
X0439229Y0360501D01*
X0439284Y0360381D01*
X0439335Y0360261D01*
X0439383Y0360138D01*
X0439427Y0360014D01*
X0439467Y0359890D01*
X0439503Y0359763D01*
X0439536Y0359636D01*
X0439565Y0359508D01*
X0439590Y0359379D01*
X0439611Y0359250D01*
X0439629Y0359120D01*
X0439643Y0358989D01*
X0439652Y0358858D01*
X0439658Y0358727D01*
X0439660Y0358596D01*
X0439658Y0358465D01*
X0439652Y0358334D01*
X0439643Y0358203D01*
X0439629Y0358072D01*
X0439611Y0357942D01*
X0439590Y0357813D01*
X0439565Y0357684D01*
X0439536Y0357556D01*
X0439503Y0357429D01*
X0439467Y0357302D01*
X0439427Y0357178D01*
X0439383Y0357054D01*
X0439335Y0356931D01*
X0439284Y0356811D01*
X0439229Y0356691D01*
X0439171Y0356574D01*
X0439110Y0356458D01*
X0439045Y0356344D01*
X0438976Y0356232D01*
X0438904Y0356122D01*
X0438830Y0356014D01*
X0438751Y0355908D01*
X0438670Y0355805D01*
X0438586Y0355705D01*
X0438499Y0355607D01*
X0438409Y0355511D01*
X0438316Y0355418D01*
X0438220Y0355328D01*
X0438122Y0355241D01*
X0438022Y0355157D01*
X0437919Y0355076D01*
X0437813Y0354997D01*
X0437705Y0354923D01*
X0437595Y0354851D01*
X0437483Y0354782D01*
X0437369Y0354717D01*
X0437253Y0354656D01*
X0437136Y0354598D01*
X0437016Y0354543D01*
X0436896Y0354492D01*
X0436773Y0354444D01*
X0436649Y0354400D01*
X0436525Y0354360D01*
X0436398Y0354324D01*
X0436271Y0354291D01*
X0436143Y0354262D01*
X0436014Y0354237D01*
X0435885Y0354216D01*
X0435755Y0354198D01*
X0435624Y0354184D01*
X0435493Y0354175D01*
X0435362Y0354169D01*
X0435231Y0354167D01*
X0431294Y0354167D02*
X0431294Y0322670D01*
X0425388Y0308891D01*
X0404719Y0308891D01*
X0404719Y0326608D01*
X0403735Y0326608D01*
X0403735Y0297611D01*
X0403733Y0297513D01*
X0403727Y0297415D01*
X0403718Y0297317D01*
X0403704Y0297220D01*
X0403687Y0297123D01*
X0403666Y0297027D01*
X0403641Y0296932D01*
X0403613Y0296838D01*
X0403580Y0296746D01*
X0403545Y0296654D01*
X0403505Y0296564D01*
X0403463Y0296476D01*
X0403416Y0296389D01*
X0403367Y0296305D01*
X0403314Y0296222D01*
X0403258Y0296142D01*
X0403198Y0296063D01*
X0403136Y0295987D01*
X0403071Y0295914D01*
X0403003Y0295843D01*
X0402932Y0295775D01*
X0402859Y0295710D01*
X0402783Y0295648D01*
X0402704Y0295588D01*
X0402624Y0295532D01*
X0402541Y0295479D01*
X0402457Y0295430D01*
X0402370Y0295383D01*
X0402282Y0295341D01*
X0402192Y0295301D01*
X0402100Y0295266D01*
X0402008Y0295233D01*
X0401914Y0295205D01*
X0401819Y0295180D01*
X0401723Y0295159D01*
X0401626Y0295142D01*
X0401529Y0295128D01*
X0401431Y0295119D01*
X0401333Y0295113D01*
X0401235Y0295111D01*
X0374739Y0295111D01*
X0374641Y0295113D01*
X0374543Y0295119D01*
X0374445Y0295128D01*
X0374348Y0295142D01*
X0374251Y0295159D01*
X0374155Y0295180D01*
X0374060Y0295205D01*
X0373966Y0295233D01*
X0373874Y0295266D01*
X0373782Y0295301D01*
X0373692Y0295341D01*
X0373604Y0295383D01*
X0373517Y0295430D01*
X0373433Y0295479D01*
X0373350Y0295532D01*
X0373270Y0295588D01*
X0373191Y0295648D01*
X0373115Y0295710D01*
X0373042Y0295775D01*
X0372971Y0295843D01*
X0372903Y0295914D01*
X0372838Y0295987D01*
X0372776Y0296063D01*
X0372716Y0296142D01*
X0372660Y0296222D01*
X0372607Y0296305D01*
X0372558Y0296389D01*
X0372511Y0296476D01*
X0372469Y0296564D01*
X0372429Y0296654D01*
X0372394Y0296746D01*
X0372361Y0296838D01*
X0372333Y0296932D01*
X0372308Y0297027D01*
X0372287Y0297123D01*
X0372270Y0297220D01*
X0372256Y0297317D01*
X0372247Y0297415D01*
X0372241Y0297513D01*
X0372239Y0297611D01*
X0372239Y0326608D01*
X0371254Y0326608D01*
X0371254Y0308891D01*
X0350585Y0308891D01*
X0344680Y0322670D01*
X0344680Y0354167D01*
X0340743Y0354167D01*
X0344680Y0354167D02*
X0344680Y0363025D01*
X0340743Y0363025D01*
X0344680Y0363025D02*
X0344680Y0399442D01*
X0378144Y0411253D01*
X0378144Y0367946D01*
X0344680Y0356135D01*
X0340743Y0354167D02*
X0340612Y0354169D01*
X0340481Y0354175D01*
X0340350Y0354184D01*
X0340219Y0354198D01*
X0340089Y0354216D01*
X0339960Y0354237D01*
X0339831Y0354262D01*
X0339703Y0354291D01*
X0339576Y0354324D01*
X0339449Y0354360D01*
X0339325Y0354400D01*
X0339201Y0354444D01*
X0339078Y0354492D01*
X0338958Y0354543D01*
X0338838Y0354598D01*
X0338721Y0354656D01*
X0338605Y0354717D01*
X0338491Y0354782D01*
X0338379Y0354851D01*
X0338269Y0354923D01*
X0338161Y0354997D01*
X0338055Y0355076D01*
X0337952Y0355157D01*
X0337852Y0355241D01*
X0337754Y0355328D01*
X0337658Y0355418D01*
X0337565Y0355511D01*
X0337475Y0355607D01*
X0337388Y0355705D01*
X0337304Y0355805D01*
X0337223Y0355908D01*
X0337144Y0356014D01*
X0337070Y0356122D01*
X0336998Y0356232D01*
X0336929Y0356344D01*
X0336864Y0356458D01*
X0336803Y0356574D01*
X0336745Y0356691D01*
X0336690Y0356811D01*
X0336639Y0356931D01*
X0336591Y0357054D01*
X0336547Y0357178D01*
X0336507Y0357302D01*
X0336471Y0357429D01*
X0336438Y0357556D01*
X0336409Y0357684D01*
X0336384Y0357813D01*
X0336363Y0357942D01*
X0336345Y0358072D01*
X0336331Y0358203D01*
X0336322Y0358334D01*
X0336316Y0358465D01*
X0336314Y0358596D01*
X0336316Y0358727D01*
X0336322Y0358858D01*
X0336331Y0358989D01*
X0336345Y0359120D01*
X0336363Y0359250D01*
X0336384Y0359379D01*
X0336409Y0359508D01*
X0336438Y0359636D01*
X0336471Y0359763D01*
X0336507Y0359890D01*
X0336547Y0360014D01*
X0336591Y0360138D01*
X0336639Y0360261D01*
X0336690Y0360381D01*
X0336745Y0360501D01*
X0336803Y0360618D01*
X0336864Y0360734D01*
X0336929Y0360848D01*
X0336998Y0360960D01*
X0337070Y0361070D01*
X0337144Y0361178D01*
X0337223Y0361284D01*
X0337304Y0361387D01*
X0337388Y0361487D01*
X0337475Y0361585D01*
X0337565Y0361681D01*
X0337658Y0361774D01*
X0337754Y0361864D01*
X0337852Y0361951D01*
X0337952Y0362035D01*
X0338055Y0362116D01*
X0338161Y0362195D01*
X0338269Y0362269D01*
X0338379Y0362341D01*
X0338491Y0362410D01*
X0338605Y0362475D01*
X0338721Y0362536D01*
X0338838Y0362594D01*
X0338958Y0362649D01*
X0339078Y0362700D01*
X0339201Y0362748D01*
X0339325Y0362792D01*
X0339449Y0362832D01*
X0339576Y0362868D01*
X0339703Y0362901D01*
X0339831Y0362930D01*
X0339960Y0362955D01*
X0340089Y0362976D01*
X0340219Y0362994D01*
X0340350Y0363008D01*
X0340481Y0363017D01*
X0340612Y0363023D01*
X0340743Y0363025D01*
X0344680Y0340387D02*
X0378144Y0352198D01*
X0397829Y0352198D01*
X0431294Y0340387D01*
X0344680Y0399442D02*
X0344680Y0412237D01*
X0340743Y0412237D01*
X0344680Y0412237D02*
X0344680Y0415190D01*
X0340743Y0412238D02*
X0340612Y0412240D01*
X0340481Y0412246D01*
X0340350Y0412255D01*
X0340219Y0412269D01*
X0340089Y0412287D01*
X0339960Y0412308D01*
X0339831Y0412333D01*
X0339703Y0412362D01*
X0339576Y0412395D01*
X0339449Y0412431D01*
X0339325Y0412471D01*
X0339201Y0412515D01*
X0339078Y0412563D01*
X0338958Y0412614D01*
X0338838Y0412669D01*
X0338721Y0412727D01*
X0338605Y0412788D01*
X0338491Y0412853D01*
X0338379Y0412922D01*
X0338269Y0412994D01*
X0338161Y0413068D01*
X0338055Y0413147D01*
X0337952Y0413228D01*
X0337852Y0413312D01*
X0337754Y0413399D01*
X0337658Y0413489D01*
X0337565Y0413582D01*
X0337475Y0413678D01*
X0337388Y0413776D01*
X0337304Y0413876D01*
X0337223Y0413979D01*
X0337144Y0414085D01*
X0337070Y0414193D01*
X0336998Y0414303D01*
X0336929Y0414415D01*
X0336864Y0414529D01*
X0336803Y0414645D01*
X0336745Y0414762D01*
X0336690Y0414882D01*
X0336639Y0415002D01*
X0336591Y0415125D01*
X0336547Y0415249D01*
X0336507Y0415373D01*
X0336471Y0415500D01*
X0336438Y0415627D01*
X0336409Y0415755D01*
X0336384Y0415884D01*
X0336363Y0416013D01*
X0336345Y0416143D01*
X0336331Y0416274D01*
X0336322Y0416405D01*
X0336316Y0416536D01*
X0336314Y0416667D01*
X0336316Y0416798D01*
X0336322Y0416929D01*
X0336331Y0417060D01*
X0336345Y0417191D01*
X0336363Y0417321D01*
X0336384Y0417450D01*
X0336409Y0417579D01*
X0336438Y0417707D01*
X0336471Y0417834D01*
X0336507Y0417961D01*
X0336547Y0418085D01*
X0336591Y0418209D01*
X0336639Y0418332D01*
X0336690Y0418452D01*
X0336745Y0418572D01*
X0336803Y0418689D01*
X0336864Y0418805D01*
X0336929Y0418919D01*
X0336998Y0419031D01*
X0337070Y0419141D01*
X0337144Y0419249D01*
X0337223Y0419355D01*
X0337304Y0419458D01*
X0337388Y0419558D01*
X0337475Y0419656D01*
X0337565Y0419752D01*
X0337658Y0419845D01*
X0337754Y0419935D01*
X0337852Y0420022D01*
X0337952Y0420106D01*
X0338055Y0420187D01*
X0338161Y0420266D01*
X0338269Y0420340D01*
X0338379Y0420412D01*
X0338491Y0420481D01*
X0338605Y0420546D01*
X0338721Y0420607D01*
X0338838Y0420665D01*
X0338958Y0420720D01*
X0339078Y0420771D01*
X0339201Y0420819D01*
X0339325Y0420863D01*
X0339449Y0420903D01*
X0339576Y0420939D01*
X0339703Y0420972D01*
X0339831Y0421001D01*
X0339960Y0421026D01*
X0340089Y0421047D01*
X0340219Y0421065D01*
X0340350Y0421079D01*
X0340481Y0421088D01*
X0340612Y0421094D01*
X0340743Y0421096D01*
X0337317Y0322080D02*
X0298735Y0322080D01*
X0298735Y0281135D01*
X0337317Y0281135D01*
X0337317Y0322080D01*
D12*
X0328456Y0323461D02*
X0328456Y0328065D01*
X0326154Y0328065D01*
X0325387Y0327298D01*
X0325387Y0324228D01*
X0326154Y0323461D01*
X0328456Y0323461D01*
X0323852Y0324228D02*
X0323085Y0323461D01*
X0321550Y0323461D01*
X0320783Y0324228D01*
X0320783Y0325763D01*
X0321550Y0326530D01*
X0322317Y0326530D01*
X0323852Y0325763D01*
X0323852Y0328065D01*
X0320783Y0328065D01*
X0335687Y0376321D02*
X0335687Y0378623D01*
X0336454Y0379391D01*
X0337221Y0379391D01*
X0337989Y0378623D01*
X0337989Y0376321D01*
X0340291Y0376321D02*
X0340291Y0378623D01*
X0339523Y0379391D01*
X0338756Y0379391D01*
X0337989Y0378623D01*
X0337989Y0380925D02*
X0337989Y0383995D01*
X0338756Y0383995D02*
X0335687Y0383995D01*
X0335687Y0387064D02*
X0340291Y0387064D01*
X0340291Y0388598D02*
X0340291Y0385529D01*
X0338756Y0383995D02*
X0340291Y0382460D01*
X0338756Y0380925D01*
X0335687Y0380925D01*
X0335687Y0376321D02*
X0340291Y0376321D01*
X0340291Y0390133D02*
X0340291Y0393202D01*
X0340291Y0391668D02*
X0335687Y0391668D01*
X0335687Y0394737D02*
X0335687Y0397806D01*
X0335687Y0396272D02*
X0340291Y0396272D01*
X0338756Y0394737D01*
X0453954Y0376866D02*
X0457023Y0376866D01*
X0455489Y0378400D02*
X0455489Y0375331D01*
X0455489Y0387831D02*
X0455489Y0390900D01*
X0480195Y0387297D02*
X0480195Y0385763D01*
X0480962Y0384995D01*
X0480962Y0383461D02*
X0481729Y0383461D01*
X0482497Y0382693D01*
X0482497Y0381159D01*
X0483264Y0380391D01*
X0484031Y0380391D01*
X0484799Y0381159D01*
X0484799Y0382693D01*
X0484031Y0383461D01*
X0484031Y0384995D02*
X0484799Y0385763D01*
X0484799Y0387297D01*
X0484031Y0388065D01*
X0483264Y0388065D01*
X0482497Y0387297D01*
X0481729Y0388065D01*
X0480962Y0388065D01*
X0480195Y0387297D01*
X0482497Y0387297D02*
X0482497Y0386530D01*
X0480962Y0383461D02*
X0480195Y0382693D01*
X0480195Y0381159D01*
X0480962Y0380391D01*
X0480962Y0378857D02*
X0480195Y0378089D01*
X0480195Y0376555D01*
X0480962Y0375787D01*
X0484799Y0375787D01*
X0484799Y0378857D02*
X0480962Y0378857D01*
X0479427Y0381926D02*
X0485566Y0381926D01*
X0500399Y0386251D02*
X0500399Y0386851D01*
X0500999Y0387452D01*
X0502801Y0387452D01*
X0502801Y0386251D01*
X0502200Y0385650D01*
X0500999Y0385650D01*
X0500399Y0386251D01*
X0501600Y0388653D02*
X0502801Y0387452D01*
X0501600Y0388653D02*
X0500399Y0389253D01*
X0505283Y0389253D02*
X0505283Y0385650D01*
X0506484Y0385650D02*
X0504082Y0385650D01*
X0506484Y0388052D02*
X0505283Y0389253D01*
X0507765Y0388653D02*
X0508365Y0389253D01*
X0509566Y0389253D01*
X0510167Y0388653D01*
X0510167Y0386251D01*
X0509566Y0385650D01*
X0508365Y0385650D01*
X0507765Y0386251D01*
X0489155Y0365377D02*
X0489155Y0362975D01*
X0489155Y0364176D02*
X0492758Y0364176D01*
X0491557Y0362975D01*
X0489155Y0361694D02*
X0489155Y0359292D01*
X0489155Y0360493D02*
X0492758Y0360493D01*
X0491557Y0359292D01*
X0492158Y0358011D02*
X0492758Y0357410D01*
X0492758Y0356209D01*
X0492158Y0355608D01*
X0489756Y0355608D01*
X0489155Y0356209D01*
X0489155Y0357410D01*
X0489756Y0358011D01*
X0472286Y0356902D02*
X0472286Y0355701D01*
X0471685Y0355101D01*
X0469283Y0355101D01*
X0471685Y0357503D01*
X0469283Y0357503D01*
X0468683Y0356902D01*
X0468683Y0355701D01*
X0469283Y0355101D01*
X0468683Y0353820D02*
X0468683Y0351418D01*
X0468683Y0352619D02*
X0472286Y0352619D01*
X0471085Y0351418D01*
X0471685Y0350136D02*
X0472286Y0349536D01*
X0472286Y0348335D01*
X0471685Y0347734D01*
X0469283Y0347734D01*
X0468683Y0348335D01*
X0468683Y0349536D01*
X0469283Y0350136D01*
X0472286Y0356902D02*
X0471685Y0357503D01*
D13*
X0432672Y0358694D02*
X0432674Y0358799D01*
X0432680Y0358904D01*
X0432690Y0359008D01*
X0432704Y0359112D01*
X0432722Y0359216D01*
X0432744Y0359318D01*
X0432769Y0359420D01*
X0432799Y0359521D01*
X0432832Y0359620D01*
X0432869Y0359718D01*
X0432910Y0359815D01*
X0432955Y0359910D01*
X0433003Y0360003D01*
X0433054Y0360095D01*
X0433110Y0360184D01*
X0433168Y0360271D01*
X0433230Y0360356D01*
X0433294Y0360439D01*
X0433362Y0360519D01*
X0433433Y0360596D01*
X0433507Y0360670D01*
X0433584Y0360742D01*
X0433663Y0360811D01*
X0433745Y0360876D01*
X0433829Y0360939D01*
X0433916Y0360998D01*
X0434005Y0361054D01*
X0434096Y0361107D01*
X0434189Y0361156D01*
X0434283Y0361201D01*
X0434379Y0361243D01*
X0434477Y0361281D01*
X0434576Y0361315D01*
X0434677Y0361346D01*
X0434778Y0361372D01*
X0434881Y0361395D01*
X0434984Y0361414D01*
X0435088Y0361429D01*
X0435192Y0361440D01*
X0435297Y0361447D01*
X0435402Y0361450D01*
X0435507Y0361449D01*
X0435612Y0361444D01*
X0435716Y0361435D01*
X0435820Y0361422D01*
X0435924Y0361405D01*
X0436027Y0361384D01*
X0436129Y0361359D01*
X0436230Y0361331D01*
X0436329Y0361298D01*
X0436428Y0361262D01*
X0436525Y0361222D01*
X0436620Y0361179D01*
X0436714Y0361131D01*
X0436806Y0361081D01*
X0436896Y0361027D01*
X0436984Y0360969D01*
X0437069Y0360908D01*
X0437152Y0360844D01*
X0437233Y0360777D01*
X0437311Y0360707D01*
X0437386Y0360633D01*
X0437458Y0360558D01*
X0437528Y0360479D01*
X0437594Y0360398D01*
X0437658Y0360314D01*
X0437718Y0360228D01*
X0437774Y0360140D01*
X0437828Y0360049D01*
X0437878Y0359957D01*
X0437924Y0359863D01*
X0437967Y0359767D01*
X0438006Y0359669D01*
X0438041Y0359571D01*
X0438072Y0359470D01*
X0438100Y0359369D01*
X0438124Y0359267D01*
X0438144Y0359164D01*
X0438160Y0359060D01*
X0438172Y0358956D01*
X0438180Y0358851D01*
X0438184Y0358746D01*
X0438184Y0358642D01*
X0438180Y0358537D01*
X0438172Y0358432D01*
X0438160Y0358328D01*
X0438144Y0358224D01*
X0438124Y0358121D01*
X0438100Y0358019D01*
X0438072Y0357918D01*
X0438041Y0357817D01*
X0438006Y0357719D01*
X0437967Y0357621D01*
X0437924Y0357525D01*
X0437878Y0357431D01*
X0437828Y0357339D01*
X0437774Y0357248D01*
X0437718Y0357160D01*
X0437658Y0357074D01*
X0437594Y0356990D01*
X0437528Y0356909D01*
X0437458Y0356830D01*
X0437386Y0356755D01*
X0437311Y0356681D01*
X0437233Y0356611D01*
X0437152Y0356544D01*
X0437069Y0356480D01*
X0436984Y0356419D01*
X0436896Y0356361D01*
X0436806Y0356307D01*
X0436714Y0356257D01*
X0436620Y0356209D01*
X0436525Y0356166D01*
X0436428Y0356126D01*
X0436329Y0356090D01*
X0436230Y0356057D01*
X0436129Y0356029D01*
X0436027Y0356004D01*
X0435924Y0355983D01*
X0435820Y0355966D01*
X0435716Y0355953D01*
X0435612Y0355944D01*
X0435507Y0355939D01*
X0435402Y0355938D01*
X0435297Y0355941D01*
X0435192Y0355948D01*
X0435088Y0355959D01*
X0434984Y0355974D01*
X0434881Y0355993D01*
X0434778Y0356016D01*
X0434677Y0356042D01*
X0434576Y0356073D01*
X0434477Y0356107D01*
X0434379Y0356145D01*
X0434283Y0356187D01*
X0434189Y0356232D01*
X0434096Y0356281D01*
X0434005Y0356334D01*
X0433916Y0356390D01*
X0433829Y0356449D01*
X0433745Y0356512D01*
X0433663Y0356577D01*
X0433584Y0356646D01*
X0433507Y0356718D01*
X0433433Y0356792D01*
X0433362Y0356869D01*
X0433294Y0356949D01*
X0433230Y0357032D01*
X0433168Y0357117D01*
X0433110Y0357204D01*
X0433054Y0357293D01*
X0433003Y0357385D01*
X0432955Y0357478D01*
X0432910Y0357573D01*
X0432869Y0357670D01*
X0432832Y0357768D01*
X0432799Y0357867D01*
X0432769Y0357968D01*
X0432744Y0358070D01*
X0432722Y0358172D01*
X0432704Y0358276D01*
X0432690Y0358380D01*
X0432680Y0358484D01*
X0432674Y0358589D01*
X0432672Y0358694D01*
X0432672Y0416568D02*
X0432674Y0416673D01*
X0432680Y0416778D01*
X0432690Y0416882D01*
X0432704Y0416986D01*
X0432722Y0417090D01*
X0432744Y0417192D01*
X0432769Y0417294D01*
X0432799Y0417395D01*
X0432832Y0417494D01*
X0432869Y0417592D01*
X0432910Y0417689D01*
X0432955Y0417784D01*
X0433003Y0417877D01*
X0433054Y0417969D01*
X0433110Y0418058D01*
X0433168Y0418145D01*
X0433230Y0418230D01*
X0433294Y0418313D01*
X0433362Y0418393D01*
X0433433Y0418470D01*
X0433507Y0418544D01*
X0433584Y0418616D01*
X0433663Y0418685D01*
X0433745Y0418750D01*
X0433829Y0418813D01*
X0433916Y0418872D01*
X0434005Y0418928D01*
X0434096Y0418981D01*
X0434189Y0419030D01*
X0434283Y0419075D01*
X0434379Y0419117D01*
X0434477Y0419155D01*
X0434576Y0419189D01*
X0434677Y0419220D01*
X0434778Y0419246D01*
X0434881Y0419269D01*
X0434984Y0419288D01*
X0435088Y0419303D01*
X0435192Y0419314D01*
X0435297Y0419321D01*
X0435402Y0419324D01*
X0435507Y0419323D01*
X0435612Y0419318D01*
X0435716Y0419309D01*
X0435820Y0419296D01*
X0435924Y0419279D01*
X0436027Y0419258D01*
X0436129Y0419233D01*
X0436230Y0419205D01*
X0436329Y0419172D01*
X0436428Y0419136D01*
X0436525Y0419096D01*
X0436620Y0419053D01*
X0436714Y0419005D01*
X0436806Y0418955D01*
X0436896Y0418901D01*
X0436984Y0418843D01*
X0437069Y0418782D01*
X0437152Y0418718D01*
X0437233Y0418651D01*
X0437311Y0418581D01*
X0437386Y0418507D01*
X0437458Y0418432D01*
X0437528Y0418353D01*
X0437594Y0418272D01*
X0437658Y0418188D01*
X0437718Y0418102D01*
X0437774Y0418014D01*
X0437828Y0417923D01*
X0437878Y0417831D01*
X0437924Y0417737D01*
X0437967Y0417641D01*
X0438006Y0417543D01*
X0438041Y0417445D01*
X0438072Y0417344D01*
X0438100Y0417243D01*
X0438124Y0417141D01*
X0438144Y0417038D01*
X0438160Y0416934D01*
X0438172Y0416830D01*
X0438180Y0416725D01*
X0438184Y0416620D01*
X0438184Y0416516D01*
X0438180Y0416411D01*
X0438172Y0416306D01*
X0438160Y0416202D01*
X0438144Y0416098D01*
X0438124Y0415995D01*
X0438100Y0415893D01*
X0438072Y0415792D01*
X0438041Y0415691D01*
X0438006Y0415593D01*
X0437967Y0415495D01*
X0437924Y0415399D01*
X0437878Y0415305D01*
X0437828Y0415213D01*
X0437774Y0415122D01*
X0437718Y0415034D01*
X0437658Y0414948D01*
X0437594Y0414864D01*
X0437528Y0414783D01*
X0437458Y0414704D01*
X0437386Y0414629D01*
X0437311Y0414555D01*
X0437233Y0414485D01*
X0437152Y0414418D01*
X0437069Y0414354D01*
X0436984Y0414293D01*
X0436896Y0414235D01*
X0436806Y0414181D01*
X0436714Y0414131D01*
X0436620Y0414083D01*
X0436525Y0414040D01*
X0436428Y0414000D01*
X0436329Y0413964D01*
X0436230Y0413931D01*
X0436129Y0413903D01*
X0436027Y0413878D01*
X0435924Y0413857D01*
X0435820Y0413840D01*
X0435716Y0413827D01*
X0435612Y0413818D01*
X0435507Y0413813D01*
X0435402Y0413812D01*
X0435297Y0413815D01*
X0435192Y0413822D01*
X0435088Y0413833D01*
X0434984Y0413848D01*
X0434881Y0413867D01*
X0434778Y0413890D01*
X0434677Y0413916D01*
X0434576Y0413947D01*
X0434477Y0413981D01*
X0434379Y0414019D01*
X0434283Y0414061D01*
X0434189Y0414106D01*
X0434096Y0414155D01*
X0434005Y0414208D01*
X0433916Y0414264D01*
X0433829Y0414323D01*
X0433745Y0414386D01*
X0433663Y0414451D01*
X0433584Y0414520D01*
X0433507Y0414592D01*
X0433433Y0414666D01*
X0433362Y0414743D01*
X0433294Y0414823D01*
X0433230Y0414906D01*
X0433168Y0414991D01*
X0433110Y0415078D01*
X0433054Y0415167D01*
X0433003Y0415259D01*
X0432955Y0415352D01*
X0432910Y0415447D01*
X0432869Y0415544D01*
X0432832Y0415642D01*
X0432799Y0415741D01*
X0432769Y0415842D01*
X0432744Y0415944D01*
X0432722Y0416046D01*
X0432704Y0416150D01*
X0432690Y0416254D01*
X0432680Y0416358D01*
X0432674Y0416463D01*
X0432672Y0416568D01*
X0337790Y0416568D02*
X0337792Y0416673D01*
X0337798Y0416778D01*
X0337808Y0416882D01*
X0337822Y0416986D01*
X0337840Y0417090D01*
X0337862Y0417192D01*
X0337887Y0417294D01*
X0337917Y0417395D01*
X0337950Y0417494D01*
X0337987Y0417592D01*
X0338028Y0417689D01*
X0338073Y0417784D01*
X0338121Y0417877D01*
X0338172Y0417969D01*
X0338228Y0418058D01*
X0338286Y0418145D01*
X0338348Y0418230D01*
X0338412Y0418313D01*
X0338480Y0418393D01*
X0338551Y0418470D01*
X0338625Y0418544D01*
X0338702Y0418616D01*
X0338781Y0418685D01*
X0338863Y0418750D01*
X0338947Y0418813D01*
X0339034Y0418872D01*
X0339123Y0418928D01*
X0339214Y0418981D01*
X0339307Y0419030D01*
X0339401Y0419075D01*
X0339497Y0419117D01*
X0339595Y0419155D01*
X0339694Y0419189D01*
X0339795Y0419220D01*
X0339896Y0419246D01*
X0339999Y0419269D01*
X0340102Y0419288D01*
X0340206Y0419303D01*
X0340310Y0419314D01*
X0340415Y0419321D01*
X0340520Y0419324D01*
X0340625Y0419323D01*
X0340730Y0419318D01*
X0340834Y0419309D01*
X0340938Y0419296D01*
X0341042Y0419279D01*
X0341145Y0419258D01*
X0341247Y0419233D01*
X0341348Y0419205D01*
X0341447Y0419172D01*
X0341546Y0419136D01*
X0341643Y0419096D01*
X0341738Y0419053D01*
X0341832Y0419005D01*
X0341924Y0418955D01*
X0342014Y0418901D01*
X0342102Y0418843D01*
X0342187Y0418782D01*
X0342270Y0418718D01*
X0342351Y0418651D01*
X0342429Y0418581D01*
X0342504Y0418507D01*
X0342576Y0418432D01*
X0342646Y0418353D01*
X0342712Y0418272D01*
X0342776Y0418188D01*
X0342836Y0418102D01*
X0342892Y0418014D01*
X0342946Y0417923D01*
X0342996Y0417831D01*
X0343042Y0417737D01*
X0343085Y0417641D01*
X0343124Y0417543D01*
X0343159Y0417445D01*
X0343190Y0417344D01*
X0343218Y0417243D01*
X0343242Y0417141D01*
X0343262Y0417038D01*
X0343278Y0416934D01*
X0343290Y0416830D01*
X0343298Y0416725D01*
X0343302Y0416620D01*
X0343302Y0416516D01*
X0343298Y0416411D01*
X0343290Y0416306D01*
X0343278Y0416202D01*
X0343262Y0416098D01*
X0343242Y0415995D01*
X0343218Y0415893D01*
X0343190Y0415792D01*
X0343159Y0415691D01*
X0343124Y0415593D01*
X0343085Y0415495D01*
X0343042Y0415399D01*
X0342996Y0415305D01*
X0342946Y0415213D01*
X0342892Y0415122D01*
X0342836Y0415034D01*
X0342776Y0414948D01*
X0342712Y0414864D01*
X0342646Y0414783D01*
X0342576Y0414704D01*
X0342504Y0414629D01*
X0342429Y0414555D01*
X0342351Y0414485D01*
X0342270Y0414418D01*
X0342187Y0414354D01*
X0342102Y0414293D01*
X0342014Y0414235D01*
X0341924Y0414181D01*
X0341832Y0414131D01*
X0341738Y0414083D01*
X0341643Y0414040D01*
X0341546Y0414000D01*
X0341447Y0413964D01*
X0341348Y0413931D01*
X0341247Y0413903D01*
X0341145Y0413878D01*
X0341042Y0413857D01*
X0340938Y0413840D01*
X0340834Y0413827D01*
X0340730Y0413818D01*
X0340625Y0413813D01*
X0340520Y0413812D01*
X0340415Y0413815D01*
X0340310Y0413822D01*
X0340206Y0413833D01*
X0340102Y0413848D01*
X0339999Y0413867D01*
X0339896Y0413890D01*
X0339795Y0413916D01*
X0339694Y0413947D01*
X0339595Y0413981D01*
X0339497Y0414019D01*
X0339401Y0414061D01*
X0339307Y0414106D01*
X0339214Y0414155D01*
X0339123Y0414208D01*
X0339034Y0414264D01*
X0338947Y0414323D01*
X0338863Y0414386D01*
X0338781Y0414451D01*
X0338702Y0414520D01*
X0338625Y0414592D01*
X0338551Y0414666D01*
X0338480Y0414743D01*
X0338412Y0414823D01*
X0338348Y0414906D01*
X0338286Y0414991D01*
X0338228Y0415078D01*
X0338172Y0415167D01*
X0338121Y0415259D01*
X0338073Y0415352D01*
X0338028Y0415447D01*
X0337987Y0415544D01*
X0337950Y0415642D01*
X0337917Y0415741D01*
X0337887Y0415842D01*
X0337862Y0415944D01*
X0337840Y0416046D01*
X0337822Y0416150D01*
X0337808Y0416254D01*
X0337798Y0416358D01*
X0337792Y0416463D01*
X0337790Y0416568D01*
X0337790Y0358694D02*
X0337792Y0358799D01*
X0337798Y0358904D01*
X0337808Y0359008D01*
X0337822Y0359112D01*
X0337840Y0359216D01*
X0337862Y0359318D01*
X0337887Y0359420D01*
X0337917Y0359521D01*
X0337950Y0359620D01*
X0337987Y0359718D01*
X0338028Y0359815D01*
X0338073Y0359910D01*
X0338121Y0360003D01*
X0338172Y0360095D01*
X0338228Y0360184D01*
X0338286Y0360271D01*
X0338348Y0360356D01*
X0338412Y0360439D01*
X0338480Y0360519D01*
X0338551Y0360596D01*
X0338625Y0360670D01*
X0338702Y0360742D01*
X0338781Y0360811D01*
X0338863Y0360876D01*
X0338947Y0360939D01*
X0339034Y0360998D01*
X0339123Y0361054D01*
X0339214Y0361107D01*
X0339307Y0361156D01*
X0339401Y0361201D01*
X0339497Y0361243D01*
X0339595Y0361281D01*
X0339694Y0361315D01*
X0339795Y0361346D01*
X0339896Y0361372D01*
X0339999Y0361395D01*
X0340102Y0361414D01*
X0340206Y0361429D01*
X0340310Y0361440D01*
X0340415Y0361447D01*
X0340520Y0361450D01*
X0340625Y0361449D01*
X0340730Y0361444D01*
X0340834Y0361435D01*
X0340938Y0361422D01*
X0341042Y0361405D01*
X0341145Y0361384D01*
X0341247Y0361359D01*
X0341348Y0361331D01*
X0341447Y0361298D01*
X0341546Y0361262D01*
X0341643Y0361222D01*
X0341738Y0361179D01*
X0341832Y0361131D01*
X0341924Y0361081D01*
X0342014Y0361027D01*
X0342102Y0360969D01*
X0342187Y0360908D01*
X0342270Y0360844D01*
X0342351Y0360777D01*
X0342429Y0360707D01*
X0342504Y0360633D01*
X0342576Y0360558D01*
X0342646Y0360479D01*
X0342712Y0360398D01*
X0342776Y0360314D01*
X0342836Y0360228D01*
X0342892Y0360140D01*
X0342946Y0360049D01*
X0342996Y0359957D01*
X0343042Y0359863D01*
X0343085Y0359767D01*
X0343124Y0359669D01*
X0343159Y0359571D01*
X0343190Y0359470D01*
X0343218Y0359369D01*
X0343242Y0359267D01*
X0343262Y0359164D01*
X0343278Y0359060D01*
X0343290Y0358956D01*
X0343298Y0358851D01*
X0343302Y0358746D01*
X0343302Y0358642D01*
X0343298Y0358537D01*
X0343290Y0358432D01*
X0343278Y0358328D01*
X0343262Y0358224D01*
X0343242Y0358121D01*
X0343218Y0358019D01*
X0343190Y0357918D01*
X0343159Y0357817D01*
X0343124Y0357719D01*
X0343085Y0357621D01*
X0343042Y0357525D01*
X0342996Y0357431D01*
X0342946Y0357339D01*
X0342892Y0357248D01*
X0342836Y0357160D01*
X0342776Y0357074D01*
X0342712Y0356990D01*
X0342646Y0356909D01*
X0342576Y0356830D01*
X0342504Y0356755D01*
X0342429Y0356681D01*
X0342351Y0356611D01*
X0342270Y0356544D01*
X0342187Y0356480D01*
X0342102Y0356419D01*
X0342014Y0356361D01*
X0341924Y0356307D01*
X0341832Y0356257D01*
X0341738Y0356209D01*
X0341643Y0356166D01*
X0341546Y0356126D01*
X0341447Y0356090D01*
X0341348Y0356057D01*
X0341247Y0356029D01*
X0341145Y0356004D01*
X0341042Y0355983D01*
X0340938Y0355966D01*
X0340834Y0355953D01*
X0340730Y0355944D01*
X0340625Y0355939D01*
X0340520Y0355938D01*
X0340415Y0355941D01*
X0340310Y0355948D01*
X0340206Y0355959D01*
X0340102Y0355974D01*
X0339999Y0355993D01*
X0339896Y0356016D01*
X0339795Y0356042D01*
X0339694Y0356073D01*
X0339595Y0356107D01*
X0339497Y0356145D01*
X0339401Y0356187D01*
X0339307Y0356232D01*
X0339214Y0356281D01*
X0339123Y0356334D01*
X0339034Y0356390D01*
X0338947Y0356449D01*
X0338863Y0356512D01*
X0338781Y0356577D01*
X0338702Y0356646D01*
X0338625Y0356718D01*
X0338551Y0356792D01*
X0338480Y0356869D01*
X0338412Y0356949D01*
X0338348Y0357032D01*
X0338286Y0357117D01*
X0338228Y0357204D01*
X0338172Y0357293D01*
X0338121Y0357385D01*
X0338073Y0357478D01*
X0338028Y0357573D01*
X0337987Y0357670D01*
X0337950Y0357768D01*
X0337917Y0357867D01*
X0337887Y0357968D01*
X0337862Y0358070D01*
X0337840Y0358172D01*
X0337822Y0358276D01*
X0337808Y0358380D01*
X0337798Y0358484D01*
X0337792Y0358589D01*
X0337790Y0358694D01*
D14*
X0465979Y0361647D02*
X0465979Y0369521D01*
X0472987Y0369521D02*
X0472987Y0361647D01*
X0486451Y0369521D02*
X0486451Y0377395D01*
X0488380Y0382946D02*
X0496254Y0382946D01*
X0493459Y0377395D02*
X0493459Y0369521D01*
X0496254Y0389954D02*
X0488380Y0389954D01*
D15*
X0331249Y0323655D02*
X0331251Y0323702D01*
X0331257Y0323748D01*
X0331266Y0323794D01*
X0331280Y0323838D01*
X0331297Y0323882D01*
X0331318Y0323923D01*
X0331342Y0323963D01*
X0331369Y0324001D01*
X0331400Y0324036D01*
X0331433Y0324069D01*
X0331469Y0324099D01*
X0331508Y0324125D01*
X0331548Y0324149D01*
X0331590Y0324168D01*
X0331634Y0324185D01*
X0331679Y0324197D01*
X0331725Y0324206D01*
X0331771Y0324211D01*
X0331818Y0324212D01*
X0331864Y0324209D01*
X0331910Y0324202D01*
X0331956Y0324191D01*
X0332000Y0324177D01*
X0332043Y0324159D01*
X0332084Y0324137D01*
X0332124Y0324112D01*
X0332161Y0324084D01*
X0332196Y0324053D01*
X0332228Y0324019D01*
X0332257Y0323982D01*
X0332282Y0323944D01*
X0332305Y0323903D01*
X0332324Y0323860D01*
X0332339Y0323816D01*
X0332351Y0323771D01*
X0332359Y0323725D01*
X0332363Y0323678D01*
X0332363Y0323632D01*
X0332359Y0323585D01*
X0332351Y0323539D01*
X0332339Y0323494D01*
X0332324Y0323450D01*
X0332305Y0323407D01*
X0332282Y0323366D01*
X0332257Y0323328D01*
X0332228Y0323291D01*
X0332196Y0323257D01*
X0332161Y0323226D01*
X0332124Y0323198D01*
X0332085Y0323173D01*
X0332043Y0323151D01*
X0332000Y0323133D01*
X0331956Y0323119D01*
X0331910Y0323108D01*
X0331864Y0323101D01*
X0331818Y0323098D01*
X0331771Y0323099D01*
X0331725Y0323104D01*
X0331679Y0323113D01*
X0331634Y0323125D01*
X0331590Y0323142D01*
X0331548Y0323161D01*
X0331508Y0323185D01*
X0331469Y0323211D01*
X0331433Y0323241D01*
X0331400Y0323274D01*
X0331369Y0323309D01*
X0331342Y0323347D01*
X0331318Y0323387D01*
X0331297Y0323428D01*
X0331280Y0323472D01*
X0331266Y0323516D01*
X0331257Y0323562D01*
X0331251Y0323608D01*
X0331249Y0323655D01*
D16*
X0467869Y0376521D02*
X0474247Y0376521D01*
X0474247Y0381064D02*
X0474247Y0383174D01*
X0474247Y0387718D02*
X0467869Y0387718D01*
M02*
