G75*
%MOIN*%
%OFA0B0*%
%FSLAX25Y25*%
%IPPOS*%
%LPD*%
%AMOC8*
5,1,8,0,0,1.08239X$1,22.5*
%
%ADD10C,0.06312*%
%ADD11C,0.06737*%
%ADD12C,0.00039*%
%ADD13C,0.08274*%
%ADD14R,0.08200X0.08200*%
%ADD15OC8,0.08200*%
%ADD16C,0.08200*%
%ADD17R,0.03162X0.03162*%
%ADD18R,0.09658X0.12217*%
%ADD19R,0.09855X0.04737*%
%ADD20C,0.06162*%
%ADD21C,0.05300*%
D10*
X0340546Y0358694D03*
X0340546Y0416568D03*
X0435428Y0416568D03*
X0435428Y0358694D03*
D11*
X0442518Y0377631D02*
X0448455Y0377631D01*
X0448455Y0387631D02*
X0442518Y0387631D01*
D12*
X0447906Y0367594D02*
X0447396Y0367356D01*
X0446935Y0367033D01*
X0446537Y0366635D01*
X0446215Y0366174D01*
X0445977Y0365665D01*
X0445831Y0365121D01*
X0445782Y0364560D01*
X0445831Y0364000D01*
X0445977Y0363456D01*
X0446215Y0362946D01*
X0446537Y0362485D01*
X0446935Y0362087D01*
X0447396Y0361765D01*
X0447906Y0361527D01*
X0448450Y0361381D01*
X0449010Y0361332D01*
X0449571Y0361381D01*
X0450115Y0361527D01*
X0450625Y0361765D01*
X0451086Y0362087D01*
X0451484Y0362485D01*
X0451806Y0362946D01*
X0452044Y0363456D01*
X0452190Y0364000D01*
X0452239Y0364560D01*
X0452190Y0365121D01*
X0452044Y0365665D01*
X0451806Y0366174D01*
X0451484Y0366635D01*
X0451086Y0367033D01*
X0450625Y0367356D01*
X0450115Y0367594D01*
X0449571Y0367739D01*
X0449010Y0367789D01*
X0448450Y0367739D01*
X0447906Y0367594D01*
X0447902Y0367592D02*
X0450119Y0367592D01*
X0450200Y0367554D02*
X0447821Y0367554D01*
X0447740Y0367516D02*
X0450281Y0367516D01*
X0450362Y0367478D02*
X0447658Y0367478D01*
X0447577Y0367440D02*
X0450444Y0367440D01*
X0450525Y0367402D02*
X0447496Y0367402D01*
X0447415Y0367365D02*
X0450606Y0367365D01*
X0450666Y0367327D02*
X0447354Y0367327D01*
X0447300Y0367289D02*
X0450721Y0367289D01*
X0450775Y0367251D02*
X0447246Y0367251D01*
X0447192Y0367213D02*
X0450829Y0367213D01*
X0450883Y0367175D02*
X0447138Y0367175D01*
X0447084Y0367137D02*
X0450937Y0367137D01*
X0450991Y0367099D02*
X0447029Y0367099D01*
X0446975Y0367062D02*
X0451045Y0367062D01*
X0451095Y0367024D02*
X0446925Y0367024D01*
X0446887Y0366986D02*
X0451133Y0366986D01*
X0451171Y0366948D02*
X0446850Y0366948D01*
X0446812Y0366910D02*
X0451209Y0366910D01*
X0451247Y0366872D02*
X0446774Y0366872D01*
X0446736Y0366834D02*
X0451285Y0366834D01*
X0451323Y0366796D02*
X0446698Y0366796D01*
X0446660Y0366758D02*
X0451361Y0366758D01*
X0451398Y0366721D02*
X0446622Y0366721D01*
X0446584Y0366683D02*
X0451436Y0366683D01*
X0451474Y0366645D02*
X0446547Y0366645D01*
X0446517Y0366607D02*
X0451504Y0366607D01*
X0451530Y0366569D02*
X0446491Y0366569D01*
X0446464Y0366531D02*
X0451557Y0366531D01*
X0451583Y0366493D02*
X0446438Y0366493D01*
X0446411Y0366455D02*
X0451610Y0366455D01*
X0451636Y0366418D02*
X0446385Y0366418D01*
X0446358Y0366380D02*
X0451663Y0366380D01*
X0451689Y0366342D02*
X0446332Y0366342D01*
X0446305Y0366304D02*
X0451716Y0366304D01*
X0451742Y0366266D02*
X0446279Y0366266D01*
X0446252Y0366228D02*
X0451769Y0366228D01*
X0451795Y0366190D02*
X0446226Y0366190D01*
X0446204Y0366152D02*
X0451816Y0366152D01*
X0451834Y0366114D02*
X0446187Y0366114D01*
X0446169Y0366077D02*
X0451852Y0366077D01*
X0451869Y0366039D02*
X0446151Y0366039D01*
X0446134Y0366001D02*
X0451887Y0366001D01*
X0451905Y0365963D02*
X0446116Y0365963D01*
X0446098Y0365925D02*
X0451922Y0365925D01*
X0451940Y0365887D02*
X0446081Y0365887D01*
X0446063Y0365849D02*
X0451958Y0365849D01*
X0451975Y0365811D02*
X0446045Y0365811D01*
X0446028Y0365774D02*
X0451993Y0365774D01*
X0452011Y0365736D02*
X0446010Y0365736D01*
X0445992Y0365698D02*
X0452028Y0365698D01*
X0452045Y0365660D02*
X0445976Y0365660D01*
X0445966Y0365622D02*
X0452055Y0365622D01*
X0452065Y0365584D02*
X0445955Y0365584D01*
X0445945Y0365546D02*
X0452076Y0365546D01*
X0452086Y0365508D02*
X0445935Y0365508D01*
X0445925Y0365471D02*
X0452096Y0365471D01*
X0452106Y0365433D02*
X0445915Y0365433D01*
X0445905Y0365395D02*
X0452116Y0365395D01*
X0452126Y0365357D02*
X0445894Y0365357D01*
X0445884Y0365319D02*
X0452136Y0365319D01*
X0452147Y0365281D02*
X0445874Y0365281D01*
X0445864Y0365243D02*
X0452157Y0365243D01*
X0452167Y0365205D02*
X0445854Y0365205D01*
X0445844Y0365167D02*
X0452177Y0365167D01*
X0452187Y0365130D02*
X0445834Y0365130D01*
X0445829Y0365092D02*
X0452192Y0365092D01*
X0452195Y0365054D02*
X0445825Y0365054D01*
X0445822Y0365016D02*
X0452199Y0365016D01*
X0452202Y0364978D02*
X0445819Y0364978D01*
X0445815Y0364940D02*
X0452205Y0364940D01*
X0452209Y0364902D02*
X0445812Y0364902D01*
X0445809Y0364864D02*
X0452212Y0364864D01*
X0452215Y0364827D02*
X0445805Y0364827D01*
X0445802Y0364789D02*
X0452219Y0364789D01*
X0452222Y0364751D02*
X0445799Y0364751D01*
X0445795Y0364713D02*
X0452225Y0364713D01*
X0452229Y0364675D02*
X0445792Y0364675D01*
X0445789Y0364637D02*
X0452232Y0364637D01*
X0452235Y0364599D02*
X0445785Y0364599D01*
X0445782Y0364561D02*
X0452239Y0364561D01*
X0452235Y0364523D02*
X0445785Y0364523D01*
X0445789Y0364486D02*
X0452232Y0364486D01*
X0452229Y0364448D02*
X0445792Y0364448D01*
X0445795Y0364410D02*
X0452226Y0364410D01*
X0452222Y0364372D02*
X0445799Y0364372D01*
X0445802Y0364334D02*
X0452219Y0364334D01*
X0452216Y0364296D02*
X0445805Y0364296D01*
X0445809Y0364258D02*
X0452212Y0364258D01*
X0452209Y0364220D02*
X0445812Y0364220D01*
X0445815Y0364183D02*
X0452206Y0364183D01*
X0452202Y0364145D02*
X0445819Y0364145D01*
X0445822Y0364107D02*
X0452199Y0364107D01*
X0452196Y0364069D02*
X0445825Y0364069D01*
X0445828Y0364031D02*
X0452192Y0364031D01*
X0452188Y0363993D02*
X0445833Y0363993D01*
X0445843Y0363955D02*
X0452178Y0363955D01*
X0452167Y0363917D02*
X0445853Y0363917D01*
X0445863Y0363879D02*
X0452157Y0363879D01*
X0452147Y0363842D02*
X0445874Y0363842D01*
X0445884Y0363804D02*
X0452137Y0363804D01*
X0452127Y0363766D02*
X0445894Y0363766D01*
X0445904Y0363728D02*
X0452117Y0363728D01*
X0452107Y0363690D02*
X0445914Y0363690D01*
X0445924Y0363652D02*
X0452096Y0363652D01*
X0452086Y0363614D02*
X0445934Y0363614D01*
X0445945Y0363576D02*
X0452076Y0363576D01*
X0452066Y0363539D02*
X0445955Y0363539D01*
X0445965Y0363501D02*
X0452056Y0363501D01*
X0452046Y0363463D02*
X0445975Y0363463D01*
X0445991Y0363425D02*
X0452029Y0363425D01*
X0452012Y0363387D02*
X0446009Y0363387D01*
X0446027Y0363349D02*
X0451994Y0363349D01*
X0451976Y0363311D02*
X0446044Y0363311D01*
X0446062Y0363273D02*
X0451959Y0363273D01*
X0451941Y0363236D02*
X0446080Y0363236D01*
X0446097Y0363198D02*
X0451923Y0363198D01*
X0451906Y0363160D02*
X0446115Y0363160D01*
X0446133Y0363122D02*
X0451888Y0363122D01*
X0451870Y0363084D02*
X0446150Y0363084D01*
X0446168Y0363046D02*
X0451853Y0363046D01*
X0451835Y0363008D02*
X0446186Y0363008D01*
X0446203Y0362970D02*
X0451817Y0362970D01*
X0451797Y0362932D02*
X0446224Y0362932D01*
X0446251Y0362895D02*
X0451770Y0362895D01*
X0451744Y0362857D02*
X0446277Y0362857D01*
X0446304Y0362819D02*
X0451717Y0362819D01*
X0451691Y0362781D02*
X0446330Y0362781D01*
X0446357Y0362743D02*
X0451664Y0362743D01*
X0451638Y0362705D02*
X0446383Y0362705D01*
X0446410Y0362667D02*
X0451611Y0362667D01*
X0451585Y0362629D02*
X0446436Y0362629D01*
X0446463Y0362592D02*
X0451558Y0362592D01*
X0451532Y0362554D02*
X0446489Y0362554D01*
X0446516Y0362516D02*
X0451505Y0362516D01*
X0451476Y0362478D02*
X0446544Y0362478D01*
X0446582Y0362440D02*
X0451439Y0362440D01*
X0451401Y0362402D02*
X0446620Y0362402D01*
X0446658Y0362364D02*
X0451363Y0362364D01*
X0451325Y0362326D02*
X0446696Y0362326D01*
X0446734Y0362288D02*
X0451287Y0362288D01*
X0451249Y0362251D02*
X0446772Y0362251D01*
X0446810Y0362213D02*
X0451211Y0362213D01*
X0451173Y0362175D02*
X0446847Y0362175D01*
X0446885Y0362137D02*
X0451135Y0362137D01*
X0451098Y0362099D02*
X0446923Y0362099D01*
X0446972Y0362061D02*
X0451049Y0362061D01*
X0450994Y0362023D02*
X0447026Y0362023D01*
X0447080Y0361985D02*
X0450940Y0361985D01*
X0450886Y0361948D02*
X0447135Y0361948D01*
X0447189Y0361910D02*
X0450832Y0361910D01*
X0450778Y0361872D02*
X0447243Y0361872D01*
X0447297Y0361834D02*
X0450724Y0361834D01*
X0450669Y0361796D02*
X0447351Y0361796D01*
X0447410Y0361758D02*
X0450611Y0361758D01*
X0450529Y0361720D02*
X0447491Y0361720D01*
X0447572Y0361682D02*
X0450448Y0361682D01*
X0450367Y0361644D02*
X0447654Y0361644D01*
X0447735Y0361607D02*
X0450286Y0361607D01*
X0450205Y0361569D02*
X0447816Y0361569D01*
X0447897Y0361531D02*
X0450123Y0361531D01*
X0449988Y0361493D02*
X0448032Y0361493D01*
X0448174Y0361455D02*
X0449847Y0361455D01*
X0449706Y0361417D02*
X0448315Y0361417D01*
X0448470Y0361379D02*
X0449550Y0361379D01*
X0449119Y0361341D02*
X0448902Y0361341D01*
X0445762Y0357808D02*
X0452258Y0357808D01*
X0452258Y0351312D01*
X0445762Y0351312D01*
X0445762Y0357808D01*
X0445762Y0357781D02*
X0452258Y0357781D01*
X0452258Y0357743D02*
X0445762Y0357743D01*
X0445762Y0357705D02*
X0452258Y0357705D01*
X0452258Y0357667D02*
X0445762Y0357667D01*
X0445762Y0357629D02*
X0452258Y0357629D01*
X0452258Y0357591D02*
X0445762Y0357591D01*
X0445762Y0357553D02*
X0452258Y0357553D01*
X0452258Y0357515D02*
X0445762Y0357515D01*
X0445762Y0357478D02*
X0452258Y0357478D01*
X0452258Y0357440D02*
X0445762Y0357440D01*
X0445762Y0357402D02*
X0452258Y0357402D01*
X0452258Y0357364D02*
X0445762Y0357364D01*
X0445762Y0357326D02*
X0452258Y0357326D01*
X0452258Y0357288D02*
X0445762Y0357288D01*
X0445762Y0357250D02*
X0452258Y0357250D01*
X0452258Y0357212D02*
X0445762Y0357212D01*
X0445762Y0357174D02*
X0452258Y0357174D01*
X0452258Y0357137D02*
X0445762Y0357137D01*
X0445762Y0357099D02*
X0452258Y0357099D01*
X0452258Y0357061D02*
X0445762Y0357061D01*
X0445762Y0357023D02*
X0452258Y0357023D01*
X0452258Y0356985D02*
X0445762Y0356985D01*
X0445762Y0356947D02*
X0452258Y0356947D01*
X0452258Y0356909D02*
X0445762Y0356909D01*
X0445762Y0356871D02*
X0452258Y0356871D01*
X0452258Y0356834D02*
X0445762Y0356834D01*
X0445762Y0356796D02*
X0452258Y0356796D01*
X0452258Y0356758D02*
X0445762Y0356758D01*
X0445762Y0356720D02*
X0452258Y0356720D01*
X0452258Y0356682D02*
X0445762Y0356682D01*
X0445762Y0356644D02*
X0452258Y0356644D01*
X0452258Y0356606D02*
X0445762Y0356606D01*
X0445762Y0356568D02*
X0452258Y0356568D01*
X0452258Y0356530D02*
X0445762Y0356530D01*
X0445762Y0356493D02*
X0452258Y0356493D01*
X0452258Y0356455D02*
X0445762Y0356455D01*
X0445762Y0356417D02*
X0452258Y0356417D01*
X0452258Y0356379D02*
X0445762Y0356379D01*
X0445762Y0356341D02*
X0452258Y0356341D01*
X0452258Y0356303D02*
X0445762Y0356303D01*
X0445762Y0356265D02*
X0452258Y0356265D01*
X0452258Y0356227D02*
X0445762Y0356227D01*
X0445762Y0356190D02*
X0452258Y0356190D01*
X0452258Y0356152D02*
X0445762Y0356152D01*
X0445762Y0356114D02*
X0452258Y0356114D01*
X0452258Y0356076D02*
X0445762Y0356076D01*
X0445762Y0356038D02*
X0452258Y0356038D01*
X0452258Y0356000D02*
X0445762Y0356000D01*
X0445762Y0355962D02*
X0452258Y0355962D01*
X0452258Y0355924D02*
X0445762Y0355924D01*
X0445762Y0355887D02*
X0452258Y0355887D01*
X0452258Y0355849D02*
X0445762Y0355849D01*
X0445762Y0355811D02*
X0452258Y0355811D01*
X0452258Y0355773D02*
X0445762Y0355773D01*
X0445762Y0355735D02*
X0452258Y0355735D01*
X0452258Y0355697D02*
X0445762Y0355697D01*
X0445762Y0355659D02*
X0452258Y0355659D01*
X0452258Y0355621D02*
X0445762Y0355621D01*
X0445762Y0355583D02*
X0452258Y0355583D01*
X0452258Y0355546D02*
X0445762Y0355546D01*
X0445762Y0355508D02*
X0452258Y0355508D01*
X0452258Y0355470D02*
X0445762Y0355470D01*
X0445762Y0355432D02*
X0452258Y0355432D01*
X0452258Y0355394D02*
X0445762Y0355394D01*
X0445762Y0355356D02*
X0452258Y0355356D01*
X0452258Y0355318D02*
X0445762Y0355318D01*
X0445762Y0355280D02*
X0452258Y0355280D01*
X0452258Y0355243D02*
X0445762Y0355243D01*
X0445762Y0355205D02*
X0452258Y0355205D01*
X0452258Y0355167D02*
X0445762Y0355167D01*
X0445762Y0355129D02*
X0452258Y0355129D01*
X0452258Y0355091D02*
X0445762Y0355091D01*
X0445762Y0355053D02*
X0452258Y0355053D01*
X0452258Y0355015D02*
X0445762Y0355015D01*
X0445762Y0354977D02*
X0452258Y0354977D01*
X0452258Y0354939D02*
X0445762Y0354939D01*
X0445762Y0354902D02*
X0452258Y0354902D01*
X0452258Y0354864D02*
X0445762Y0354864D01*
X0445762Y0354826D02*
X0452258Y0354826D01*
X0452258Y0354788D02*
X0445762Y0354788D01*
X0445762Y0354750D02*
X0452258Y0354750D01*
X0452258Y0354712D02*
X0445762Y0354712D01*
X0445762Y0354674D02*
X0452258Y0354674D01*
X0452258Y0354636D02*
X0445762Y0354636D01*
X0445762Y0354599D02*
X0452258Y0354599D01*
X0452258Y0354561D02*
X0445762Y0354561D01*
X0445762Y0354523D02*
X0452258Y0354523D01*
X0452258Y0354485D02*
X0445762Y0354485D01*
X0445762Y0354447D02*
X0452258Y0354447D01*
X0452258Y0354409D02*
X0445762Y0354409D01*
X0445762Y0354371D02*
X0452258Y0354371D01*
X0452258Y0354333D02*
X0445762Y0354333D01*
X0445762Y0354295D02*
X0452258Y0354295D01*
X0452258Y0354258D02*
X0445762Y0354258D01*
X0445762Y0354220D02*
X0452258Y0354220D01*
X0452258Y0354182D02*
X0445762Y0354182D01*
X0445762Y0354144D02*
X0452258Y0354144D01*
X0452258Y0354106D02*
X0445762Y0354106D01*
X0445762Y0354068D02*
X0452258Y0354068D01*
X0452258Y0354030D02*
X0445762Y0354030D01*
X0445762Y0353992D02*
X0452258Y0353992D01*
X0452258Y0353955D02*
X0445762Y0353955D01*
X0445762Y0353917D02*
X0452258Y0353917D01*
X0452258Y0353879D02*
X0445762Y0353879D01*
X0445762Y0353841D02*
X0452258Y0353841D01*
X0452258Y0353803D02*
X0445762Y0353803D01*
X0445762Y0353765D02*
X0452258Y0353765D01*
X0452258Y0353727D02*
X0445762Y0353727D01*
X0445762Y0353689D02*
X0452258Y0353689D01*
X0452258Y0353652D02*
X0445762Y0353652D01*
X0445762Y0353614D02*
X0452258Y0353614D01*
X0452258Y0353576D02*
X0445762Y0353576D01*
X0445762Y0353538D02*
X0452258Y0353538D01*
X0452258Y0353500D02*
X0445762Y0353500D01*
X0445762Y0353462D02*
X0452258Y0353462D01*
X0452258Y0353424D02*
X0445762Y0353424D01*
X0445762Y0353386D02*
X0452258Y0353386D01*
X0452258Y0353348D02*
X0445762Y0353348D01*
X0445762Y0353311D02*
X0452258Y0353311D01*
X0452258Y0353273D02*
X0445762Y0353273D01*
X0445762Y0353235D02*
X0452258Y0353235D01*
X0452258Y0353197D02*
X0445762Y0353197D01*
X0445762Y0353159D02*
X0452258Y0353159D01*
X0452258Y0353121D02*
X0445762Y0353121D01*
X0445762Y0353083D02*
X0452258Y0353083D01*
X0452258Y0353045D02*
X0445762Y0353045D01*
X0445762Y0353008D02*
X0452258Y0353008D01*
X0452258Y0352970D02*
X0445762Y0352970D01*
X0445762Y0352932D02*
X0452258Y0352932D01*
X0452258Y0352894D02*
X0445762Y0352894D01*
X0445762Y0352856D02*
X0452258Y0352856D01*
X0452258Y0352818D02*
X0445762Y0352818D01*
X0445762Y0352780D02*
X0452258Y0352780D01*
X0452258Y0352742D02*
X0445762Y0352742D01*
X0445762Y0352704D02*
X0452258Y0352704D01*
X0452258Y0352667D02*
X0445762Y0352667D01*
X0445762Y0352629D02*
X0452258Y0352629D01*
X0452258Y0352591D02*
X0445762Y0352591D01*
X0445762Y0352553D02*
X0452258Y0352553D01*
X0452258Y0352515D02*
X0445762Y0352515D01*
X0445762Y0352477D02*
X0452258Y0352477D01*
X0452258Y0352439D02*
X0445762Y0352439D01*
X0445762Y0352401D02*
X0452258Y0352401D01*
X0452258Y0352364D02*
X0445762Y0352364D01*
X0445762Y0352326D02*
X0452258Y0352326D01*
X0452258Y0352288D02*
X0445762Y0352288D01*
X0445762Y0352250D02*
X0452258Y0352250D01*
X0452258Y0352212D02*
X0445762Y0352212D01*
X0445762Y0352174D02*
X0452258Y0352174D01*
X0452258Y0352136D02*
X0445762Y0352136D01*
X0445762Y0352098D02*
X0452258Y0352098D01*
X0452258Y0352060D02*
X0445762Y0352060D01*
X0445762Y0352023D02*
X0452258Y0352023D01*
X0452258Y0351985D02*
X0445762Y0351985D01*
X0445762Y0351947D02*
X0452258Y0351947D01*
X0452258Y0351909D02*
X0445762Y0351909D01*
X0445762Y0351871D02*
X0452258Y0351871D01*
X0452258Y0351833D02*
X0445762Y0351833D01*
X0445762Y0351795D02*
X0452258Y0351795D01*
X0452258Y0351757D02*
X0445762Y0351757D01*
X0445762Y0351720D02*
X0452258Y0351720D01*
X0452258Y0351682D02*
X0445762Y0351682D01*
X0445762Y0351644D02*
X0452258Y0351644D01*
X0452258Y0351606D02*
X0445762Y0351606D01*
X0445762Y0351568D02*
X0452258Y0351568D01*
X0452258Y0351530D02*
X0445762Y0351530D01*
X0445762Y0351492D02*
X0452258Y0351492D01*
X0452258Y0351454D02*
X0445762Y0351454D01*
X0445762Y0351417D02*
X0452258Y0351417D01*
X0452258Y0351379D02*
X0445762Y0351379D01*
X0445762Y0351341D02*
X0452258Y0351341D01*
X0449980Y0367630D02*
X0448041Y0367630D01*
X0448182Y0367668D02*
X0449839Y0367668D01*
X0449697Y0367706D02*
X0448323Y0367706D01*
X0448495Y0367743D02*
X0449525Y0367743D01*
X0449094Y0367781D02*
X0448927Y0367781D01*
X0466688Y0367966D02*
X0466700Y0367812D01*
X0466736Y0367661D01*
X0466795Y0367519D01*
X0466875Y0367387D01*
X0466976Y0367270D01*
X0467093Y0367169D01*
X0467225Y0367089D01*
X0467367Y0367030D01*
X0467518Y0366994D01*
X0467672Y0366982D01*
X0471294Y0366982D01*
X0471448Y0366994D01*
X0471598Y0367030D01*
X0471741Y0367089D01*
X0471872Y0367169D01*
X0471990Y0367270D01*
X0472090Y0367387D01*
X0472171Y0367519D01*
X0472230Y0367661D01*
X0472266Y0367812D01*
X0472278Y0370249D01*
X0472266Y0370403D01*
X0472230Y0370554D01*
X0472171Y0370696D01*
X0472090Y0370828D01*
X0471990Y0370945D01*
X0471872Y0371046D01*
X0471741Y0371126D01*
X0471598Y0371185D01*
X0471448Y0371221D01*
X0471294Y0371233D01*
X0469483Y0371233D01*
X0467672Y0371233D01*
X0467518Y0371221D01*
X0467367Y0371185D01*
X0467225Y0371126D01*
X0467093Y0371046D01*
X0466976Y0370945D01*
X0466875Y0370828D01*
X0466795Y0370696D01*
X0466736Y0370554D01*
X0466700Y0370403D01*
X0466688Y0367966D01*
X0466688Y0367971D02*
X0472267Y0367971D01*
X0472267Y0368009D02*
X0466688Y0368009D01*
X0466688Y0368046D02*
X0472267Y0368046D01*
X0472267Y0368084D02*
X0466688Y0368084D01*
X0466688Y0368122D02*
X0472267Y0368122D01*
X0472268Y0368160D02*
X0466689Y0368160D01*
X0466689Y0368198D02*
X0472268Y0368198D01*
X0472268Y0368236D02*
X0466689Y0368236D01*
X0466689Y0368274D02*
X0472268Y0368274D01*
X0472268Y0368312D02*
X0466689Y0368312D01*
X0466689Y0368349D02*
X0472269Y0368349D01*
X0472269Y0368387D02*
X0466690Y0368387D01*
X0466690Y0368425D02*
X0472269Y0368425D01*
X0472269Y0368463D02*
X0466690Y0368463D01*
X0466690Y0368501D02*
X0472269Y0368501D01*
X0472270Y0368539D02*
X0466690Y0368539D01*
X0466691Y0368577D02*
X0472270Y0368577D01*
X0472270Y0368615D02*
X0466691Y0368615D01*
X0466691Y0368653D02*
X0472270Y0368653D01*
X0472270Y0368690D02*
X0466691Y0368690D01*
X0466691Y0368728D02*
X0472270Y0368728D01*
X0472271Y0368766D02*
X0466692Y0368766D01*
X0466692Y0368804D02*
X0472271Y0368804D01*
X0472271Y0368842D02*
X0466692Y0368842D01*
X0466692Y0368880D02*
X0472271Y0368880D01*
X0472271Y0368918D02*
X0466692Y0368918D01*
X0466693Y0368956D02*
X0472272Y0368956D01*
X0472272Y0368993D02*
X0466693Y0368993D01*
X0466693Y0369031D02*
X0472272Y0369031D01*
X0472272Y0369069D02*
X0466693Y0369069D01*
X0466693Y0369107D02*
X0472272Y0369107D01*
X0472273Y0369145D02*
X0466693Y0369145D01*
X0466694Y0369183D02*
X0472273Y0369183D01*
X0472273Y0369221D02*
X0466694Y0369221D01*
X0466694Y0369259D02*
X0472273Y0369259D01*
X0472273Y0369297D02*
X0466694Y0369297D01*
X0466694Y0369334D02*
X0472274Y0369334D01*
X0472274Y0369372D02*
X0466695Y0369372D01*
X0466695Y0369410D02*
X0472274Y0369410D01*
X0472274Y0369448D02*
X0466695Y0369448D01*
X0466695Y0369486D02*
X0472274Y0369486D01*
X0472274Y0369524D02*
X0466695Y0369524D01*
X0466696Y0369562D02*
X0472275Y0369562D01*
X0472275Y0369600D02*
X0466696Y0369600D01*
X0466696Y0369637D02*
X0472275Y0369637D01*
X0472275Y0369675D02*
X0466696Y0369675D01*
X0466696Y0369713D02*
X0472275Y0369713D01*
X0472276Y0369751D02*
X0466696Y0369751D01*
X0466697Y0369789D02*
X0472276Y0369789D01*
X0472276Y0369827D02*
X0466697Y0369827D01*
X0466697Y0369865D02*
X0472276Y0369865D01*
X0472276Y0369903D02*
X0466697Y0369903D01*
X0466697Y0369941D02*
X0472277Y0369941D01*
X0472277Y0369978D02*
X0466698Y0369978D01*
X0466698Y0370016D02*
X0472277Y0370016D01*
X0472277Y0370054D02*
X0466698Y0370054D01*
X0466698Y0370092D02*
X0472277Y0370092D01*
X0472277Y0370130D02*
X0466698Y0370130D01*
X0466699Y0370168D02*
X0472278Y0370168D01*
X0472278Y0370206D02*
X0466699Y0370206D01*
X0466699Y0370244D02*
X0472278Y0370244D01*
X0472276Y0370281D02*
X0466699Y0370281D01*
X0466699Y0370319D02*
X0472273Y0370319D01*
X0472270Y0370357D02*
X0466700Y0370357D01*
X0466700Y0370395D02*
X0472267Y0370395D01*
X0472259Y0370433D02*
X0466707Y0370433D01*
X0466716Y0370471D02*
X0472250Y0370471D01*
X0472241Y0370509D02*
X0466725Y0370509D01*
X0466734Y0370547D02*
X0472232Y0370547D01*
X0472217Y0370584D02*
X0466748Y0370584D01*
X0466764Y0370622D02*
X0472202Y0370622D01*
X0472186Y0370660D02*
X0466780Y0370660D01*
X0466796Y0370698D02*
X0472170Y0370698D01*
X0472147Y0370736D02*
X0466819Y0370736D01*
X0466842Y0370774D02*
X0472123Y0370774D01*
X0472100Y0370812D02*
X0466866Y0370812D01*
X0466894Y0370850D02*
X0472071Y0370850D01*
X0472039Y0370888D02*
X0466926Y0370888D01*
X0466959Y0370925D02*
X0472007Y0370925D01*
X0471969Y0370963D02*
X0466997Y0370963D01*
X0467041Y0371001D02*
X0471924Y0371001D01*
X0471880Y0371039D02*
X0467086Y0371039D01*
X0467144Y0371077D02*
X0471821Y0371077D01*
X0471760Y0371115D02*
X0467206Y0371115D01*
X0467288Y0371153D02*
X0471677Y0371153D01*
X0471577Y0371191D02*
X0467389Y0371191D01*
X0467609Y0371228D02*
X0471357Y0371228D01*
X0472266Y0367933D02*
X0466690Y0367933D01*
X0466693Y0367895D02*
X0472266Y0367895D01*
X0472266Y0367857D02*
X0466696Y0367857D01*
X0466699Y0367819D02*
X0472266Y0367819D01*
X0472259Y0367781D02*
X0466707Y0367781D01*
X0466716Y0367743D02*
X0472250Y0367743D01*
X0472241Y0367706D02*
X0466725Y0367706D01*
X0466734Y0367668D02*
X0472232Y0367668D01*
X0472217Y0367630D02*
X0466749Y0367630D01*
X0466764Y0367592D02*
X0472201Y0367592D01*
X0472186Y0367554D02*
X0466780Y0367554D01*
X0466796Y0367516D02*
X0472169Y0367516D01*
X0472146Y0367478D02*
X0466820Y0367478D01*
X0466843Y0367440D02*
X0472123Y0367440D01*
X0472100Y0367402D02*
X0466866Y0367402D01*
X0466895Y0367365D02*
X0472071Y0367365D01*
X0472039Y0367327D02*
X0466927Y0367327D01*
X0466959Y0367289D02*
X0472006Y0367289D01*
X0471968Y0367251D02*
X0466998Y0367251D01*
X0467042Y0367213D02*
X0471923Y0367213D01*
X0471879Y0367175D02*
X0467087Y0367175D01*
X0467146Y0367137D02*
X0471820Y0367137D01*
X0471758Y0367099D02*
X0467207Y0367099D01*
X0467290Y0367062D02*
X0471675Y0367062D01*
X0471573Y0367024D02*
X0467392Y0367024D01*
X0467618Y0366986D02*
X0471347Y0366986D01*
X0471294Y0364186D02*
X0467672Y0364186D01*
X0467518Y0364174D01*
X0467367Y0364138D01*
X0467225Y0364079D01*
X0467093Y0363998D01*
X0466976Y0363898D01*
X0466875Y0363780D01*
X0466795Y0363649D01*
X0466736Y0363506D01*
X0466700Y0363356D01*
X0466688Y0360919D01*
X0466700Y0360765D01*
X0466736Y0360614D01*
X0466795Y0360472D01*
X0466875Y0360340D01*
X0466976Y0360222D01*
X0467093Y0360122D01*
X0467225Y0360041D01*
X0467367Y0359982D01*
X0467518Y0359946D01*
X0467672Y0359934D01*
X0469483Y0359934D01*
X0471294Y0359934D01*
X0471448Y0359946D01*
X0471598Y0359982D01*
X0471741Y0360041D01*
X0471872Y0360122D01*
X0471990Y0360222D01*
X0472090Y0360340D01*
X0472171Y0360472D01*
X0472230Y0360614D01*
X0472266Y0360765D01*
X0472278Y0363202D01*
X0472266Y0363356D01*
X0472230Y0363506D01*
X0472171Y0363649D01*
X0472090Y0363780D01*
X0471990Y0363898D01*
X0471872Y0363998D01*
X0471741Y0364079D01*
X0471598Y0364138D01*
X0471448Y0364174D01*
X0471294Y0364186D01*
X0471341Y0364183D02*
X0467625Y0364183D01*
X0467395Y0364145D02*
X0471571Y0364145D01*
X0471674Y0364107D02*
X0467292Y0364107D01*
X0467208Y0364069D02*
X0471757Y0364069D01*
X0471819Y0364031D02*
X0467147Y0364031D01*
X0467087Y0363993D02*
X0471878Y0363993D01*
X0471923Y0363955D02*
X0467043Y0363955D01*
X0466998Y0363917D02*
X0471967Y0363917D01*
X0472006Y0363879D02*
X0466960Y0363879D01*
X0466928Y0363842D02*
X0472038Y0363842D01*
X0472070Y0363804D02*
X0466895Y0363804D01*
X0466866Y0363766D02*
X0472099Y0363766D01*
X0472122Y0363728D02*
X0466843Y0363728D01*
X0466820Y0363690D02*
X0472146Y0363690D01*
X0472169Y0363652D02*
X0466797Y0363652D01*
X0466780Y0363614D02*
X0472185Y0363614D01*
X0472201Y0363576D02*
X0466765Y0363576D01*
X0466749Y0363539D02*
X0472217Y0363539D01*
X0472231Y0363501D02*
X0466734Y0363501D01*
X0466725Y0363463D02*
X0472240Y0363463D01*
X0472249Y0363425D02*
X0466716Y0363425D01*
X0466707Y0363387D02*
X0472258Y0363387D01*
X0472266Y0363349D02*
X0466700Y0363349D01*
X0466700Y0363311D02*
X0472269Y0363311D01*
X0472272Y0363273D02*
X0466699Y0363273D01*
X0466699Y0363236D02*
X0472275Y0363236D01*
X0472278Y0363198D02*
X0466699Y0363198D01*
X0466699Y0363160D02*
X0472278Y0363160D01*
X0472278Y0363122D02*
X0466699Y0363122D01*
X0466698Y0363084D02*
X0472277Y0363084D01*
X0472277Y0363046D02*
X0466698Y0363046D01*
X0466698Y0363008D02*
X0472277Y0363008D01*
X0472277Y0362970D02*
X0466698Y0362970D01*
X0466698Y0362932D02*
X0472277Y0362932D01*
X0472277Y0362895D02*
X0466697Y0362895D01*
X0466697Y0362857D02*
X0472276Y0362857D01*
X0472276Y0362819D02*
X0466697Y0362819D01*
X0466697Y0362781D02*
X0472276Y0362781D01*
X0472276Y0362743D02*
X0466697Y0362743D01*
X0466697Y0362705D02*
X0472276Y0362705D01*
X0472275Y0362667D02*
X0466696Y0362667D01*
X0466696Y0362629D02*
X0472275Y0362629D01*
X0472275Y0362592D02*
X0466696Y0362592D01*
X0466696Y0362554D02*
X0472275Y0362554D01*
X0472275Y0362516D02*
X0466696Y0362516D01*
X0466695Y0362478D02*
X0472274Y0362478D01*
X0472274Y0362440D02*
X0466695Y0362440D01*
X0466695Y0362402D02*
X0472274Y0362402D01*
X0472274Y0362364D02*
X0466695Y0362364D01*
X0466695Y0362326D02*
X0472274Y0362326D01*
X0472274Y0362288D02*
X0466694Y0362288D01*
X0466694Y0362251D02*
X0472273Y0362251D01*
X0472273Y0362213D02*
X0466694Y0362213D01*
X0466694Y0362175D02*
X0472273Y0362175D01*
X0472273Y0362137D02*
X0466694Y0362137D01*
X0466693Y0362099D02*
X0472273Y0362099D01*
X0472272Y0362061D02*
X0466693Y0362061D01*
X0466693Y0362023D02*
X0472272Y0362023D01*
X0472272Y0361985D02*
X0466693Y0361985D01*
X0466693Y0361948D02*
X0472272Y0361948D01*
X0472272Y0361910D02*
X0466693Y0361910D01*
X0466692Y0361872D02*
X0472271Y0361872D01*
X0472271Y0361834D02*
X0466692Y0361834D01*
X0466692Y0361796D02*
X0472271Y0361796D01*
X0472271Y0361758D02*
X0466692Y0361758D01*
X0466692Y0361720D02*
X0472271Y0361720D01*
X0472270Y0361682D02*
X0466691Y0361682D01*
X0466691Y0361644D02*
X0472270Y0361644D01*
X0472270Y0361607D02*
X0466691Y0361607D01*
X0466691Y0361569D02*
X0472270Y0361569D01*
X0472270Y0361531D02*
X0466691Y0361531D01*
X0466690Y0361493D02*
X0472270Y0361493D01*
X0472269Y0361455D02*
X0466690Y0361455D01*
X0466690Y0361417D02*
X0472269Y0361417D01*
X0472269Y0361379D02*
X0466690Y0361379D01*
X0466690Y0361341D02*
X0472269Y0361341D01*
X0472269Y0361304D02*
X0466689Y0361304D01*
X0466689Y0361266D02*
X0472268Y0361266D01*
X0472268Y0361228D02*
X0466689Y0361228D01*
X0466689Y0361190D02*
X0472268Y0361190D01*
X0472268Y0361152D02*
X0466689Y0361152D01*
X0466689Y0361114D02*
X0472268Y0361114D01*
X0472267Y0361076D02*
X0466688Y0361076D01*
X0466688Y0361038D02*
X0472267Y0361038D01*
X0472267Y0361001D02*
X0466688Y0361001D01*
X0466688Y0360963D02*
X0472267Y0360963D01*
X0472267Y0360925D02*
X0466688Y0360925D01*
X0466690Y0360887D02*
X0472266Y0360887D01*
X0472266Y0360849D02*
X0466693Y0360849D01*
X0466696Y0360811D02*
X0472266Y0360811D01*
X0472266Y0360773D02*
X0466699Y0360773D01*
X0466707Y0360735D02*
X0472259Y0360735D01*
X0472250Y0360697D02*
X0466716Y0360697D01*
X0466725Y0360660D02*
X0472241Y0360660D01*
X0472232Y0360622D02*
X0466734Y0360622D01*
X0466748Y0360584D02*
X0472217Y0360584D01*
X0472202Y0360546D02*
X0466764Y0360546D01*
X0466780Y0360508D02*
X0472186Y0360508D01*
X0472170Y0360470D02*
X0466796Y0360470D01*
X0466819Y0360432D02*
X0472147Y0360432D01*
X0472124Y0360394D02*
X0466842Y0360394D01*
X0466865Y0360357D02*
X0472100Y0360357D01*
X0472072Y0360319D02*
X0466894Y0360319D01*
X0466926Y0360281D02*
X0472040Y0360281D01*
X0472007Y0360243D02*
X0466958Y0360243D01*
X0466996Y0360205D02*
X0471969Y0360205D01*
X0471925Y0360167D02*
X0467041Y0360167D01*
X0467085Y0360129D02*
X0471881Y0360129D01*
X0471822Y0360091D02*
X0467144Y0360091D01*
X0467205Y0360053D02*
X0471760Y0360053D01*
X0471678Y0360016D02*
X0467287Y0360016D01*
X0467387Y0359978D02*
X0471579Y0359978D01*
X0471364Y0359940D02*
X0467602Y0359940D01*
X0486856Y0375399D02*
X0486956Y0375282D01*
X0490632Y0375282D01*
X0490732Y0375399D01*
X0490813Y0375531D01*
X0490872Y0375673D01*
X0490908Y0375824D01*
X0490920Y0375978D01*
X0490920Y0379600D01*
X0486668Y0379600D01*
X0486668Y0377789D01*
X0486668Y0375978D01*
X0486680Y0375824D01*
X0486716Y0375673D01*
X0486775Y0375531D01*
X0486856Y0375399D01*
X0486859Y0375395D02*
X0490729Y0375395D01*
X0490753Y0375433D02*
X0486835Y0375433D01*
X0486811Y0375471D02*
X0490776Y0375471D01*
X0490799Y0375509D02*
X0486788Y0375509D01*
X0486768Y0375547D02*
X0490819Y0375547D01*
X0490835Y0375585D02*
X0486753Y0375585D01*
X0486737Y0375623D02*
X0490851Y0375623D01*
X0490867Y0375661D02*
X0486721Y0375661D01*
X0486710Y0375698D02*
X0490878Y0375698D01*
X0490887Y0375736D02*
X0486701Y0375736D01*
X0486692Y0375774D02*
X0490896Y0375774D01*
X0490905Y0375812D02*
X0486683Y0375812D01*
X0486678Y0375850D02*
X0490910Y0375850D01*
X0490913Y0375888D02*
X0486675Y0375888D01*
X0486672Y0375926D02*
X0490916Y0375926D01*
X0490919Y0375964D02*
X0486669Y0375964D01*
X0486668Y0376002D02*
X0490920Y0376002D01*
X0490920Y0376039D02*
X0486668Y0376039D01*
X0486668Y0376077D02*
X0490920Y0376077D01*
X0490920Y0376115D02*
X0486668Y0376115D01*
X0486668Y0376153D02*
X0490920Y0376153D01*
X0490920Y0376191D02*
X0486668Y0376191D01*
X0486668Y0376229D02*
X0490920Y0376229D01*
X0490920Y0376267D02*
X0486668Y0376267D01*
X0486668Y0376305D02*
X0490920Y0376305D01*
X0490920Y0376342D02*
X0486668Y0376342D01*
X0486668Y0376380D02*
X0490920Y0376380D01*
X0490920Y0376418D02*
X0486668Y0376418D01*
X0486668Y0376456D02*
X0490920Y0376456D01*
X0490920Y0376494D02*
X0486668Y0376494D01*
X0486668Y0376532D02*
X0490920Y0376532D01*
X0490920Y0376570D02*
X0486668Y0376570D01*
X0486668Y0376608D02*
X0490920Y0376608D01*
X0490920Y0376646D02*
X0486668Y0376646D01*
X0486668Y0376683D02*
X0490920Y0376683D01*
X0490920Y0376721D02*
X0486668Y0376721D01*
X0486668Y0376759D02*
X0490920Y0376759D01*
X0490920Y0376797D02*
X0486668Y0376797D01*
X0486668Y0376835D02*
X0490920Y0376835D01*
X0490920Y0376873D02*
X0486668Y0376873D01*
X0486668Y0376911D02*
X0490920Y0376911D01*
X0490920Y0376949D02*
X0486668Y0376949D01*
X0486668Y0376986D02*
X0490920Y0376986D01*
X0490920Y0377024D02*
X0486668Y0377024D01*
X0486668Y0377062D02*
X0490920Y0377062D01*
X0490920Y0377100D02*
X0486668Y0377100D01*
X0486668Y0377138D02*
X0490920Y0377138D01*
X0490920Y0377176D02*
X0486668Y0377176D01*
X0486668Y0377214D02*
X0490920Y0377214D01*
X0490920Y0377252D02*
X0486668Y0377252D01*
X0486668Y0377290D02*
X0490920Y0377290D01*
X0490920Y0377327D02*
X0486668Y0377327D01*
X0486668Y0377365D02*
X0490920Y0377365D01*
X0490920Y0377403D02*
X0486668Y0377403D01*
X0486668Y0377441D02*
X0490920Y0377441D01*
X0490920Y0377479D02*
X0486668Y0377479D01*
X0486668Y0377517D02*
X0490920Y0377517D01*
X0490920Y0377555D02*
X0486668Y0377555D01*
X0486668Y0377593D02*
X0490920Y0377593D01*
X0490920Y0377630D02*
X0486668Y0377630D01*
X0486668Y0377668D02*
X0490920Y0377668D01*
X0490920Y0377706D02*
X0486668Y0377706D01*
X0486668Y0377744D02*
X0490920Y0377744D01*
X0490920Y0377782D02*
X0486668Y0377782D01*
X0486668Y0377820D02*
X0490920Y0377820D01*
X0490920Y0377858D02*
X0486668Y0377858D01*
X0486668Y0377896D02*
X0490920Y0377896D01*
X0490920Y0377933D02*
X0486668Y0377933D01*
X0486668Y0377971D02*
X0490920Y0377971D01*
X0490920Y0378009D02*
X0486668Y0378009D01*
X0486668Y0378047D02*
X0490920Y0378047D01*
X0490920Y0378085D02*
X0486668Y0378085D01*
X0486668Y0378123D02*
X0490920Y0378123D01*
X0490920Y0378161D02*
X0486668Y0378161D01*
X0486668Y0378199D02*
X0490920Y0378199D01*
X0490920Y0378237D02*
X0486668Y0378237D01*
X0486668Y0378274D02*
X0490920Y0378274D01*
X0490920Y0378312D02*
X0486668Y0378312D01*
X0486668Y0378350D02*
X0490920Y0378350D01*
X0490920Y0378388D02*
X0486668Y0378388D01*
X0486668Y0378426D02*
X0490920Y0378426D01*
X0490920Y0378464D02*
X0486668Y0378464D01*
X0486668Y0378502D02*
X0490920Y0378502D01*
X0490920Y0378540D02*
X0486668Y0378540D01*
X0486668Y0378577D02*
X0490920Y0378577D01*
X0490920Y0378615D02*
X0486668Y0378615D01*
X0486668Y0378653D02*
X0490920Y0378653D01*
X0490920Y0378691D02*
X0486668Y0378691D01*
X0486668Y0378729D02*
X0490920Y0378729D01*
X0490920Y0378767D02*
X0486668Y0378767D01*
X0486668Y0378805D02*
X0490920Y0378805D01*
X0490920Y0378843D02*
X0486668Y0378843D01*
X0486668Y0378881D02*
X0490920Y0378881D01*
X0490920Y0378918D02*
X0486668Y0378918D01*
X0486668Y0378956D02*
X0490920Y0378956D01*
X0490920Y0378994D02*
X0486668Y0378994D01*
X0486668Y0379032D02*
X0490920Y0379032D01*
X0490920Y0379070D02*
X0486668Y0379070D01*
X0486668Y0379108D02*
X0490920Y0379108D01*
X0490920Y0379146D02*
X0486668Y0379146D01*
X0486668Y0379184D02*
X0490920Y0379184D01*
X0490920Y0379221D02*
X0486668Y0379221D01*
X0486668Y0379259D02*
X0490920Y0379259D01*
X0490920Y0379297D02*
X0486668Y0379297D01*
X0486668Y0379335D02*
X0490920Y0379335D01*
X0490920Y0379373D02*
X0486668Y0379373D01*
X0486668Y0379411D02*
X0490920Y0379411D01*
X0490920Y0379449D02*
X0486668Y0379449D01*
X0486668Y0379487D02*
X0490920Y0379487D01*
X0490920Y0379525D02*
X0486668Y0379525D01*
X0486668Y0379562D02*
X0490920Y0379562D01*
X0490920Y0379600D02*
X0490908Y0379754D01*
X0490872Y0379904D01*
X0490813Y0380046D01*
X0490732Y0380178D01*
X0490632Y0380296D01*
X0490514Y0380396D01*
X0490382Y0380477D01*
X0490240Y0380536D01*
X0490090Y0380572D01*
X0487652Y0380584D01*
X0487498Y0380572D01*
X0487348Y0380536D01*
X0487205Y0380477D01*
X0487074Y0380396D01*
X0486956Y0380296D01*
X0486856Y0380178D01*
X0486775Y0380046D01*
X0486716Y0379904D01*
X0486680Y0379754D01*
X0486668Y0379600D01*
X0486671Y0379638D02*
X0490917Y0379638D01*
X0490914Y0379676D02*
X0486674Y0379676D01*
X0486677Y0379714D02*
X0490911Y0379714D01*
X0490908Y0379752D02*
X0486680Y0379752D01*
X0486689Y0379790D02*
X0490899Y0379790D01*
X0490890Y0379828D02*
X0486698Y0379828D01*
X0486707Y0379865D02*
X0490881Y0379865D01*
X0490872Y0379903D02*
X0486716Y0379903D01*
X0486731Y0379941D02*
X0490856Y0379941D01*
X0490841Y0379979D02*
X0486747Y0379979D01*
X0486763Y0380017D02*
X0490825Y0380017D01*
X0490808Y0380055D02*
X0486780Y0380055D01*
X0486803Y0380093D02*
X0490784Y0380093D01*
X0490761Y0380131D02*
X0486827Y0380131D01*
X0486850Y0380168D02*
X0490738Y0380168D01*
X0490708Y0380206D02*
X0486880Y0380206D01*
X0486912Y0380244D02*
X0490676Y0380244D01*
X0490643Y0380282D02*
X0486945Y0380282D01*
X0486985Y0380320D02*
X0490603Y0380320D01*
X0490559Y0380358D02*
X0487029Y0380358D01*
X0487073Y0380396D02*
X0490514Y0380396D01*
X0490453Y0380434D02*
X0487135Y0380434D01*
X0487197Y0380472D02*
X0490391Y0380472D01*
X0490304Y0380509D02*
X0487284Y0380509D01*
X0487396Y0380547D02*
X0490192Y0380547D01*
X0489936Y0383261D02*
X0490090Y0383273D01*
X0490240Y0383309D01*
X0490382Y0383368D01*
X0490514Y0383449D01*
X0490632Y0383549D01*
X0490732Y0383667D01*
X0490813Y0383798D01*
X0490872Y0383941D01*
X0490908Y0384091D01*
X0490920Y0384245D01*
X0490920Y0387867D01*
X0490908Y0388021D01*
X0490872Y0388172D01*
X0490813Y0388314D01*
X0490732Y0388446D01*
X0490632Y0388563D01*
X0490514Y0388664D01*
X0490382Y0388745D01*
X0490240Y0388804D01*
X0490090Y0388839D01*
X0487652Y0388852D01*
X0487498Y0388839D01*
X0487348Y0388804D01*
X0487205Y0388745D01*
X0487074Y0388664D01*
X0486956Y0388563D01*
X0486856Y0388446D01*
X0486775Y0388314D01*
X0486716Y0388172D01*
X0486680Y0388021D01*
X0486668Y0387867D01*
X0486668Y0386056D01*
X0486668Y0384245D01*
X0486680Y0384091D01*
X0486716Y0383941D01*
X0486775Y0383798D01*
X0486856Y0383667D01*
X0486956Y0383549D01*
X0487074Y0383449D01*
X0487205Y0383368D01*
X0487348Y0383309D01*
X0487498Y0383273D01*
X0489936Y0383261D01*
X0490096Y0383275D02*
X0487492Y0383275D01*
X0487339Y0383313D02*
X0490249Y0383313D01*
X0490340Y0383351D02*
X0487248Y0383351D01*
X0487172Y0383388D02*
X0490415Y0383388D01*
X0490477Y0383426D02*
X0487111Y0383426D01*
X0487056Y0383464D02*
X0490532Y0383464D01*
X0490576Y0383502D02*
X0487011Y0383502D01*
X0486967Y0383540D02*
X0490621Y0383540D01*
X0490656Y0383578D02*
X0486932Y0383578D01*
X0486899Y0383616D02*
X0490688Y0383616D01*
X0490721Y0383654D02*
X0486867Y0383654D01*
X0486841Y0383691D02*
X0490747Y0383691D01*
X0490770Y0383729D02*
X0486817Y0383729D01*
X0486794Y0383767D02*
X0490794Y0383767D01*
X0490816Y0383805D02*
X0486772Y0383805D01*
X0486756Y0383843D02*
X0490831Y0383843D01*
X0490847Y0383881D02*
X0486741Y0383881D01*
X0486725Y0383919D02*
X0490863Y0383919D01*
X0490876Y0383957D02*
X0486712Y0383957D01*
X0486703Y0383995D02*
X0490885Y0383995D01*
X0490894Y0384032D02*
X0486694Y0384032D01*
X0486685Y0384070D02*
X0490903Y0384070D01*
X0490909Y0384108D02*
X0486679Y0384108D01*
X0486676Y0384146D02*
X0490912Y0384146D01*
X0490915Y0384184D02*
X0486673Y0384184D01*
X0486670Y0384222D02*
X0490918Y0384222D01*
X0490920Y0384260D02*
X0486668Y0384260D01*
X0486668Y0384298D02*
X0490920Y0384298D01*
X0490920Y0384335D02*
X0486668Y0384335D01*
X0486668Y0384373D02*
X0490920Y0384373D01*
X0490920Y0384411D02*
X0486668Y0384411D01*
X0486668Y0384449D02*
X0490920Y0384449D01*
X0490920Y0384487D02*
X0486668Y0384487D01*
X0486668Y0384525D02*
X0490920Y0384525D01*
X0490920Y0384563D02*
X0486668Y0384563D01*
X0486668Y0384601D02*
X0490920Y0384601D01*
X0490920Y0384638D02*
X0486668Y0384638D01*
X0486668Y0384676D02*
X0490920Y0384676D01*
X0490920Y0384714D02*
X0486668Y0384714D01*
X0486668Y0384752D02*
X0490920Y0384752D01*
X0490920Y0384790D02*
X0486668Y0384790D01*
X0486668Y0384828D02*
X0490920Y0384828D01*
X0490920Y0384866D02*
X0486668Y0384866D01*
X0486668Y0384904D02*
X0490920Y0384904D01*
X0490920Y0384942D02*
X0486668Y0384942D01*
X0486668Y0384979D02*
X0490920Y0384979D01*
X0490920Y0385017D02*
X0486668Y0385017D01*
X0486668Y0385055D02*
X0490920Y0385055D01*
X0490920Y0385093D02*
X0486668Y0385093D01*
X0486668Y0385131D02*
X0490920Y0385131D01*
X0490920Y0385169D02*
X0486668Y0385169D01*
X0486668Y0385207D02*
X0490920Y0385207D01*
X0490920Y0385245D02*
X0486668Y0385245D01*
X0486668Y0385282D02*
X0490920Y0385282D01*
X0490920Y0385320D02*
X0486668Y0385320D01*
X0486668Y0385358D02*
X0490920Y0385358D01*
X0490920Y0385396D02*
X0486668Y0385396D01*
X0486668Y0385434D02*
X0490920Y0385434D01*
X0490920Y0385472D02*
X0486668Y0385472D01*
X0486668Y0385510D02*
X0490920Y0385510D01*
X0490920Y0385548D02*
X0486668Y0385548D01*
X0486668Y0385586D02*
X0490920Y0385586D01*
X0490920Y0385623D02*
X0486668Y0385623D01*
X0486668Y0385661D02*
X0490920Y0385661D01*
X0490920Y0385699D02*
X0486668Y0385699D01*
X0486668Y0385737D02*
X0490920Y0385737D01*
X0490920Y0385775D02*
X0486668Y0385775D01*
X0486668Y0385813D02*
X0490920Y0385813D01*
X0490920Y0385851D02*
X0486668Y0385851D01*
X0486668Y0385889D02*
X0490920Y0385889D01*
X0490920Y0385926D02*
X0486668Y0385926D01*
X0486668Y0385964D02*
X0490920Y0385964D01*
X0490920Y0386002D02*
X0486668Y0386002D01*
X0486668Y0386040D02*
X0490920Y0386040D01*
X0490920Y0386078D02*
X0486668Y0386078D01*
X0486668Y0386116D02*
X0490920Y0386116D01*
X0490920Y0386154D02*
X0486668Y0386154D01*
X0486668Y0386192D02*
X0490920Y0386192D01*
X0490920Y0386230D02*
X0486668Y0386230D01*
X0486668Y0386267D02*
X0490920Y0386267D01*
X0490920Y0386305D02*
X0486668Y0386305D01*
X0486668Y0386343D02*
X0490920Y0386343D01*
X0490920Y0386381D02*
X0486668Y0386381D01*
X0486668Y0386419D02*
X0490920Y0386419D01*
X0490920Y0386457D02*
X0486668Y0386457D01*
X0486668Y0386495D02*
X0490920Y0386495D01*
X0490920Y0386533D02*
X0486668Y0386533D01*
X0486668Y0386570D02*
X0490920Y0386570D01*
X0490920Y0386608D02*
X0486668Y0386608D01*
X0486668Y0386646D02*
X0490920Y0386646D01*
X0490920Y0386684D02*
X0486668Y0386684D01*
X0486668Y0386722D02*
X0490920Y0386722D01*
X0490920Y0386760D02*
X0486668Y0386760D01*
X0486668Y0386798D02*
X0490920Y0386798D01*
X0490920Y0386836D02*
X0486668Y0386836D01*
X0486668Y0386873D02*
X0490920Y0386873D01*
X0490920Y0386911D02*
X0486668Y0386911D01*
X0486668Y0386949D02*
X0490920Y0386949D01*
X0490920Y0386987D02*
X0486668Y0386987D01*
X0486668Y0387025D02*
X0490920Y0387025D01*
X0490920Y0387063D02*
X0486668Y0387063D01*
X0486668Y0387101D02*
X0490920Y0387101D01*
X0490920Y0387139D02*
X0486668Y0387139D01*
X0486668Y0387177D02*
X0490920Y0387177D01*
X0490920Y0387214D02*
X0486668Y0387214D01*
X0486668Y0387252D02*
X0490920Y0387252D01*
X0490920Y0387290D02*
X0486668Y0387290D01*
X0486668Y0387328D02*
X0490920Y0387328D01*
X0490920Y0387366D02*
X0486668Y0387366D01*
X0486668Y0387404D02*
X0490920Y0387404D01*
X0490920Y0387442D02*
X0486668Y0387442D01*
X0486668Y0387480D02*
X0490920Y0387480D01*
X0490920Y0387517D02*
X0486668Y0387517D01*
X0486668Y0387555D02*
X0490920Y0387555D01*
X0490920Y0387593D02*
X0486668Y0387593D01*
X0486668Y0387631D02*
X0490920Y0387631D01*
X0490920Y0387669D02*
X0486668Y0387669D01*
X0486668Y0387707D02*
X0490920Y0387707D01*
X0490920Y0387745D02*
X0486668Y0387745D01*
X0486668Y0387783D02*
X0490920Y0387783D01*
X0490920Y0387821D02*
X0486668Y0387821D01*
X0486668Y0387858D02*
X0490920Y0387858D01*
X0490918Y0387896D02*
X0486670Y0387896D01*
X0486673Y0387934D02*
X0490915Y0387934D01*
X0490912Y0387972D02*
X0486676Y0387972D01*
X0486679Y0388010D02*
X0490909Y0388010D01*
X0490901Y0388048D02*
X0486686Y0388048D01*
X0486695Y0388086D02*
X0490892Y0388086D01*
X0490883Y0388124D02*
X0486704Y0388124D01*
X0486713Y0388161D02*
X0490874Y0388161D01*
X0490860Y0388199D02*
X0486727Y0388199D01*
X0486743Y0388237D02*
X0490845Y0388237D01*
X0490829Y0388275D02*
X0486759Y0388275D01*
X0486774Y0388313D02*
X0490813Y0388313D01*
X0490790Y0388351D02*
X0486797Y0388351D01*
X0486821Y0388389D02*
X0490767Y0388389D01*
X0490744Y0388427D02*
X0486844Y0388427D01*
X0486872Y0388465D02*
X0490716Y0388465D01*
X0490684Y0388502D02*
X0486904Y0388502D01*
X0486936Y0388540D02*
X0490651Y0388540D01*
X0490614Y0388578D02*
X0486973Y0388578D01*
X0487018Y0388616D02*
X0490570Y0388616D01*
X0490526Y0388654D02*
X0487062Y0388654D01*
X0487119Y0388692D02*
X0490468Y0388692D01*
X0490407Y0388730D02*
X0487181Y0388730D01*
X0487261Y0388768D02*
X0490327Y0388768D01*
X0490232Y0388805D02*
X0487356Y0388805D01*
X0487548Y0388843D02*
X0489303Y0388843D01*
X0493727Y0388021D02*
X0493715Y0387867D01*
X0493715Y0384245D01*
X0493727Y0384091D01*
X0493763Y0383941D01*
X0493822Y0383798D01*
X0493903Y0383667D01*
X0494003Y0383549D01*
X0494121Y0383449D01*
X0494253Y0383368D01*
X0494395Y0383309D01*
X0494545Y0383273D01*
X0496983Y0383261D01*
X0497137Y0383273D01*
X0497287Y0383309D01*
X0497430Y0383368D01*
X0497561Y0383449D01*
X0497679Y0383549D01*
X0497779Y0383667D01*
X0497860Y0383798D01*
X0497919Y0383941D01*
X0497955Y0384091D01*
X0497967Y0384245D01*
X0497967Y0386056D01*
X0497967Y0387867D01*
X0497955Y0388021D01*
X0497919Y0388172D01*
X0497860Y0388314D01*
X0497779Y0388446D01*
X0497679Y0388563D01*
X0497561Y0388664D01*
X0497430Y0388745D01*
X0497287Y0388804D01*
X0497137Y0388839D01*
X0494699Y0388852D01*
X0494545Y0388839D01*
X0494395Y0388804D01*
X0494253Y0388745D01*
X0494121Y0388664D01*
X0494003Y0388563D01*
X0493903Y0388446D01*
X0493822Y0388314D01*
X0493763Y0388172D01*
X0493727Y0388021D01*
X0493726Y0388010D02*
X0497956Y0388010D01*
X0497959Y0387972D02*
X0493723Y0387972D01*
X0493720Y0387934D02*
X0497962Y0387934D01*
X0497965Y0387896D02*
X0493717Y0387896D01*
X0493715Y0387858D02*
X0497967Y0387858D01*
X0497967Y0387821D02*
X0493715Y0387821D01*
X0493715Y0387783D02*
X0497967Y0387783D01*
X0497967Y0387745D02*
X0493715Y0387745D01*
X0493715Y0387707D02*
X0497967Y0387707D01*
X0497967Y0387669D02*
X0493715Y0387669D01*
X0493715Y0387631D02*
X0497967Y0387631D01*
X0497967Y0387593D02*
X0493715Y0387593D01*
X0493715Y0387555D02*
X0497967Y0387555D01*
X0497967Y0387517D02*
X0493715Y0387517D01*
X0493715Y0387480D02*
X0497967Y0387480D01*
X0497967Y0387442D02*
X0493715Y0387442D01*
X0493715Y0387404D02*
X0497967Y0387404D01*
X0497967Y0387366D02*
X0493715Y0387366D01*
X0493715Y0387328D02*
X0497967Y0387328D01*
X0497967Y0387290D02*
X0493715Y0387290D01*
X0493715Y0387252D02*
X0497967Y0387252D01*
X0497967Y0387214D02*
X0493715Y0387214D01*
X0493715Y0387177D02*
X0497967Y0387177D01*
X0497967Y0387139D02*
X0493715Y0387139D01*
X0493715Y0387101D02*
X0497967Y0387101D01*
X0497967Y0387063D02*
X0493715Y0387063D01*
X0493715Y0387025D02*
X0497967Y0387025D01*
X0497967Y0386987D02*
X0493715Y0386987D01*
X0493715Y0386949D02*
X0497967Y0386949D01*
X0497967Y0386911D02*
X0493715Y0386911D01*
X0493715Y0386873D02*
X0497967Y0386873D01*
X0497967Y0386836D02*
X0493715Y0386836D01*
X0493715Y0386798D02*
X0497967Y0386798D01*
X0497967Y0386760D02*
X0493715Y0386760D01*
X0493715Y0386722D02*
X0497967Y0386722D01*
X0497967Y0386684D02*
X0493715Y0386684D01*
X0493715Y0386646D02*
X0497967Y0386646D01*
X0497967Y0386608D02*
X0493715Y0386608D01*
X0493715Y0386570D02*
X0497967Y0386570D01*
X0497967Y0386533D02*
X0493715Y0386533D01*
X0493715Y0386495D02*
X0497967Y0386495D01*
X0497967Y0386457D02*
X0493715Y0386457D01*
X0493715Y0386419D02*
X0497967Y0386419D01*
X0497967Y0386381D02*
X0493715Y0386381D01*
X0493715Y0386343D02*
X0497967Y0386343D01*
X0497967Y0386305D02*
X0493715Y0386305D01*
X0493715Y0386267D02*
X0497967Y0386267D01*
X0497967Y0386230D02*
X0493715Y0386230D01*
X0493715Y0386192D02*
X0497967Y0386192D01*
X0497967Y0386154D02*
X0493715Y0386154D01*
X0493715Y0386116D02*
X0497967Y0386116D01*
X0497967Y0386078D02*
X0493715Y0386078D01*
X0493715Y0386040D02*
X0497967Y0386040D01*
X0497967Y0386002D02*
X0493715Y0386002D01*
X0493715Y0385964D02*
X0497967Y0385964D01*
X0497967Y0385926D02*
X0493715Y0385926D01*
X0493715Y0385889D02*
X0497967Y0385889D01*
X0497967Y0385851D02*
X0493715Y0385851D01*
X0493715Y0385813D02*
X0497967Y0385813D01*
X0497967Y0385775D02*
X0493715Y0385775D01*
X0493715Y0385737D02*
X0497967Y0385737D01*
X0497967Y0385699D02*
X0493715Y0385699D01*
X0493715Y0385661D02*
X0497967Y0385661D01*
X0497967Y0385623D02*
X0493715Y0385623D01*
X0493715Y0385586D02*
X0497967Y0385586D01*
X0497967Y0385548D02*
X0493715Y0385548D01*
X0493715Y0385510D02*
X0497967Y0385510D01*
X0497967Y0385472D02*
X0493715Y0385472D01*
X0493715Y0385434D02*
X0497967Y0385434D01*
X0497967Y0385396D02*
X0493715Y0385396D01*
X0493715Y0385358D02*
X0497967Y0385358D01*
X0497967Y0385320D02*
X0493715Y0385320D01*
X0493715Y0385282D02*
X0497967Y0385282D01*
X0497967Y0385245D02*
X0493715Y0385245D01*
X0493715Y0385207D02*
X0497967Y0385207D01*
X0497967Y0385169D02*
X0493715Y0385169D01*
X0493715Y0385131D02*
X0497967Y0385131D01*
X0497967Y0385093D02*
X0493715Y0385093D01*
X0493715Y0385055D02*
X0497967Y0385055D01*
X0497967Y0385017D02*
X0493715Y0385017D01*
X0493715Y0384979D02*
X0497967Y0384979D01*
X0497967Y0384942D02*
X0493715Y0384942D01*
X0493715Y0384904D02*
X0497967Y0384904D01*
X0497967Y0384866D02*
X0493715Y0384866D01*
X0493715Y0384828D02*
X0497967Y0384828D01*
X0497967Y0384790D02*
X0493715Y0384790D01*
X0493715Y0384752D02*
X0497967Y0384752D01*
X0497967Y0384714D02*
X0493715Y0384714D01*
X0493715Y0384676D02*
X0497967Y0384676D01*
X0497967Y0384638D02*
X0493715Y0384638D01*
X0493715Y0384601D02*
X0497967Y0384601D01*
X0497967Y0384563D02*
X0493715Y0384563D01*
X0493715Y0384525D02*
X0497967Y0384525D01*
X0497967Y0384487D02*
X0493715Y0384487D01*
X0493715Y0384449D02*
X0497967Y0384449D01*
X0497967Y0384411D02*
X0493715Y0384411D01*
X0493715Y0384373D02*
X0497967Y0384373D01*
X0497967Y0384335D02*
X0493715Y0384335D01*
X0493715Y0384298D02*
X0497967Y0384298D01*
X0497967Y0384260D02*
X0493715Y0384260D01*
X0493717Y0384222D02*
X0497965Y0384222D01*
X0497962Y0384184D02*
X0493720Y0384184D01*
X0493723Y0384146D02*
X0497959Y0384146D01*
X0497956Y0384108D02*
X0493726Y0384108D01*
X0493732Y0384070D02*
X0497950Y0384070D01*
X0497941Y0384032D02*
X0493741Y0384032D01*
X0493750Y0383995D02*
X0497932Y0383995D01*
X0497923Y0383957D02*
X0493759Y0383957D01*
X0493772Y0383919D02*
X0497910Y0383919D01*
X0497894Y0383881D02*
X0493788Y0383881D01*
X0493804Y0383843D02*
X0497878Y0383843D01*
X0497863Y0383805D02*
X0493819Y0383805D01*
X0493841Y0383767D02*
X0497841Y0383767D01*
X0497818Y0383729D02*
X0493865Y0383729D01*
X0493888Y0383691D02*
X0497794Y0383691D01*
X0497768Y0383654D02*
X0493914Y0383654D01*
X0493947Y0383616D02*
X0497736Y0383616D01*
X0497703Y0383578D02*
X0493979Y0383578D01*
X0494014Y0383540D02*
X0497668Y0383540D01*
X0497624Y0383502D02*
X0494059Y0383502D01*
X0494103Y0383464D02*
X0497579Y0383464D01*
X0497524Y0383426D02*
X0494158Y0383426D01*
X0494219Y0383388D02*
X0497463Y0383388D01*
X0497387Y0383351D02*
X0494295Y0383351D01*
X0494386Y0383313D02*
X0497296Y0383313D01*
X0497143Y0383275D02*
X0494539Y0383275D01*
X0494699Y0380584D02*
X0494545Y0380572D01*
X0494395Y0380536D01*
X0494253Y0380477D01*
X0494121Y0380396D01*
X0494003Y0380296D01*
X0493903Y0380178D01*
X0493822Y0380046D01*
X0493763Y0379904D01*
X0493727Y0379754D01*
X0493715Y0379600D01*
X0497967Y0379600D01*
X0497955Y0379754D01*
X0497919Y0379904D01*
X0497860Y0380046D01*
X0497779Y0380178D01*
X0497679Y0380296D01*
X0497561Y0380396D01*
X0497430Y0380477D01*
X0497287Y0380536D01*
X0497137Y0380572D01*
X0494699Y0380584D01*
X0494443Y0380547D02*
X0497239Y0380547D01*
X0497351Y0380509D02*
X0494331Y0380509D01*
X0494244Y0380472D02*
X0497438Y0380472D01*
X0497500Y0380434D02*
X0494182Y0380434D01*
X0494121Y0380396D02*
X0497562Y0380396D01*
X0497606Y0380358D02*
X0494076Y0380358D01*
X0494032Y0380320D02*
X0497650Y0380320D01*
X0497690Y0380282D02*
X0493992Y0380282D01*
X0493959Y0380244D02*
X0497723Y0380244D01*
X0497755Y0380206D02*
X0493927Y0380206D01*
X0493897Y0380168D02*
X0497785Y0380168D01*
X0497808Y0380131D02*
X0493874Y0380131D01*
X0493851Y0380093D02*
X0497832Y0380093D01*
X0497855Y0380055D02*
X0493827Y0380055D01*
X0493810Y0380017D02*
X0497872Y0380017D01*
X0497888Y0379979D02*
X0493794Y0379979D01*
X0493779Y0379941D02*
X0497904Y0379941D01*
X0497919Y0379903D02*
X0493763Y0379903D01*
X0493754Y0379865D02*
X0497928Y0379865D01*
X0497937Y0379828D02*
X0493745Y0379828D01*
X0493736Y0379790D02*
X0497946Y0379790D01*
X0497955Y0379752D02*
X0493727Y0379752D01*
X0493724Y0379714D02*
X0497958Y0379714D01*
X0497961Y0379676D02*
X0493721Y0379676D01*
X0493718Y0379638D02*
X0497964Y0379638D01*
X0497967Y0379600D02*
X0497967Y0377789D01*
X0497967Y0375978D01*
X0497955Y0375824D01*
X0497919Y0375673D01*
X0497860Y0375531D01*
X0497779Y0375399D01*
X0497679Y0375282D01*
X0494003Y0375282D01*
X0494121Y0375181D01*
X0494253Y0375100D01*
X0494395Y0375041D01*
X0494545Y0375006D01*
X0496983Y0374993D01*
X0497137Y0375006D01*
X0497287Y0375041D01*
X0497430Y0375100D01*
X0497561Y0375181D01*
X0497679Y0375282D01*
X0497711Y0375320D02*
X0493971Y0375320D01*
X0493938Y0375358D02*
X0497744Y0375358D01*
X0497776Y0375395D02*
X0493906Y0375395D01*
X0493903Y0375399D02*
X0494003Y0375282D01*
X0494047Y0375244D02*
X0497635Y0375244D01*
X0497590Y0375206D02*
X0494092Y0375206D01*
X0494142Y0375168D02*
X0497540Y0375168D01*
X0497478Y0375130D02*
X0494204Y0375130D01*
X0494272Y0375092D02*
X0497410Y0375092D01*
X0497319Y0375055D02*
X0494363Y0375055D01*
X0494499Y0375017D02*
X0497183Y0375017D01*
X0497800Y0375433D02*
X0493882Y0375433D01*
X0493903Y0375399D02*
X0493822Y0375531D01*
X0493763Y0375673D01*
X0493727Y0375824D01*
X0493715Y0375978D01*
X0493715Y0379600D01*
X0493715Y0379562D02*
X0497967Y0379562D01*
X0497967Y0379525D02*
X0493715Y0379525D01*
X0493715Y0379487D02*
X0497967Y0379487D01*
X0497967Y0379449D02*
X0493715Y0379449D01*
X0493715Y0379411D02*
X0497967Y0379411D01*
X0497967Y0379373D02*
X0493715Y0379373D01*
X0493715Y0379335D02*
X0497967Y0379335D01*
X0497967Y0379297D02*
X0493715Y0379297D01*
X0493715Y0379259D02*
X0497967Y0379259D01*
X0497967Y0379221D02*
X0493715Y0379221D01*
X0493715Y0379184D02*
X0497967Y0379184D01*
X0497967Y0379146D02*
X0493715Y0379146D01*
X0493715Y0379108D02*
X0497967Y0379108D01*
X0497967Y0379070D02*
X0493715Y0379070D01*
X0493715Y0379032D02*
X0497967Y0379032D01*
X0497967Y0378994D02*
X0493715Y0378994D01*
X0493715Y0378956D02*
X0497967Y0378956D01*
X0497967Y0378918D02*
X0493715Y0378918D01*
X0493715Y0378881D02*
X0497967Y0378881D01*
X0497967Y0378843D02*
X0493715Y0378843D01*
X0493715Y0378805D02*
X0497967Y0378805D01*
X0497967Y0378767D02*
X0493715Y0378767D01*
X0493715Y0378729D02*
X0497967Y0378729D01*
X0497967Y0378691D02*
X0493715Y0378691D01*
X0493715Y0378653D02*
X0497967Y0378653D01*
X0497967Y0378615D02*
X0493715Y0378615D01*
X0493715Y0378577D02*
X0497967Y0378577D01*
X0497967Y0378540D02*
X0493715Y0378540D01*
X0493715Y0378502D02*
X0497967Y0378502D01*
X0497967Y0378464D02*
X0493715Y0378464D01*
X0493715Y0378426D02*
X0497967Y0378426D01*
X0497967Y0378388D02*
X0493715Y0378388D01*
X0493715Y0378350D02*
X0497967Y0378350D01*
X0497967Y0378312D02*
X0493715Y0378312D01*
X0493715Y0378274D02*
X0497967Y0378274D01*
X0497967Y0378237D02*
X0493715Y0378237D01*
X0493715Y0378199D02*
X0497967Y0378199D01*
X0497967Y0378161D02*
X0493715Y0378161D01*
X0493715Y0378123D02*
X0497967Y0378123D01*
X0497967Y0378085D02*
X0493715Y0378085D01*
X0493715Y0378047D02*
X0497967Y0378047D01*
X0497967Y0378009D02*
X0493715Y0378009D01*
X0493715Y0377971D02*
X0497967Y0377971D01*
X0497967Y0377933D02*
X0493715Y0377933D01*
X0493715Y0377896D02*
X0497967Y0377896D01*
X0497967Y0377858D02*
X0493715Y0377858D01*
X0493715Y0377820D02*
X0497967Y0377820D01*
X0497967Y0377782D02*
X0493715Y0377782D01*
X0493715Y0377744D02*
X0497967Y0377744D01*
X0497967Y0377706D02*
X0493715Y0377706D01*
X0493715Y0377668D02*
X0497967Y0377668D01*
X0497967Y0377630D02*
X0493715Y0377630D01*
X0493715Y0377593D02*
X0497967Y0377593D01*
X0497967Y0377555D02*
X0493715Y0377555D01*
X0493715Y0377517D02*
X0497967Y0377517D01*
X0497967Y0377479D02*
X0493715Y0377479D01*
X0493715Y0377441D02*
X0497967Y0377441D01*
X0497967Y0377403D02*
X0493715Y0377403D01*
X0493715Y0377365D02*
X0497967Y0377365D01*
X0497967Y0377327D02*
X0493715Y0377327D01*
X0493715Y0377290D02*
X0497967Y0377290D01*
X0497967Y0377252D02*
X0493715Y0377252D01*
X0493715Y0377214D02*
X0497967Y0377214D01*
X0497967Y0377176D02*
X0493715Y0377176D01*
X0493715Y0377138D02*
X0497967Y0377138D01*
X0497967Y0377100D02*
X0493715Y0377100D01*
X0493715Y0377062D02*
X0497967Y0377062D01*
X0497967Y0377024D02*
X0493715Y0377024D01*
X0493715Y0376986D02*
X0497967Y0376986D01*
X0497967Y0376949D02*
X0493715Y0376949D01*
X0493715Y0376911D02*
X0497967Y0376911D01*
X0497967Y0376873D02*
X0493715Y0376873D01*
X0493715Y0376835D02*
X0497967Y0376835D01*
X0497967Y0376797D02*
X0493715Y0376797D01*
X0493715Y0376759D02*
X0497967Y0376759D01*
X0497967Y0376721D02*
X0493715Y0376721D01*
X0493715Y0376683D02*
X0497967Y0376683D01*
X0497967Y0376646D02*
X0493715Y0376646D01*
X0493715Y0376608D02*
X0497967Y0376608D01*
X0497967Y0376570D02*
X0493715Y0376570D01*
X0493715Y0376532D02*
X0497967Y0376532D01*
X0497967Y0376494D02*
X0493715Y0376494D01*
X0493715Y0376456D02*
X0497967Y0376456D01*
X0497967Y0376418D02*
X0493715Y0376418D01*
X0493715Y0376380D02*
X0497967Y0376380D01*
X0497967Y0376342D02*
X0493715Y0376342D01*
X0493715Y0376305D02*
X0497967Y0376305D01*
X0497967Y0376267D02*
X0493715Y0376267D01*
X0493715Y0376229D02*
X0497967Y0376229D01*
X0497967Y0376191D02*
X0493715Y0376191D01*
X0493715Y0376153D02*
X0497967Y0376153D01*
X0497967Y0376115D02*
X0493715Y0376115D01*
X0493715Y0376077D02*
X0497967Y0376077D01*
X0497967Y0376039D02*
X0493715Y0376039D01*
X0493715Y0376002D02*
X0497967Y0376002D01*
X0497966Y0375964D02*
X0493716Y0375964D01*
X0493719Y0375926D02*
X0497963Y0375926D01*
X0497960Y0375888D02*
X0493722Y0375888D01*
X0493725Y0375850D02*
X0497957Y0375850D01*
X0497952Y0375812D02*
X0493730Y0375812D01*
X0493739Y0375774D02*
X0497943Y0375774D01*
X0497934Y0375736D02*
X0493748Y0375736D01*
X0493757Y0375698D02*
X0497925Y0375698D01*
X0497914Y0375661D02*
X0493768Y0375661D01*
X0493784Y0375623D02*
X0497898Y0375623D01*
X0497882Y0375585D02*
X0493800Y0375585D01*
X0493815Y0375547D02*
X0497867Y0375547D01*
X0497847Y0375509D02*
X0493835Y0375509D01*
X0493859Y0375471D02*
X0497823Y0375471D01*
X0490696Y0375358D02*
X0486891Y0375358D01*
X0486924Y0375320D02*
X0490664Y0375320D01*
X0490632Y0375282D02*
X0490514Y0375181D01*
X0490382Y0375100D01*
X0490240Y0375041D01*
X0490090Y0375006D01*
X0489936Y0374993D01*
X0487498Y0375006D01*
X0487348Y0375041D01*
X0487205Y0375100D01*
X0487074Y0375181D01*
X0486956Y0375282D01*
X0487000Y0375244D02*
X0490588Y0375244D01*
X0490543Y0375206D02*
X0487045Y0375206D01*
X0487095Y0375168D02*
X0490493Y0375168D01*
X0490431Y0375130D02*
X0487157Y0375130D01*
X0487225Y0375092D02*
X0490363Y0375092D01*
X0490272Y0375055D02*
X0487316Y0375055D01*
X0487452Y0375017D02*
X0490136Y0375017D01*
X0493734Y0388048D02*
X0497949Y0388048D01*
X0497940Y0388086D02*
X0493743Y0388086D01*
X0493752Y0388124D02*
X0497931Y0388124D01*
X0497921Y0388161D02*
X0493761Y0388161D01*
X0493775Y0388199D02*
X0497908Y0388199D01*
X0497892Y0388237D02*
X0493790Y0388237D01*
X0493806Y0388275D02*
X0497876Y0388275D01*
X0497860Y0388313D02*
X0493822Y0388313D01*
X0493845Y0388351D02*
X0497837Y0388351D01*
X0497814Y0388389D02*
X0493868Y0388389D01*
X0493891Y0388427D02*
X0497791Y0388427D01*
X0497763Y0388465D02*
X0493919Y0388465D01*
X0493951Y0388502D02*
X0497731Y0388502D01*
X0497699Y0388540D02*
X0493984Y0388540D01*
X0494021Y0388578D02*
X0497662Y0388578D01*
X0497617Y0388616D02*
X0494065Y0388616D01*
X0494109Y0388654D02*
X0497573Y0388654D01*
X0497516Y0388692D02*
X0494167Y0388692D01*
X0494228Y0388730D02*
X0497454Y0388730D01*
X0497374Y0388768D02*
X0494308Y0388768D01*
X0494403Y0388805D02*
X0497279Y0388805D01*
X0496351Y0388843D02*
X0494595Y0388843D01*
X0504817Y0422572D02*
X0504817Y0429068D01*
X0511314Y0429068D01*
X0511314Y0422572D01*
X0504817Y0422572D01*
X0504817Y0422596D02*
X0511314Y0422596D01*
X0511314Y0422634D02*
X0504817Y0422634D01*
X0504817Y0422671D02*
X0511314Y0422671D01*
X0511314Y0422709D02*
X0504817Y0422709D01*
X0504817Y0422747D02*
X0511314Y0422747D01*
X0511314Y0422785D02*
X0504817Y0422785D01*
X0504817Y0422823D02*
X0511314Y0422823D01*
X0511314Y0422861D02*
X0504817Y0422861D01*
X0504817Y0422899D02*
X0511314Y0422899D01*
X0511314Y0422937D02*
X0504817Y0422937D01*
X0504817Y0422974D02*
X0511314Y0422974D01*
X0511314Y0423012D02*
X0504817Y0423012D01*
X0504817Y0423050D02*
X0511314Y0423050D01*
X0511314Y0423088D02*
X0504817Y0423088D01*
X0504817Y0423126D02*
X0511314Y0423126D01*
X0511314Y0423164D02*
X0504817Y0423164D01*
X0504817Y0423202D02*
X0511314Y0423202D01*
X0511314Y0423240D02*
X0504817Y0423240D01*
X0504817Y0423278D02*
X0511314Y0423278D01*
X0511314Y0423315D02*
X0504817Y0423315D01*
X0504817Y0423353D02*
X0511314Y0423353D01*
X0511314Y0423391D02*
X0504817Y0423391D01*
X0504817Y0423429D02*
X0511314Y0423429D01*
X0511314Y0423467D02*
X0504817Y0423467D01*
X0504817Y0423505D02*
X0511314Y0423505D01*
X0511314Y0423543D02*
X0504817Y0423543D01*
X0504817Y0423581D02*
X0511314Y0423581D01*
X0511314Y0423618D02*
X0504817Y0423618D01*
X0504817Y0423656D02*
X0511314Y0423656D01*
X0511314Y0423694D02*
X0504817Y0423694D01*
X0504817Y0423732D02*
X0511314Y0423732D01*
X0511314Y0423770D02*
X0504817Y0423770D01*
X0504817Y0423808D02*
X0511314Y0423808D01*
X0511314Y0423846D02*
X0504817Y0423846D01*
X0504817Y0423884D02*
X0511314Y0423884D01*
X0511314Y0423922D02*
X0504817Y0423922D01*
X0504817Y0423959D02*
X0511314Y0423959D01*
X0511314Y0423997D02*
X0504817Y0423997D01*
X0504817Y0424035D02*
X0511314Y0424035D01*
X0511314Y0424073D02*
X0504817Y0424073D01*
X0504817Y0424111D02*
X0511314Y0424111D01*
X0511314Y0424149D02*
X0504817Y0424149D01*
X0504817Y0424187D02*
X0511314Y0424187D01*
X0511314Y0424225D02*
X0504817Y0424225D01*
X0504817Y0424262D02*
X0511314Y0424262D01*
X0511314Y0424300D02*
X0504817Y0424300D01*
X0504817Y0424338D02*
X0511314Y0424338D01*
X0511314Y0424376D02*
X0504817Y0424376D01*
X0504817Y0424414D02*
X0511314Y0424414D01*
X0511314Y0424452D02*
X0504817Y0424452D01*
X0504817Y0424490D02*
X0511314Y0424490D01*
X0511314Y0424528D02*
X0504817Y0424528D01*
X0504817Y0424565D02*
X0511314Y0424565D01*
X0511314Y0424603D02*
X0504817Y0424603D01*
X0504817Y0424641D02*
X0511314Y0424641D01*
X0511314Y0424679D02*
X0504817Y0424679D01*
X0504817Y0424717D02*
X0511314Y0424717D01*
X0511314Y0424755D02*
X0504817Y0424755D01*
X0504817Y0424793D02*
X0511314Y0424793D01*
X0511314Y0424831D02*
X0504817Y0424831D01*
X0504817Y0424869D02*
X0511314Y0424869D01*
X0511314Y0424906D02*
X0504817Y0424906D01*
X0504817Y0424944D02*
X0511314Y0424944D01*
X0511314Y0424982D02*
X0504817Y0424982D01*
X0504817Y0425020D02*
X0511314Y0425020D01*
X0511314Y0425058D02*
X0504817Y0425058D01*
X0504817Y0425096D02*
X0511314Y0425096D01*
X0511314Y0425134D02*
X0504817Y0425134D01*
X0504817Y0425172D02*
X0511314Y0425172D01*
X0511314Y0425209D02*
X0504817Y0425209D01*
X0504817Y0425247D02*
X0511314Y0425247D01*
X0511314Y0425285D02*
X0504817Y0425285D01*
X0504817Y0425323D02*
X0511314Y0425323D01*
X0511314Y0425361D02*
X0504817Y0425361D01*
X0504817Y0425399D02*
X0511314Y0425399D01*
X0511314Y0425437D02*
X0504817Y0425437D01*
X0504817Y0425475D02*
X0511314Y0425475D01*
X0511314Y0425513D02*
X0504817Y0425513D01*
X0504817Y0425550D02*
X0511314Y0425550D01*
X0511314Y0425588D02*
X0504817Y0425588D01*
X0504817Y0425626D02*
X0511314Y0425626D01*
X0511314Y0425664D02*
X0504817Y0425664D01*
X0504817Y0425702D02*
X0511314Y0425702D01*
X0511314Y0425740D02*
X0504817Y0425740D01*
X0504817Y0425778D02*
X0511314Y0425778D01*
X0511314Y0425816D02*
X0504817Y0425816D01*
X0504817Y0425853D02*
X0511314Y0425853D01*
X0511314Y0425891D02*
X0504817Y0425891D01*
X0504817Y0425929D02*
X0511314Y0425929D01*
X0511314Y0425967D02*
X0504817Y0425967D01*
X0504817Y0426005D02*
X0511314Y0426005D01*
X0511314Y0426043D02*
X0504817Y0426043D01*
X0504817Y0426081D02*
X0511314Y0426081D01*
X0511314Y0426119D02*
X0504817Y0426119D01*
X0504817Y0426157D02*
X0511314Y0426157D01*
X0511314Y0426194D02*
X0504817Y0426194D01*
X0504817Y0426232D02*
X0511314Y0426232D01*
X0511314Y0426270D02*
X0504817Y0426270D01*
X0504817Y0426308D02*
X0511314Y0426308D01*
X0511314Y0426346D02*
X0504817Y0426346D01*
X0504817Y0426384D02*
X0511314Y0426384D01*
X0511314Y0426422D02*
X0504817Y0426422D01*
X0504817Y0426460D02*
X0511314Y0426460D01*
X0511314Y0426497D02*
X0504817Y0426497D01*
X0504817Y0426535D02*
X0511314Y0426535D01*
X0511314Y0426573D02*
X0504817Y0426573D01*
X0504817Y0426611D02*
X0511314Y0426611D01*
X0511314Y0426649D02*
X0504817Y0426649D01*
X0504817Y0426687D02*
X0511314Y0426687D01*
X0511314Y0426725D02*
X0504817Y0426725D01*
X0504817Y0426763D02*
X0511314Y0426763D01*
X0511314Y0426800D02*
X0504817Y0426800D01*
X0504817Y0426838D02*
X0511314Y0426838D01*
X0511314Y0426876D02*
X0504817Y0426876D01*
X0504817Y0426914D02*
X0511314Y0426914D01*
X0511314Y0426952D02*
X0504817Y0426952D01*
X0504817Y0426990D02*
X0511314Y0426990D01*
X0511314Y0427028D02*
X0504817Y0427028D01*
X0504817Y0427066D02*
X0511314Y0427066D01*
X0511314Y0427104D02*
X0504817Y0427104D01*
X0504817Y0427141D02*
X0511314Y0427141D01*
X0511314Y0427179D02*
X0504817Y0427179D01*
X0504817Y0427217D02*
X0511314Y0427217D01*
X0511314Y0427255D02*
X0504817Y0427255D01*
X0504817Y0427293D02*
X0511314Y0427293D01*
X0511314Y0427331D02*
X0504817Y0427331D01*
X0504817Y0427369D02*
X0511314Y0427369D01*
X0511314Y0427407D02*
X0504817Y0427407D01*
X0504817Y0427444D02*
X0511314Y0427444D01*
X0511314Y0427482D02*
X0504817Y0427482D01*
X0504817Y0427520D02*
X0511314Y0427520D01*
X0511314Y0427558D02*
X0504817Y0427558D01*
X0504817Y0427596D02*
X0511314Y0427596D01*
X0511314Y0427634D02*
X0504817Y0427634D01*
X0504817Y0427672D02*
X0511314Y0427672D01*
X0511314Y0427710D02*
X0504817Y0427710D01*
X0504817Y0427748D02*
X0511314Y0427748D01*
X0511314Y0427785D02*
X0504817Y0427785D01*
X0504817Y0427823D02*
X0511314Y0427823D01*
X0511314Y0427861D02*
X0504817Y0427861D01*
X0504817Y0427899D02*
X0511314Y0427899D01*
X0511314Y0427937D02*
X0504817Y0427937D01*
X0504817Y0427975D02*
X0511314Y0427975D01*
X0511314Y0428013D02*
X0504817Y0428013D01*
X0504817Y0428051D02*
X0511314Y0428051D01*
X0511314Y0428088D02*
X0504817Y0428088D01*
X0504817Y0428126D02*
X0511314Y0428126D01*
X0511314Y0428164D02*
X0504817Y0428164D01*
X0504817Y0428202D02*
X0511314Y0428202D01*
X0511314Y0428240D02*
X0504817Y0428240D01*
X0504817Y0428278D02*
X0511314Y0428278D01*
X0511314Y0428316D02*
X0504817Y0428316D01*
X0504817Y0428354D02*
X0511314Y0428354D01*
X0511314Y0428392D02*
X0504817Y0428392D01*
X0504817Y0428429D02*
X0511314Y0428429D01*
X0511314Y0428467D02*
X0504817Y0428467D01*
X0504817Y0428505D02*
X0511314Y0428505D01*
X0511314Y0428543D02*
X0504817Y0428543D01*
X0504817Y0428581D02*
X0511314Y0428581D01*
X0511314Y0428619D02*
X0504817Y0428619D01*
X0504817Y0428657D02*
X0511314Y0428657D01*
X0511314Y0428695D02*
X0504817Y0428695D01*
X0504817Y0428732D02*
X0511314Y0428732D01*
X0511314Y0428770D02*
X0504817Y0428770D01*
X0504817Y0428808D02*
X0511314Y0428808D01*
X0511314Y0428846D02*
X0504817Y0428846D01*
X0504817Y0428884D02*
X0511314Y0428884D01*
X0511314Y0428922D02*
X0504817Y0428922D01*
X0504817Y0428960D02*
X0511314Y0428960D01*
X0511314Y0428998D02*
X0504817Y0428998D01*
X0504817Y0429035D02*
X0511314Y0429035D01*
X0509493Y0432937D02*
X0506638Y0432937D01*
X0506557Y0432975D02*
X0509574Y0432975D01*
X0509655Y0433013D02*
X0506476Y0433013D01*
X0506451Y0433024D02*
X0506961Y0432787D01*
X0507505Y0432641D01*
X0508066Y0432592D01*
X0508626Y0432641D01*
X0509170Y0432787D01*
X0509680Y0433024D01*
X0510141Y0433347D01*
X0510539Y0433745D01*
X0510861Y0434206D01*
X0511099Y0434716D01*
X0511245Y0435259D01*
X0511294Y0435820D01*
X0511245Y0436381D01*
X0511099Y0436924D01*
X0510861Y0437434D01*
X0510539Y0437895D01*
X0510141Y0438293D01*
X0509680Y0438616D01*
X0509170Y0438854D01*
X0508626Y0438999D01*
X0508066Y0439048D01*
X0507505Y0438999D01*
X0506961Y0438854D01*
X0506451Y0438616D01*
X0505990Y0438293D01*
X0505592Y0437895D01*
X0505270Y0437434D01*
X0505032Y0436924D01*
X0504886Y0436381D01*
X0504837Y0435820D01*
X0504886Y0435259D01*
X0505032Y0434716D01*
X0505270Y0434206D01*
X0505592Y0433745D01*
X0505990Y0433347D01*
X0506451Y0433024D01*
X0506413Y0433051D02*
X0509718Y0433051D01*
X0509772Y0433089D02*
X0506359Y0433089D01*
X0506305Y0433127D02*
X0509826Y0433127D01*
X0509880Y0433165D02*
X0506251Y0433165D01*
X0506197Y0433202D02*
X0509934Y0433202D01*
X0509988Y0433240D02*
X0506143Y0433240D01*
X0506088Y0433278D02*
X0510043Y0433278D01*
X0510097Y0433316D02*
X0506034Y0433316D01*
X0505983Y0433354D02*
X0510148Y0433354D01*
X0510186Y0433392D02*
X0505945Y0433392D01*
X0505907Y0433430D02*
X0510224Y0433430D01*
X0510261Y0433468D02*
X0505870Y0433468D01*
X0505832Y0433505D02*
X0510299Y0433505D01*
X0510337Y0433543D02*
X0505794Y0433543D01*
X0505756Y0433581D02*
X0510375Y0433581D01*
X0510413Y0433619D02*
X0505718Y0433619D01*
X0505680Y0433657D02*
X0510451Y0433657D01*
X0510489Y0433695D02*
X0505642Y0433695D01*
X0505604Y0433733D02*
X0510527Y0433733D01*
X0510557Y0433771D02*
X0505574Y0433771D01*
X0505548Y0433809D02*
X0510583Y0433809D01*
X0510610Y0433846D02*
X0505521Y0433846D01*
X0505495Y0433884D02*
X0510636Y0433884D01*
X0510663Y0433922D02*
X0505468Y0433922D01*
X0505442Y0433960D02*
X0510689Y0433960D01*
X0510716Y0433998D02*
X0505415Y0433998D01*
X0505389Y0434036D02*
X0510742Y0434036D01*
X0510769Y0434074D02*
X0505362Y0434074D01*
X0505336Y0434112D02*
X0510795Y0434112D01*
X0510822Y0434149D02*
X0505309Y0434149D01*
X0505283Y0434187D02*
X0510848Y0434187D01*
X0510870Y0434225D02*
X0505261Y0434225D01*
X0505243Y0434263D02*
X0510888Y0434263D01*
X0510906Y0434301D02*
X0505225Y0434301D01*
X0505208Y0434339D02*
X0510923Y0434339D01*
X0510941Y0434377D02*
X0505190Y0434377D01*
X0505172Y0434415D02*
X0510959Y0434415D01*
X0510976Y0434453D02*
X0505155Y0434453D01*
X0505137Y0434490D02*
X0510994Y0434490D01*
X0511012Y0434528D02*
X0505119Y0434528D01*
X0505102Y0434566D02*
X0511029Y0434566D01*
X0511047Y0434604D02*
X0505084Y0434604D01*
X0505066Y0434642D02*
X0511065Y0434642D01*
X0511082Y0434680D02*
X0505049Y0434680D01*
X0505032Y0434718D02*
X0511099Y0434718D01*
X0511110Y0434756D02*
X0505021Y0434756D01*
X0505011Y0434793D02*
X0511120Y0434793D01*
X0511130Y0434831D02*
X0505001Y0434831D01*
X0504991Y0434869D02*
X0511140Y0434869D01*
X0511150Y0434907D02*
X0504981Y0434907D01*
X0504971Y0434945D02*
X0511160Y0434945D01*
X0511171Y0434983D02*
X0504960Y0434983D01*
X0504950Y0435021D02*
X0511181Y0435021D01*
X0511191Y0435059D02*
X0504940Y0435059D01*
X0504930Y0435097D02*
X0511201Y0435097D01*
X0511211Y0435134D02*
X0504920Y0435134D01*
X0504910Y0435172D02*
X0511221Y0435172D01*
X0511231Y0435210D02*
X0504900Y0435210D01*
X0504889Y0435248D02*
X0511242Y0435248D01*
X0511247Y0435286D02*
X0504884Y0435286D01*
X0504881Y0435324D02*
X0511250Y0435324D01*
X0511254Y0435362D02*
X0504877Y0435362D01*
X0504874Y0435400D02*
X0511257Y0435400D01*
X0511260Y0435437D02*
X0504871Y0435437D01*
X0504867Y0435475D02*
X0511264Y0435475D01*
X0511267Y0435513D02*
X0504864Y0435513D01*
X0504861Y0435551D02*
X0511270Y0435551D01*
X0511274Y0435589D02*
X0504857Y0435589D01*
X0504854Y0435627D02*
X0511277Y0435627D01*
X0511280Y0435665D02*
X0504851Y0435665D01*
X0504847Y0435703D02*
X0511284Y0435703D01*
X0511287Y0435741D02*
X0504844Y0435741D01*
X0504841Y0435778D02*
X0511290Y0435778D01*
X0511294Y0435816D02*
X0504837Y0435816D01*
X0504840Y0435854D02*
X0511291Y0435854D01*
X0511288Y0435892D02*
X0504843Y0435892D01*
X0504847Y0435930D02*
X0511284Y0435930D01*
X0511281Y0435968D02*
X0504850Y0435968D01*
X0504853Y0436006D02*
X0511278Y0436006D01*
X0511274Y0436044D02*
X0504857Y0436044D01*
X0504860Y0436081D02*
X0511271Y0436081D01*
X0511268Y0436119D02*
X0504863Y0436119D01*
X0504867Y0436157D02*
X0511264Y0436157D01*
X0511261Y0436195D02*
X0504870Y0436195D01*
X0504873Y0436233D02*
X0511258Y0436233D01*
X0511254Y0436271D02*
X0504877Y0436271D01*
X0504880Y0436309D02*
X0511251Y0436309D01*
X0511248Y0436347D02*
X0504883Y0436347D01*
X0504887Y0436384D02*
X0511244Y0436384D01*
X0511233Y0436422D02*
X0504898Y0436422D01*
X0504908Y0436460D02*
X0511223Y0436460D01*
X0511213Y0436498D02*
X0504918Y0436498D01*
X0504928Y0436536D02*
X0511203Y0436536D01*
X0511193Y0436574D02*
X0504938Y0436574D01*
X0504948Y0436612D02*
X0511183Y0436612D01*
X0511173Y0436650D02*
X0504958Y0436650D01*
X0504969Y0436688D02*
X0511162Y0436688D01*
X0511152Y0436725D02*
X0504979Y0436725D01*
X0504989Y0436763D02*
X0511142Y0436763D01*
X0511132Y0436801D02*
X0504999Y0436801D01*
X0505009Y0436839D02*
X0511122Y0436839D01*
X0511112Y0436877D02*
X0505019Y0436877D01*
X0505029Y0436915D02*
X0511102Y0436915D01*
X0511086Y0436953D02*
X0505045Y0436953D01*
X0505063Y0436991D02*
X0511068Y0436991D01*
X0511050Y0437028D02*
X0505081Y0437028D01*
X0505098Y0437066D02*
X0511033Y0437066D01*
X0511015Y0437104D02*
X0505116Y0437104D01*
X0505134Y0437142D02*
X0510997Y0437142D01*
X0510980Y0437180D02*
X0505151Y0437180D01*
X0505169Y0437218D02*
X0510962Y0437218D01*
X0510944Y0437256D02*
X0505187Y0437256D01*
X0505204Y0437294D02*
X0510927Y0437294D01*
X0510909Y0437332D02*
X0505222Y0437332D01*
X0505240Y0437369D02*
X0510891Y0437369D01*
X0510874Y0437407D02*
X0505257Y0437407D01*
X0505277Y0437445D02*
X0510854Y0437445D01*
X0510827Y0437483D02*
X0505304Y0437483D01*
X0505330Y0437521D02*
X0510801Y0437521D01*
X0510774Y0437559D02*
X0505357Y0437559D01*
X0505383Y0437597D02*
X0510748Y0437597D01*
X0510721Y0437635D02*
X0505410Y0437635D01*
X0505436Y0437672D02*
X0510695Y0437672D01*
X0510668Y0437710D02*
X0505463Y0437710D01*
X0505489Y0437748D02*
X0510642Y0437748D01*
X0510615Y0437786D02*
X0505516Y0437786D01*
X0505542Y0437824D02*
X0510589Y0437824D01*
X0510562Y0437862D02*
X0505569Y0437862D01*
X0505597Y0437900D02*
X0510534Y0437900D01*
X0510496Y0437938D02*
X0505635Y0437938D01*
X0505672Y0437976D02*
X0510459Y0437976D01*
X0510421Y0438013D02*
X0505710Y0438013D01*
X0505748Y0438051D02*
X0510383Y0438051D01*
X0510345Y0438089D02*
X0505786Y0438089D01*
X0505824Y0438127D02*
X0510307Y0438127D01*
X0510269Y0438165D02*
X0505862Y0438165D01*
X0505900Y0438203D02*
X0510231Y0438203D01*
X0510193Y0438241D02*
X0505938Y0438241D01*
X0505976Y0438279D02*
X0510155Y0438279D01*
X0510108Y0438316D02*
X0506023Y0438316D01*
X0506078Y0438354D02*
X0510054Y0438354D01*
X0509999Y0438392D02*
X0506132Y0438392D01*
X0506186Y0438430D02*
X0509945Y0438430D01*
X0509891Y0438468D02*
X0506240Y0438468D01*
X0506294Y0438506D02*
X0509837Y0438506D01*
X0509783Y0438544D02*
X0506348Y0438544D01*
X0506402Y0438582D02*
X0509729Y0438582D01*
X0509672Y0438619D02*
X0506459Y0438619D01*
X0506541Y0438657D02*
X0509591Y0438657D01*
X0509509Y0438695D02*
X0506622Y0438695D01*
X0506703Y0438733D02*
X0509428Y0438733D01*
X0509347Y0438771D02*
X0506784Y0438771D01*
X0506865Y0438809D02*
X0509266Y0438809D01*
X0509184Y0438847D02*
X0506947Y0438847D01*
X0507077Y0438885D02*
X0509054Y0438885D01*
X0508912Y0438923D02*
X0507219Y0438923D01*
X0507360Y0438960D02*
X0508771Y0438960D01*
X0508630Y0438998D02*
X0507501Y0438998D01*
X0507926Y0439036D02*
X0508205Y0439036D01*
X0508066Y0442592D02*
X0508626Y0442641D01*
X0509170Y0442787D01*
X0509680Y0443024D01*
X0510141Y0443347D01*
X0510539Y0443745D01*
X0510861Y0444206D01*
X0511099Y0444716D01*
X0511245Y0445259D01*
X0511294Y0445820D01*
X0511245Y0446381D01*
X0511099Y0446924D01*
X0510861Y0447434D01*
X0510539Y0447895D01*
X0510141Y0448293D01*
X0509680Y0448616D01*
X0509170Y0448854D01*
X0508626Y0448999D01*
X0508066Y0449048D01*
X0507505Y0448999D01*
X0506961Y0448854D01*
X0506451Y0448616D01*
X0505990Y0448293D01*
X0505592Y0447895D01*
X0505270Y0447434D01*
X0505032Y0446924D01*
X0504886Y0446381D01*
X0504837Y0445820D01*
X0504886Y0445259D01*
X0505032Y0444716D01*
X0505270Y0444206D01*
X0505592Y0443745D01*
X0505990Y0443347D01*
X0506451Y0443024D01*
X0506961Y0442787D01*
X0507505Y0442641D01*
X0508066Y0442592D01*
X0508126Y0442597D02*
X0508005Y0442597D01*
X0507574Y0442635D02*
X0508557Y0442635D01*
X0508745Y0442673D02*
X0507386Y0442673D01*
X0507245Y0442711D02*
X0508886Y0442711D01*
X0509028Y0442749D02*
X0507103Y0442749D01*
X0506962Y0442786D02*
X0509169Y0442786D01*
X0509251Y0442824D02*
X0506880Y0442824D01*
X0506799Y0442862D02*
X0509332Y0442862D01*
X0509413Y0442900D02*
X0506718Y0442900D01*
X0506637Y0442938D02*
X0509494Y0442938D01*
X0509576Y0442976D02*
X0506555Y0442976D01*
X0506474Y0443014D02*
X0509657Y0443014D01*
X0509719Y0443052D02*
X0506412Y0443052D01*
X0506358Y0443089D02*
X0509773Y0443089D01*
X0509827Y0443127D02*
X0506304Y0443127D01*
X0506250Y0443165D02*
X0509881Y0443165D01*
X0509935Y0443203D02*
X0506196Y0443203D01*
X0506142Y0443241D02*
X0509989Y0443241D01*
X0510044Y0443279D02*
X0506087Y0443279D01*
X0506033Y0443317D02*
X0510098Y0443317D01*
X0510148Y0443355D02*
X0505983Y0443355D01*
X0505945Y0443393D02*
X0510186Y0443393D01*
X0510224Y0443430D02*
X0505907Y0443430D01*
X0505869Y0443468D02*
X0510262Y0443468D01*
X0510300Y0443506D02*
X0505831Y0443506D01*
X0505793Y0443544D02*
X0510338Y0443544D01*
X0510376Y0443582D02*
X0505755Y0443582D01*
X0505717Y0443620D02*
X0510414Y0443620D01*
X0510452Y0443658D02*
X0505679Y0443658D01*
X0505642Y0443696D02*
X0510489Y0443696D01*
X0510527Y0443733D02*
X0505604Y0443733D01*
X0505574Y0443771D02*
X0510557Y0443771D01*
X0510584Y0443809D02*
X0505547Y0443809D01*
X0505521Y0443847D02*
X0510610Y0443847D01*
X0510637Y0443885D02*
X0505494Y0443885D01*
X0505468Y0443923D02*
X0510663Y0443923D01*
X0510690Y0443961D02*
X0505441Y0443961D01*
X0505415Y0443999D02*
X0510716Y0443999D01*
X0510743Y0444037D02*
X0505388Y0444037D01*
X0505362Y0444074D02*
X0510769Y0444074D01*
X0510796Y0444112D02*
X0505335Y0444112D01*
X0505309Y0444150D02*
X0510822Y0444150D01*
X0510849Y0444188D02*
X0505282Y0444188D01*
X0505260Y0444226D02*
X0510870Y0444226D01*
X0510888Y0444264D02*
X0505243Y0444264D01*
X0505225Y0444302D02*
X0510906Y0444302D01*
X0510923Y0444340D02*
X0505207Y0444340D01*
X0505190Y0444377D02*
X0510941Y0444377D01*
X0510959Y0444415D02*
X0505172Y0444415D01*
X0505154Y0444453D02*
X0510977Y0444453D01*
X0510994Y0444491D02*
X0505137Y0444491D01*
X0505119Y0444529D02*
X0511012Y0444529D01*
X0511030Y0444567D02*
X0505101Y0444567D01*
X0505084Y0444605D02*
X0511047Y0444605D01*
X0511065Y0444643D02*
X0505066Y0444643D01*
X0505048Y0444681D02*
X0511083Y0444681D01*
X0511100Y0444718D02*
X0505031Y0444718D01*
X0505021Y0444756D02*
X0511110Y0444756D01*
X0511120Y0444794D02*
X0505011Y0444794D01*
X0505001Y0444832D02*
X0511130Y0444832D01*
X0511140Y0444870D02*
X0504991Y0444870D01*
X0504981Y0444908D02*
X0511150Y0444908D01*
X0511161Y0444946D02*
X0504970Y0444946D01*
X0504960Y0444984D02*
X0511171Y0444984D01*
X0511181Y0445021D02*
X0504950Y0445021D01*
X0504940Y0445059D02*
X0511191Y0445059D01*
X0511201Y0445097D02*
X0504930Y0445097D01*
X0504920Y0445135D02*
X0511211Y0445135D01*
X0511221Y0445173D02*
X0504910Y0445173D01*
X0504899Y0445211D02*
X0511232Y0445211D01*
X0511242Y0445249D02*
X0504889Y0445249D01*
X0504884Y0445287D02*
X0511247Y0445287D01*
X0511250Y0445324D02*
X0504881Y0445324D01*
X0504877Y0445362D02*
X0511254Y0445362D01*
X0511257Y0445400D02*
X0504874Y0445400D01*
X0504871Y0445438D02*
X0511260Y0445438D01*
X0511264Y0445476D02*
X0504867Y0445476D01*
X0504864Y0445514D02*
X0511267Y0445514D01*
X0511270Y0445552D02*
X0504861Y0445552D01*
X0504857Y0445590D02*
X0511274Y0445590D01*
X0511277Y0445628D02*
X0504854Y0445628D01*
X0504851Y0445665D02*
X0511280Y0445665D01*
X0511284Y0445703D02*
X0504847Y0445703D01*
X0504844Y0445741D02*
X0511287Y0445741D01*
X0511290Y0445779D02*
X0504841Y0445779D01*
X0504837Y0445817D02*
X0511294Y0445817D01*
X0511291Y0445855D02*
X0504840Y0445855D01*
X0504844Y0445893D02*
X0511287Y0445893D01*
X0511284Y0445931D02*
X0504847Y0445931D01*
X0504850Y0445968D02*
X0511281Y0445968D01*
X0511278Y0446006D02*
X0504854Y0446006D01*
X0504857Y0446044D02*
X0511274Y0446044D01*
X0511271Y0446082D02*
X0504860Y0446082D01*
X0504863Y0446120D02*
X0511268Y0446120D01*
X0511264Y0446158D02*
X0504867Y0446158D01*
X0504870Y0446196D02*
X0511261Y0446196D01*
X0511258Y0446234D02*
X0504873Y0446234D01*
X0504877Y0446272D02*
X0511254Y0446272D01*
X0511251Y0446309D02*
X0504880Y0446309D01*
X0504883Y0446347D02*
X0511248Y0446347D01*
X0511243Y0446385D02*
X0504888Y0446385D01*
X0504898Y0446423D02*
X0511233Y0446423D01*
X0511223Y0446461D02*
X0504908Y0446461D01*
X0504918Y0446499D02*
X0511213Y0446499D01*
X0511203Y0446537D02*
X0504928Y0446537D01*
X0504938Y0446575D02*
X0511193Y0446575D01*
X0511183Y0446612D02*
X0504948Y0446612D01*
X0504959Y0446650D02*
X0511172Y0446650D01*
X0511162Y0446688D02*
X0504969Y0446688D01*
X0504979Y0446726D02*
X0511152Y0446726D01*
X0511142Y0446764D02*
X0504989Y0446764D01*
X0504999Y0446802D02*
X0511132Y0446802D01*
X0511122Y0446840D02*
X0505009Y0446840D01*
X0505020Y0446878D02*
X0511112Y0446878D01*
X0511101Y0446916D02*
X0505030Y0446916D01*
X0505046Y0446953D02*
X0511085Y0446953D01*
X0511068Y0446991D02*
X0505063Y0446991D01*
X0505081Y0447029D02*
X0511050Y0447029D01*
X0511032Y0447067D02*
X0505099Y0447067D01*
X0505116Y0447105D02*
X0511015Y0447105D01*
X0510997Y0447143D02*
X0505134Y0447143D01*
X0505152Y0447181D02*
X0510979Y0447181D01*
X0510962Y0447219D02*
X0505169Y0447219D01*
X0505187Y0447256D02*
X0510944Y0447256D01*
X0510926Y0447294D02*
X0505205Y0447294D01*
X0505222Y0447332D02*
X0510909Y0447332D01*
X0510891Y0447370D02*
X0505240Y0447370D01*
X0505258Y0447408D02*
X0510873Y0447408D01*
X0510853Y0447446D02*
X0505278Y0447446D01*
X0505304Y0447484D02*
X0510827Y0447484D01*
X0510800Y0447522D02*
X0505331Y0447522D01*
X0505357Y0447559D02*
X0510774Y0447559D01*
X0510747Y0447597D02*
X0505384Y0447597D01*
X0505410Y0447635D02*
X0510721Y0447635D01*
X0510694Y0447673D02*
X0505437Y0447673D01*
X0505463Y0447711D02*
X0510668Y0447711D01*
X0510641Y0447749D02*
X0505490Y0447749D01*
X0505516Y0447787D02*
X0510615Y0447787D01*
X0510588Y0447825D02*
X0505543Y0447825D01*
X0505569Y0447863D02*
X0510562Y0447863D01*
X0510534Y0447900D02*
X0505597Y0447900D01*
X0505635Y0447938D02*
X0510496Y0447938D01*
X0510458Y0447976D02*
X0505673Y0447976D01*
X0505711Y0448014D02*
X0510420Y0448014D01*
X0510382Y0448052D02*
X0505749Y0448052D01*
X0505787Y0448090D02*
X0510344Y0448090D01*
X0510306Y0448128D02*
X0505825Y0448128D01*
X0505863Y0448166D02*
X0510268Y0448166D01*
X0510231Y0448203D02*
X0505900Y0448203D01*
X0505938Y0448241D02*
X0510193Y0448241D01*
X0510155Y0448279D02*
X0505976Y0448279D01*
X0506024Y0448317D02*
X0510107Y0448317D01*
X0510053Y0448355D02*
X0506078Y0448355D01*
X0506133Y0448393D02*
X0509998Y0448393D01*
X0509944Y0448431D02*
X0506187Y0448431D01*
X0506241Y0448469D02*
X0509890Y0448469D01*
X0509836Y0448507D02*
X0506295Y0448507D01*
X0506349Y0448544D02*
X0509782Y0448544D01*
X0509728Y0448582D02*
X0506403Y0448582D01*
X0506461Y0448620D02*
X0509670Y0448620D01*
X0509589Y0448658D02*
X0506542Y0448658D01*
X0506623Y0448696D02*
X0509508Y0448696D01*
X0509427Y0448734D02*
X0506704Y0448734D01*
X0506786Y0448772D02*
X0509345Y0448772D01*
X0509264Y0448810D02*
X0506867Y0448810D01*
X0506948Y0448847D02*
X0509183Y0448847D01*
X0509051Y0448885D02*
X0507080Y0448885D01*
X0507221Y0448923D02*
X0508910Y0448923D01*
X0508768Y0448961D02*
X0507363Y0448961D01*
X0507504Y0448999D02*
X0508627Y0448999D01*
X0508197Y0449037D02*
X0507934Y0449037D01*
X0508066Y0452592D02*
X0508626Y0452641D01*
X0509170Y0452787D01*
X0509680Y0453024D01*
X0510141Y0453347D01*
X0510539Y0453745D01*
X0510861Y0454206D01*
X0511099Y0454716D01*
X0511245Y0455259D01*
X0511294Y0455820D01*
X0511245Y0456381D01*
X0511099Y0456924D01*
X0510861Y0457434D01*
X0510539Y0457895D01*
X0510141Y0458293D01*
X0509680Y0458616D01*
X0509170Y0458854D01*
X0508626Y0458999D01*
X0508066Y0459048D01*
X0507505Y0458999D01*
X0506961Y0458854D01*
X0506451Y0458616D01*
X0505990Y0458293D01*
X0505592Y0457895D01*
X0505270Y0457434D01*
X0505032Y0456924D01*
X0504886Y0456381D01*
X0504837Y0455820D01*
X0504886Y0455259D01*
X0505032Y0454716D01*
X0505270Y0454206D01*
X0505592Y0453745D01*
X0505990Y0453347D01*
X0506451Y0453024D01*
X0506961Y0452787D01*
X0507505Y0452641D01*
X0508066Y0452592D01*
X0508133Y0452598D02*
X0507998Y0452598D01*
X0507566Y0452636D02*
X0508565Y0452636D01*
X0508747Y0452673D02*
X0507384Y0452673D01*
X0507242Y0452711D02*
X0508889Y0452711D01*
X0509030Y0452749D02*
X0507101Y0452749D01*
X0506960Y0452787D02*
X0509171Y0452787D01*
X0509252Y0452825D02*
X0506879Y0452825D01*
X0506798Y0452863D02*
X0509333Y0452863D01*
X0509415Y0452901D02*
X0506716Y0452901D01*
X0506635Y0452939D02*
X0509496Y0452939D01*
X0509577Y0452977D02*
X0506554Y0452977D01*
X0506473Y0453014D02*
X0509658Y0453014D01*
X0509720Y0453052D02*
X0506411Y0453052D01*
X0506357Y0453090D02*
X0509774Y0453090D01*
X0509828Y0453128D02*
X0506303Y0453128D01*
X0506249Y0453166D02*
X0509882Y0453166D01*
X0509936Y0453204D02*
X0506195Y0453204D01*
X0506141Y0453242D02*
X0509990Y0453242D01*
X0510044Y0453280D02*
X0506087Y0453280D01*
X0506032Y0453317D02*
X0510099Y0453317D01*
X0510149Y0453355D02*
X0505982Y0453355D01*
X0505944Y0453393D02*
X0510187Y0453393D01*
X0510225Y0453431D02*
X0505906Y0453431D01*
X0505868Y0453469D02*
X0510263Y0453469D01*
X0510301Y0453507D02*
X0505830Y0453507D01*
X0505792Y0453545D02*
X0510339Y0453545D01*
X0510376Y0453583D02*
X0505755Y0453583D01*
X0505717Y0453621D02*
X0510414Y0453621D01*
X0510452Y0453658D02*
X0505679Y0453658D01*
X0505641Y0453696D02*
X0510490Y0453696D01*
X0510528Y0453734D02*
X0505603Y0453734D01*
X0505573Y0453772D02*
X0510558Y0453772D01*
X0510584Y0453810D02*
X0505547Y0453810D01*
X0505520Y0453848D02*
X0510611Y0453848D01*
X0510637Y0453886D02*
X0505494Y0453886D01*
X0505467Y0453924D02*
X0510664Y0453924D01*
X0510690Y0453961D02*
X0505441Y0453961D01*
X0505414Y0453999D02*
X0510717Y0453999D01*
X0510743Y0454037D02*
X0505388Y0454037D01*
X0505361Y0454075D02*
X0510770Y0454075D01*
X0510796Y0454113D02*
X0505335Y0454113D01*
X0505308Y0454151D02*
X0510823Y0454151D01*
X0510849Y0454189D02*
X0505282Y0454189D01*
X0505260Y0454227D02*
X0510871Y0454227D01*
X0510888Y0454265D02*
X0505243Y0454265D01*
X0505225Y0454302D02*
X0510906Y0454302D01*
X0510924Y0454340D02*
X0505207Y0454340D01*
X0505190Y0454378D02*
X0510941Y0454378D01*
X0510959Y0454416D02*
X0505172Y0454416D01*
X0505154Y0454454D02*
X0510977Y0454454D01*
X0510995Y0454492D02*
X0505136Y0454492D01*
X0505119Y0454530D02*
X0511012Y0454530D01*
X0511030Y0454568D02*
X0505101Y0454568D01*
X0505083Y0454605D02*
X0511048Y0454605D01*
X0511065Y0454643D02*
X0505066Y0454643D01*
X0505048Y0454681D02*
X0511083Y0454681D01*
X0511100Y0454719D02*
X0505031Y0454719D01*
X0505021Y0454757D02*
X0511110Y0454757D01*
X0511120Y0454795D02*
X0505011Y0454795D01*
X0505001Y0454833D02*
X0511130Y0454833D01*
X0511140Y0454871D02*
X0504991Y0454871D01*
X0504980Y0454908D02*
X0511151Y0454908D01*
X0511161Y0454946D02*
X0504970Y0454946D01*
X0504960Y0454984D02*
X0511171Y0454984D01*
X0511181Y0455022D02*
X0504950Y0455022D01*
X0504940Y0455060D02*
X0511191Y0455060D01*
X0511201Y0455098D02*
X0504930Y0455098D01*
X0504920Y0455136D02*
X0511211Y0455136D01*
X0511222Y0455174D02*
X0504909Y0455174D01*
X0504899Y0455212D02*
X0511232Y0455212D01*
X0511242Y0455249D02*
X0504889Y0455249D01*
X0504884Y0455287D02*
X0511247Y0455287D01*
X0511250Y0455325D02*
X0504881Y0455325D01*
X0504877Y0455363D02*
X0511254Y0455363D01*
X0511257Y0455401D02*
X0504874Y0455401D01*
X0504871Y0455439D02*
X0511260Y0455439D01*
X0511264Y0455477D02*
X0504867Y0455477D01*
X0504864Y0455515D02*
X0511267Y0455515D01*
X0511270Y0455552D02*
X0504861Y0455552D01*
X0504857Y0455590D02*
X0511274Y0455590D01*
X0511277Y0455628D02*
X0504854Y0455628D01*
X0504851Y0455666D02*
X0511280Y0455666D01*
X0511284Y0455704D02*
X0504847Y0455704D01*
X0504844Y0455742D02*
X0511287Y0455742D01*
X0511290Y0455780D02*
X0504841Y0455780D01*
X0504837Y0455818D02*
X0511294Y0455818D01*
X0511291Y0455856D02*
X0504840Y0455856D01*
X0504844Y0455893D02*
X0511287Y0455893D01*
X0511284Y0455931D02*
X0504847Y0455931D01*
X0504850Y0455969D02*
X0511281Y0455969D01*
X0511277Y0456007D02*
X0504854Y0456007D01*
X0504857Y0456045D02*
X0511274Y0456045D01*
X0511271Y0456083D02*
X0504860Y0456083D01*
X0504864Y0456121D02*
X0511267Y0456121D01*
X0511264Y0456159D02*
X0504867Y0456159D01*
X0504870Y0456196D02*
X0511261Y0456196D01*
X0511257Y0456234D02*
X0504874Y0456234D01*
X0504877Y0456272D02*
X0511254Y0456272D01*
X0511251Y0456310D02*
X0504880Y0456310D01*
X0504884Y0456348D02*
X0511248Y0456348D01*
X0511243Y0456386D02*
X0504888Y0456386D01*
X0504898Y0456424D02*
X0511233Y0456424D01*
X0511223Y0456462D02*
X0504908Y0456462D01*
X0504918Y0456500D02*
X0511213Y0456500D01*
X0511203Y0456537D02*
X0504928Y0456537D01*
X0504938Y0456575D02*
X0511193Y0456575D01*
X0511182Y0456613D02*
X0504949Y0456613D01*
X0504959Y0456651D02*
X0511172Y0456651D01*
X0511162Y0456689D02*
X0504969Y0456689D01*
X0504979Y0456727D02*
X0511152Y0456727D01*
X0511142Y0456765D02*
X0504989Y0456765D01*
X0504999Y0456803D02*
X0511132Y0456803D01*
X0511121Y0456840D02*
X0505010Y0456840D01*
X0505020Y0456878D02*
X0511111Y0456878D01*
X0511101Y0456916D02*
X0505030Y0456916D01*
X0505046Y0456954D02*
X0511085Y0456954D01*
X0511067Y0456992D02*
X0505064Y0456992D01*
X0505081Y0457030D02*
X0511050Y0457030D01*
X0511032Y0457068D02*
X0505099Y0457068D01*
X0505117Y0457106D02*
X0511014Y0457106D01*
X0510997Y0457143D02*
X0505134Y0457143D01*
X0505152Y0457181D02*
X0510979Y0457181D01*
X0510961Y0457219D02*
X0505170Y0457219D01*
X0505187Y0457257D02*
X0510944Y0457257D01*
X0510926Y0457295D02*
X0505205Y0457295D01*
X0505223Y0457333D02*
X0510908Y0457333D01*
X0510891Y0457371D02*
X0505240Y0457371D01*
X0505258Y0457409D02*
X0510873Y0457409D01*
X0510853Y0457447D02*
X0505278Y0457447D01*
X0505305Y0457484D02*
X0510826Y0457484D01*
X0510800Y0457522D02*
X0505331Y0457522D01*
X0505358Y0457560D02*
X0510773Y0457560D01*
X0510747Y0457598D02*
X0505384Y0457598D01*
X0505411Y0457636D02*
X0510720Y0457636D01*
X0510694Y0457674D02*
X0505437Y0457674D01*
X0505464Y0457712D02*
X0510667Y0457712D01*
X0510641Y0457750D02*
X0505490Y0457750D01*
X0505517Y0457787D02*
X0510614Y0457787D01*
X0510588Y0457825D02*
X0505543Y0457825D01*
X0505570Y0457863D02*
X0510561Y0457863D01*
X0510533Y0457901D02*
X0505598Y0457901D01*
X0505636Y0457939D02*
X0510495Y0457939D01*
X0510457Y0457977D02*
X0505674Y0457977D01*
X0505712Y0458015D02*
X0510419Y0458015D01*
X0510381Y0458053D02*
X0505750Y0458053D01*
X0505787Y0458091D02*
X0510344Y0458091D01*
X0510306Y0458128D02*
X0505825Y0458128D01*
X0505863Y0458166D02*
X0510268Y0458166D01*
X0510230Y0458204D02*
X0505901Y0458204D01*
X0505939Y0458242D02*
X0510192Y0458242D01*
X0510154Y0458280D02*
X0505977Y0458280D01*
X0506025Y0458318D02*
X0510106Y0458318D01*
X0510052Y0458356D02*
X0506079Y0458356D01*
X0506134Y0458394D02*
X0509997Y0458394D01*
X0509943Y0458431D02*
X0506188Y0458431D01*
X0506242Y0458469D02*
X0509889Y0458469D01*
X0509835Y0458507D02*
X0506296Y0458507D01*
X0506350Y0458545D02*
X0509781Y0458545D01*
X0509727Y0458583D02*
X0506404Y0458583D01*
X0506462Y0458621D02*
X0509669Y0458621D01*
X0509588Y0458659D02*
X0506543Y0458659D01*
X0506625Y0458697D02*
X0509506Y0458697D01*
X0509425Y0458735D02*
X0506706Y0458735D01*
X0506787Y0458772D02*
X0509344Y0458772D01*
X0509263Y0458810D02*
X0506868Y0458810D01*
X0506950Y0458848D02*
X0509181Y0458848D01*
X0509049Y0458886D02*
X0507082Y0458886D01*
X0507224Y0458924D02*
X0508907Y0458924D01*
X0508766Y0458962D02*
X0507365Y0458962D01*
X0507510Y0459000D02*
X0508621Y0459000D01*
X0508190Y0459038D02*
X0507941Y0459038D01*
X0508066Y0462592D02*
X0508626Y0462641D01*
X0509170Y0462787D01*
X0509680Y0463024D01*
X0510141Y0463347D01*
X0510539Y0463745D01*
X0510861Y0464206D01*
X0511099Y0464716D01*
X0511245Y0465259D01*
X0511294Y0465820D01*
X0511245Y0466381D01*
X0511099Y0466924D01*
X0510861Y0467434D01*
X0510539Y0467895D01*
X0510141Y0468293D01*
X0509680Y0468616D01*
X0509170Y0468854D01*
X0508626Y0468999D01*
X0508066Y0469048D01*
X0507505Y0468999D01*
X0506961Y0468854D01*
X0506451Y0468616D01*
X0505990Y0468293D01*
X0505592Y0467895D01*
X0505270Y0467434D01*
X0505032Y0466924D01*
X0504886Y0466381D01*
X0504837Y0465820D01*
X0504886Y0465259D01*
X0505032Y0464716D01*
X0505270Y0464206D01*
X0505592Y0463745D01*
X0505990Y0463347D01*
X0506451Y0463024D01*
X0506961Y0462787D01*
X0507505Y0462641D01*
X0508066Y0462592D01*
X0508141Y0462598D02*
X0507990Y0462598D01*
X0507558Y0462636D02*
X0508573Y0462636D01*
X0508750Y0462674D02*
X0507381Y0462674D01*
X0507240Y0462712D02*
X0508891Y0462712D01*
X0509033Y0462750D02*
X0507098Y0462750D01*
X0506959Y0462788D02*
X0509172Y0462788D01*
X0509254Y0462826D02*
X0506877Y0462826D01*
X0506796Y0462864D02*
X0509335Y0462864D01*
X0509416Y0462901D02*
X0506715Y0462901D01*
X0506634Y0462939D02*
X0509497Y0462939D01*
X0509578Y0462977D02*
X0506553Y0462977D01*
X0506471Y0463015D02*
X0509660Y0463015D01*
X0509720Y0463053D02*
X0506410Y0463053D01*
X0506356Y0463091D02*
X0509775Y0463091D01*
X0509829Y0463129D02*
X0506302Y0463129D01*
X0506248Y0463167D02*
X0509883Y0463167D01*
X0509937Y0463205D02*
X0506194Y0463205D01*
X0506140Y0463242D02*
X0509991Y0463242D01*
X0510045Y0463280D02*
X0506086Y0463280D01*
X0506031Y0463318D02*
X0510100Y0463318D01*
X0510150Y0463356D02*
X0505981Y0463356D01*
X0505943Y0463394D02*
X0510188Y0463394D01*
X0510226Y0463432D02*
X0505905Y0463432D01*
X0505867Y0463470D02*
X0510264Y0463470D01*
X0510301Y0463508D02*
X0505830Y0463508D01*
X0505792Y0463545D02*
X0510339Y0463545D01*
X0510377Y0463583D02*
X0505754Y0463583D01*
X0505716Y0463621D02*
X0510415Y0463621D01*
X0510453Y0463659D02*
X0505678Y0463659D01*
X0505640Y0463697D02*
X0510491Y0463697D01*
X0510529Y0463735D02*
X0505602Y0463735D01*
X0505573Y0463773D02*
X0510558Y0463773D01*
X0510585Y0463811D02*
X0505546Y0463811D01*
X0505520Y0463848D02*
X0510611Y0463848D01*
X0510638Y0463886D02*
X0505493Y0463886D01*
X0505467Y0463924D02*
X0510664Y0463924D01*
X0510691Y0463962D02*
X0505440Y0463962D01*
X0505414Y0464000D02*
X0510717Y0464000D01*
X0510744Y0464038D02*
X0505387Y0464038D01*
X0505361Y0464076D02*
X0510770Y0464076D01*
X0510797Y0464114D02*
X0505334Y0464114D01*
X0505308Y0464152D02*
X0510823Y0464152D01*
X0510850Y0464189D02*
X0505281Y0464189D01*
X0505260Y0464227D02*
X0510871Y0464227D01*
X0510889Y0464265D02*
X0505242Y0464265D01*
X0505225Y0464303D02*
X0510906Y0464303D01*
X0510924Y0464341D02*
X0505207Y0464341D01*
X0505189Y0464379D02*
X0510942Y0464379D01*
X0510959Y0464417D02*
X0505172Y0464417D01*
X0505154Y0464455D02*
X0510977Y0464455D01*
X0510995Y0464492D02*
X0505136Y0464492D01*
X0505119Y0464530D02*
X0511012Y0464530D01*
X0511030Y0464568D02*
X0505101Y0464568D01*
X0505083Y0464606D02*
X0511048Y0464606D01*
X0511065Y0464644D02*
X0505066Y0464644D01*
X0505048Y0464682D02*
X0511083Y0464682D01*
X0511100Y0464720D02*
X0505031Y0464720D01*
X0505021Y0464758D02*
X0511110Y0464758D01*
X0511120Y0464796D02*
X0505011Y0464796D01*
X0505001Y0464833D02*
X0511130Y0464833D01*
X0511141Y0464871D02*
X0504990Y0464871D01*
X0504980Y0464909D02*
X0511151Y0464909D01*
X0511161Y0464947D02*
X0504970Y0464947D01*
X0504960Y0464985D02*
X0511171Y0464985D01*
X0511181Y0465023D02*
X0504950Y0465023D01*
X0504940Y0465061D02*
X0511191Y0465061D01*
X0511202Y0465099D02*
X0504929Y0465099D01*
X0504919Y0465136D02*
X0511212Y0465136D01*
X0511222Y0465174D02*
X0504909Y0465174D01*
X0504899Y0465212D02*
X0511232Y0465212D01*
X0511242Y0465250D02*
X0504889Y0465250D01*
X0504884Y0465288D02*
X0511247Y0465288D01*
X0511250Y0465326D02*
X0504881Y0465326D01*
X0504877Y0465364D02*
X0511254Y0465364D01*
X0511257Y0465402D02*
X0504874Y0465402D01*
X0504871Y0465440D02*
X0511260Y0465440D01*
X0511264Y0465477D02*
X0504867Y0465477D01*
X0504864Y0465515D02*
X0511267Y0465515D01*
X0511270Y0465553D02*
X0504861Y0465553D01*
X0504857Y0465591D02*
X0511274Y0465591D01*
X0511277Y0465629D02*
X0504854Y0465629D01*
X0504851Y0465667D02*
X0511280Y0465667D01*
X0511284Y0465705D02*
X0504847Y0465705D01*
X0504844Y0465743D02*
X0511287Y0465743D01*
X0511290Y0465780D02*
X0504841Y0465780D01*
X0504837Y0465818D02*
X0511294Y0465818D01*
X0511291Y0465856D02*
X0504840Y0465856D01*
X0504844Y0465894D02*
X0511287Y0465894D01*
X0511284Y0465932D02*
X0504847Y0465932D01*
X0504850Y0465970D02*
X0511281Y0465970D01*
X0511277Y0466008D02*
X0504854Y0466008D01*
X0504857Y0466046D02*
X0511274Y0466046D01*
X0511271Y0466084D02*
X0504860Y0466084D01*
X0504864Y0466121D02*
X0511267Y0466121D01*
X0511264Y0466159D02*
X0504867Y0466159D01*
X0504870Y0466197D02*
X0511261Y0466197D01*
X0511257Y0466235D02*
X0504874Y0466235D01*
X0504877Y0466273D02*
X0511254Y0466273D01*
X0511251Y0466311D02*
X0504880Y0466311D01*
X0504884Y0466349D02*
X0511247Y0466349D01*
X0511243Y0466387D02*
X0504888Y0466387D01*
X0504898Y0466424D02*
X0511233Y0466424D01*
X0511223Y0466462D02*
X0504908Y0466462D01*
X0504918Y0466500D02*
X0511213Y0466500D01*
X0511202Y0466538D02*
X0504929Y0466538D01*
X0504939Y0466576D02*
X0511192Y0466576D01*
X0511182Y0466614D02*
X0504949Y0466614D01*
X0504959Y0466652D02*
X0511172Y0466652D01*
X0511162Y0466690D02*
X0504969Y0466690D01*
X0504979Y0466727D02*
X0511152Y0466727D01*
X0511142Y0466765D02*
X0504989Y0466765D01*
X0505000Y0466803D02*
X0511131Y0466803D01*
X0511121Y0466841D02*
X0505010Y0466841D01*
X0505020Y0466879D02*
X0511111Y0466879D01*
X0511101Y0466917D02*
X0505030Y0466917D01*
X0505046Y0466955D02*
X0511085Y0466955D01*
X0511067Y0466993D02*
X0505064Y0466993D01*
X0505082Y0467031D02*
X0511049Y0467031D01*
X0511032Y0467068D02*
X0505099Y0467068D01*
X0505117Y0467106D02*
X0511014Y0467106D01*
X0510996Y0467144D02*
X0505135Y0467144D01*
X0505152Y0467182D02*
X0510979Y0467182D01*
X0510961Y0467220D02*
X0505170Y0467220D01*
X0505188Y0467258D02*
X0510943Y0467258D01*
X0510926Y0467296D02*
X0505205Y0467296D01*
X0505223Y0467334D02*
X0510908Y0467334D01*
X0510890Y0467371D02*
X0505241Y0467371D01*
X0505258Y0467409D02*
X0510873Y0467409D01*
X0510852Y0467447D02*
X0505279Y0467447D01*
X0505305Y0467485D02*
X0510826Y0467485D01*
X0510799Y0467523D02*
X0505332Y0467523D01*
X0505358Y0467561D02*
X0510773Y0467561D01*
X0510746Y0467599D02*
X0505385Y0467599D01*
X0505411Y0467637D02*
X0510720Y0467637D01*
X0510693Y0467675D02*
X0505438Y0467675D01*
X0505464Y0467712D02*
X0510667Y0467712D01*
X0510640Y0467750D02*
X0505491Y0467750D01*
X0505517Y0467788D02*
X0510614Y0467788D01*
X0510587Y0467826D02*
X0505544Y0467826D01*
X0505570Y0467864D02*
X0510561Y0467864D01*
X0510532Y0467902D02*
X0505599Y0467902D01*
X0505637Y0467940D02*
X0510494Y0467940D01*
X0510456Y0467978D02*
X0505675Y0467978D01*
X0505712Y0468015D02*
X0510419Y0468015D01*
X0510381Y0468053D02*
X0505750Y0468053D01*
X0505788Y0468091D02*
X0510343Y0468091D01*
X0510305Y0468129D02*
X0505826Y0468129D01*
X0505864Y0468167D02*
X0510267Y0468167D01*
X0510229Y0468205D02*
X0505902Y0468205D01*
X0505940Y0468243D02*
X0510191Y0468243D01*
X0510153Y0468281D02*
X0505978Y0468281D01*
X0506026Y0468319D02*
X0510105Y0468319D01*
X0510051Y0468356D02*
X0506080Y0468356D01*
X0506135Y0468394D02*
X0509996Y0468394D01*
X0509942Y0468432D02*
X0506189Y0468432D01*
X0506243Y0468470D02*
X0509888Y0468470D01*
X0509834Y0468508D02*
X0506297Y0468508D01*
X0506351Y0468546D02*
X0509780Y0468546D01*
X0509726Y0468584D02*
X0506405Y0468584D01*
X0506464Y0468622D02*
X0509667Y0468622D01*
X0509586Y0468659D02*
X0506545Y0468659D01*
X0506626Y0468697D02*
X0509505Y0468697D01*
X0509424Y0468735D02*
X0506707Y0468735D01*
X0506789Y0468773D02*
X0509342Y0468773D01*
X0509261Y0468811D02*
X0506870Y0468811D01*
X0506951Y0468849D02*
X0509180Y0468849D01*
X0509046Y0468887D02*
X0507085Y0468887D01*
X0507226Y0468925D02*
X0508905Y0468925D01*
X0508763Y0468962D02*
X0507368Y0468962D01*
X0507518Y0469000D02*
X0508613Y0469000D01*
X0508182Y0469038D02*
X0507949Y0469038D01*
X0508066Y0472592D02*
X0508626Y0472641D01*
X0509170Y0472787D01*
X0509680Y0473024D01*
X0510141Y0473347D01*
X0510539Y0473745D01*
X0510861Y0474206D01*
X0511099Y0474716D01*
X0511245Y0475259D01*
X0511294Y0475820D01*
X0511245Y0476381D01*
X0511099Y0476924D01*
X0510861Y0477434D01*
X0510539Y0477895D01*
X0510141Y0478293D01*
X0509680Y0478616D01*
X0509170Y0478854D01*
X0508626Y0478999D01*
X0508066Y0479048D01*
X0507505Y0478999D01*
X0506961Y0478854D01*
X0506451Y0478616D01*
X0505990Y0478293D01*
X0505592Y0477895D01*
X0505270Y0477434D01*
X0505032Y0476924D01*
X0504886Y0476381D01*
X0504837Y0475820D01*
X0504886Y0475259D01*
X0505032Y0474716D01*
X0505270Y0474206D01*
X0505592Y0473745D01*
X0505990Y0473347D01*
X0506451Y0473024D01*
X0506961Y0472787D01*
X0507505Y0472641D01*
X0508066Y0472592D01*
X0508149Y0472599D02*
X0507982Y0472599D01*
X0507550Y0472637D02*
X0508581Y0472637D01*
X0508753Y0472675D02*
X0507378Y0472675D01*
X0507237Y0472713D02*
X0508894Y0472713D01*
X0509035Y0472751D02*
X0507096Y0472751D01*
X0506957Y0472789D02*
X0509174Y0472789D01*
X0509255Y0472826D02*
X0506876Y0472826D01*
X0506795Y0472864D02*
X0509336Y0472864D01*
X0509417Y0472902D02*
X0506713Y0472902D01*
X0506632Y0472940D02*
X0509499Y0472940D01*
X0509580Y0472978D02*
X0506551Y0472978D01*
X0506470Y0473016D02*
X0509661Y0473016D01*
X0509721Y0473054D02*
X0506410Y0473054D01*
X0506355Y0473092D02*
X0509776Y0473092D01*
X0509830Y0473129D02*
X0506301Y0473129D01*
X0506247Y0473167D02*
X0509884Y0473167D01*
X0509938Y0473205D02*
X0506193Y0473205D01*
X0506139Y0473243D02*
X0509992Y0473243D01*
X0510046Y0473281D02*
X0506085Y0473281D01*
X0506030Y0473319D02*
X0510101Y0473319D01*
X0510151Y0473357D02*
X0505980Y0473357D01*
X0505943Y0473395D02*
X0510188Y0473395D01*
X0510226Y0473432D02*
X0505905Y0473432D01*
X0505867Y0473470D02*
X0510264Y0473470D01*
X0510302Y0473508D02*
X0505829Y0473508D01*
X0505791Y0473546D02*
X0510340Y0473546D01*
X0510378Y0473584D02*
X0505753Y0473584D01*
X0505715Y0473622D02*
X0510416Y0473622D01*
X0510454Y0473660D02*
X0505677Y0473660D01*
X0505640Y0473698D02*
X0510491Y0473698D01*
X0510529Y0473736D02*
X0505602Y0473736D01*
X0505572Y0473773D02*
X0510559Y0473773D01*
X0510585Y0473811D02*
X0505546Y0473811D01*
X0505519Y0473849D02*
X0510612Y0473849D01*
X0510638Y0473887D02*
X0505493Y0473887D01*
X0505466Y0473925D02*
X0510665Y0473925D01*
X0510691Y0473963D02*
X0505440Y0473963D01*
X0505413Y0474001D02*
X0510718Y0474001D01*
X0510744Y0474039D02*
X0505387Y0474039D01*
X0505360Y0474076D02*
X0510771Y0474076D01*
X0510797Y0474114D02*
X0505334Y0474114D01*
X0505307Y0474152D02*
X0510824Y0474152D01*
X0510850Y0474190D02*
X0505281Y0474190D01*
X0505260Y0474228D02*
X0510871Y0474228D01*
X0510889Y0474266D02*
X0505242Y0474266D01*
X0505224Y0474304D02*
X0510907Y0474304D01*
X0510924Y0474342D02*
X0505207Y0474342D01*
X0505189Y0474380D02*
X0510942Y0474380D01*
X0510960Y0474417D02*
X0505171Y0474417D01*
X0505154Y0474455D02*
X0510977Y0474455D01*
X0510995Y0474493D02*
X0505136Y0474493D01*
X0505118Y0474531D02*
X0511013Y0474531D01*
X0511030Y0474569D02*
X0505101Y0474569D01*
X0505083Y0474607D02*
X0511048Y0474607D01*
X0511066Y0474645D02*
X0505065Y0474645D01*
X0505048Y0474683D02*
X0511083Y0474683D01*
X0511100Y0474720D02*
X0505031Y0474720D01*
X0505021Y0474758D02*
X0511110Y0474758D01*
X0511121Y0474796D02*
X0505010Y0474796D01*
X0505000Y0474834D02*
X0511131Y0474834D01*
X0511141Y0474872D02*
X0504990Y0474872D01*
X0504980Y0474910D02*
X0511151Y0474910D01*
X0511161Y0474948D02*
X0504970Y0474948D01*
X0504960Y0474986D02*
X0511171Y0474986D01*
X0511181Y0475024D02*
X0504950Y0475024D01*
X0504939Y0475061D02*
X0511192Y0475061D01*
X0511202Y0475099D02*
X0504929Y0475099D01*
X0504919Y0475137D02*
X0511212Y0475137D01*
X0511222Y0475175D02*
X0504909Y0475175D01*
X0504899Y0475213D02*
X0511232Y0475213D01*
X0511242Y0475251D02*
X0504889Y0475251D01*
X0504884Y0475289D02*
X0511247Y0475289D01*
X0511251Y0475327D02*
X0504880Y0475327D01*
X0504877Y0475364D02*
X0511254Y0475364D01*
X0511257Y0475402D02*
X0504874Y0475402D01*
X0504870Y0475440D02*
X0511260Y0475440D01*
X0511264Y0475478D02*
X0504867Y0475478D01*
X0504864Y0475516D02*
X0511267Y0475516D01*
X0511270Y0475554D02*
X0504861Y0475554D01*
X0504857Y0475592D02*
X0511274Y0475592D01*
X0511277Y0475630D02*
X0504854Y0475630D01*
X0504851Y0475667D02*
X0511280Y0475667D01*
X0511284Y0475705D02*
X0504847Y0475705D01*
X0504844Y0475743D02*
X0511287Y0475743D01*
X0511290Y0475781D02*
X0504841Y0475781D01*
X0504837Y0475819D02*
X0511294Y0475819D01*
X0511291Y0475857D02*
X0504840Y0475857D01*
X0504844Y0475895D02*
X0511287Y0475895D01*
X0511284Y0475933D02*
X0504847Y0475933D01*
X0504850Y0475971D02*
X0511281Y0475971D01*
X0511277Y0476008D02*
X0504854Y0476008D01*
X0504857Y0476046D02*
X0511274Y0476046D01*
X0511271Y0476084D02*
X0504860Y0476084D01*
X0504864Y0476122D02*
X0511267Y0476122D01*
X0511264Y0476160D02*
X0504867Y0476160D01*
X0504870Y0476198D02*
X0511261Y0476198D01*
X0511257Y0476236D02*
X0504874Y0476236D01*
X0504877Y0476274D02*
X0511254Y0476274D01*
X0511251Y0476311D02*
X0504880Y0476311D01*
X0504884Y0476349D02*
X0511247Y0476349D01*
X0511243Y0476387D02*
X0504888Y0476387D01*
X0504898Y0476425D02*
X0511233Y0476425D01*
X0511223Y0476463D02*
X0504908Y0476463D01*
X0504919Y0476501D02*
X0511212Y0476501D01*
X0511202Y0476539D02*
X0504929Y0476539D01*
X0504939Y0476577D02*
X0511192Y0476577D01*
X0511182Y0476615D02*
X0504949Y0476615D01*
X0504959Y0476652D02*
X0511172Y0476652D01*
X0511162Y0476690D02*
X0504969Y0476690D01*
X0504979Y0476728D02*
X0511152Y0476728D01*
X0511141Y0476766D02*
X0504990Y0476766D01*
X0505000Y0476804D02*
X0511131Y0476804D01*
X0511121Y0476842D02*
X0505010Y0476842D01*
X0505020Y0476880D02*
X0511111Y0476880D01*
X0511101Y0476918D02*
X0505030Y0476918D01*
X0505047Y0476955D02*
X0511084Y0476955D01*
X0511067Y0476993D02*
X0505064Y0476993D01*
X0505082Y0477031D02*
X0511049Y0477031D01*
X0511031Y0477069D02*
X0505100Y0477069D01*
X0505117Y0477107D02*
X0511014Y0477107D01*
X0510996Y0477145D02*
X0505135Y0477145D01*
X0505153Y0477183D02*
X0510978Y0477183D01*
X0510961Y0477221D02*
X0505170Y0477221D01*
X0505188Y0477259D02*
X0510943Y0477259D01*
X0510925Y0477296D02*
X0505206Y0477296D01*
X0505223Y0477334D02*
X0510908Y0477334D01*
X0510890Y0477372D02*
X0505241Y0477372D01*
X0505259Y0477410D02*
X0510872Y0477410D01*
X0510852Y0477448D02*
X0505279Y0477448D01*
X0505306Y0477486D02*
X0510825Y0477486D01*
X0510799Y0477524D02*
X0505332Y0477524D01*
X0505359Y0477562D02*
X0510772Y0477562D01*
X0510746Y0477599D02*
X0505385Y0477599D01*
X0505412Y0477637D02*
X0510719Y0477637D01*
X0510693Y0477675D02*
X0505438Y0477675D01*
X0505465Y0477713D02*
X0510666Y0477713D01*
X0510640Y0477751D02*
X0505491Y0477751D01*
X0505518Y0477789D02*
X0510613Y0477789D01*
X0510587Y0477827D02*
X0505544Y0477827D01*
X0505571Y0477865D02*
X0510560Y0477865D01*
X0510532Y0477902D02*
X0505599Y0477902D01*
X0505637Y0477940D02*
X0510494Y0477940D01*
X0510456Y0477978D02*
X0505675Y0477978D01*
X0505713Y0478016D02*
X0510418Y0478016D01*
X0510380Y0478054D02*
X0505751Y0478054D01*
X0505789Y0478092D02*
X0510342Y0478092D01*
X0510304Y0478130D02*
X0505827Y0478130D01*
X0505865Y0478168D02*
X0510266Y0478168D01*
X0510228Y0478206D02*
X0505903Y0478206D01*
X0505940Y0478243D02*
X0510191Y0478243D01*
X0510153Y0478281D02*
X0505978Y0478281D01*
X0506027Y0478319D02*
X0510104Y0478319D01*
X0510050Y0478357D02*
X0506081Y0478357D01*
X0506136Y0478395D02*
X0509995Y0478395D01*
X0509941Y0478433D02*
X0506190Y0478433D01*
X0506244Y0478471D02*
X0509887Y0478471D01*
X0509833Y0478509D02*
X0506298Y0478509D01*
X0506352Y0478546D02*
X0509779Y0478546D01*
X0509725Y0478584D02*
X0506406Y0478584D01*
X0506465Y0478622D02*
X0509666Y0478622D01*
X0509585Y0478660D02*
X0506546Y0478660D01*
X0506628Y0478698D02*
X0509503Y0478698D01*
X0509422Y0478736D02*
X0506709Y0478736D01*
X0506790Y0478774D02*
X0509341Y0478774D01*
X0509260Y0478812D02*
X0506871Y0478812D01*
X0506953Y0478850D02*
X0509178Y0478850D01*
X0509044Y0478887D02*
X0507087Y0478887D01*
X0507229Y0478925D02*
X0508902Y0478925D01*
X0508761Y0478963D02*
X0507370Y0478963D01*
X0507526Y0479001D02*
X0508605Y0479001D01*
X0508174Y0479039D02*
X0507957Y0479039D01*
X0508066Y0482592D02*
X0508626Y0482641D01*
X0509170Y0482787D01*
X0509680Y0483024D01*
X0510141Y0483347D01*
X0510539Y0483745D01*
X0510861Y0484206D01*
X0511099Y0484716D01*
X0511245Y0485259D01*
X0511294Y0485820D01*
X0511245Y0486381D01*
X0511099Y0486924D01*
X0510861Y0487434D01*
X0510539Y0487895D01*
X0510141Y0488293D01*
X0509680Y0488616D01*
X0509170Y0488854D01*
X0508626Y0488999D01*
X0508066Y0489048D01*
X0507505Y0488999D01*
X0506961Y0488854D01*
X0506451Y0488616D01*
X0505990Y0488293D01*
X0505592Y0487895D01*
X0505270Y0487434D01*
X0505032Y0486924D01*
X0504886Y0486381D01*
X0504837Y0485820D01*
X0504886Y0485259D01*
X0505032Y0484716D01*
X0505270Y0484206D01*
X0505592Y0483745D01*
X0505990Y0483347D01*
X0506451Y0483024D01*
X0506961Y0482787D01*
X0507505Y0482641D01*
X0508066Y0482592D01*
X0508157Y0482600D02*
X0507974Y0482600D01*
X0507542Y0482638D02*
X0508589Y0482638D01*
X0508755Y0482676D02*
X0507376Y0482676D01*
X0507234Y0482713D02*
X0508897Y0482713D01*
X0509038Y0482751D02*
X0507093Y0482751D01*
X0506956Y0482789D02*
X0509175Y0482789D01*
X0509257Y0482827D02*
X0506874Y0482827D01*
X0506793Y0482865D02*
X0509338Y0482865D01*
X0509419Y0482903D02*
X0506712Y0482903D01*
X0506631Y0482941D02*
X0509500Y0482941D01*
X0509581Y0482979D02*
X0506550Y0482979D01*
X0506468Y0483016D02*
X0509663Y0483016D01*
X0509722Y0483054D02*
X0506409Y0483054D01*
X0506354Y0483092D02*
X0509777Y0483092D01*
X0509831Y0483130D02*
X0506300Y0483130D01*
X0506246Y0483168D02*
X0509885Y0483168D01*
X0509939Y0483206D02*
X0506192Y0483206D01*
X0506138Y0483244D02*
X0509993Y0483244D01*
X0510047Y0483282D02*
X0506084Y0483282D01*
X0506029Y0483320D02*
X0510102Y0483320D01*
X0510151Y0483357D02*
X0505980Y0483357D01*
X0505942Y0483395D02*
X0510189Y0483395D01*
X0510227Y0483433D02*
X0505904Y0483433D01*
X0505866Y0483471D02*
X0510265Y0483471D01*
X0510303Y0483509D02*
X0505828Y0483509D01*
X0505790Y0483547D02*
X0510341Y0483547D01*
X0510379Y0483585D02*
X0505752Y0483585D01*
X0505715Y0483623D02*
X0510416Y0483623D01*
X0510454Y0483660D02*
X0505677Y0483660D01*
X0505639Y0483698D02*
X0510492Y0483698D01*
X0510530Y0483736D02*
X0505601Y0483736D01*
X0505572Y0483774D02*
X0510559Y0483774D01*
X0510586Y0483812D02*
X0505545Y0483812D01*
X0505519Y0483850D02*
X0510612Y0483850D01*
X0510639Y0483888D02*
X0505492Y0483888D01*
X0505466Y0483926D02*
X0510665Y0483926D01*
X0510692Y0483964D02*
X0505439Y0483964D01*
X0505413Y0484001D02*
X0510718Y0484001D01*
X0510745Y0484039D02*
X0505386Y0484039D01*
X0505360Y0484077D02*
X0510771Y0484077D01*
X0510798Y0484115D02*
X0505333Y0484115D01*
X0505307Y0484153D02*
X0510824Y0484153D01*
X0510851Y0484191D02*
X0505280Y0484191D01*
X0505259Y0484229D02*
X0510872Y0484229D01*
X0510889Y0484267D02*
X0505242Y0484267D01*
X0505224Y0484304D02*
X0510907Y0484304D01*
X0510925Y0484342D02*
X0505206Y0484342D01*
X0505189Y0484380D02*
X0510942Y0484380D01*
X0510960Y0484418D02*
X0505171Y0484418D01*
X0505153Y0484456D02*
X0510978Y0484456D01*
X0510995Y0484494D02*
X0505136Y0484494D01*
X0505118Y0484532D02*
X0511013Y0484532D01*
X0511031Y0484570D02*
X0505100Y0484570D01*
X0505083Y0484608D02*
X0511048Y0484608D01*
X0511066Y0484645D02*
X0505065Y0484645D01*
X0505047Y0484683D02*
X0511084Y0484683D01*
X0511100Y0484721D02*
X0505031Y0484721D01*
X0505020Y0484759D02*
X0511111Y0484759D01*
X0511121Y0484797D02*
X0505010Y0484797D01*
X0505000Y0484835D02*
X0511131Y0484835D01*
X0511141Y0484873D02*
X0504990Y0484873D01*
X0504980Y0484911D02*
X0511151Y0484911D01*
X0511161Y0484948D02*
X0504970Y0484948D01*
X0504960Y0484986D02*
X0511171Y0484986D01*
X0511182Y0485024D02*
X0504949Y0485024D01*
X0504939Y0485062D02*
X0511192Y0485062D01*
X0511202Y0485100D02*
X0504929Y0485100D01*
X0504919Y0485138D02*
X0511212Y0485138D01*
X0511222Y0485176D02*
X0504909Y0485176D01*
X0504899Y0485214D02*
X0511232Y0485214D01*
X0511242Y0485251D02*
X0504888Y0485251D01*
X0504884Y0485289D02*
X0511247Y0485289D01*
X0511251Y0485327D02*
X0504880Y0485327D01*
X0504877Y0485365D02*
X0511254Y0485365D01*
X0511257Y0485403D02*
X0504874Y0485403D01*
X0504870Y0485441D02*
X0511261Y0485441D01*
X0511264Y0485479D02*
X0504867Y0485479D01*
X0504864Y0485517D02*
X0511267Y0485517D01*
X0511271Y0485555D02*
X0504860Y0485555D01*
X0504857Y0485592D02*
X0511274Y0485592D01*
X0511277Y0485630D02*
X0504854Y0485630D01*
X0504850Y0485668D02*
X0511281Y0485668D01*
X0511284Y0485706D02*
X0504847Y0485706D01*
X0504844Y0485744D02*
X0511287Y0485744D01*
X0511290Y0485782D02*
X0504841Y0485782D01*
X0504837Y0485820D02*
X0511294Y0485820D01*
X0511291Y0485858D02*
X0504840Y0485858D01*
X0504844Y0485895D02*
X0511287Y0485895D01*
X0511284Y0485933D02*
X0504847Y0485933D01*
X0504850Y0485971D02*
X0511281Y0485971D01*
X0511277Y0486009D02*
X0504854Y0486009D01*
X0504857Y0486047D02*
X0511274Y0486047D01*
X0511271Y0486085D02*
X0504860Y0486085D01*
X0504864Y0486123D02*
X0511267Y0486123D01*
X0511264Y0486161D02*
X0504867Y0486161D01*
X0504870Y0486199D02*
X0511261Y0486199D01*
X0511257Y0486236D02*
X0504874Y0486236D01*
X0504877Y0486274D02*
X0511254Y0486274D01*
X0511251Y0486312D02*
X0504880Y0486312D01*
X0504884Y0486350D02*
X0511247Y0486350D01*
X0511243Y0486388D02*
X0504888Y0486388D01*
X0504898Y0486426D02*
X0511233Y0486426D01*
X0511222Y0486464D02*
X0504909Y0486464D01*
X0504919Y0486502D02*
X0511212Y0486502D01*
X0511202Y0486539D02*
X0504929Y0486539D01*
X0504939Y0486577D02*
X0511192Y0486577D01*
X0511182Y0486615D02*
X0504949Y0486615D01*
X0504959Y0486653D02*
X0511172Y0486653D01*
X0511162Y0486691D02*
X0504970Y0486691D01*
X0504980Y0486729D02*
X0511151Y0486729D01*
X0511141Y0486767D02*
X0504990Y0486767D01*
X0505000Y0486805D02*
X0511131Y0486805D01*
X0511121Y0486843D02*
X0505010Y0486843D01*
X0505020Y0486880D02*
X0511111Y0486880D01*
X0511101Y0486918D02*
X0505030Y0486918D01*
X0505047Y0486956D02*
X0511084Y0486956D01*
X0511067Y0486994D02*
X0505065Y0486994D01*
X0505082Y0487032D02*
X0511049Y0487032D01*
X0511031Y0487070D02*
X0505100Y0487070D01*
X0505118Y0487108D02*
X0511014Y0487108D01*
X0510996Y0487146D02*
X0505135Y0487146D01*
X0505153Y0487183D02*
X0510978Y0487183D01*
X0510961Y0487221D02*
X0505171Y0487221D01*
X0505188Y0487259D02*
X0510943Y0487259D01*
X0510925Y0487297D02*
X0505206Y0487297D01*
X0505224Y0487335D02*
X0510907Y0487335D01*
X0510890Y0487373D02*
X0505241Y0487373D01*
X0505259Y0487411D02*
X0510872Y0487411D01*
X0510851Y0487449D02*
X0505280Y0487449D01*
X0505306Y0487486D02*
X0510825Y0487486D01*
X0510798Y0487524D02*
X0505333Y0487524D01*
X0505359Y0487562D02*
X0510772Y0487562D01*
X0510745Y0487600D02*
X0505386Y0487600D01*
X0505412Y0487638D02*
X0510719Y0487638D01*
X0510692Y0487676D02*
X0505439Y0487676D01*
X0505465Y0487714D02*
X0510666Y0487714D01*
X0510639Y0487752D02*
X0505492Y0487752D01*
X0505518Y0487790D02*
X0510613Y0487790D01*
X0510586Y0487827D02*
X0505545Y0487827D01*
X0505571Y0487865D02*
X0510560Y0487865D01*
X0510531Y0487903D02*
X0505600Y0487903D01*
X0505638Y0487941D02*
X0510493Y0487941D01*
X0510455Y0487979D02*
X0505676Y0487979D01*
X0505714Y0488017D02*
X0510417Y0488017D01*
X0510379Y0488055D02*
X0505752Y0488055D01*
X0505790Y0488093D02*
X0510341Y0488093D01*
X0510304Y0488130D02*
X0505827Y0488130D01*
X0505865Y0488168D02*
X0510266Y0488168D01*
X0510228Y0488206D02*
X0505903Y0488206D01*
X0505941Y0488244D02*
X0510190Y0488244D01*
X0510152Y0488282D02*
X0505979Y0488282D01*
X0506028Y0488320D02*
X0510103Y0488320D01*
X0510049Y0488358D02*
X0506082Y0488358D01*
X0506137Y0488396D02*
X0509994Y0488396D01*
X0509940Y0488434D02*
X0506191Y0488434D01*
X0506245Y0488471D02*
X0509886Y0488471D01*
X0509832Y0488509D02*
X0506299Y0488509D01*
X0506353Y0488547D02*
X0509778Y0488547D01*
X0509724Y0488585D02*
X0506407Y0488585D01*
X0506467Y0488623D02*
X0509664Y0488623D01*
X0509583Y0488661D02*
X0506548Y0488661D01*
X0506629Y0488699D02*
X0509502Y0488699D01*
X0509421Y0488737D02*
X0506710Y0488737D01*
X0506792Y0488774D02*
X0509339Y0488774D01*
X0509258Y0488812D02*
X0506873Y0488812D01*
X0506954Y0488850D02*
X0509177Y0488850D01*
X0509041Y0488888D02*
X0507090Y0488888D01*
X0507231Y0488926D02*
X0508900Y0488926D01*
X0508758Y0488964D02*
X0507373Y0488964D01*
X0507533Y0489002D02*
X0508598Y0489002D01*
X0508166Y0489040D02*
X0507965Y0489040D01*
X0508066Y0492592D02*
X0508626Y0492641D01*
X0509170Y0492787D01*
X0509680Y0493024D01*
X0510141Y0493347D01*
X0510539Y0493745D01*
X0510861Y0494206D01*
X0511099Y0494716D01*
X0511245Y0495259D01*
X0511294Y0495820D01*
X0511245Y0496381D01*
X0511099Y0496924D01*
X0510861Y0497434D01*
X0510539Y0497895D01*
X0510141Y0498293D01*
X0509680Y0498616D01*
X0509170Y0498854D01*
X0508626Y0498999D01*
X0508066Y0499048D01*
X0507505Y0498999D01*
X0506961Y0498854D01*
X0506451Y0498616D01*
X0505990Y0498293D01*
X0505592Y0497895D01*
X0505270Y0497434D01*
X0505032Y0496924D01*
X0504886Y0496381D01*
X0504837Y0495820D01*
X0504886Y0495259D01*
X0505032Y0494716D01*
X0505270Y0494206D01*
X0505592Y0493745D01*
X0505990Y0493347D01*
X0506451Y0493024D01*
X0506961Y0492787D01*
X0507505Y0492641D01*
X0508066Y0492592D01*
X0508165Y0492600D02*
X0507966Y0492600D01*
X0507535Y0492638D02*
X0508596Y0492638D01*
X0508758Y0492676D02*
X0507373Y0492676D01*
X0507232Y0492714D02*
X0508899Y0492714D01*
X0509041Y0492752D02*
X0507090Y0492752D01*
X0506954Y0492790D02*
X0509177Y0492790D01*
X0509258Y0492828D02*
X0506873Y0492828D01*
X0506792Y0492866D02*
X0509339Y0492866D01*
X0509420Y0492904D02*
X0506711Y0492904D01*
X0506629Y0492941D02*
X0509502Y0492941D01*
X0509583Y0492979D02*
X0506548Y0492979D01*
X0506467Y0493017D02*
X0509664Y0493017D01*
X0509723Y0493055D02*
X0506408Y0493055D01*
X0506353Y0493093D02*
X0509778Y0493093D01*
X0509832Y0493131D02*
X0506299Y0493131D01*
X0506245Y0493169D02*
X0509886Y0493169D01*
X0509940Y0493207D02*
X0506191Y0493207D01*
X0506137Y0493244D02*
X0509994Y0493244D01*
X0510048Y0493282D02*
X0506083Y0493282D01*
X0506028Y0493320D02*
X0510103Y0493320D01*
X0510152Y0493358D02*
X0505979Y0493358D01*
X0505941Y0493396D02*
X0510190Y0493396D01*
X0510228Y0493434D02*
X0505903Y0493434D01*
X0505865Y0493472D02*
X0510266Y0493472D01*
X0510303Y0493510D02*
X0505828Y0493510D01*
X0505790Y0493548D02*
X0510341Y0493548D01*
X0510379Y0493585D02*
X0505752Y0493585D01*
X0505714Y0493623D02*
X0510417Y0493623D01*
X0510455Y0493661D02*
X0505676Y0493661D01*
X0505638Y0493699D02*
X0510493Y0493699D01*
X0510531Y0493737D02*
X0505600Y0493737D01*
X0505571Y0493775D02*
X0510560Y0493775D01*
X0510586Y0493813D02*
X0505545Y0493813D01*
X0505518Y0493851D02*
X0510613Y0493851D01*
X0510639Y0493888D02*
X0505492Y0493888D01*
X0505465Y0493926D02*
X0510666Y0493926D01*
X0510692Y0493964D02*
X0505439Y0493964D01*
X0505412Y0494002D02*
X0510719Y0494002D01*
X0510745Y0494040D02*
X0505386Y0494040D01*
X0505359Y0494078D02*
X0510772Y0494078D01*
X0510798Y0494116D02*
X0505333Y0494116D01*
X0505306Y0494154D02*
X0510825Y0494154D01*
X0510851Y0494191D02*
X0505280Y0494191D01*
X0505259Y0494229D02*
X0510872Y0494229D01*
X0510890Y0494267D02*
X0505241Y0494267D01*
X0505224Y0494305D02*
X0510907Y0494305D01*
X0510925Y0494343D02*
X0505206Y0494343D01*
X0505188Y0494381D02*
X0510943Y0494381D01*
X0510960Y0494419D02*
X0505171Y0494419D01*
X0505153Y0494457D02*
X0510978Y0494457D01*
X0510996Y0494495D02*
X0505135Y0494495D01*
X0505118Y0494532D02*
X0511013Y0494532D01*
X0511031Y0494570D02*
X0505100Y0494570D01*
X0505082Y0494608D02*
X0511049Y0494608D01*
X0511066Y0494646D02*
X0505065Y0494646D01*
X0505047Y0494684D02*
X0511084Y0494684D01*
X0511101Y0494722D02*
X0505030Y0494722D01*
X0505020Y0494760D02*
X0511111Y0494760D01*
X0511121Y0494798D02*
X0505010Y0494798D01*
X0505000Y0494835D02*
X0511131Y0494835D01*
X0511141Y0494873D02*
X0504990Y0494873D01*
X0504980Y0494911D02*
X0511151Y0494911D01*
X0511161Y0494949D02*
X0504970Y0494949D01*
X0504959Y0494987D02*
X0511172Y0494987D01*
X0511182Y0495025D02*
X0504949Y0495025D01*
X0504939Y0495063D02*
X0511192Y0495063D01*
X0511202Y0495101D02*
X0504929Y0495101D01*
X0504919Y0495139D02*
X0511212Y0495139D01*
X0511222Y0495176D02*
X0504909Y0495176D01*
X0504898Y0495214D02*
X0511233Y0495214D01*
X0511243Y0495252D02*
X0504888Y0495252D01*
X0504884Y0495290D02*
X0511247Y0495290D01*
X0511251Y0495328D02*
X0504880Y0495328D01*
X0504877Y0495366D02*
X0511254Y0495366D01*
X0511257Y0495404D02*
X0504874Y0495404D01*
X0504870Y0495442D02*
X0511261Y0495442D01*
X0511264Y0495479D02*
X0504867Y0495479D01*
X0504864Y0495517D02*
X0511267Y0495517D01*
X0511271Y0495555D02*
X0504860Y0495555D01*
X0504857Y0495593D02*
X0511274Y0495593D01*
X0511277Y0495631D02*
X0504854Y0495631D01*
X0504850Y0495669D02*
X0511281Y0495669D01*
X0511284Y0495707D02*
X0504847Y0495707D01*
X0504844Y0495745D02*
X0511287Y0495745D01*
X0511291Y0495783D02*
X0504840Y0495783D01*
X0504837Y0495820D02*
X0511294Y0495820D01*
X0511291Y0495858D02*
X0504841Y0495858D01*
X0504844Y0495896D02*
X0511287Y0495896D01*
X0511284Y0495934D02*
X0504847Y0495934D01*
X0504850Y0495972D02*
X0511281Y0495972D01*
X0511277Y0496010D02*
X0504854Y0496010D01*
X0504857Y0496048D02*
X0511274Y0496048D01*
X0511271Y0496086D02*
X0504860Y0496086D01*
X0504864Y0496123D02*
X0511267Y0496123D01*
X0511264Y0496161D02*
X0504867Y0496161D01*
X0504870Y0496199D02*
X0511261Y0496199D01*
X0511257Y0496237D02*
X0504874Y0496237D01*
X0504877Y0496275D02*
X0511254Y0496275D01*
X0511251Y0496313D02*
X0504880Y0496313D01*
X0504884Y0496351D02*
X0511247Y0496351D01*
X0511243Y0496389D02*
X0504888Y0496389D01*
X0504899Y0496427D02*
X0511232Y0496427D01*
X0511222Y0496464D02*
X0504909Y0496464D01*
X0504919Y0496502D02*
X0511212Y0496502D01*
X0511202Y0496540D02*
X0504929Y0496540D01*
X0504939Y0496578D02*
X0511192Y0496578D01*
X0511182Y0496616D02*
X0504949Y0496616D01*
X0504960Y0496654D02*
X0511171Y0496654D01*
X0511161Y0496692D02*
X0504970Y0496692D01*
X0504980Y0496730D02*
X0511151Y0496730D01*
X0511141Y0496767D02*
X0504990Y0496767D01*
X0505000Y0496805D02*
X0511131Y0496805D01*
X0511121Y0496843D02*
X0505010Y0496843D01*
X0505020Y0496881D02*
X0511111Y0496881D01*
X0511100Y0496919D02*
X0505031Y0496919D01*
X0505047Y0496957D02*
X0511084Y0496957D01*
X0511066Y0496995D02*
X0505065Y0496995D01*
X0505082Y0497033D02*
X0511049Y0497033D01*
X0511031Y0497070D02*
X0505100Y0497070D01*
X0505118Y0497108D02*
X0511013Y0497108D01*
X0510996Y0497146D02*
X0505135Y0497146D01*
X0505153Y0497184D02*
X0510978Y0497184D01*
X0510960Y0497222D02*
X0505171Y0497222D01*
X0505189Y0497260D02*
X0510943Y0497260D01*
X0510925Y0497298D02*
X0505206Y0497298D01*
X0505224Y0497336D02*
X0510907Y0497336D01*
X0510890Y0497374D02*
X0505242Y0497374D01*
X0505259Y0497411D02*
X0510872Y0497411D01*
X0510851Y0497449D02*
X0505280Y0497449D01*
X0505307Y0497487D02*
X0510824Y0497487D01*
X0510798Y0497525D02*
X0505333Y0497525D01*
X0505360Y0497563D02*
X0510771Y0497563D01*
X0510745Y0497601D02*
X0505386Y0497601D01*
X0505413Y0497639D02*
X0510718Y0497639D01*
X0510692Y0497677D02*
X0505439Y0497677D01*
X0505466Y0497714D02*
X0510665Y0497714D01*
X0510639Y0497752D02*
X0505492Y0497752D01*
X0505519Y0497790D02*
X0510612Y0497790D01*
X0510586Y0497828D02*
X0505545Y0497828D01*
X0505572Y0497866D02*
X0510559Y0497866D01*
X0510530Y0497904D02*
X0505601Y0497904D01*
X0505639Y0497942D02*
X0510492Y0497942D01*
X0510454Y0497980D02*
X0505677Y0497980D01*
X0505714Y0498018D02*
X0510417Y0498018D01*
X0510379Y0498055D02*
X0505752Y0498055D01*
X0505790Y0498093D02*
X0510341Y0498093D01*
X0510303Y0498131D02*
X0505828Y0498131D01*
X0505866Y0498169D02*
X0510265Y0498169D01*
X0510227Y0498207D02*
X0505904Y0498207D01*
X0505942Y0498245D02*
X0510189Y0498245D01*
X0510151Y0498283D02*
X0505980Y0498283D01*
X0506029Y0498321D02*
X0510102Y0498321D01*
X0510048Y0498358D02*
X0506083Y0498358D01*
X0506138Y0498396D02*
X0509993Y0498396D01*
X0509939Y0498434D02*
X0506192Y0498434D01*
X0506246Y0498472D02*
X0509885Y0498472D01*
X0509831Y0498510D02*
X0506300Y0498510D01*
X0506354Y0498548D02*
X0509777Y0498548D01*
X0509723Y0498586D02*
X0506408Y0498586D01*
X0506468Y0498624D02*
X0509663Y0498624D01*
X0509582Y0498662D02*
X0506549Y0498662D01*
X0506631Y0498699D02*
X0509500Y0498699D01*
X0509419Y0498737D02*
X0506712Y0498737D01*
X0506793Y0498775D02*
X0509338Y0498775D01*
X0509257Y0498813D02*
X0506874Y0498813D01*
X0506955Y0498851D02*
X0509176Y0498851D01*
X0509038Y0498889D02*
X0507093Y0498889D01*
X0507234Y0498927D02*
X0508897Y0498927D01*
X0508756Y0498965D02*
X0507375Y0498965D01*
X0507541Y0499002D02*
X0508590Y0499002D01*
X0508158Y0499040D02*
X0507973Y0499040D01*
X0508066Y0502592D02*
X0508626Y0502641D01*
X0509170Y0502787D01*
X0509680Y0503024D01*
X0510141Y0503347D01*
X0510539Y0503745D01*
X0510861Y0504206D01*
X0511099Y0504716D01*
X0511245Y0505259D01*
X0511294Y0505820D01*
X0511245Y0506381D01*
X0511099Y0506924D01*
X0510861Y0507434D01*
X0510539Y0507895D01*
X0510141Y0508293D01*
X0509680Y0508616D01*
X0509170Y0508854D01*
X0508626Y0508999D01*
X0508066Y0509048D01*
X0507505Y0508999D01*
X0506961Y0508854D01*
X0506451Y0508616D01*
X0505990Y0508293D01*
X0505592Y0507895D01*
X0505270Y0507434D01*
X0505032Y0506924D01*
X0504886Y0506381D01*
X0504837Y0505820D01*
X0504886Y0505259D01*
X0505032Y0504716D01*
X0505270Y0504206D01*
X0505592Y0503745D01*
X0505990Y0503347D01*
X0506451Y0503024D01*
X0506961Y0502787D01*
X0507505Y0502641D01*
X0508066Y0502592D01*
X0508173Y0502601D02*
X0507958Y0502601D01*
X0507527Y0502639D02*
X0508604Y0502639D01*
X0508760Y0502677D02*
X0507371Y0502677D01*
X0507229Y0502715D02*
X0508902Y0502715D01*
X0509043Y0502753D02*
X0507088Y0502753D01*
X0506953Y0502791D02*
X0509178Y0502791D01*
X0509259Y0502828D02*
X0506872Y0502828D01*
X0506790Y0502866D02*
X0509341Y0502866D01*
X0509422Y0502904D02*
X0506709Y0502904D01*
X0506628Y0502942D02*
X0509503Y0502942D01*
X0509584Y0502980D02*
X0506547Y0502980D01*
X0506465Y0503018D02*
X0509666Y0503018D01*
X0509724Y0503056D02*
X0506407Y0503056D01*
X0506352Y0503094D02*
X0509779Y0503094D01*
X0509833Y0503132D02*
X0506298Y0503132D01*
X0506244Y0503169D02*
X0509887Y0503169D01*
X0509941Y0503207D02*
X0506190Y0503207D01*
X0506136Y0503245D02*
X0509995Y0503245D01*
X0510049Y0503283D02*
X0506082Y0503283D01*
X0506027Y0503321D02*
X0510104Y0503321D01*
X0510153Y0503359D02*
X0505978Y0503359D01*
X0505941Y0503397D02*
X0510191Y0503397D01*
X0510228Y0503435D02*
X0505903Y0503435D01*
X0505865Y0503472D02*
X0510266Y0503472D01*
X0510304Y0503510D02*
X0505827Y0503510D01*
X0505789Y0503548D02*
X0510342Y0503548D01*
X0510380Y0503586D02*
X0505751Y0503586D01*
X0505713Y0503624D02*
X0510418Y0503624D01*
X0510456Y0503662D02*
X0505675Y0503662D01*
X0505637Y0503700D02*
X0510494Y0503700D01*
X0510531Y0503738D02*
X0505600Y0503738D01*
X0505571Y0503775D02*
X0510560Y0503775D01*
X0510587Y0503813D02*
X0505544Y0503813D01*
X0505518Y0503851D02*
X0510613Y0503851D01*
X0510640Y0503889D02*
X0505491Y0503889D01*
X0505465Y0503927D02*
X0510666Y0503927D01*
X0510693Y0503965D02*
X0505438Y0503965D01*
X0505412Y0504003D02*
X0510719Y0504003D01*
X0510746Y0504041D02*
X0505385Y0504041D01*
X0505359Y0504079D02*
X0510772Y0504079D01*
X0510799Y0504116D02*
X0505332Y0504116D01*
X0505306Y0504154D02*
X0510825Y0504154D01*
X0510852Y0504192D02*
X0505279Y0504192D01*
X0505259Y0504230D02*
X0510872Y0504230D01*
X0510890Y0504268D02*
X0505241Y0504268D01*
X0505223Y0504306D02*
X0510908Y0504306D01*
X0510925Y0504344D02*
X0505206Y0504344D01*
X0505188Y0504382D02*
X0510943Y0504382D01*
X0510961Y0504419D02*
X0505170Y0504419D01*
X0505153Y0504457D02*
X0510978Y0504457D01*
X0510996Y0504495D02*
X0505135Y0504495D01*
X0505117Y0504533D02*
X0511014Y0504533D01*
X0511031Y0504571D02*
X0505100Y0504571D01*
X0505082Y0504609D02*
X0511049Y0504609D01*
X0511067Y0504647D02*
X0505064Y0504647D01*
X0505047Y0504685D02*
X0511084Y0504685D01*
X0511101Y0504723D02*
X0505030Y0504723D01*
X0505020Y0504760D02*
X0511111Y0504760D01*
X0511121Y0504798D02*
X0505010Y0504798D01*
X0505000Y0504836D02*
X0511131Y0504836D01*
X0511141Y0504874D02*
X0504990Y0504874D01*
X0504979Y0504912D02*
X0511152Y0504912D01*
X0511162Y0504950D02*
X0504969Y0504950D01*
X0504959Y0504988D02*
X0511172Y0504988D01*
X0511182Y0505026D02*
X0504949Y0505026D01*
X0504939Y0505063D02*
X0511192Y0505063D01*
X0511202Y0505101D02*
X0504929Y0505101D01*
X0504919Y0505139D02*
X0511212Y0505139D01*
X0511223Y0505177D02*
X0504908Y0505177D01*
X0504898Y0505215D02*
X0511233Y0505215D01*
X0511243Y0505253D02*
X0504888Y0505253D01*
X0504884Y0505291D02*
X0511247Y0505291D01*
X0511251Y0505329D02*
X0504880Y0505329D01*
X0504877Y0505367D02*
X0511254Y0505367D01*
X0511257Y0505404D02*
X0504874Y0505404D01*
X0504870Y0505442D02*
X0511261Y0505442D01*
X0511264Y0505480D02*
X0504867Y0505480D01*
X0504864Y0505518D02*
X0511267Y0505518D01*
X0511271Y0505556D02*
X0504860Y0505556D01*
X0504857Y0505594D02*
X0511274Y0505594D01*
X0511277Y0505632D02*
X0504854Y0505632D01*
X0504850Y0505670D02*
X0511281Y0505670D01*
X0511284Y0505707D02*
X0504847Y0505707D01*
X0504844Y0505745D02*
X0511287Y0505745D01*
X0511291Y0505783D02*
X0504840Y0505783D01*
X0504837Y0505821D02*
X0511294Y0505821D01*
X0511290Y0505859D02*
X0504841Y0505859D01*
X0504844Y0505897D02*
X0511287Y0505897D01*
X0511284Y0505935D02*
X0504847Y0505935D01*
X0504851Y0505973D02*
X0511280Y0505973D01*
X0511277Y0506010D02*
X0504854Y0506010D01*
X0504857Y0506048D02*
X0511274Y0506048D01*
X0511270Y0506086D02*
X0504861Y0506086D01*
X0504864Y0506124D02*
X0511267Y0506124D01*
X0511264Y0506162D02*
X0504867Y0506162D01*
X0504870Y0506200D02*
X0511261Y0506200D01*
X0511257Y0506238D02*
X0504874Y0506238D01*
X0504877Y0506276D02*
X0511254Y0506276D01*
X0511251Y0506314D02*
X0504880Y0506314D01*
X0504884Y0506351D02*
X0511247Y0506351D01*
X0511242Y0506389D02*
X0504889Y0506389D01*
X0504899Y0506427D02*
X0511232Y0506427D01*
X0511222Y0506465D02*
X0504909Y0506465D01*
X0504919Y0506503D02*
X0511212Y0506503D01*
X0511202Y0506541D02*
X0504929Y0506541D01*
X0504939Y0506579D02*
X0511192Y0506579D01*
X0511181Y0506617D02*
X0504950Y0506617D01*
X0504960Y0506654D02*
X0511171Y0506654D01*
X0511161Y0506692D02*
X0504970Y0506692D01*
X0504980Y0506730D02*
X0511151Y0506730D01*
X0511141Y0506768D02*
X0504990Y0506768D01*
X0505000Y0506806D02*
X0511131Y0506806D01*
X0511121Y0506844D02*
X0505010Y0506844D01*
X0505021Y0506882D02*
X0511110Y0506882D01*
X0511100Y0506920D02*
X0505031Y0506920D01*
X0505047Y0506958D02*
X0511084Y0506958D01*
X0511066Y0506995D02*
X0505065Y0506995D01*
X0505083Y0507033D02*
X0511048Y0507033D01*
X0511031Y0507071D02*
X0505100Y0507071D01*
X0505118Y0507109D02*
X0511013Y0507109D01*
X0510995Y0507147D02*
X0505136Y0507147D01*
X0505153Y0507185D02*
X0510978Y0507185D01*
X0510960Y0507223D02*
X0505171Y0507223D01*
X0505189Y0507261D02*
X0510942Y0507261D01*
X0510925Y0507298D02*
X0505206Y0507298D01*
X0505224Y0507336D02*
X0510907Y0507336D01*
X0510889Y0507374D02*
X0505242Y0507374D01*
X0505259Y0507412D02*
X0510872Y0507412D01*
X0510850Y0507450D02*
X0505281Y0507450D01*
X0505307Y0507488D02*
X0510824Y0507488D01*
X0510797Y0507526D02*
X0505334Y0507526D01*
X0505360Y0507564D02*
X0510771Y0507564D01*
X0510744Y0507602D02*
X0505387Y0507602D01*
X0505413Y0507639D02*
X0510718Y0507639D01*
X0510691Y0507677D02*
X0505440Y0507677D01*
X0505466Y0507715D02*
X0510665Y0507715D01*
X0510638Y0507753D02*
X0505493Y0507753D01*
X0505519Y0507791D02*
X0510612Y0507791D01*
X0510585Y0507829D02*
X0505546Y0507829D01*
X0505572Y0507867D02*
X0510559Y0507867D01*
X0510529Y0507905D02*
X0505602Y0507905D01*
X0505639Y0507942D02*
X0510492Y0507942D01*
X0510454Y0507980D02*
X0505677Y0507980D01*
X0505715Y0508018D02*
X0510416Y0508018D01*
X0510378Y0508056D02*
X0505753Y0508056D01*
X0505791Y0508094D02*
X0510340Y0508094D01*
X0510302Y0508132D02*
X0505829Y0508132D01*
X0505867Y0508170D02*
X0510264Y0508170D01*
X0510226Y0508208D02*
X0505905Y0508208D01*
X0505942Y0508245D02*
X0510189Y0508245D01*
X0510151Y0508283D02*
X0505980Y0508283D01*
X0506030Y0508321D02*
X0510101Y0508321D01*
X0510047Y0508359D02*
X0506084Y0508359D01*
X0506139Y0508397D02*
X0509992Y0508397D01*
X0509938Y0508435D02*
X0506193Y0508435D01*
X0506247Y0508473D02*
X0509884Y0508473D01*
X0509830Y0508511D02*
X0506301Y0508511D01*
X0506355Y0508549D02*
X0509776Y0508549D01*
X0509722Y0508586D02*
X0506409Y0508586D01*
X0506470Y0508624D02*
X0509661Y0508624D01*
X0509580Y0508662D02*
X0506551Y0508662D01*
X0506632Y0508700D02*
X0509499Y0508700D01*
X0509418Y0508738D02*
X0506713Y0508738D01*
X0506795Y0508776D02*
X0509337Y0508776D01*
X0509255Y0508814D02*
X0506876Y0508814D01*
X0506957Y0508852D02*
X0509174Y0508852D01*
X0509036Y0508889D02*
X0507095Y0508889D01*
X0507237Y0508927D02*
X0508894Y0508927D01*
X0508753Y0508965D02*
X0507378Y0508965D01*
X0507549Y0509003D02*
X0508582Y0509003D01*
X0508150Y0509041D02*
X0507981Y0509041D01*
X0508066Y0512592D02*
X0508626Y0512641D01*
X0509170Y0512787D01*
X0509680Y0513024D01*
X0510141Y0513347D01*
X0510539Y0513745D01*
X0510861Y0514206D01*
X0511099Y0514716D01*
X0511245Y0515259D01*
X0511294Y0515820D01*
X0511245Y0516381D01*
X0511099Y0516924D01*
X0510861Y0517434D01*
X0510539Y0517895D01*
X0510141Y0518293D01*
X0509680Y0518616D01*
X0509170Y0518854D01*
X0508626Y0518999D01*
X0508066Y0519048D01*
X0507505Y0518999D01*
X0506961Y0518854D01*
X0506451Y0518616D01*
X0505990Y0518293D01*
X0505592Y0517895D01*
X0505270Y0517434D01*
X0505032Y0516924D01*
X0504886Y0516381D01*
X0504837Y0515820D01*
X0504886Y0515259D01*
X0505032Y0514716D01*
X0505270Y0514206D01*
X0505592Y0513745D01*
X0505990Y0513347D01*
X0506451Y0513024D01*
X0506961Y0512787D01*
X0507505Y0512641D01*
X0508066Y0512592D01*
X0508181Y0512602D02*
X0507950Y0512602D01*
X0507519Y0512640D02*
X0508612Y0512640D01*
X0508763Y0512678D02*
X0507368Y0512678D01*
X0507227Y0512716D02*
X0508904Y0512716D01*
X0509046Y0512753D02*
X0507085Y0512753D01*
X0506951Y0512791D02*
X0509180Y0512791D01*
X0509261Y0512829D02*
X0506870Y0512829D01*
X0506789Y0512867D02*
X0509342Y0512867D01*
X0509423Y0512905D02*
X0506708Y0512905D01*
X0506626Y0512943D02*
X0509505Y0512943D01*
X0509586Y0512981D02*
X0506545Y0512981D01*
X0506464Y0513019D02*
X0509667Y0513019D01*
X0509725Y0513056D02*
X0506406Y0513056D01*
X0506351Y0513094D02*
X0509780Y0513094D01*
X0509834Y0513132D02*
X0506297Y0513132D01*
X0506243Y0513170D02*
X0509888Y0513170D01*
X0509942Y0513208D02*
X0506189Y0513208D01*
X0506135Y0513246D02*
X0509996Y0513246D01*
X0510050Y0513284D02*
X0506081Y0513284D01*
X0506026Y0513322D02*
X0510105Y0513322D01*
X0510153Y0513359D02*
X0505978Y0513359D01*
X0505940Y0513397D02*
X0510191Y0513397D01*
X0510229Y0513435D02*
X0505902Y0513435D01*
X0505864Y0513473D02*
X0510267Y0513473D01*
X0510305Y0513511D02*
X0505826Y0513511D01*
X0505788Y0513549D02*
X0510343Y0513549D01*
X0510381Y0513587D02*
X0505750Y0513587D01*
X0505713Y0513625D02*
X0510418Y0513625D01*
X0510456Y0513663D02*
X0505675Y0513663D01*
X0505637Y0513700D02*
X0510494Y0513700D01*
X0510532Y0513738D02*
X0505599Y0513738D01*
X0505570Y0513776D02*
X0510561Y0513776D01*
X0510587Y0513814D02*
X0505544Y0513814D01*
X0505517Y0513852D02*
X0510614Y0513852D01*
X0510640Y0513890D02*
X0505491Y0513890D01*
X0505464Y0513928D02*
X0510667Y0513928D01*
X0510693Y0513966D02*
X0505438Y0513966D01*
X0505411Y0514003D02*
X0510720Y0514003D01*
X0510746Y0514041D02*
X0505385Y0514041D01*
X0505358Y0514079D02*
X0510773Y0514079D01*
X0510799Y0514117D02*
X0505332Y0514117D01*
X0505305Y0514155D02*
X0510826Y0514155D01*
X0510852Y0514193D02*
X0505279Y0514193D01*
X0505258Y0514231D02*
X0510873Y0514231D01*
X0510890Y0514269D02*
X0505241Y0514269D01*
X0505223Y0514307D02*
X0510908Y0514307D01*
X0510926Y0514344D02*
X0505205Y0514344D01*
X0505188Y0514382D02*
X0510943Y0514382D01*
X0510961Y0514420D02*
X0505170Y0514420D01*
X0505152Y0514458D02*
X0510979Y0514458D01*
X0510996Y0514496D02*
X0505135Y0514496D01*
X0505117Y0514534D02*
X0511014Y0514534D01*
X0511032Y0514572D02*
X0505099Y0514572D01*
X0505082Y0514610D02*
X0511049Y0514610D01*
X0511067Y0514647D02*
X0505064Y0514647D01*
X0505046Y0514685D02*
X0511085Y0514685D01*
X0511101Y0514723D02*
X0505030Y0514723D01*
X0505020Y0514761D02*
X0511111Y0514761D01*
X0511121Y0514799D02*
X0505010Y0514799D01*
X0505000Y0514837D02*
X0511131Y0514837D01*
X0511142Y0514875D02*
X0504989Y0514875D01*
X0504979Y0514913D02*
X0511152Y0514913D01*
X0511162Y0514951D02*
X0504969Y0514951D01*
X0504959Y0514988D02*
X0511172Y0514988D01*
X0511182Y0515026D02*
X0504949Y0515026D01*
X0504939Y0515064D02*
X0511192Y0515064D01*
X0511202Y0515102D02*
X0504929Y0515102D01*
X0504918Y0515140D02*
X0511213Y0515140D01*
X0511223Y0515178D02*
X0504908Y0515178D01*
X0504898Y0515216D02*
X0511233Y0515216D01*
X0511243Y0515254D02*
X0504888Y0515254D01*
X0504884Y0515291D02*
X0511247Y0515291D01*
X0511251Y0515329D02*
X0504880Y0515329D01*
X0504877Y0515367D02*
X0511254Y0515367D01*
X0511257Y0515405D02*
X0504874Y0515405D01*
X0504870Y0515443D02*
X0511261Y0515443D01*
X0511264Y0515481D02*
X0504867Y0515481D01*
X0504864Y0515519D02*
X0511267Y0515519D01*
X0511271Y0515557D02*
X0504860Y0515557D01*
X0504857Y0515594D02*
X0511274Y0515594D01*
X0511277Y0515632D02*
X0504854Y0515632D01*
X0504850Y0515670D02*
X0511281Y0515670D01*
X0511284Y0515708D02*
X0504847Y0515708D01*
X0504844Y0515746D02*
X0511287Y0515746D01*
X0511291Y0515784D02*
X0504840Y0515784D01*
X0504837Y0515822D02*
X0511294Y0515822D01*
X0511290Y0515860D02*
X0504841Y0515860D01*
X0504844Y0515898D02*
X0511287Y0515898D01*
X0511284Y0515935D02*
X0504847Y0515935D01*
X0504851Y0515973D02*
X0511280Y0515973D01*
X0511277Y0516011D02*
X0504854Y0516011D01*
X0504857Y0516049D02*
X0511274Y0516049D01*
X0511270Y0516087D02*
X0504861Y0516087D01*
X0504864Y0516125D02*
X0511267Y0516125D01*
X0511264Y0516163D02*
X0504867Y0516163D01*
X0504871Y0516201D02*
X0511260Y0516201D01*
X0511257Y0516238D02*
X0504874Y0516238D01*
X0504877Y0516276D02*
X0511254Y0516276D01*
X0511250Y0516314D02*
X0504881Y0516314D01*
X0504884Y0516352D02*
X0511247Y0516352D01*
X0511242Y0516390D02*
X0504889Y0516390D01*
X0504899Y0516428D02*
X0511232Y0516428D01*
X0511222Y0516466D02*
X0504909Y0516466D01*
X0504919Y0516504D02*
X0511212Y0516504D01*
X0511202Y0516542D02*
X0504929Y0516542D01*
X0504940Y0516579D02*
X0511191Y0516579D01*
X0511181Y0516617D02*
X0504950Y0516617D01*
X0504960Y0516655D02*
X0511171Y0516655D01*
X0511161Y0516693D02*
X0504970Y0516693D01*
X0504980Y0516731D02*
X0511151Y0516731D01*
X0511141Y0516769D02*
X0504990Y0516769D01*
X0505000Y0516807D02*
X0511131Y0516807D01*
X0511120Y0516845D02*
X0505011Y0516845D01*
X0505021Y0516882D02*
X0511110Y0516882D01*
X0511100Y0516920D02*
X0505031Y0516920D01*
X0505048Y0516958D02*
X0511083Y0516958D01*
X0511066Y0516996D02*
X0505065Y0516996D01*
X0505083Y0517034D02*
X0511048Y0517034D01*
X0511030Y0517072D02*
X0505101Y0517072D01*
X0505118Y0517110D02*
X0511013Y0517110D01*
X0510995Y0517148D02*
X0505136Y0517148D01*
X0505154Y0517186D02*
X0510977Y0517186D01*
X0510960Y0517223D02*
X0505171Y0517223D01*
X0505189Y0517261D02*
X0510942Y0517261D01*
X0510924Y0517299D02*
X0505207Y0517299D01*
X0505224Y0517337D02*
X0510907Y0517337D01*
X0510889Y0517375D02*
X0505242Y0517375D01*
X0505260Y0517413D02*
X0510871Y0517413D01*
X0510850Y0517451D02*
X0505281Y0517451D01*
X0505308Y0517489D02*
X0510823Y0517489D01*
X0510797Y0517526D02*
X0505334Y0517526D01*
X0505361Y0517564D02*
X0510770Y0517564D01*
X0510744Y0517602D02*
X0505387Y0517602D01*
X0505414Y0517640D02*
X0510717Y0517640D01*
X0510691Y0517678D02*
X0505440Y0517678D01*
X0505467Y0517716D02*
X0510664Y0517716D01*
X0510638Y0517754D02*
X0505493Y0517754D01*
X0505520Y0517792D02*
X0510611Y0517792D01*
X0510585Y0517829D02*
X0505546Y0517829D01*
X0505573Y0517867D02*
X0510558Y0517867D01*
X0510529Y0517905D02*
X0505602Y0517905D01*
X0505640Y0517943D02*
X0510491Y0517943D01*
X0510453Y0517981D02*
X0505678Y0517981D01*
X0505716Y0518019D02*
X0510415Y0518019D01*
X0510377Y0518057D02*
X0505754Y0518057D01*
X0505792Y0518095D02*
X0510339Y0518095D01*
X0510301Y0518133D02*
X0505830Y0518133D01*
X0505867Y0518170D02*
X0510264Y0518170D01*
X0510226Y0518208D02*
X0505905Y0518208D01*
X0505943Y0518246D02*
X0510188Y0518246D01*
X0510150Y0518284D02*
X0505981Y0518284D01*
X0506031Y0518322D02*
X0510100Y0518322D01*
X0510046Y0518360D02*
X0506085Y0518360D01*
X0506140Y0518398D02*
X0509991Y0518398D01*
X0509937Y0518436D02*
X0506194Y0518436D01*
X0506248Y0518473D02*
X0509883Y0518473D01*
X0509829Y0518511D02*
X0506302Y0518511D01*
X0506356Y0518549D02*
X0509775Y0518549D01*
X0509721Y0518587D02*
X0506410Y0518587D01*
X0506471Y0518625D02*
X0509660Y0518625D01*
X0509579Y0518663D02*
X0506552Y0518663D01*
X0506634Y0518701D02*
X0509497Y0518701D01*
X0509416Y0518739D02*
X0506715Y0518739D01*
X0506796Y0518777D02*
X0509335Y0518777D01*
X0509254Y0518814D02*
X0506877Y0518814D01*
X0506958Y0518852D02*
X0509173Y0518852D01*
X0509033Y0518890D02*
X0507098Y0518890D01*
X0507239Y0518928D02*
X0508892Y0518928D01*
X0508750Y0518966D02*
X0507381Y0518966D01*
X0507557Y0519004D02*
X0508574Y0519004D01*
X0508142Y0519042D02*
X0507989Y0519042D01*
X0506719Y0432899D02*
X0509412Y0432899D01*
X0509330Y0432862D02*
X0506801Y0432862D01*
X0506882Y0432824D02*
X0509249Y0432824D01*
X0509167Y0432786D02*
X0506964Y0432786D01*
X0507106Y0432748D02*
X0509025Y0432748D01*
X0508884Y0432710D02*
X0507247Y0432710D01*
X0507389Y0432672D02*
X0508742Y0432672D01*
X0508549Y0432634D02*
X0507582Y0432634D01*
X0508013Y0432596D02*
X0508118Y0432596D01*
X0442177Y0320269D02*
X0442046Y0320323D01*
X0441908Y0320356D01*
X0441766Y0320367D01*
X0439955Y0320367D01*
X0438144Y0320367D01*
X0438003Y0320356D01*
X0437864Y0320323D01*
X0437733Y0320269D01*
X0437612Y0320195D01*
X0437504Y0320102D01*
X0437412Y0319994D01*
X0437338Y0319873D01*
X0437283Y0319742D01*
X0437250Y0319604D01*
X0437239Y0317651D01*
X0437250Y0317509D01*
X0437283Y0317371D01*
X0437338Y0317240D01*
X0437412Y0317119D01*
X0437504Y0317011D01*
X0437612Y0316918D01*
X0437733Y0316844D01*
X0437864Y0316790D01*
X0438003Y0316756D01*
X0438144Y0316745D01*
X0441766Y0316745D01*
X0441908Y0316756D01*
X0442046Y0316790D01*
X0442177Y0316844D01*
X0442299Y0316918D01*
X0442406Y0317011D01*
X0442499Y0317119D01*
X0442573Y0317240D01*
X0442627Y0317371D01*
X0442661Y0317509D01*
X0442672Y0319462D01*
X0442661Y0319604D01*
X0442627Y0319742D01*
X0442573Y0319873D01*
X0442499Y0319994D01*
X0442406Y0320102D01*
X0442299Y0320195D01*
X0442177Y0320269D01*
X0442154Y0320278D02*
X0437756Y0320278D01*
X0437687Y0320240D02*
X0442224Y0320240D01*
X0442286Y0320202D02*
X0437625Y0320202D01*
X0437577Y0320164D02*
X0442334Y0320164D01*
X0442378Y0320126D02*
X0437533Y0320126D01*
X0437493Y0320089D02*
X0442418Y0320089D01*
X0442450Y0320051D02*
X0437460Y0320051D01*
X0437428Y0320013D02*
X0442483Y0320013D01*
X0442511Y0319975D02*
X0437400Y0319975D01*
X0437377Y0319937D02*
X0442534Y0319937D01*
X0442557Y0319899D02*
X0437354Y0319899D01*
X0437333Y0319861D02*
X0442578Y0319861D01*
X0442593Y0319823D02*
X0437317Y0319823D01*
X0437301Y0319786D02*
X0442609Y0319786D01*
X0442625Y0319748D02*
X0437286Y0319748D01*
X0437275Y0319710D02*
X0442635Y0319710D01*
X0442644Y0319672D02*
X0437266Y0319672D01*
X0437257Y0319634D02*
X0442653Y0319634D01*
X0442661Y0319596D02*
X0437250Y0319596D01*
X0437250Y0319558D02*
X0442664Y0319558D01*
X0442667Y0319520D02*
X0437249Y0319520D01*
X0437249Y0319482D02*
X0442670Y0319482D01*
X0442672Y0319445D02*
X0437249Y0319445D01*
X0437249Y0319407D02*
X0442671Y0319407D01*
X0442671Y0319369D02*
X0437248Y0319369D01*
X0437248Y0319331D02*
X0442671Y0319331D01*
X0442671Y0319293D02*
X0437248Y0319293D01*
X0437248Y0319255D02*
X0442671Y0319255D01*
X0442670Y0319217D02*
X0437248Y0319217D01*
X0437247Y0319179D02*
X0442670Y0319179D01*
X0442670Y0319142D02*
X0437247Y0319142D01*
X0437247Y0319104D02*
X0442670Y0319104D01*
X0442670Y0319066D02*
X0437247Y0319066D01*
X0437247Y0319028D02*
X0442669Y0319028D01*
X0442669Y0318990D02*
X0437246Y0318990D01*
X0437246Y0318952D02*
X0442669Y0318952D01*
X0442669Y0318914D02*
X0437246Y0318914D01*
X0437246Y0318876D02*
X0442668Y0318876D01*
X0442668Y0318839D02*
X0437245Y0318839D01*
X0437245Y0318801D02*
X0442668Y0318801D01*
X0442668Y0318763D02*
X0437245Y0318763D01*
X0437245Y0318725D02*
X0442668Y0318725D01*
X0442667Y0318687D02*
X0437245Y0318687D01*
X0437244Y0318649D02*
X0442667Y0318649D01*
X0442667Y0318611D02*
X0437244Y0318611D01*
X0437244Y0318573D02*
X0442667Y0318573D01*
X0442667Y0318535D02*
X0437244Y0318535D01*
X0437244Y0318498D02*
X0442666Y0318498D01*
X0442666Y0318460D02*
X0437243Y0318460D01*
X0437243Y0318422D02*
X0442666Y0318422D01*
X0442666Y0318384D02*
X0437243Y0318384D01*
X0437243Y0318346D02*
X0442666Y0318346D01*
X0442665Y0318308D02*
X0437242Y0318308D01*
X0437242Y0318270D02*
X0442665Y0318270D01*
X0442665Y0318232D02*
X0437242Y0318232D01*
X0437242Y0318195D02*
X0442665Y0318195D01*
X0442664Y0318157D02*
X0437242Y0318157D01*
X0437241Y0318119D02*
X0442664Y0318119D01*
X0442664Y0318081D02*
X0437241Y0318081D01*
X0437241Y0318043D02*
X0442664Y0318043D01*
X0442664Y0318005D02*
X0437241Y0318005D01*
X0437241Y0317967D02*
X0442663Y0317967D01*
X0442663Y0317929D02*
X0437240Y0317929D01*
X0437240Y0317891D02*
X0442663Y0317891D01*
X0442663Y0317854D02*
X0437240Y0317854D01*
X0437240Y0317816D02*
X0442662Y0317816D01*
X0442662Y0317778D02*
X0437239Y0317778D01*
X0437239Y0317740D02*
X0442662Y0317740D01*
X0442662Y0317702D02*
X0437239Y0317702D01*
X0437239Y0317664D02*
X0442662Y0317664D01*
X0442661Y0317626D02*
X0437241Y0317626D01*
X0437244Y0317588D02*
X0442661Y0317588D01*
X0442661Y0317551D02*
X0437247Y0317551D01*
X0437249Y0317513D02*
X0442661Y0317513D01*
X0442652Y0317475D02*
X0437258Y0317475D01*
X0437267Y0317437D02*
X0442643Y0317437D01*
X0442634Y0317399D02*
X0437276Y0317399D01*
X0437287Y0317361D02*
X0442623Y0317361D01*
X0442608Y0317323D02*
X0437303Y0317323D01*
X0437319Y0317285D02*
X0442592Y0317285D01*
X0442576Y0317247D02*
X0437334Y0317247D01*
X0437356Y0317210D02*
X0442555Y0317210D01*
X0442531Y0317172D02*
X0437379Y0317172D01*
X0437402Y0317134D02*
X0442508Y0317134D01*
X0442480Y0317096D02*
X0437431Y0317096D01*
X0437463Y0317058D02*
X0442447Y0317058D01*
X0442415Y0317020D02*
X0437496Y0317020D01*
X0437537Y0316982D02*
X0442373Y0316982D01*
X0442329Y0316944D02*
X0437581Y0316944D01*
X0437631Y0316907D02*
X0442280Y0316907D01*
X0442218Y0316869D02*
X0437693Y0316869D01*
X0437765Y0316831D02*
X0442145Y0316831D01*
X0442054Y0316793D02*
X0437857Y0316793D01*
X0438019Y0316755D02*
X0441891Y0316755D01*
X0442063Y0320316D02*
X0437847Y0320316D01*
X0437992Y0320354D02*
X0441919Y0320354D01*
X0441766Y0312848D02*
X0438144Y0312848D01*
X0438003Y0312837D01*
X0437864Y0312803D01*
X0437733Y0312749D01*
X0437612Y0312675D01*
X0437504Y0312582D01*
X0437412Y0312474D01*
X0442499Y0312474D01*
X0442406Y0312582D01*
X0442299Y0312675D01*
X0442177Y0312749D01*
X0442046Y0312803D01*
X0441908Y0312837D01*
X0441766Y0312848D01*
X0441996Y0312815D02*
X0437915Y0312815D01*
X0437802Y0312777D02*
X0442108Y0312777D01*
X0442192Y0312740D02*
X0437718Y0312740D01*
X0437656Y0312702D02*
X0442255Y0312702D01*
X0442311Y0312664D02*
X0437599Y0312664D01*
X0437555Y0312626D02*
X0442356Y0312626D01*
X0442400Y0312588D02*
X0437511Y0312588D01*
X0437477Y0312550D02*
X0442434Y0312550D01*
X0442466Y0312512D02*
X0437444Y0312512D01*
X0437412Y0312474D02*
X0437338Y0312353D01*
X0437283Y0312222D01*
X0437250Y0312084D01*
X0437239Y0310131D01*
X0437250Y0309989D01*
X0437283Y0309851D01*
X0437338Y0309720D01*
X0437412Y0309599D01*
X0437504Y0309491D01*
X0437612Y0309398D01*
X0437733Y0309324D01*
X0437864Y0309270D01*
X0438003Y0309237D01*
X0438144Y0309226D01*
X0441766Y0309226D01*
X0441908Y0309237D01*
X0442046Y0309270D01*
X0442177Y0309324D01*
X0442299Y0309398D01*
X0442406Y0309491D01*
X0442499Y0309599D01*
X0442573Y0309720D01*
X0442627Y0309851D01*
X0442661Y0309989D01*
X0442672Y0311942D01*
X0442661Y0312084D01*
X0442627Y0312222D01*
X0442573Y0312353D01*
X0442499Y0312474D01*
X0442522Y0312437D02*
X0437388Y0312437D01*
X0437365Y0312399D02*
X0442545Y0312399D01*
X0442568Y0312361D02*
X0437342Y0312361D01*
X0437325Y0312323D02*
X0442586Y0312323D01*
X0442601Y0312285D02*
X0437309Y0312285D01*
X0437294Y0312247D02*
X0442617Y0312247D01*
X0442630Y0312209D02*
X0437280Y0312209D01*
X0437271Y0312171D02*
X0442640Y0312171D01*
X0442649Y0312134D02*
X0437262Y0312134D01*
X0437253Y0312096D02*
X0442658Y0312096D01*
X0442663Y0312058D02*
X0437250Y0312058D01*
X0437249Y0312020D02*
X0442666Y0312020D01*
X0442669Y0311982D02*
X0437249Y0311982D01*
X0437249Y0311944D02*
X0442672Y0311944D01*
X0442672Y0311906D02*
X0437249Y0311906D01*
X0437249Y0311868D02*
X0442671Y0311868D01*
X0442671Y0311830D02*
X0437248Y0311830D01*
X0437248Y0311793D02*
X0442671Y0311793D01*
X0442671Y0311755D02*
X0437248Y0311755D01*
X0437248Y0311717D02*
X0442671Y0311717D01*
X0442670Y0311679D02*
X0437247Y0311679D01*
X0437247Y0311641D02*
X0442670Y0311641D01*
X0442670Y0311603D02*
X0437247Y0311603D01*
X0437247Y0311565D02*
X0442670Y0311565D01*
X0442669Y0311527D02*
X0437247Y0311527D01*
X0437246Y0311490D02*
X0442669Y0311490D01*
X0442669Y0311452D02*
X0437246Y0311452D01*
X0437246Y0311414D02*
X0442669Y0311414D01*
X0442669Y0311376D02*
X0437246Y0311376D01*
X0437246Y0311338D02*
X0442668Y0311338D01*
X0442668Y0311300D02*
X0437245Y0311300D01*
X0437245Y0311262D02*
X0442668Y0311262D01*
X0442668Y0311224D02*
X0437245Y0311224D01*
X0437245Y0311186D02*
X0442668Y0311186D01*
X0442667Y0311149D02*
X0437244Y0311149D01*
X0437244Y0311111D02*
X0442667Y0311111D01*
X0442667Y0311073D02*
X0437244Y0311073D01*
X0437244Y0311035D02*
X0442667Y0311035D01*
X0442666Y0310997D02*
X0437244Y0310997D01*
X0437243Y0310959D02*
X0442666Y0310959D01*
X0442666Y0310921D02*
X0437243Y0310921D01*
X0437243Y0310883D02*
X0442666Y0310883D01*
X0442666Y0310846D02*
X0437243Y0310846D01*
X0437243Y0310808D02*
X0442665Y0310808D01*
X0442665Y0310770D02*
X0437242Y0310770D01*
X0437242Y0310732D02*
X0442665Y0310732D01*
X0442665Y0310694D02*
X0437242Y0310694D01*
X0437242Y0310656D02*
X0442665Y0310656D01*
X0442664Y0310618D02*
X0437241Y0310618D01*
X0437241Y0310580D02*
X0442664Y0310580D01*
X0442664Y0310542D02*
X0437241Y0310542D01*
X0437241Y0310505D02*
X0442664Y0310505D01*
X0442663Y0310467D02*
X0437241Y0310467D01*
X0437240Y0310429D02*
X0442663Y0310429D01*
X0442663Y0310391D02*
X0437240Y0310391D01*
X0437240Y0310353D02*
X0442663Y0310353D01*
X0442663Y0310315D02*
X0437240Y0310315D01*
X0437240Y0310277D02*
X0442662Y0310277D01*
X0442662Y0310239D02*
X0437239Y0310239D01*
X0437239Y0310202D02*
X0442662Y0310202D01*
X0442662Y0310164D02*
X0437239Y0310164D01*
X0437239Y0310126D02*
X0442662Y0310126D01*
X0442661Y0310088D02*
X0437242Y0310088D01*
X0437245Y0310050D02*
X0442661Y0310050D01*
X0442661Y0310012D02*
X0437248Y0310012D01*
X0437253Y0309974D02*
X0442657Y0309974D01*
X0442648Y0309936D02*
X0437263Y0309936D01*
X0437272Y0309898D02*
X0442639Y0309898D01*
X0442630Y0309861D02*
X0437281Y0309861D01*
X0437295Y0309823D02*
X0442616Y0309823D01*
X0442600Y0309785D02*
X0437311Y0309785D01*
X0437326Y0309747D02*
X0442584Y0309747D01*
X0442566Y0309709D02*
X0437344Y0309709D01*
X0437367Y0309671D02*
X0442543Y0309671D01*
X0442520Y0309633D02*
X0437391Y0309633D01*
X0437414Y0309595D02*
X0442496Y0309595D01*
X0442464Y0309558D02*
X0437447Y0309558D01*
X0437479Y0309520D02*
X0442431Y0309520D01*
X0442396Y0309482D02*
X0437515Y0309482D01*
X0437559Y0309444D02*
X0442352Y0309444D01*
X0442307Y0309406D02*
X0437603Y0309406D01*
X0437662Y0309368D02*
X0442249Y0309368D01*
X0442187Y0309330D02*
X0437724Y0309330D01*
X0437811Y0309292D02*
X0442100Y0309292D01*
X0441982Y0309255D02*
X0437929Y0309255D01*
X0337149Y0311958D02*
X0337160Y0313911D01*
X0337149Y0314052D01*
X0337116Y0314191D01*
X0337061Y0314322D01*
X0336987Y0314443D01*
X0336895Y0314551D01*
X0336787Y0314643D01*
X0336666Y0314717D01*
X0336534Y0314772D01*
X0336396Y0314805D01*
X0336254Y0314816D01*
X0332632Y0314816D01*
X0332491Y0314805D01*
X0332353Y0314772D01*
X0332221Y0314717D01*
X0332100Y0314643D01*
X0331992Y0314551D01*
X0331900Y0314443D01*
X0331826Y0314322D01*
X0331771Y0314191D01*
X0331738Y0314052D01*
X0331727Y0312100D01*
X0331738Y0311958D01*
X0331771Y0311820D01*
X0331826Y0311689D01*
X0331900Y0311567D01*
X0331992Y0311459D01*
X0332100Y0311367D01*
X0332221Y0311293D01*
X0332353Y0311239D01*
X0332491Y0311205D01*
X0332632Y0311194D01*
X0336254Y0311194D01*
X0336396Y0311205D01*
X0336534Y0311239D01*
X0336666Y0311293D01*
X0336787Y0311367D01*
X0336895Y0311459D01*
X0336987Y0311567D01*
X0337061Y0311689D01*
X0337116Y0311820D01*
X0337149Y0311958D01*
X0337146Y0311944D02*
X0331741Y0311944D01*
X0331736Y0311982D02*
X0337149Y0311982D01*
X0337149Y0312020D02*
X0331733Y0312020D01*
X0331730Y0312058D02*
X0337150Y0312058D01*
X0337150Y0312096D02*
X0331727Y0312096D01*
X0331727Y0312134D02*
X0337150Y0312134D01*
X0337150Y0312171D02*
X0331727Y0312171D01*
X0331728Y0312209D02*
X0337150Y0312209D01*
X0337151Y0312247D02*
X0331728Y0312247D01*
X0331728Y0312285D02*
X0337151Y0312285D01*
X0337151Y0312323D02*
X0331728Y0312323D01*
X0331728Y0312361D02*
X0337151Y0312361D01*
X0337151Y0312399D02*
X0331729Y0312399D01*
X0331729Y0312437D02*
X0337152Y0312437D01*
X0337152Y0312474D02*
X0331729Y0312474D01*
X0331729Y0312512D02*
X0337152Y0312512D01*
X0337152Y0312550D02*
X0331729Y0312550D01*
X0331730Y0312588D02*
X0337153Y0312588D01*
X0337153Y0312626D02*
X0331730Y0312626D01*
X0331730Y0312664D02*
X0337153Y0312664D01*
X0337153Y0312702D02*
X0331730Y0312702D01*
X0331731Y0312740D02*
X0337153Y0312740D01*
X0337154Y0312777D02*
X0331731Y0312777D01*
X0331731Y0312815D02*
X0337154Y0312815D01*
X0337154Y0312853D02*
X0331731Y0312853D01*
X0331731Y0312891D02*
X0337154Y0312891D01*
X0337154Y0312929D02*
X0331732Y0312929D01*
X0331732Y0312967D02*
X0337155Y0312967D01*
X0337155Y0313005D02*
X0331732Y0313005D01*
X0331732Y0313043D02*
X0337155Y0313043D01*
X0337155Y0313081D02*
X0331732Y0313081D01*
X0331733Y0313118D02*
X0337156Y0313118D01*
X0337156Y0313156D02*
X0331733Y0313156D01*
X0331733Y0313194D02*
X0337156Y0313194D01*
X0337156Y0313232D02*
X0331733Y0313232D01*
X0331734Y0313270D02*
X0337156Y0313270D01*
X0337157Y0313308D02*
X0331734Y0313308D01*
X0331734Y0313346D02*
X0337157Y0313346D01*
X0337157Y0313384D02*
X0331734Y0313384D01*
X0331734Y0313421D02*
X0337157Y0313421D01*
X0337157Y0313459D02*
X0331735Y0313459D01*
X0331735Y0313497D02*
X0337158Y0313497D01*
X0337158Y0313535D02*
X0331735Y0313535D01*
X0331735Y0313573D02*
X0337158Y0313573D01*
X0337158Y0313611D02*
X0331735Y0313611D01*
X0331736Y0313649D02*
X0337159Y0313649D01*
X0337159Y0313687D02*
X0331736Y0313687D01*
X0331736Y0313725D02*
X0337159Y0313725D01*
X0337159Y0313762D02*
X0331736Y0313762D01*
X0331737Y0313800D02*
X0337159Y0313800D01*
X0337160Y0313838D02*
X0331737Y0313838D01*
X0331737Y0313876D02*
X0337160Y0313876D01*
X0337160Y0313914D02*
X0331737Y0313914D01*
X0331737Y0313952D02*
X0337157Y0313952D01*
X0337154Y0313990D02*
X0331738Y0313990D01*
X0331738Y0314028D02*
X0337151Y0314028D01*
X0337146Y0314065D02*
X0331741Y0314065D01*
X0331750Y0314103D02*
X0337137Y0314103D01*
X0337127Y0314141D02*
X0331759Y0314141D01*
X0331769Y0314179D02*
X0337118Y0314179D01*
X0337105Y0314217D02*
X0331782Y0314217D01*
X0331798Y0314255D02*
X0337089Y0314255D01*
X0337073Y0314293D02*
X0331814Y0314293D01*
X0331831Y0314331D02*
X0337056Y0314331D01*
X0337033Y0314369D02*
X0331854Y0314369D01*
X0331877Y0314406D02*
X0337009Y0314406D01*
X0336986Y0314444D02*
X0331901Y0314444D01*
X0331933Y0314482D02*
X0336954Y0314482D01*
X0336921Y0314520D02*
X0331966Y0314520D01*
X0332001Y0314558D02*
X0336886Y0314558D01*
X0336842Y0314596D02*
X0332045Y0314596D01*
X0332089Y0314634D02*
X0336798Y0314634D01*
X0336741Y0314672D02*
X0332146Y0314672D01*
X0332208Y0314709D02*
X0336678Y0314709D01*
X0336593Y0314747D02*
X0332294Y0314747D01*
X0332408Y0314785D02*
X0336479Y0314785D01*
X0337136Y0311906D02*
X0331750Y0311906D01*
X0331760Y0311868D02*
X0337127Y0311868D01*
X0337118Y0311830D02*
X0331769Y0311830D01*
X0331783Y0311793D02*
X0337104Y0311793D01*
X0337089Y0311755D02*
X0331798Y0311755D01*
X0331814Y0311717D02*
X0337073Y0311717D01*
X0337055Y0311679D02*
X0331832Y0311679D01*
X0331855Y0311641D02*
X0337032Y0311641D01*
X0337009Y0311603D02*
X0331878Y0311603D01*
X0331902Y0311565D02*
X0336985Y0311565D01*
X0336953Y0311527D02*
X0331934Y0311527D01*
X0331966Y0311490D02*
X0336920Y0311490D01*
X0336885Y0311452D02*
X0332001Y0311452D01*
X0332046Y0311414D02*
X0336841Y0311414D01*
X0336797Y0311376D02*
X0332090Y0311376D01*
X0332148Y0311338D02*
X0336739Y0311338D01*
X0336677Y0311300D02*
X0332210Y0311300D01*
X0332295Y0311262D02*
X0336591Y0311262D01*
X0336476Y0311224D02*
X0332411Y0311224D01*
X0332632Y0318714D02*
X0336254Y0318714D01*
X0336396Y0318725D01*
X0336534Y0318758D01*
X0336666Y0318813D01*
X0336787Y0318887D01*
X0336895Y0318979D01*
X0336987Y0319087D01*
X0337061Y0319208D01*
X0337116Y0319339D01*
X0337149Y0319478D01*
X0337160Y0321430D01*
X0337149Y0321572D01*
X0337116Y0321710D01*
X0337061Y0321841D01*
X0336987Y0321963D01*
X0336895Y0322070D01*
X0336787Y0322163D01*
X0336666Y0322237D01*
X0336534Y0322291D01*
X0336396Y0322325D01*
X0336254Y0322336D01*
X0334443Y0322336D01*
X0332632Y0322336D01*
X0332491Y0322325D01*
X0332353Y0322291D01*
X0332221Y0322237D01*
X0332100Y0322163D01*
X0331992Y0322070D01*
X0331900Y0321963D01*
X0331826Y0321841D01*
X0331771Y0321710D01*
X0331738Y0321572D01*
X0331727Y0319619D01*
X0331738Y0319478D01*
X0331771Y0319339D01*
X0331826Y0319208D01*
X0331900Y0319087D01*
X0331992Y0318979D01*
X0332100Y0318887D01*
X0332221Y0318813D01*
X0332353Y0318758D01*
X0332491Y0318725D01*
X0332632Y0318714D01*
X0332491Y0318725D02*
X0336396Y0318725D01*
X0336545Y0318763D02*
X0332342Y0318763D01*
X0332250Y0318801D02*
X0336637Y0318801D01*
X0336708Y0318839D02*
X0332179Y0318839D01*
X0332117Y0318876D02*
X0336770Y0318876D01*
X0336819Y0318914D02*
X0332068Y0318914D01*
X0332024Y0318952D02*
X0336863Y0318952D01*
X0336904Y0318990D02*
X0331983Y0318990D01*
X0331950Y0319028D02*
X0336936Y0319028D01*
X0336969Y0319066D02*
X0331918Y0319066D01*
X0331890Y0319104D02*
X0336997Y0319104D01*
X0337020Y0319142D02*
X0331866Y0319142D01*
X0331843Y0319179D02*
X0337044Y0319179D01*
X0337065Y0319217D02*
X0331822Y0319217D01*
X0331806Y0319255D02*
X0337081Y0319255D01*
X0337096Y0319293D02*
X0331791Y0319293D01*
X0331775Y0319331D02*
X0337112Y0319331D01*
X0337123Y0319369D02*
X0331764Y0319369D01*
X0331755Y0319407D02*
X0337132Y0319407D01*
X0337141Y0319445D02*
X0331746Y0319445D01*
X0331738Y0319482D02*
X0337149Y0319482D01*
X0337149Y0319520D02*
X0331735Y0319520D01*
X0331732Y0319558D02*
X0337149Y0319558D01*
X0337150Y0319596D02*
X0331729Y0319596D01*
X0331727Y0319634D02*
X0337150Y0319634D01*
X0337150Y0319672D02*
X0331727Y0319672D01*
X0331727Y0319710D02*
X0337150Y0319710D01*
X0337150Y0319748D02*
X0331728Y0319748D01*
X0331728Y0319786D02*
X0337151Y0319786D01*
X0337151Y0319823D02*
X0331728Y0319823D01*
X0331728Y0319861D02*
X0337151Y0319861D01*
X0337151Y0319899D02*
X0331729Y0319899D01*
X0331729Y0319937D02*
X0337152Y0319937D01*
X0337152Y0319975D02*
X0331729Y0319975D01*
X0331729Y0320013D02*
X0337152Y0320013D01*
X0337152Y0320051D02*
X0331729Y0320051D01*
X0331730Y0320089D02*
X0337152Y0320089D01*
X0337153Y0320126D02*
X0331730Y0320126D01*
X0331730Y0320164D02*
X0337153Y0320164D01*
X0337153Y0320202D02*
X0331730Y0320202D01*
X0331730Y0320240D02*
X0337153Y0320240D01*
X0337153Y0320278D02*
X0331731Y0320278D01*
X0331731Y0320316D02*
X0337154Y0320316D01*
X0337154Y0320354D02*
X0331731Y0320354D01*
X0331731Y0320392D02*
X0337154Y0320392D01*
X0337154Y0320430D02*
X0331731Y0320430D01*
X0331732Y0320467D02*
X0337155Y0320467D01*
X0337155Y0320505D02*
X0331732Y0320505D01*
X0331732Y0320543D02*
X0337155Y0320543D01*
X0337155Y0320581D02*
X0331732Y0320581D01*
X0331733Y0320619D02*
X0337155Y0320619D01*
X0337156Y0320657D02*
X0331733Y0320657D01*
X0331733Y0320695D02*
X0337156Y0320695D01*
X0337156Y0320733D02*
X0331733Y0320733D01*
X0331733Y0320770D02*
X0337156Y0320770D01*
X0337156Y0320808D02*
X0331734Y0320808D01*
X0331734Y0320846D02*
X0337157Y0320846D01*
X0337157Y0320884D02*
X0331734Y0320884D01*
X0331734Y0320922D02*
X0337157Y0320922D01*
X0337157Y0320960D02*
X0331734Y0320960D01*
X0331735Y0320998D02*
X0337158Y0320998D01*
X0337158Y0321036D02*
X0331735Y0321036D01*
X0331735Y0321074D02*
X0337158Y0321074D01*
X0337158Y0321111D02*
X0331735Y0321111D01*
X0331736Y0321149D02*
X0337158Y0321149D01*
X0337159Y0321187D02*
X0331736Y0321187D01*
X0331736Y0321225D02*
X0337159Y0321225D01*
X0337159Y0321263D02*
X0331736Y0321263D01*
X0331736Y0321301D02*
X0337159Y0321301D01*
X0337159Y0321339D02*
X0331737Y0321339D01*
X0331737Y0321377D02*
X0337160Y0321377D01*
X0337160Y0321414D02*
X0331737Y0321414D01*
X0331737Y0321452D02*
X0337158Y0321452D01*
X0337155Y0321490D02*
X0331737Y0321490D01*
X0331738Y0321528D02*
X0337152Y0321528D01*
X0337149Y0321566D02*
X0331738Y0321566D01*
X0331746Y0321604D02*
X0337141Y0321604D01*
X0337132Y0321642D02*
X0331755Y0321642D01*
X0331764Y0321680D02*
X0337123Y0321680D01*
X0337113Y0321717D02*
X0331774Y0321717D01*
X0331790Y0321755D02*
X0337097Y0321755D01*
X0337081Y0321793D02*
X0331806Y0321793D01*
X0331822Y0321831D02*
X0337065Y0321831D01*
X0337044Y0321869D02*
X0331843Y0321869D01*
X0331866Y0321907D02*
X0337021Y0321907D01*
X0336998Y0321945D02*
X0331889Y0321945D01*
X0331917Y0321983D02*
X0336970Y0321983D01*
X0336937Y0322021D02*
X0331949Y0322021D01*
X0331982Y0322058D02*
X0336905Y0322058D01*
X0336865Y0322096D02*
X0332022Y0322096D01*
X0332067Y0322134D02*
X0336820Y0322134D01*
X0336772Y0322172D02*
X0332115Y0322172D01*
X0332177Y0322210D02*
X0336710Y0322210D01*
X0336639Y0322248D02*
X0332247Y0322248D01*
X0332339Y0322286D02*
X0336548Y0322286D01*
X0336401Y0322324D02*
X0332486Y0322324D01*
X0323814Y0364600D02*
X0315546Y0364600D01*
X0315546Y0370111D01*
X0323814Y0370111D01*
X0323814Y0364600D01*
X0323814Y0364637D02*
X0315546Y0364637D01*
X0315546Y0364675D02*
X0323814Y0364675D01*
X0323814Y0364713D02*
X0315546Y0364713D01*
X0315546Y0364751D02*
X0323814Y0364751D01*
X0323814Y0364789D02*
X0315546Y0364789D01*
X0315546Y0364827D02*
X0323814Y0364827D01*
X0323814Y0364864D02*
X0315546Y0364864D01*
X0315546Y0364902D02*
X0323814Y0364902D01*
X0323814Y0364940D02*
X0315546Y0364940D01*
X0315546Y0364978D02*
X0323814Y0364978D01*
X0323814Y0365016D02*
X0315546Y0365016D01*
X0315546Y0365054D02*
X0323814Y0365054D01*
X0323814Y0365092D02*
X0315546Y0365092D01*
X0315546Y0365130D02*
X0323814Y0365130D01*
X0323814Y0365167D02*
X0315546Y0365167D01*
X0315546Y0365205D02*
X0323814Y0365205D01*
X0323814Y0365243D02*
X0315546Y0365243D01*
X0315546Y0365281D02*
X0323814Y0365281D01*
X0323814Y0365319D02*
X0315546Y0365319D01*
X0315546Y0365357D02*
X0323814Y0365357D01*
X0323814Y0365395D02*
X0315546Y0365395D01*
X0315546Y0365433D02*
X0323814Y0365433D01*
X0323814Y0365471D02*
X0315546Y0365471D01*
X0315546Y0365508D02*
X0323814Y0365508D01*
X0323814Y0365546D02*
X0315546Y0365546D01*
X0315546Y0365584D02*
X0323814Y0365584D01*
X0323814Y0365622D02*
X0315546Y0365622D01*
X0315546Y0365660D02*
X0323814Y0365660D01*
X0323814Y0365698D02*
X0315546Y0365698D01*
X0315546Y0365736D02*
X0323814Y0365736D01*
X0323814Y0365774D02*
X0315546Y0365774D01*
X0315546Y0365811D02*
X0323814Y0365811D01*
X0323814Y0365849D02*
X0315546Y0365849D01*
X0315546Y0365887D02*
X0323814Y0365887D01*
X0323814Y0365925D02*
X0315546Y0365925D01*
X0315546Y0365963D02*
X0323814Y0365963D01*
X0323814Y0366001D02*
X0315546Y0366001D01*
X0315546Y0366039D02*
X0323814Y0366039D01*
X0323814Y0366077D02*
X0315546Y0366077D01*
X0315546Y0366114D02*
X0323814Y0366114D01*
X0323814Y0366152D02*
X0315546Y0366152D01*
X0315546Y0366190D02*
X0323814Y0366190D01*
X0323814Y0366228D02*
X0315546Y0366228D01*
X0315546Y0366266D02*
X0323814Y0366266D01*
X0323814Y0366304D02*
X0315546Y0366304D01*
X0315546Y0366342D02*
X0323814Y0366342D01*
X0323814Y0366380D02*
X0315546Y0366380D01*
X0315546Y0366418D02*
X0323814Y0366418D01*
X0323814Y0366455D02*
X0315546Y0366455D01*
X0315546Y0366493D02*
X0323814Y0366493D01*
X0323814Y0366531D02*
X0315546Y0366531D01*
X0315546Y0366569D02*
X0323814Y0366569D01*
X0323814Y0366607D02*
X0315546Y0366607D01*
X0315546Y0366645D02*
X0323814Y0366645D01*
X0323814Y0366683D02*
X0315546Y0366683D01*
X0315546Y0366721D02*
X0323814Y0366721D01*
X0323814Y0366758D02*
X0315546Y0366758D01*
X0315546Y0366796D02*
X0323814Y0366796D01*
X0323814Y0366834D02*
X0315546Y0366834D01*
X0315546Y0366872D02*
X0323814Y0366872D01*
X0323814Y0366910D02*
X0315546Y0366910D01*
X0315546Y0366948D02*
X0323814Y0366948D01*
X0323814Y0366986D02*
X0315546Y0366986D01*
X0315546Y0367024D02*
X0323814Y0367024D01*
X0323814Y0367062D02*
X0315546Y0367062D01*
X0315546Y0367099D02*
X0323814Y0367099D01*
X0323814Y0367137D02*
X0315546Y0367137D01*
X0315546Y0367175D02*
X0323814Y0367175D01*
X0323814Y0367213D02*
X0315546Y0367213D01*
X0315546Y0367251D02*
X0323814Y0367251D01*
X0323814Y0367289D02*
X0315546Y0367289D01*
X0315546Y0367327D02*
X0323814Y0367327D01*
X0323814Y0367365D02*
X0315546Y0367365D01*
X0315546Y0367402D02*
X0323814Y0367402D01*
X0323814Y0367440D02*
X0315546Y0367440D01*
X0315546Y0367478D02*
X0323814Y0367478D01*
X0323814Y0367516D02*
X0315546Y0367516D01*
X0315546Y0367554D02*
X0323814Y0367554D01*
X0323814Y0367592D02*
X0315546Y0367592D01*
X0315546Y0367630D02*
X0323814Y0367630D01*
X0323814Y0367668D02*
X0315546Y0367668D01*
X0315546Y0367706D02*
X0323814Y0367706D01*
X0323814Y0367743D02*
X0315546Y0367743D01*
X0315546Y0367781D02*
X0323814Y0367781D01*
X0323814Y0367819D02*
X0315546Y0367819D01*
X0315546Y0367857D02*
X0323814Y0367857D01*
X0323814Y0367895D02*
X0315546Y0367895D01*
X0315546Y0367933D02*
X0323814Y0367933D01*
X0323814Y0367971D02*
X0315546Y0367971D01*
X0315546Y0368009D02*
X0323814Y0368009D01*
X0323814Y0368046D02*
X0315546Y0368046D01*
X0315546Y0368084D02*
X0323814Y0368084D01*
X0323814Y0368122D02*
X0315546Y0368122D01*
X0315546Y0368160D02*
X0323814Y0368160D01*
X0323814Y0368198D02*
X0315546Y0368198D01*
X0315546Y0368236D02*
X0323814Y0368236D01*
X0323814Y0368274D02*
X0315546Y0368274D01*
X0315546Y0368312D02*
X0323814Y0368312D01*
X0323814Y0368349D02*
X0315546Y0368349D01*
X0315546Y0368387D02*
X0323814Y0368387D01*
X0323814Y0368425D02*
X0315546Y0368425D01*
X0315546Y0368463D02*
X0323814Y0368463D01*
X0323814Y0368501D02*
X0315546Y0368501D01*
X0315546Y0368539D02*
X0323814Y0368539D01*
X0323814Y0368577D02*
X0315546Y0368577D01*
X0315546Y0368615D02*
X0323814Y0368615D01*
X0323814Y0368653D02*
X0315546Y0368653D01*
X0315546Y0368690D02*
X0323814Y0368690D01*
X0323814Y0368728D02*
X0315546Y0368728D01*
X0315546Y0368766D02*
X0323814Y0368766D01*
X0323814Y0368804D02*
X0315546Y0368804D01*
X0315546Y0368842D02*
X0323814Y0368842D01*
X0323814Y0368880D02*
X0315546Y0368880D01*
X0315546Y0368918D02*
X0323814Y0368918D01*
X0323814Y0368956D02*
X0315546Y0368956D01*
X0315546Y0368993D02*
X0323814Y0368993D01*
X0323814Y0369031D02*
X0315546Y0369031D01*
X0315546Y0369069D02*
X0323814Y0369069D01*
X0323814Y0369107D02*
X0315546Y0369107D01*
X0315546Y0369145D02*
X0323814Y0369145D01*
X0323814Y0369183D02*
X0315546Y0369183D01*
X0315546Y0369221D02*
X0323814Y0369221D01*
X0323814Y0369259D02*
X0315546Y0369259D01*
X0315546Y0369297D02*
X0323814Y0369297D01*
X0323814Y0369334D02*
X0315546Y0369334D01*
X0315546Y0369372D02*
X0323814Y0369372D01*
X0323814Y0369410D02*
X0315546Y0369410D01*
X0315546Y0369448D02*
X0323814Y0369448D01*
X0323814Y0369486D02*
X0315546Y0369486D01*
X0315546Y0369524D02*
X0323814Y0369524D01*
X0323814Y0369562D02*
X0315546Y0369562D01*
X0315546Y0369600D02*
X0323814Y0369600D01*
X0323814Y0369637D02*
X0315546Y0369637D01*
X0315546Y0369675D02*
X0323814Y0369675D01*
X0323814Y0369713D02*
X0315546Y0369713D01*
X0315546Y0369751D02*
X0323814Y0369751D01*
X0323814Y0369789D02*
X0315546Y0369789D01*
X0315546Y0369827D02*
X0323814Y0369827D01*
X0323814Y0369865D02*
X0315546Y0369865D01*
X0315546Y0369903D02*
X0323814Y0369903D01*
X0323814Y0369941D02*
X0315546Y0369941D01*
X0315546Y0369978D02*
X0323814Y0369978D01*
X0323814Y0370016D02*
X0315546Y0370016D01*
X0315546Y0370054D02*
X0323814Y0370054D01*
X0323814Y0370092D02*
X0315546Y0370092D01*
X0315546Y0382316D02*
X0323814Y0382316D01*
X0323814Y0387828D01*
X0315546Y0387828D01*
X0315546Y0382316D01*
X0315546Y0382328D02*
X0323814Y0382328D01*
X0323814Y0382366D02*
X0315546Y0382366D01*
X0315546Y0382403D02*
X0323814Y0382403D01*
X0323814Y0382441D02*
X0315546Y0382441D01*
X0315546Y0382479D02*
X0323814Y0382479D01*
X0323814Y0382517D02*
X0315546Y0382517D01*
X0315546Y0382555D02*
X0323814Y0382555D01*
X0323814Y0382593D02*
X0315546Y0382593D01*
X0315546Y0382631D02*
X0323814Y0382631D01*
X0323814Y0382669D02*
X0315546Y0382669D01*
X0315546Y0382707D02*
X0323814Y0382707D01*
X0323814Y0382744D02*
X0315546Y0382744D01*
X0315546Y0382782D02*
X0323814Y0382782D01*
X0323814Y0382820D02*
X0315546Y0382820D01*
X0315546Y0382858D02*
X0323814Y0382858D01*
X0323814Y0382896D02*
X0315546Y0382896D01*
X0315546Y0382934D02*
X0323814Y0382934D01*
X0323814Y0382972D02*
X0315546Y0382972D01*
X0315546Y0383010D02*
X0323814Y0383010D01*
X0323814Y0383047D02*
X0315546Y0383047D01*
X0315546Y0383085D02*
X0323814Y0383085D01*
X0323814Y0383123D02*
X0315546Y0383123D01*
X0315546Y0383161D02*
X0323814Y0383161D01*
X0323814Y0383199D02*
X0315546Y0383199D01*
X0315546Y0383237D02*
X0323814Y0383237D01*
X0323814Y0383275D02*
X0315546Y0383275D01*
X0315546Y0383313D02*
X0323814Y0383313D01*
X0323814Y0383351D02*
X0315546Y0383351D01*
X0315546Y0383388D02*
X0323814Y0383388D01*
X0323814Y0383426D02*
X0315546Y0383426D01*
X0315546Y0383464D02*
X0323814Y0383464D01*
X0323814Y0383502D02*
X0315546Y0383502D01*
X0315546Y0383540D02*
X0323814Y0383540D01*
X0323814Y0383578D02*
X0315546Y0383578D01*
X0315546Y0383616D02*
X0323814Y0383616D01*
X0323814Y0383654D02*
X0315546Y0383654D01*
X0315546Y0383691D02*
X0323814Y0383691D01*
X0323814Y0383729D02*
X0315546Y0383729D01*
X0315546Y0383767D02*
X0323814Y0383767D01*
X0323814Y0383805D02*
X0315546Y0383805D01*
X0315546Y0383843D02*
X0323814Y0383843D01*
X0323814Y0383881D02*
X0315546Y0383881D01*
X0315546Y0383919D02*
X0323814Y0383919D01*
X0323814Y0383957D02*
X0315546Y0383957D01*
X0315546Y0383995D02*
X0323814Y0383995D01*
X0323814Y0384032D02*
X0315546Y0384032D01*
X0315546Y0384070D02*
X0323814Y0384070D01*
X0323814Y0384108D02*
X0315546Y0384108D01*
X0315546Y0384146D02*
X0323814Y0384146D01*
X0323814Y0384184D02*
X0315546Y0384184D01*
X0315546Y0384222D02*
X0323814Y0384222D01*
X0323814Y0384260D02*
X0315546Y0384260D01*
X0315546Y0384298D02*
X0323814Y0384298D01*
X0323814Y0384335D02*
X0315546Y0384335D01*
X0315546Y0384373D02*
X0323814Y0384373D01*
X0323814Y0384411D02*
X0315546Y0384411D01*
X0315546Y0384449D02*
X0323814Y0384449D01*
X0323814Y0384487D02*
X0315546Y0384487D01*
X0315546Y0384525D02*
X0323814Y0384525D01*
X0323814Y0384563D02*
X0315546Y0384563D01*
X0315546Y0384601D02*
X0323814Y0384601D01*
X0323814Y0384638D02*
X0315546Y0384638D01*
X0315546Y0384676D02*
X0323814Y0384676D01*
X0323814Y0384714D02*
X0315546Y0384714D01*
X0315546Y0384752D02*
X0323814Y0384752D01*
X0323814Y0384790D02*
X0315546Y0384790D01*
X0315546Y0384828D02*
X0323814Y0384828D01*
X0323814Y0384866D02*
X0315546Y0384866D01*
X0315546Y0384904D02*
X0323814Y0384904D01*
X0323814Y0384942D02*
X0315546Y0384942D01*
X0315546Y0384979D02*
X0323814Y0384979D01*
X0323814Y0385017D02*
X0315546Y0385017D01*
X0315546Y0385055D02*
X0323814Y0385055D01*
X0323814Y0385093D02*
X0315546Y0385093D01*
X0315546Y0385131D02*
X0323814Y0385131D01*
X0323814Y0385169D02*
X0315546Y0385169D01*
X0315546Y0385207D02*
X0323814Y0385207D01*
X0323814Y0385245D02*
X0315546Y0385245D01*
X0315546Y0385282D02*
X0323814Y0385282D01*
X0323814Y0385320D02*
X0315546Y0385320D01*
X0315546Y0385358D02*
X0323814Y0385358D01*
X0323814Y0385396D02*
X0315546Y0385396D01*
X0315546Y0385434D02*
X0323814Y0385434D01*
X0323814Y0385472D02*
X0315546Y0385472D01*
X0315546Y0385510D02*
X0323814Y0385510D01*
X0323814Y0385548D02*
X0315546Y0385548D01*
X0315546Y0385586D02*
X0323814Y0385586D01*
X0323814Y0385623D02*
X0315546Y0385623D01*
X0315546Y0385661D02*
X0323814Y0385661D01*
X0323814Y0385699D02*
X0315546Y0385699D01*
X0315546Y0385737D02*
X0323814Y0385737D01*
X0323814Y0385775D02*
X0315546Y0385775D01*
X0315546Y0385813D02*
X0323814Y0385813D01*
X0323814Y0385851D02*
X0315546Y0385851D01*
X0315546Y0385889D02*
X0323814Y0385889D01*
X0323814Y0385926D02*
X0315546Y0385926D01*
X0315546Y0385964D02*
X0323814Y0385964D01*
X0323814Y0386002D02*
X0315546Y0386002D01*
X0315546Y0386040D02*
X0323814Y0386040D01*
X0323814Y0386078D02*
X0315546Y0386078D01*
X0315546Y0386116D02*
X0323814Y0386116D01*
X0323814Y0386154D02*
X0315546Y0386154D01*
X0315546Y0386192D02*
X0323814Y0386192D01*
X0323814Y0386230D02*
X0315546Y0386230D01*
X0315546Y0386267D02*
X0323814Y0386267D01*
X0323814Y0386305D02*
X0315546Y0386305D01*
X0315546Y0386343D02*
X0323814Y0386343D01*
X0323814Y0386381D02*
X0315546Y0386381D01*
X0315546Y0386419D02*
X0323814Y0386419D01*
X0323814Y0386457D02*
X0315546Y0386457D01*
X0315546Y0386495D02*
X0323814Y0386495D01*
X0323814Y0386533D02*
X0315546Y0386533D01*
X0315546Y0386570D02*
X0323814Y0386570D01*
X0323814Y0386608D02*
X0315546Y0386608D01*
X0315546Y0386646D02*
X0323814Y0386646D01*
X0323814Y0386684D02*
X0315546Y0386684D01*
X0315546Y0386722D02*
X0323814Y0386722D01*
X0323814Y0386760D02*
X0315546Y0386760D01*
X0315546Y0386798D02*
X0323814Y0386798D01*
X0323814Y0386836D02*
X0315546Y0386836D01*
X0315546Y0386873D02*
X0323814Y0386873D01*
X0323814Y0386911D02*
X0315546Y0386911D01*
X0315546Y0386949D02*
X0323814Y0386949D01*
X0323814Y0386987D02*
X0315546Y0386987D01*
X0315546Y0387025D02*
X0323814Y0387025D01*
X0323814Y0387063D02*
X0315546Y0387063D01*
X0315546Y0387101D02*
X0323814Y0387101D01*
X0323814Y0387139D02*
X0315546Y0387139D01*
X0315546Y0387177D02*
X0323814Y0387177D01*
X0323814Y0387214D02*
X0315546Y0387214D01*
X0315546Y0387252D02*
X0323814Y0387252D01*
X0323814Y0387290D02*
X0315546Y0387290D01*
X0315546Y0387328D02*
X0323814Y0387328D01*
X0323814Y0387366D02*
X0315546Y0387366D01*
X0315546Y0387404D02*
X0323814Y0387404D01*
X0323814Y0387442D02*
X0315546Y0387442D01*
X0315546Y0387480D02*
X0323814Y0387480D01*
X0323814Y0387517D02*
X0315546Y0387517D01*
X0315546Y0387555D02*
X0323814Y0387555D01*
X0323814Y0387593D02*
X0315546Y0387593D01*
X0315546Y0387631D02*
X0323814Y0387631D01*
X0323814Y0387669D02*
X0315546Y0387669D01*
X0315546Y0387707D02*
X0323814Y0387707D01*
X0323814Y0387745D02*
X0315546Y0387745D01*
X0315546Y0387783D02*
X0323814Y0387783D01*
X0323814Y0387821D02*
X0315546Y0387821D01*
X0287987Y0387828D02*
X0287987Y0382316D01*
X0279719Y0382316D01*
X0279719Y0387828D01*
X0287987Y0387828D01*
X0287987Y0387821D02*
X0279719Y0387821D01*
X0279719Y0387783D02*
X0287987Y0387783D01*
X0287987Y0387745D02*
X0279719Y0387745D01*
X0279719Y0387707D02*
X0287987Y0387707D01*
X0287987Y0387669D02*
X0279719Y0387669D01*
X0279719Y0387631D02*
X0287987Y0387631D01*
X0287987Y0387593D02*
X0279719Y0387593D01*
X0279719Y0387555D02*
X0287987Y0387555D01*
X0287987Y0387517D02*
X0279719Y0387517D01*
X0279719Y0387480D02*
X0287987Y0387480D01*
X0287987Y0387442D02*
X0279719Y0387442D01*
X0279719Y0387404D02*
X0287987Y0387404D01*
X0287987Y0387366D02*
X0279719Y0387366D01*
X0279719Y0387328D02*
X0287987Y0387328D01*
X0287987Y0387290D02*
X0279719Y0387290D01*
X0279719Y0387252D02*
X0287987Y0387252D01*
X0287987Y0387214D02*
X0279719Y0387214D01*
X0279719Y0387177D02*
X0287987Y0387177D01*
X0287987Y0387139D02*
X0279719Y0387139D01*
X0279719Y0387101D02*
X0287987Y0387101D01*
X0287987Y0387063D02*
X0279719Y0387063D01*
X0279719Y0387025D02*
X0287987Y0387025D01*
X0287987Y0386987D02*
X0279719Y0386987D01*
X0279719Y0386949D02*
X0287987Y0386949D01*
X0287987Y0386911D02*
X0279719Y0386911D01*
X0279719Y0386873D02*
X0287987Y0386873D01*
X0287987Y0386836D02*
X0279719Y0386836D01*
X0279719Y0386798D02*
X0287987Y0386798D01*
X0287987Y0386760D02*
X0279719Y0386760D01*
X0279719Y0386722D02*
X0287987Y0386722D01*
X0287987Y0386684D02*
X0279719Y0386684D01*
X0279719Y0386646D02*
X0287987Y0386646D01*
X0287987Y0386608D02*
X0279719Y0386608D01*
X0279719Y0386570D02*
X0287987Y0386570D01*
X0287987Y0386533D02*
X0279719Y0386533D01*
X0279719Y0386495D02*
X0287987Y0386495D01*
X0287987Y0386457D02*
X0279719Y0386457D01*
X0279719Y0386419D02*
X0287987Y0386419D01*
X0287987Y0386381D02*
X0279719Y0386381D01*
X0279719Y0386343D02*
X0287987Y0386343D01*
X0287987Y0386305D02*
X0279719Y0386305D01*
X0279719Y0386267D02*
X0287987Y0386267D01*
X0287987Y0386230D02*
X0279719Y0386230D01*
X0279719Y0386192D02*
X0287987Y0386192D01*
X0287987Y0386154D02*
X0279719Y0386154D01*
X0279719Y0386116D02*
X0287987Y0386116D01*
X0287987Y0386078D02*
X0279719Y0386078D01*
X0279719Y0386040D02*
X0287987Y0386040D01*
X0287987Y0386002D02*
X0279719Y0386002D01*
X0279719Y0385964D02*
X0287987Y0385964D01*
X0287987Y0385926D02*
X0279719Y0385926D01*
X0279719Y0385889D02*
X0287987Y0385889D01*
X0287987Y0385851D02*
X0279719Y0385851D01*
X0279719Y0385813D02*
X0287987Y0385813D01*
X0287987Y0385775D02*
X0279719Y0385775D01*
X0279719Y0385737D02*
X0287987Y0385737D01*
X0287987Y0385699D02*
X0279719Y0385699D01*
X0279719Y0385661D02*
X0287987Y0385661D01*
X0287987Y0385623D02*
X0279719Y0385623D01*
X0279719Y0385586D02*
X0287987Y0385586D01*
X0287987Y0385548D02*
X0279719Y0385548D01*
X0279719Y0385510D02*
X0287987Y0385510D01*
X0287987Y0385472D02*
X0279719Y0385472D01*
X0279719Y0385434D02*
X0287987Y0385434D01*
X0287987Y0385396D02*
X0279719Y0385396D01*
X0279719Y0385358D02*
X0287987Y0385358D01*
X0287987Y0385320D02*
X0279719Y0385320D01*
X0279719Y0385282D02*
X0287987Y0385282D01*
X0287987Y0385245D02*
X0279719Y0385245D01*
X0279719Y0385207D02*
X0287987Y0385207D01*
X0287987Y0385169D02*
X0279719Y0385169D01*
X0279719Y0385131D02*
X0287987Y0385131D01*
X0287987Y0385093D02*
X0279719Y0385093D01*
X0279719Y0385055D02*
X0287987Y0385055D01*
X0287987Y0385017D02*
X0279719Y0385017D01*
X0279719Y0384979D02*
X0287987Y0384979D01*
X0287987Y0384942D02*
X0279719Y0384942D01*
X0279719Y0384904D02*
X0287987Y0384904D01*
X0287987Y0384866D02*
X0279719Y0384866D01*
X0279719Y0384828D02*
X0287987Y0384828D01*
X0287987Y0384790D02*
X0279719Y0384790D01*
X0279719Y0384752D02*
X0287987Y0384752D01*
X0287987Y0384714D02*
X0279719Y0384714D01*
X0279719Y0384676D02*
X0287987Y0384676D01*
X0287987Y0384638D02*
X0279719Y0384638D01*
X0279719Y0384601D02*
X0287987Y0384601D01*
X0287987Y0384563D02*
X0279719Y0384563D01*
X0279719Y0384525D02*
X0287987Y0384525D01*
X0287987Y0384487D02*
X0279719Y0384487D01*
X0279719Y0384449D02*
X0287987Y0384449D01*
X0287987Y0384411D02*
X0279719Y0384411D01*
X0279719Y0384373D02*
X0287987Y0384373D01*
X0287987Y0384335D02*
X0279719Y0384335D01*
X0279719Y0384298D02*
X0287987Y0384298D01*
X0287987Y0384260D02*
X0279719Y0384260D01*
X0279719Y0384222D02*
X0287987Y0384222D01*
X0287987Y0384184D02*
X0279719Y0384184D01*
X0279719Y0384146D02*
X0287987Y0384146D01*
X0287987Y0384108D02*
X0279719Y0384108D01*
X0279719Y0384070D02*
X0287987Y0384070D01*
X0287987Y0384032D02*
X0279719Y0384032D01*
X0279719Y0383995D02*
X0287987Y0383995D01*
X0287987Y0383957D02*
X0279719Y0383957D01*
X0279719Y0383919D02*
X0287987Y0383919D01*
X0287987Y0383881D02*
X0279719Y0383881D01*
X0279719Y0383843D02*
X0287987Y0383843D01*
X0287987Y0383805D02*
X0279719Y0383805D01*
X0279719Y0383767D02*
X0287987Y0383767D01*
X0287987Y0383729D02*
X0279719Y0383729D01*
X0279719Y0383691D02*
X0287987Y0383691D01*
X0287987Y0383654D02*
X0279719Y0383654D01*
X0279719Y0383616D02*
X0287987Y0383616D01*
X0287987Y0383578D02*
X0279719Y0383578D01*
X0279719Y0383540D02*
X0287987Y0383540D01*
X0287987Y0383502D02*
X0279719Y0383502D01*
X0279719Y0383464D02*
X0287987Y0383464D01*
X0287987Y0383426D02*
X0279719Y0383426D01*
X0279719Y0383388D02*
X0287987Y0383388D01*
X0287987Y0383351D02*
X0279719Y0383351D01*
X0279719Y0383313D02*
X0287987Y0383313D01*
X0287987Y0383275D02*
X0279719Y0383275D01*
X0279719Y0383237D02*
X0287987Y0383237D01*
X0287987Y0383199D02*
X0279719Y0383199D01*
X0279719Y0383161D02*
X0287987Y0383161D01*
X0287987Y0383123D02*
X0279719Y0383123D01*
X0279719Y0383085D02*
X0287987Y0383085D01*
X0287987Y0383047D02*
X0279719Y0383047D01*
X0279719Y0383010D02*
X0287987Y0383010D01*
X0287987Y0382972D02*
X0279719Y0382972D01*
X0279719Y0382934D02*
X0287987Y0382934D01*
X0287987Y0382896D02*
X0279719Y0382896D01*
X0279719Y0382858D02*
X0287987Y0382858D01*
X0287987Y0382820D02*
X0279719Y0382820D01*
X0279719Y0382782D02*
X0287987Y0382782D01*
X0287987Y0382744D02*
X0279719Y0382744D01*
X0279719Y0382707D02*
X0287987Y0382707D01*
X0287987Y0382669D02*
X0279719Y0382669D01*
X0279719Y0382631D02*
X0287987Y0382631D01*
X0287987Y0382593D02*
X0279719Y0382593D01*
X0279719Y0382555D02*
X0287987Y0382555D01*
X0287987Y0382517D02*
X0279719Y0382517D01*
X0279719Y0382479D02*
X0287987Y0382479D01*
X0287987Y0382441D02*
X0279719Y0382441D01*
X0279719Y0382403D02*
X0287987Y0382403D01*
X0287987Y0382366D02*
X0279719Y0382366D01*
X0279719Y0382328D02*
X0287987Y0382328D01*
X0287987Y0370111D02*
X0279719Y0370111D01*
X0279719Y0364600D01*
X0287987Y0364600D01*
X0287987Y0370111D01*
X0287987Y0370092D02*
X0279719Y0370092D01*
X0279719Y0370054D02*
X0287987Y0370054D01*
X0287987Y0370016D02*
X0279719Y0370016D01*
X0279719Y0369978D02*
X0287987Y0369978D01*
X0287987Y0369941D02*
X0279719Y0369941D01*
X0279719Y0369903D02*
X0287987Y0369903D01*
X0287987Y0369865D02*
X0279719Y0369865D01*
X0279719Y0369827D02*
X0287987Y0369827D01*
X0287987Y0369789D02*
X0279719Y0369789D01*
X0279719Y0369751D02*
X0287987Y0369751D01*
X0287987Y0369713D02*
X0279719Y0369713D01*
X0279719Y0369675D02*
X0287987Y0369675D01*
X0287987Y0369637D02*
X0279719Y0369637D01*
X0279719Y0369600D02*
X0287987Y0369600D01*
X0287987Y0369562D02*
X0279719Y0369562D01*
X0279719Y0369524D02*
X0287987Y0369524D01*
X0287987Y0369486D02*
X0279719Y0369486D01*
X0279719Y0369448D02*
X0287987Y0369448D01*
X0287987Y0369410D02*
X0279719Y0369410D01*
X0279719Y0369372D02*
X0287987Y0369372D01*
X0287987Y0369334D02*
X0279719Y0369334D01*
X0279719Y0369297D02*
X0287987Y0369297D01*
X0287987Y0369259D02*
X0279719Y0369259D01*
X0279719Y0369221D02*
X0287987Y0369221D01*
X0287987Y0369183D02*
X0279719Y0369183D01*
X0279719Y0369145D02*
X0287987Y0369145D01*
X0287987Y0369107D02*
X0279719Y0369107D01*
X0279719Y0369069D02*
X0287987Y0369069D01*
X0287987Y0369031D02*
X0279719Y0369031D01*
X0279719Y0368993D02*
X0287987Y0368993D01*
X0287987Y0368956D02*
X0279719Y0368956D01*
X0279719Y0368918D02*
X0287987Y0368918D01*
X0287987Y0368880D02*
X0279719Y0368880D01*
X0279719Y0368842D02*
X0287987Y0368842D01*
X0287987Y0368804D02*
X0279719Y0368804D01*
X0279719Y0368766D02*
X0287987Y0368766D01*
X0287987Y0368728D02*
X0279719Y0368728D01*
X0279719Y0368690D02*
X0287987Y0368690D01*
X0287987Y0368653D02*
X0279719Y0368653D01*
X0279719Y0368615D02*
X0287987Y0368615D01*
X0287987Y0368577D02*
X0279719Y0368577D01*
X0279719Y0368539D02*
X0287987Y0368539D01*
X0287987Y0368501D02*
X0279719Y0368501D01*
X0279719Y0368463D02*
X0287987Y0368463D01*
X0287987Y0368425D02*
X0279719Y0368425D01*
X0279719Y0368387D02*
X0287987Y0368387D01*
X0287987Y0368349D02*
X0279719Y0368349D01*
X0279719Y0368312D02*
X0287987Y0368312D01*
X0287987Y0368274D02*
X0279719Y0368274D01*
X0279719Y0368236D02*
X0287987Y0368236D01*
X0287987Y0368198D02*
X0279719Y0368198D01*
X0279719Y0368160D02*
X0287987Y0368160D01*
X0287987Y0368122D02*
X0279719Y0368122D01*
X0279719Y0368084D02*
X0287987Y0368084D01*
X0287987Y0368046D02*
X0279719Y0368046D01*
X0279719Y0368009D02*
X0287987Y0368009D01*
X0287987Y0367971D02*
X0279719Y0367971D01*
X0279719Y0367933D02*
X0287987Y0367933D01*
X0287987Y0367895D02*
X0279719Y0367895D01*
X0279719Y0367857D02*
X0287987Y0367857D01*
X0287987Y0367819D02*
X0279719Y0367819D01*
X0279719Y0367781D02*
X0287987Y0367781D01*
X0287987Y0367743D02*
X0279719Y0367743D01*
X0279719Y0367706D02*
X0287987Y0367706D01*
X0287987Y0367668D02*
X0279719Y0367668D01*
X0279719Y0367630D02*
X0287987Y0367630D01*
X0287987Y0367592D02*
X0279719Y0367592D01*
X0279719Y0367554D02*
X0287987Y0367554D01*
X0287987Y0367516D02*
X0279719Y0367516D01*
X0279719Y0367478D02*
X0287987Y0367478D01*
X0287987Y0367440D02*
X0279719Y0367440D01*
X0279719Y0367402D02*
X0287987Y0367402D01*
X0287987Y0367365D02*
X0279719Y0367365D01*
X0279719Y0367327D02*
X0287987Y0367327D01*
X0287987Y0367289D02*
X0279719Y0367289D01*
X0279719Y0367251D02*
X0287987Y0367251D01*
X0287987Y0367213D02*
X0279719Y0367213D01*
X0279719Y0367175D02*
X0287987Y0367175D01*
X0287987Y0367137D02*
X0279719Y0367137D01*
X0279719Y0367099D02*
X0287987Y0367099D01*
X0287987Y0367062D02*
X0279719Y0367062D01*
X0279719Y0367024D02*
X0287987Y0367024D01*
X0287987Y0366986D02*
X0279719Y0366986D01*
X0279719Y0366948D02*
X0287987Y0366948D01*
X0287987Y0366910D02*
X0279719Y0366910D01*
X0279719Y0366872D02*
X0287987Y0366872D01*
X0287987Y0366834D02*
X0279719Y0366834D01*
X0279719Y0366796D02*
X0287987Y0366796D01*
X0287987Y0366758D02*
X0279719Y0366758D01*
X0279719Y0366721D02*
X0287987Y0366721D01*
X0287987Y0366683D02*
X0279719Y0366683D01*
X0279719Y0366645D02*
X0287987Y0366645D01*
X0287987Y0366607D02*
X0279719Y0366607D01*
X0279719Y0366569D02*
X0287987Y0366569D01*
X0287987Y0366531D02*
X0279719Y0366531D01*
X0279719Y0366493D02*
X0287987Y0366493D01*
X0287987Y0366455D02*
X0279719Y0366455D01*
X0279719Y0366418D02*
X0287987Y0366418D01*
X0287987Y0366380D02*
X0279719Y0366380D01*
X0279719Y0366342D02*
X0287987Y0366342D01*
X0287987Y0366304D02*
X0279719Y0366304D01*
X0279719Y0366266D02*
X0287987Y0366266D01*
X0287987Y0366228D02*
X0279719Y0366228D01*
X0279719Y0366190D02*
X0287987Y0366190D01*
X0287987Y0366152D02*
X0279719Y0366152D01*
X0279719Y0366114D02*
X0287987Y0366114D01*
X0287987Y0366077D02*
X0279719Y0366077D01*
X0279719Y0366039D02*
X0287987Y0366039D01*
X0287987Y0366001D02*
X0279719Y0366001D01*
X0279719Y0365963D02*
X0287987Y0365963D01*
X0287987Y0365925D02*
X0279719Y0365925D01*
X0279719Y0365887D02*
X0287987Y0365887D01*
X0287987Y0365849D02*
X0279719Y0365849D01*
X0279719Y0365811D02*
X0287987Y0365811D01*
X0287987Y0365774D02*
X0279719Y0365774D01*
X0279719Y0365736D02*
X0287987Y0365736D01*
X0287987Y0365698D02*
X0279719Y0365698D01*
X0279719Y0365660D02*
X0287987Y0365660D01*
X0287987Y0365622D02*
X0279719Y0365622D01*
X0279719Y0365584D02*
X0287987Y0365584D01*
X0287987Y0365546D02*
X0279719Y0365546D01*
X0279719Y0365508D02*
X0287987Y0365508D01*
X0287987Y0365471D02*
X0279719Y0365471D01*
X0279719Y0365433D02*
X0287987Y0365433D01*
X0287987Y0365395D02*
X0279719Y0365395D01*
X0279719Y0365357D02*
X0287987Y0365357D01*
X0287987Y0365319D02*
X0279719Y0365319D01*
X0279719Y0365281D02*
X0287987Y0365281D01*
X0287987Y0365243D02*
X0279719Y0365243D01*
X0279719Y0365205D02*
X0287987Y0365205D01*
X0287987Y0365167D02*
X0279719Y0365167D01*
X0279719Y0365130D02*
X0287987Y0365130D01*
X0287987Y0365092D02*
X0279719Y0365092D01*
X0279719Y0365054D02*
X0287987Y0365054D01*
X0287987Y0365016D02*
X0279719Y0365016D01*
X0279719Y0364978D02*
X0287987Y0364978D01*
X0287987Y0364940D02*
X0279719Y0364940D01*
X0279719Y0364902D02*
X0287987Y0364902D01*
X0287987Y0364864D02*
X0279719Y0364864D01*
X0279719Y0364827D02*
X0287987Y0364827D01*
X0287987Y0364789D02*
X0279719Y0364789D01*
X0279719Y0364751D02*
X0287987Y0364751D01*
X0287987Y0364713D02*
X0279719Y0364713D01*
X0279719Y0364675D02*
X0287987Y0364675D01*
X0287987Y0364637D02*
X0279719Y0364637D01*
D13*
X0293023Y0323855D02*
X0301297Y0323855D01*
X0301297Y0291959D01*
X0293023Y0291959D01*
X0293023Y0323855D01*
X0293023Y0300232D02*
X0301297Y0300232D01*
X0301297Y0308505D02*
X0293023Y0308505D01*
X0293023Y0316778D02*
X0301297Y0316778D01*
X0314283Y0323855D02*
X0322557Y0323855D01*
X0322557Y0291959D01*
X0314283Y0291959D01*
X0314283Y0323855D01*
X0314283Y0300232D02*
X0322557Y0300232D01*
X0322557Y0308505D02*
X0314283Y0308505D01*
X0314283Y0316778D02*
X0322557Y0316778D01*
X0452354Y0289990D02*
X0460628Y0289990D01*
X0452354Y0289990D02*
X0452354Y0321886D01*
X0460628Y0321886D01*
X0460628Y0289990D01*
X0460628Y0298263D02*
X0452354Y0298263D01*
X0452354Y0306536D02*
X0460628Y0306536D01*
X0460628Y0314809D02*
X0452354Y0314809D01*
X0473614Y0289990D02*
X0481888Y0289990D01*
X0473614Y0289990D02*
X0473614Y0321886D01*
X0481888Y0321886D01*
X0481888Y0289990D01*
X0481888Y0298263D02*
X0473614Y0298263D01*
X0473614Y0306536D02*
X0481888Y0306536D01*
X0481888Y0314809D02*
X0473614Y0314809D01*
D14*
X0392199Y0313458D03*
D15*
X0382199Y0313458D03*
X0382199Y0323458D03*
X0382199Y0333458D03*
X0392199Y0333458D03*
X0392199Y0323458D03*
D16*
X0270664Y0269915D03*
X0270664Y0279915D03*
X0270664Y0289915D03*
X0270664Y0299915D03*
X0270664Y0309915D03*
X0270664Y0319915D03*
X0296254Y0272670D03*
X0306254Y0272670D03*
X0316254Y0272670D03*
X0326254Y0272670D03*
X0336254Y0272670D03*
X0346254Y0272670D03*
D17*
X0462790Y0392749D03*
X0465152Y0392749D03*
D18*
X0471254Y0338025D03*
X0314562Y0341568D03*
D19*
X0324404Y0337828D03*
X0324404Y0345308D03*
X0461412Y0341765D03*
X0461412Y0334285D03*
D20*
X0318302Y0475033D03*
X0317908Y0484088D03*
X0319483Y0490781D03*
X0295861Y0486450D03*
X0295861Y0478576D03*
X0293499Y0496293D03*
X0282869Y0495899D03*
X0270664Y0492749D03*
X0270664Y0484482D03*
X0270664Y0476214D03*
X0257278Y0346686D03*
X0257672Y0337631D03*
D21*
X0290787Y0337831D03*
X0315687Y0354031D03*
X0290487Y0371731D03*
X0307887Y0396631D03*
X0313587Y0408931D03*
X0309687Y0414031D03*
X0304587Y0412831D03*
X0303987Y0417931D03*
X0294987Y0414931D03*
X0289287Y0409831D03*
X0293787Y0432331D03*
X0301587Y0441331D03*
X0309687Y0432331D03*
X0313587Y0435931D03*
X0318987Y0432331D03*
X0335487Y0438031D03*
X0340587Y0434731D03*
X0331887Y0450331D03*
X0313887Y0450031D03*
X0298287Y0458731D03*
X0281187Y0448531D03*
X0325287Y0411631D03*
X0328587Y0403231D03*
X0379887Y0445831D03*
X0395487Y0443431D03*
X0360687Y0460231D03*
X0385887Y0410431D03*
X0407487Y0399931D03*
X0389787Y0356131D03*
X0463587Y0369031D03*
X0471987Y0381931D03*
X0477087Y0389431D03*
X0482187Y0378031D03*
X0525087Y0390931D03*
X0514587Y0495931D03*
X0514587Y0505831D03*
X0396387Y0540331D03*
X0389187Y0645331D03*
X0150087Y0387631D03*
X0211287Y0374431D03*
X0252687Y0376231D03*
X0386787Y0242131D03*
X0385587Y0137431D03*
X0634887Y0382831D03*
M02*
