G75*
%MOIN*%
%OFA0B0*%
%FSLAX25Y25*%
%IPPOS*%
%LPD*%
%AMOC8*
5,1,8,0,0,1.08239X$1,22.5*
%
%ADD10C,0.05937*%
%ADD11C,0.01956*%
%ADD12C,0.07874*%
%ADD13R,0.07400X0.07400*%
%ADD14OC8,0.07400*%
%ADD15R,0.06496X0.06496*%
%ADD16C,0.06496*%
%ADD17C,0.07400*%
%ADD18R,0.02362X0.02362*%
%ADD19R,0.08268X0.05512*%
%ADD20C,0.01811*%
%ADD21R,0.08858X0.11417*%
%ADD22R,0.09055X0.03937*%
%ADD23C,0.05362*%
%ADD24C,0.00600*%
%ADD25C,0.04500*%
%ADD26C,0.01800*%
D10*
X0442518Y0377631D02*
X0448455Y0377631D01*
X0448455Y0387631D02*
X0442518Y0387631D01*
D11*
X0471300Y0370256D02*
X0471300Y0367960D01*
X0467666Y0367960D01*
X0467666Y0370256D01*
X0471300Y0370256D01*
X0471300Y0369915D02*
X0467666Y0369915D01*
X0467666Y0363208D02*
X0467666Y0360912D01*
X0467666Y0363208D02*
X0471300Y0363208D01*
X0471300Y0360912D01*
X0467666Y0360912D01*
X0467666Y0362867D02*
X0471300Y0362867D01*
X0487646Y0379606D02*
X0489942Y0379606D01*
X0489942Y0375972D01*
X0487646Y0375972D01*
X0487646Y0379606D01*
X0487646Y0377927D02*
X0489942Y0377927D01*
X0494693Y0375972D02*
X0496989Y0375972D01*
X0494693Y0375972D02*
X0494693Y0379606D01*
X0496989Y0379606D01*
X0496989Y0375972D01*
X0496989Y0377927D02*
X0494693Y0377927D01*
X0494693Y0384239D02*
X0496989Y0384239D01*
X0494693Y0384239D02*
X0494693Y0387873D01*
X0496989Y0387873D01*
X0496989Y0384239D01*
X0496989Y0386194D02*
X0494693Y0386194D01*
X0489942Y0387873D02*
X0487646Y0387873D01*
X0489942Y0387873D02*
X0489942Y0384239D01*
X0487646Y0384239D01*
X0487646Y0387873D01*
X0487646Y0386194D02*
X0489942Y0386194D01*
D12*
X0481688Y0290190D02*
X0473814Y0290190D01*
X0473814Y0321686D01*
X0481688Y0321686D01*
X0481688Y0290190D01*
X0481688Y0298063D02*
X0473814Y0298063D01*
X0473814Y0305936D02*
X0481688Y0305936D01*
X0481688Y0313809D02*
X0473814Y0313809D01*
X0473814Y0321682D02*
X0481688Y0321682D01*
X0460428Y0290190D02*
X0452554Y0290190D01*
X0452554Y0321686D01*
X0460428Y0321686D01*
X0460428Y0290190D01*
X0460428Y0298063D02*
X0452554Y0298063D01*
X0452554Y0305936D02*
X0460428Y0305936D01*
X0460428Y0313809D02*
X0452554Y0313809D01*
X0452554Y0321682D02*
X0460428Y0321682D01*
X0322357Y0323655D02*
X0314483Y0323655D01*
X0322357Y0323655D02*
X0322357Y0292159D01*
X0314483Y0292159D01*
X0314483Y0323655D01*
X0314483Y0300032D02*
X0322357Y0300032D01*
X0322357Y0307905D02*
X0314483Y0307905D01*
X0314483Y0315778D02*
X0322357Y0315778D01*
X0322357Y0323651D02*
X0314483Y0323651D01*
X0301097Y0323655D02*
X0293223Y0323655D01*
X0301097Y0323655D02*
X0301097Y0292159D01*
X0293223Y0292159D01*
X0293223Y0323655D01*
X0293223Y0300032D02*
X0301097Y0300032D01*
X0301097Y0307905D02*
X0293223Y0307905D01*
X0293223Y0315778D02*
X0301097Y0315778D01*
X0301097Y0323651D02*
X0293223Y0323651D01*
D13*
X0392199Y0313458D03*
D14*
X0382199Y0313458D03*
X0382199Y0323458D03*
X0382199Y0333458D03*
X0392199Y0333458D03*
X0392199Y0323458D03*
D15*
X0449010Y0354560D03*
X0508066Y0425820D03*
D16*
X0508066Y0435820D03*
X0508066Y0445820D03*
X0508066Y0455820D03*
X0508066Y0465820D03*
X0508066Y0475820D03*
X0508066Y0485820D03*
X0508066Y0495820D03*
X0508066Y0505820D03*
X0508066Y0515820D03*
X0449010Y0364560D03*
D17*
X0270664Y0269915D03*
X0270664Y0279915D03*
X0270664Y0289915D03*
X0270664Y0299915D03*
X0270664Y0309915D03*
X0270664Y0319915D03*
X0296254Y0272670D03*
X0306254Y0272670D03*
X0316254Y0272670D03*
X0326254Y0272670D03*
X0336254Y0272670D03*
X0346254Y0272670D03*
D18*
X0462790Y0392749D03*
X0465152Y0392749D03*
D19*
X0319680Y0385072D03*
X0319680Y0367356D03*
X0283853Y0367356D03*
X0283853Y0385072D03*
D20*
X0336254Y0321431D02*
X0336254Y0319619D01*
X0332632Y0319619D01*
X0332632Y0321431D01*
X0336254Y0321431D01*
X0336254Y0321429D02*
X0332632Y0321429D01*
X0332632Y0313911D02*
X0332632Y0312099D01*
X0332632Y0313911D02*
X0336254Y0313911D01*
X0336254Y0312099D01*
X0332632Y0312099D01*
X0332632Y0313909D02*
X0336254Y0313909D01*
X0438144Y0311943D02*
X0438144Y0310131D01*
X0438144Y0311943D02*
X0441766Y0311943D01*
X0441766Y0310131D01*
X0438144Y0310131D01*
X0438144Y0311941D02*
X0441766Y0311941D01*
X0441766Y0317650D02*
X0441766Y0319462D01*
X0441766Y0317650D02*
X0438144Y0317650D01*
X0438144Y0319462D01*
X0441766Y0319462D01*
X0441766Y0319460D02*
X0438144Y0319460D01*
D21*
X0471254Y0338025D03*
X0314562Y0341568D03*
D22*
X0324404Y0337828D03*
X0324404Y0345308D03*
X0461412Y0341765D03*
X0461412Y0334285D03*
D23*
X0318302Y0475033D03*
X0317908Y0484088D03*
X0319483Y0490781D03*
X0295861Y0486450D03*
X0295861Y0478576D03*
X0293499Y0496293D03*
X0282869Y0495899D03*
X0270664Y0492749D03*
X0270664Y0484482D03*
X0270664Y0476214D03*
X0257278Y0346686D03*
X0257672Y0337631D03*
D24*
X0283853Y0367356D02*
X0283887Y0367531D01*
X0307887Y0367531D01*
X0307887Y0396631D01*
X0309087Y0399931D02*
X0298287Y0399931D01*
X0298287Y0458731D01*
X0313887Y0450031D02*
X0327687Y0450031D01*
X0331887Y0445831D01*
X0379887Y0445831D01*
X0394587Y0442531D02*
X0395487Y0443431D01*
X0394587Y0442531D02*
X0313587Y0442531D01*
X0312387Y0441331D01*
X0301587Y0441331D01*
X0303987Y0431131D02*
X0303987Y0417931D01*
X0304587Y0412831D02*
X0305187Y0412831D01*
X0331887Y0386131D01*
X0339387Y0386131D01*
X0387387Y0338131D01*
X0394287Y0338131D01*
X0396987Y0335431D01*
X0396987Y0318031D01*
X0392487Y0313531D01*
X0392199Y0313458D01*
X0392199Y0333458D02*
X0392187Y0333631D01*
X0388587Y0333631D01*
X0337287Y0384931D01*
X0319887Y0384931D01*
X0319680Y0385072D01*
X0319587Y0385231D01*
X0319587Y0389431D01*
X0309087Y0399931D01*
X0298287Y0399931D02*
X0298287Y0399631D01*
X0283887Y0385231D01*
X0283853Y0385072D01*
X0283887Y0384931D01*
X0290487Y0378331D01*
X0290487Y0371731D01*
X0307887Y0367531D02*
X0319587Y0367531D01*
X0319680Y0367356D01*
X0315687Y0354031D02*
X0324387Y0345331D01*
X0324404Y0345308D01*
X0314562Y0341568D02*
X0314487Y0341431D01*
X0314487Y0330631D01*
X0297387Y0313531D01*
X0297387Y0308131D01*
X0297160Y0307907D01*
X0318420Y0307907D02*
X0318687Y0308131D01*
X0323487Y0312931D01*
X0334287Y0312931D01*
X0334443Y0313005D01*
X0374787Y0352531D02*
X0438987Y0352531D01*
X0445287Y0358831D01*
X0452787Y0358831D01*
X0455787Y0355831D01*
X0455787Y0339331D01*
X0460587Y0334531D01*
X0461187Y0334531D01*
X0461412Y0334285D01*
X0471254Y0338025D02*
X0471387Y0337831D01*
X0471387Y0312331D01*
X0477687Y0306031D01*
X0477751Y0305938D01*
X0456491Y0305938D02*
X0456387Y0306031D01*
X0451587Y0310831D01*
X0440187Y0310831D01*
X0439955Y0311037D01*
X0389787Y0356131D02*
X0335787Y0410131D01*
X0335787Y0420031D01*
X0319887Y0435931D01*
X0313587Y0435931D01*
X0309687Y0432331D02*
X0309687Y0427231D01*
X0325287Y0411631D01*
X0328587Y0415231D02*
X0318987Y0424831D01*
X0318987Y0432331D01*
X0314187Y0441331D02*
X0303987Y0431131D01*
X0314187Y0441331D02*
X0336687Y0441331D01*
X0337887Y0440131D01*
X0396687Y0440131D01*
X0432087Y0475531D01*
X0507987Y0475531D01*
X0508066Y0475820D01*
X0508066Y0465820D02*
X0507987Y0465631D01*
X0480387Y0438031D01*
X0335487Y0438031D01*
X0340587Y0434731D02*
X0497187Y0434731D01*
X0507987Y0445531D01*
X0508066Y0445820D01*
X0489087Y0392731D02*
X0471987Y0392731D01*
X0471987Y0381931D01*
X0477087Y0389431D02*
X0480387Y0386131D01*
X0488787Y0386131D01*
X0488794Y0386056D01*
X0489087Y0392731D02*
X0495687Y0386131D01*
X0495841Y0386056D01*
X0495987Y0385831D01*
X0495987Y0378031D01*
X0495841Y0377789D01*
X0488794Y0377789D02*
X0488787Y0378031D01*
X0482187Y0378031D01*
X0471987Y0392731D02*
X0465387Y0392731D01*
X0465152Y0392749D01*
X0374787Y0352531D02*
X0313287Y0414031D01*
X0309687Y0414031D01*
X0294987Y0414931D02*
X0289887Y0414931D01*
X0252687Y0377731D01*
X0252687Y0376231D01*
X0328587Y0403231D02*
X0328587Y0415231D01*
D25*
X0325287Y0411631D03*
X0313587Y0408931D03*
X0309687Y0414031D03*
X0304587Y0412831D03*
X0303987Y0417931D03*
X0294987Y0414931D03*
X0289287Y0409831D03*
X0307887Y0396631D03*
X0328587Y0403231D03*
X0318987Y0432331D03*
X0313587Y0435931D03*
X0309687Y0432331D03*
X0301587Y0441331D03*
X0293787Y0432331D03*
X0281187Y0448531D03*
X0298287Y0458731D03*
X0313887Y0450031D03*
X0331887Y0450331D03*
X0335487Y0438031D03*
X0340587Y0434731D03*
X0360687Y0460231D03*
X0379887Y0445831D03*
X0395487Y0443431D03*
X0385887Y0410431D03*
X0407487Y0399931D03*
X0389787Y0356131D03*
X0463587Y0369031D03*
X0471987Y0381931D03*
X0477087Y0389431D03*
X0482187Y0378031D03*
X0525087Y0390931D03*
X0514587Y0495931D03*
X0514587Y0505831D03*
X0396387Y0540331D03*
X0389187Y0645331D03*
X0150087Y0387631D03*
X0211287Y0374431D03*
X0252687Y0376231D03*
X0290487Y0371731D03*
X0315687Y0354031D03*
X0290787Y0337831D03*
X0386787Y0242131D03*
X0385587Y0137431D03*
X0634887Y0382831D03*
D26*
X0525087Y0390931D02*
X0496587Y0362431D01*
X0470187Y0362431D01*
X0469483Y0362060D01*
X0468387Y0362131D01*
X0465087Y0362131D01*
X0459687Y0367531D01*
X0459687Y0372931D01*
X0445587Y0387031D01*
X0445587Y0387631D01*
X0445487Y0387631D01*
X0445487Y0392749D01*
X0462790Y0392749D01*
X0463587Y0369031D02*
X0469287Y0369031D01*
X0469483Y0369108D01*
X0469483Y0362060D02*
X0469287Y0361831D01*
X0469287Y0349831D01*
X0461487Y0342031D01*
X0461412Y0341765D01*
X0448887Y0354331D02*
X0449010Y0354560D01*
X0448887Y0354331D02*
X0440187Y0345631D01*
X0440187Y0318631D01*
X0439955Y0318556D01*
X0439287Y0318031D01*
X0429387Y0308131D01*
X0379887Y0308131D01*
X0367587Y0320431D01*
X0334587Y0320431D01*
X0334443Y0320525D01*
X0333987Y0321331D01*
X0333987Y0348031D01*
X0321687Y0360331D01*
X0276687Y0360331D01*
X0263187Y0346831D01*
X0257487Y0346831D01*
X0257278Y0346686D01*
X0257787Y0337831D02*
X0257672Y0337631D01*
X0257787Y0337831D02*
X0277887Y0357931D01*
X0320487Y0357931D01*
X0330687Y0347731D01*
X0330687Y0342931D01*
X0325587Y0337831D01*
X0324687Y0337831D01*
X0324404Y0337828D01*
X0508066Y0505820D02*
X0508287Y0505831D01*
X0514587Y0505831D01*
M02*
