G75*
%MOIN*%
%OFA0B0*%
%FSLAX25Y25*%
%IPPOS*%
%LPD*%
%AMOC8*
5,1,8,0,0,1.08239X$1,22.5*
%
%ADD10C,0.01600*%
%ADD11C,0.00600*%
%ADD12C,0.00500*%
%ADD13C,0.00400*%
%ADD14C,0.00000*%
%ADD15C,0.00472*%
%ADD16C,0.00787*%
%ADD17C,0.01181*%
%ADD18C,0.00800*%
%ADD19C,0.00300*%
D10*
X0248223Y0247867D02*
X0368302Y0247867D01*
X0368302Y0107016D01*
X0407672Y0106180D02*
X0407672Y0247867D01*
X0527751Y0247867D01*
X0527751Y0367946D01*
X0668602Y0367946D01*
X0669438Y0407316D02*
X0527751Y0407316D01*
X0527751Y0527395D01*
X0407672Y0527395D01*
X0407672Y0668247D01*
X0368302Y0669082D02*
X0368302Y0527395D01*
X0248223Y0527395D01*
X0248223Y0407316D01*
X0107371Y0407316D01*
X0106536Y0367946D02*
X0248223Y0367946D01*
X0248223Y0247867D01*
X0368301Y0107016D02*
X0367321Y0106552D01*
X0366352Y0106065D01*
X0365396Y0105554D01*
X0364452Y0105019D01*
X0363521Y0104462D01*
X0362605Y0103882D01*
X0361703Y0103280D01*
X0360816Y0102656D01*
X0359945Y0102010D01*
X0359089Y0101343D01*
X0358250Y0100656D01*
X0357429Y0099948D01*
X0356625Y0099220D01*
X0355839Y0098473D01*
X0355071Y0097707D01*
X0354323Y0096922D01*
X0353593Y0096119D01*
X0352884Y0095299D01*
X0352195Y0094461D01*
X0351527Y0093607D01*
X0350880Y0092736D01*
X0350255Y0091850D01*
X0349651Y0090949D01*
X0349070Y0090034D01*
X0348511Y0089104D01*
X0347975Y0088161D01*
X0347463Y0087206D01*
X0346974Y0086238D01*
X0346508Y0085258D01*
X0346067Y0084267D01*
X0345651Y0083266D01*
X0345259Y0082255D01*
X0344892Y0081234D01*
X0344550Y0080205D01*
X0344233Y0079168D01*
X0343942Y0078123D01*
X0343676Y0077071D01*
X0343436Y0076014D01*
X0343223Y0074950D01*
X0343035Y0073882D01*
X0342874Y0072810D01*
X0342739Y0071734D01*
X0342630Y0070655D01*
X0342548Y0069573D01*
X0342492Y0068490D01*
X0342463Y0067406D01*
X0342460Y0066322D01*
X0342484Y0065237D01*
X0342535Y0064154D01*
X0342612Y0063072D01*
X0342715Y0061993D01*
X0342845Y0060916D01*
X0343001Y0059843D01*
X0343184Y0058774D01*
X0343392Y0057709D01*
X0343627Y0056650D01*
X0343887Y0055598D01*
X0344173Y0054552D01*
X0344485Y0053513D01*
X0344822Y0052482D01*
X0345184Y0051460D01*
X0345571Y0050447D01*
X0345983Y0049443D01*
X0346420Y0048450D01*
X0346880Y0047468D01*
X0347364Y0046498D01*
X0347872Y0045540D01*
X0348404Y0044594D01*
X0348958Y0043662D01*
X0349535Y0042744D01*
X0350134Y0041840D01*
X0350755Y0040951D01*
X0351398Y0040077D01*
X0352062Y0039220D01*
X0352747Y0038379D01*
X0353452Y0037555D01*
X0354177Y0036749D01*
X0354922Y0035960D01*
X0355686Y0035190D01*
X0356468Y0034439D01*
X0357269Y0033708D01*
X0358087Y0032996D01*
X0358923Y0032304D01*
X0359775Y0031633D01*
X0360643Y0030984D01*
X0361527Y0030355D01*
X0362426Y0029749D01*
X0363340Y0029164D01*
X0364267Y0028603D01*
X0365209Y0028064D01*
X0366163Y0027548D01*
X0367129Y0027056D01*
X0368107Y0026588D01*
X0369097Y0026144D01*
X0370097Y0025724D01*
X0371107Y0025328D01*
X0372126Y0024958D01*
X0373154Y0024613D01*
X0382063Y0051895D01*
X0393477Y0051059D02*
X0400715Y0023221D01*
X0400714Y0023221D02*
X0401758Y0023530D01*
X0402793Y0023865D01*
X0403820Y0024225D01*
X0404837Y0024610D01*
X0405845Y0025020D01*
X0406843Y0025454D01*
X0407829Y0025913D01*
X0408805Y0026395D01*
X0409768Y0026902D01*
X0410718Y0027431D01*
X0411655Y0027984D01*
X0412578Y0028560D01*
X0413487Y0029158D01*
X0414382Y0029778D01*
X0415260Y0030419D01*
X0416123Y0031082D01*
X0416969Y0031766D01*
X0417798Y0032471D01*
X0418610Y0033195D01*
X0419404Y0033939D01*
X0420179Y0034703D01*
X0420935Y0035485D01*
X0421673Y0036285D01*
X0422390Y0037103D01*
X0423087Y0037939D01*
X0423763Y0038791D01*
X0424418Y0039660D01*
X0425052Y0040544D01*
X0425664Y0041443D01*
X0426254Y0042358D01*
X0426822Y0043286D01*
X0427366Y0044228D01*
X0427887Y0045183D01*
X0428385Y0046151D01*
X0428859Y0047130D01*
X0429309Y0048121D01*
X0429734Y0049122D01*
X0430135Y0050134D01*
X0430511Y0051155D01*
X0430862Y0052185D01*
X0431187Y0053223D01*
X0431487Y0054269D01*
X0431762Y0055322D01*
X0432010Y0056381D01*
X0432233Y0057446D01*
X0432429Y0058516D01*
X0432599Y0059591D01*
X0432743Y0060669D01*
X0432861Y0061751D01*
X0432952Y0062835D01*
X0433016Y0063921D01*
X0433054Y0065009D01*
X0433065Y0066097D01*
X0433049Y0067184D01*
X0433007Y0068272D01*
X0432939Y0069358D01*
X0432844Y0070441D01*
X0432722Y0071523D01*
X0432574Y0072601D01*
X0432399Y0073674D01*
X0432199Y0074744D01*
X0431972Y0075808D01*
X0431719Y0076866D01*
X0431441Y0077918D01*
X0431137Y0078963D01*
X0430807Y0080000D01*
X0430452Y0081028D01*
X0430072Y0082048D01*
X0429667Y0083058D01*
X0429238Y0084057D01*
X0428784Y0085046D01*
X0428307Y0086024D01*
X0427805Y0086989D01*
X0427280Y0087942D01*
X0426732Y0088882D01*
X0426161Y0089808D01*
X0425567Y0090720D01*
X0424952Y0091617D01*
X0424314Y0092499D01*
X0423656Y0093365D01*
X0422976Y0094215D01*
X0422276Y0095048D01*
X0421555Y0095863D01*
X0420815Y0096660D01*
X0420056Y0097439D01*
X0419277Y0098200D01*
X0418481Y0098941D01*
X0417666Y0099662D01*
X0416834Y0100363D01*
X0415985Y0101044D01*
X0415120Y0101703D01*
X0414239Y0102342D01*
X0413342Y0102958D01*
X0412431Y0103553D01*
X0411505Y0104124D01*
X0410566Y0104674D01*
X0409613Y0105200D01*
X0408648Y0105702D01*
X0407671Y0106181D01*
X0393477Y0051060D02*
X0393863Y0051177D01*
X0394247Y0051303D01*
X0394627Y0051438D01*
X0395004Y0051583D01*
X0395377Y0051737D01*
X0395746Y0051900D01*
X0396111Y0052072D01*
X0396472Y0052252D01*
X0396828Y0052442D01*
X0397180Y0052640D01*
X0397527Y0052847D01*
X0397868Y0053062D01*
X0398204Y0053285D01*
X0398535Y0053517D01*
X0398859Y0053756D01*
X0399178Y0054004D01*
X0399491Y0054259D01*
X0399797Y0054522D01*
X0400097Y0054792D01*
X0400390Y0055069D01*
X0400676Y0055354D01*
X0400956Y0055645D01*
X0401228Y0055943D01*
X0401492Y0056248D01*
X0401749Y0056559D01*
X0401999Y0056876D01*
X0402240Y0057200D01*
X0402474Y0057529D01*
X0402700Y0057863D01*
X0402917Y0058203D01*
X0403126Y0058549D01*
X0403326Y0058899D01*
X0403518Y0059254D01*
X0403701Y0059614D01*
X0403875Y0059978D01*
X0404040Y0060346D01*
X0404196Y0060718D01*
X0404343Y0061094D01*
X0404481Y0061474D01*
X0404610Y0061856D01*
X0404729Y0062242D01*
X0404838Y0062630D01*
X0404938Y0063021D01*
X0405029Y0063414D01*
X0405110Y0063810D01*
X0405181Y0064207D01*
X0405242Y0064606D01*
X0405294Y0065006D01*
X0405336Y0065408D01*
X0405368Y0065810D01*
X0405390Y0066213D01*
X0405402Y0066616D01*
X0405405Y0067020D01*
X0405397Y0067423D01*
X0405380Y0067827D01*
X0405353Y0068229D01*
X0405316Y0068631D01*
X0405269Y0069032D01*
X0405212Y0069431D01*
X0405146Y0069830D01*
X0405070Y0070226D01*
X0404984Y0070620D01*
X0404889Y0071012D01*
X0404784Y0071402D01*
X0404670Y0071789D01*
X0404546Y0072173D01*
X0404413Y0072554D01*
X0404270Y0072932D01*
X0404119Y0073306D01*
X0403958Y0073676D01*
X0403788Y0074042D01*
X0403610Y0074404D01*
X0403422Y0074761D01*
X0403226Y0075114D01*
X0403021Y0075462D01*
X0402808Y0075805D01*
X0402587Y0076142D01*
X0402357Y0076474D01*
X0402120Y0076800D01*
X0401874Y0077120D01*
X0401621Y0077435D01*
X0401360Y0077742D01*
X0401091Y0078044D01*
X0400816Y0078339D01*
X0400533Y0078627D01*
X0400243Y0078907D01*
X0399947Y0079181D01*
X0399643Y0079448D01*
X0399334Y0079707D01*
X0399018Y0079958D01*
X0398696Y0080201D01*
X0398369Y0080437D01*
X0398035Y0080664D01*
X0397696Y0080884D01*
X0397352Y0081095D01*
X0397003Y0081297D01*
X0396649Y0081491D01*
X0396291Y0081676D01*
X0395928Y0081852D01*
X0395560Y0082020D01*
X0395189Y0082178D01*
X0394814Y0082327D01*
X0394436Y0082467D01*
X0394054Y0082598D01*
X0393669Y0082719D01*
X0393281Y0082831D01*
X0392891Y0082933D01*
X0392498Y0083026D01*
X0392103Y0083109D01*
X0391706Y0083183D01*
X0391308Y0083246D01*
X0390908Y0083300D01*
X0390507Y0083345D01*
X0390104Y0083379D01*
X0389702Y0083404D01*
X0389298Y0083418D01*
X0388895Y0083423D01*
X0388491Y0083418D01*
X0388088Y0083403D01*
X0387685Y0083378D01*
X0387283Y0083344D01*
X0386882Y0083299D01*
X0386482Y0083245D01*
X0386084Y0083181D01*
X0385687Y0083107D01*
X0385292Y0083024D01*
X0384899Y0082931D01*
X0384509Y0082828D01*
X0384121Y0082716D01*
X0383736Y0082594D01*
X0383355Y0082464D01*
X0382976Y0082323D01*
X0382601Y0082174D01*
X0382230Y0082015D01*
X0381863Y0081848D01*
X0381500Y0081671D01*
X0381142Y0081486D01*
X0380788Y0081292D01*
X0380439Y0081089D01*
X0380095Y0080878D01*
X0379756Y0080659D01*
X0379423Y0080431D01*
X0379095Y0080195D01*
X0378774Y0079951D01*
X0378458Y0079700D01*
X0378149Y0079441D01*
X0377846Y0079174D01*
X0377549Y0078900D01*
X0377260Y0078619D01*
X0376977Y0078331D01*
X0376702Y0078036D01*
X0376433Y0077735D01*
X0376173Y0077427D01*
X0375920Y0077112D01*
X0375674Y0076792D01*
X0375437Y0076466D01*
X0375207Y0076133D01*
X0374986Y0075796D01*
X0374773Y0075453D01*
X0374569Y0075105D01*
X0374373Y0074752D01*
X0374186Y0074395D01*
X0374007Y0074033D01*
X0373838Y0073667D01*
X0373677Y0073296D01*
X0373526Y0072922D01*
X0373384Y0072544D01*
X0373251Y0072163D01*
X0373127Y0071779D01*
X0373013Y0071392D01*
X0372908Y0071002D01*
X0372813Y0070610D01*
X0372728Y0070216D01*
X0372652Y0069819D01*
X0372586Y0069421D01*
X0372530Y0069022D01*
X0372483Y0068621D01*
X0372446Y0068219D01*
X0372419Y0067816D01*
X0372402Y0067413D01*
X0372395Y0067009D01*
X0372398Y0066606D01*
X0372411Y0066202D01*
X0372433Y0065799D01*
X0372465Y0065397D01*
X0372507Y0064996D01*
X0372559Y0064596D01*
X0372621Y0064197D01*
X0372692Y0063800D01*
X0372773Y0063404D01*
X0372864Y0063011D01*
X0372964Y0062620D01*
X0373074Y0062232D01*
X0373194Y0061846D01*
X0373322Y0061464D01*
X0373460Y0061084D01*
X0373608Y0060709D01*
X0373764Y0060337D01*
X0373929Y0059969D01*
X0374104Y0059605D01*
X0374287Y0059245D01*
X0374479Y0058890D01*
X0374680Y0058540D01*
X0374889Y0058195D01*
X0375106Y0057855D01*
X0375332Y0057520D01*
X0375566Y0057191D01*
X0375807Y0056868D01*
X0376057Y0056551D01*
X0376314Y0056240D01*
X0376579Y0055936D01*
X0376851Y0055638D01*
X0377131Y0055346D01*
X0377417Y0055062D01*
X0377711Y0054785D01*
X0378011Y0054515D01*
X0378317Y0054252D01*
X0378630Y0053997D01*
X0378949Y0053750D01*
X0379274Y0053511D01*
X0379605Y0053279D01*
X0379941Y0053056D01*
X0380282Y0052841D01*
X0380629Y0052635D01*
X0380981Y0052437D01*
X0381337Y0052248D01*
X0381698Y0052067D01*
X0382063Y0051895D01*
X0051415Y0382141D02*
X0051532Y0381755D01*
X0051658Y0381371D01*
X0051793Y0380991D01*
X0051938Y0380614D01*
X0052092Y0380241D01*
X0052255Y0379872D01*
X0052427Y0379507D01*
X0052607Y0379146D01*
X0052797Y0378790D01*
X0052995Y0378438D01*
X0053202Y0378091D01*
X0053417Y0377750D01*
X0053640Y0377414D01*
X0053872Y0377083D01*
X0054111Y0376759D01*
X0054359Y0376440D01*
X0054614Y0376127D01*
X0054877Y0375821D01*
X0055147Y0375521D01*
X0055424Y0375228D01*
X0055709Y0374942D01*
X0056000Y0374662D01*
X0056298Y0374390D01*
X0056603Y0374126D01*
X0056914Y0373869D01*
X0057231Y0373619D01*
X0057555Y0373378D01*
X0057884Y0373144D01*
X0058218Y0372918D01*
X0058558Y0372701D01*
X0058904Y0372492D01*
X0059254Y0372292D01*
X0059609Y0372100D01*
X0059969Y0371917D01*
X0060333Y0371743D01*
X0060701Y0371578D01*
X0061073Y0371422D01*
X0061449Y0371275D01*
X0061829Y0371137D01*
X0062211Y0371008D01*
X0062597Y0370889D01*
X0062985Y0370780D01*
X0063376Y0370680D01*
X0063769Y0370589D01*
X0064165Y0370508D01*
X0064562Y0370437D01*
X0064961Y0370376D01*
X0065361Y0370324D01*
X0065763Y0370282D01*
X0066165Y0370250D01*
X0066568Y0370228D01*
X0066971Y0370216D01*
X0067375Y0370213D01*
X0067778Y0370221D01*
X0068182Y0370238D01*
X0068584Y0370265D01*
X0068986Y0370302D01*
X0069387Y0370349D01*
X0069786Y0370406D01*
X0070185Y0370472D01*
X0070581Y0370548D01*
X0070975Y0370634D01*
X0071367Y0370729D01*
X0071757Y0370834D01*
X0072144Y0370948D01*
X0072528Y0371072D01*
X0072909Y0371205D01*
X0073287Y0371348D01*
X0073661Y0371499D01*
X0074031Y0371660D01*
X0074397Y0371830D01*
X0074759Y0372008D01*
X0075116Y0372196D01*
X0075469Y0372392D01*
X0075817Y0372597D01*
X0076160Y0372810D01*
X0076497Y0373031D01*
X0076829Y0373261D01*
X0077155Y0373498D01*
X0077475Y0373744D01*
X0077790Y0373997D01*
X0078097Y0374258D01*
X0078399Y0374527D01*
X0078694Y0374802D01*
X0078982Y0375085D01*
X0079262Y0375375D01*
X0079536Y0375671D01*
X0079803Y0375975D01*
X0080062Y0376284D01*
X0080313Y0376600D01*
X0080556Y0376922D01*
X0080792Y0377249D01*
X0081019Y0377583D01*
X0081239Y0377922D01*
X0081450Y0378266D01*
X0081652Y0378615D01*
X0081846Y0378969D01*
X0082031Y0379327D01*
X0082207Y0379690D01*
X0082375Y0380058D01*
X0082533Y0380429D01*
X0082682Y0380804D01*
X0082822Y0381182D01*
X0082953Y0381564D01*
X0083074Y0381949D01*
X0083186Y0382337D01*
X0083288Y0382727D01*
X0083381Y0383120D01*
X0083464Y0383515D01*
X0083538Y0383912D01*
X0083601Y0384310D01*
X0083655Y0384710D01*
X0083700Y0385111D01*
X0083734Y0385514D01*
X0083759Y0385916D01*
X0083773Y0386320D01*
X0083778Y0386723D01*
X0083773Y0387127D01*
X0083758Y0387530D01*
X0083733Y0387933D01*
X0083699Y0388335D01*
X0083654Y0388736D01*
X0083600Y0389136D01*
X0083536Y0389534D01*
X0083462Y0389931D01*
X0083379Y0390326D01*
X0083286Y0390719D01*
X0083183Y0391109D01*
X0083071Y0391497D01*
X0082949Y0391882D01*
X0082819Y0392263D01*
X0082678Y0392642D01*
X0082529Y0393017D01*
X0082370Y0393388D01*
X0082203Y0393755D01*
X0082026Y0394118D01*
X0081841Y0394476D01*
X0081647Y0394830D01*
X0081444Y0395179D01*
X0081233Y0395523D01*
X0081014Y0395862D01*
X0080786Y0396195D01*
X0080550Y0396523D01*
X0080306Y0396844D01*
X0080055Y0397160D01*
X0079796Y0397469D01*
X0079529Y0397772D01*
X0079255Y0398069D01*
X0078974Y0398358D01*
X0078686Y0398641D01*
X0078391Y0398916D01*
X0078090Y0399185D01*
X0077782Y0399445D01*
X0077467Y0399698D01*
X0077147Y0399944D01*
X0076821Y0400181D01*
X0076488Y0400411D01*
X0076151Y0400632D01*
X0075808Y0400845D01*
X0075460Y0401049D01*
X0075107Y0401245D01*
X0074750Y0401432D01*
X0074388Y0401611D01*
X0074022Y0401780D01*
X0073651Y0401941D01*
X0073277Y0402092D01*
X0072899Y0402234D01*
X0072518Y0402367D01*
X0072134Y0402491D01*
X0071747Y0402605D01*
X0071357Y0402710D01*
X0070965Y0402805D01*
X0070571Y0402890D01*
X0070174Y0402966D01*
X0069776Y0403032D01*
X0069377Y0403088D01*
X0068976Y0403135D01*
X0068574Y0403172D01*
X0068171Y0403199D01*
X0067768Y0403216D01*
X0067364Y0403223D01*
X0066961Y0403220D01*
X0066557Y0403207D01*
X0066154Y0403185D01*
X0065752Y0403153D01*
X0065351Y0403111D01*
X0064951Y0403059D01*
X0064552Y0402997D01*
X0064155Y0402926D01*
X0063759Y0402845D01*
X0063366Y0402754D01*
X0062975Y0402654D01*
X0062587Y0402544D01*
X0062201Y0402424D01*
X0061819Y0402296D01*
X0061439Y0402158D01*
X0061064Y0402010D01*
X0060692Y0401854D01*
X0060324Y0401689D01*
X0059960Y0401514D01*
X0059600Y0401331D01*
X0059245Y0401139D01*
X0058895Y0400938D01*
X0058550Y0400729D01*
X0058210Y0400512D01*
X0057875Y0400286D01*
X0057546Y0400052D01*
X0057223Y0399811D01*
X0056906Y0399561D01*
X0056595Y0399304D01*
X0056291Y0399039D01*
X0055993Y0398767D01*
X0055701Y0398487D01*
X0055417Y0398201D01*
X0055140Y0397907D01*
X0054870Y0397607D01*
X0054607Y0397301D01*
X0054352Y0396988D01*
X0054105Y0396669D01*
X0053866Y0396344D01*
X0053634Y0396013D01*
X0053411Y0395677D01*
X0053196Y0395336D01*
X0052990Y0394989D01*
X0052792Y0394637D01*
X0052603Y0394281D01*
X0052422Y0393920D01*
X0052250Y0393555D01*
X0024968Y0402463D01*
X0023576Y0374903D02*
X0051415Y0382141D01*
X0023576Y0374903D02*
X0023885Y0373859D01*
X0024220Y0372824D01*
X0024580Y0371797D01*
X0024965Y0370780D01*
X0025375Y0369772D01*
X0025809Y0368774D01*
X0026268Y0367788D01*
X0026750Y0366812D01*
X0027257Y0365849D01*
X0027786Y0364899D01*
X0028339Y0363962D01*
X0028915Y0363039D01*
X0029513Y0362130D01*
X0030133Y0361235D01*
X0030774Y0360357D01*
X0031437Y0359494D01*
X0032121Y0358648D01*
X0032826Y0357819D01*
X0033550Y0357007D01*
X0034294Y0356213D01*
X0035058Y0355438D01*
X0035840Y0354682D01*
X0036640Y0353944D01*
X0037458Y0353227D01*
X0038294Y0352530D01*
X0039146Y0351854D01*
X0040015Y0351199D01*
X0040899Y0350565D01*
X0041798Y0349953D01*
X0042713Y0349363D01*
X0043641Y0348795D01*
X0044583Y0348251D01*
X0045538Y0347730D01*
X0046506Y0347232D01*
X0047485Y0346758D01*
X0048476Y0346308D01*
X0049477Y0345883D01*
X0050489Y0345482D01*
X0051510Y0345106D01*
X0052540Y0344755D01*
X0053578Y0344430D01*
X0054624Y0344130D01*
X0055677Y0343855D01*
X0056736Y0343607D01*
X0057801Y0343384D01*
X0058871Y0343188D01*
X0059946Y0343018D01*
X0061024Y0342874D01*
X0062106Y0342756D01*
X0063190Y0342665D01*
X0064276Y0342601D01*
X0065364Y0342563D01*
X0066452Y0342552D01*
X0067539Y0342568D01*
X0068627Y0342610D01*
X0069713Y0342678D01*
X0070796Y0342773D01*
X0071878Y0342895D01*
X0072956Y0343043D01*
X0074029Y0343218D01*
X0075099Y0343418D01*
X0076163Y0343645D01*
X0077221Y0343898D01*
X0078273Y0344176D01*
X0079318Y0344480D01*
X0080355Y0344810D01*
X0081383Y0345165D01*
X0082403Y0345545D01*
X0083413Y0345950D01*
X0084412Y0346379D01*
X0085401Y0346833D01*
X0086379Y0347310D01*
X0087344Y0347812D01*
X0088297Y0348337D01*
X0089237Y0348885D01*
X0090163Y0349456D01*
X0091075Y0350050D01*
X0091972Y0350665D01*
X0092854Y0351303D01*
X0093720Y0351961D01*
X0094570Y0352641D01*
X0095403Y0353341D01*
X0096218Y0354062D01*
X0097015Y0354802D01*
X0097794Y0355561D01*
X0098555Y0356340D01*
X0099296Y0357136D01*
X0100017Y0357951D01*
X0100718Y0358783D01*
X0101399Y0359632D01*
X0102058Y0360497D01*
X0102697Y0361378D01*
X0103313Y0362275D01*
X0103908Y0363186D01*
X0104479Y0364112D01*
X0105029Y0365051D01*
X0105555Y0366004D01*
X0106057Y0366969D01*
X0106536Y0367946D01*
X0107371Y0407317D02*
X0106907Y0408297D01*
X0106420Y0409266D01*
X0105909Y0410222D01*
X0105374Y0411166D01*
X0104817Y0412097D01*
X0104237Y0413013D01*
X0103635Y0413915D01*
X0103011Y0414802D01*
X0102365Y0415673D01*
X0101698Y0416529D01*
X0101011Y0417368D01*
X0100303Y0418189D01*
X0099575Y0418993D01*
X0098828Y0419779D01*
X0098062Y0420547D01*
X0097277Y0421295D01*
X0096474Y0422025D01*
X0095654Y0422734D01*
X0094816Y0423423D01*
X0093962Y0424091D01*
X0093091Y0424738D01*
X0092205Y0425363D01*
X0091304Y0425967D01*
X0090389Y0426548D01*
X0089459Y0427107D01*
X0088516Y0427643D01*
X0087561Y0428155D01*
X0086593Y0428644D01*
X0085613Y0429110D01*
X0084622Y0429551D01*
X0083621Y0429967D01*
X0082610Y0430359D01*
X0081589Y0430726D01*
X0080560Y0431068D01*
X0079523Y0431385D01*
X0078478Y0431676D01*
X0077426Y0431942D01*
X0076369Y0432182D01*
X0075305Y0432395D01*
X0074237Y0432583D01*
X0073165Y0432744D01*
X0072089Y0432879D01*
X0071010Y0432988D01*
X0069928Y0433070D01*
X0068845Y0433126D01*
X0067761Y0433155D01*
X0066677Y0433158D01*
X0065592Y0433134D01*
X0064509Y0433083D01*
X0063427Y0433006D01*
X0062348Y0432903D01*
X0061271Y0432773D01*
X0060198Y0432617D01*
X0059129Y0432434D01*
X0058064Y0432226D01*
X0057005Y0431991D01*
X0055953Y0431731D01*
X0054907Y0431445D01*
X0053868Y0431133D01*
X0052837Y0430796D01*
X0051815Y0430434D01*
X0050802Y0430047D01*
X0049798Y0429635D01*
X0048805Y0429198D01*
X0047823Y0428738D01*
X0046853Y0428254D01*
X0045895Y0427746D01*
X0044949Y0427214D01*
X0044017Y0426660D01*
X0043099Y0426083D01*
X0042195Y0425484D01*
X0041306Y0424863D01*
X0040432Y0424220D01*
X0039575Y0423556D01*
X0038734Y0422871D01*
X0037910Y0422166D01*
X0037104Y0421441D01*
X0036315Y0420696D01*
X0035545Y0419932D01*
X0034794Y0419150D01*
X0034063Y0418349D01*
X0033351Y0417531D01*
X0032659Y0416695D01*
X0031988Y0415843D01*
X0031339Y0414975D01*
X0030710Y0414091D01*
X0030104Y0413192D01*
X0029519Y0412278D01*
X0028958Y0411351D01*
X0028419Y0410409D01*
X0027903Y0409455D01*
X0027411Y0408489D01*
X0026943Y0407511D01*
X0026499Y0406521D01*
X0026079Y0405521D01*
X0025683Y0404511D01*
X0025313Y0403492D01*
X0024968Y0402464D01*
X0382497Y0724203D02*
X0375259Y0752042D01*
X0402819Y0750650D02*
X0393911Y0723368D01*
X0375259Y0752042D02*
X0374215Y0751733D01*
X0373180Y0751398D01*
X0372153Y0751038D01*
X0371136Y0750653D01*
X0370128Y0750243D01*
X0369130Y0749809D01*
X0368144Y0749350D01*
X0367168Y0748868D01*
X0366205Y0748361D01*
X0365255Y0747832D01*
X0364318Y0747279D01*
X0363395Y0746703D01*
X0362486Y0746105D01*
X0361591Y0745485D01*
X0360713Y0744844D01*
X0359850Y0744181D01*
X0359004Y0743497D01*
X0358175Y0742792D01*
X0357363Y0742068D01*
X0356569Y0741324D01*
X0355794Y0740560D01*
X0355038Y0739778D01*
X0354300Y0738978D01*
X0353583Y0738160D01*
X0352886Y0737324D01*
X0352210Y0736472D01*
X0351555Y0735603D01*
X0350921Y0734719D01*
X0350309Y0733820D01*
X0349719Y0732905D01*
X0349151Y0731977D01*
X0348607Y0731035D01*
X0348086Y0730080D01*
X0347588Y0729112D01*
X0347114Y0728133D01*
X0346664Y0727142D01*
X0346239Y0726141D01*
X0345838Y0725129D01*
X0345462Y0724108D01*
X0345111Y0723078D01*
X0344786Y0722040D01*
X0344486Y0720994D01*
X0344211Y0719941D01*
X0343963Y0718882D01*
X0343740Y0717817D01*
X0343544Y0716747D01*
X0343374Y0715672D01*
X0343230Y0714594D01*
X0343112Y0713512D01*
X0343021Y0712428D01*
X0342957Y0711342D01*
X0342919Y0710254D01*
X0342908Y0709166D01*
X0342924Y0708079D01*
X0342966Y0706991D01*
X0343034Y0705905D01*
X0343129Y0704822D01*
X0343251Y0703740D01*
X0343399Y0702662D01*
X0343574Y0701589D01*
X0343774Y0700519D01*
X0344001Y0699455D01*
X0344254Y0698397D01*
X0344532Y0697345D01*
X0344836Y0696300D01*
X0345166Y0695263D01*
X0345521Y0694235D01*
X0345901Y0693215D01*
X0346306Y0692205D01*
X0346735Y0691206D01*
X0347189Y0690217D01*
X0347666Y0689239D01*
X0348168Y0688274D01*
X0348693Y0687321D01*
X0349241Y0686381D01*
X0349812Y0685455D01*
X0350406Y0684543D01*
X0351021Y0683646D01*
X0351659Y0682764D01*
X0352317Y0681898D01*
X0352997Y0681048D01*
X0353697Y0680215D01*
X0354418Y0679400D01*
X0355158Y0678603D01*
X0355917Y0677824D01*
X0356696Y0677063D01*
X0357492Y0676322D01*
X0358307Y0675601D01*
X0359139Y0674900D01*
X0359988Y0674219D01*
X0360853Y0673560D01*
X0361734Y0672921D01*
X0362631Y0672305D01*
X0363542Y0671710D01*
X0364468Y0671139D01*
X0365407Y0670589D01*
X0366360Y0670063D01*
X0367325Y0669561D01*
X0368302Y0669082D01*
X0382497Y0724203D02*
X0382111Y0724086D01*
X0381727Y0723960D01*
X0381347Y0723825D01*
X0380970Y0723680D01*
X0380597Y0723526D01*
X0380228Y0723363D01*
X0379863Y0723191D01*
X0379502Y0723011D01*
X0379146Y0722821D01*
X0378794Y0722623D01*
X0378447Y0722416D01*
X0378106Y0722201D01*
X0377770Y0721978D01*
X0377439Y0721746D01*
X0377115Y0721507D01*
X0376796Y0721259D01*
X0376483Y0721004D01*
X0376177Y0720741D01*
X0375877Y0720471D01*
X0375584Y0720194D01*
X0375298Y0719909D01*
X0375018Y0719618D01*
X0374746Y0719320D01*
X0374482Y0719015D01*
X0374225Y0718704D01*
X0373975Y0718387D01*
X0373734Y0718063D01*
X0373500Y0717734D01*
X0373274Y0717400D01*
X0373057Y0717060D01*
X0372848Y0716714D01*
X0372648Y0716364D01*
X0372456Y0716009D01*
X0372273Y0715649D01*
X0372099Y0715285D01*
X0371934Y0714917D01*
X0371778Y0714545D01*
X0371631Y0714169D01*
X0371493Y0713789D01*
X0371364Y0713407D01*
X0371245Y0713021D01*
X0371136Y0712633D01*
X0371036Y0712242D01*
X0370945Y0711849D01*
X0370864Y0711453D01*
X0370793Y0711056D01*
X0370732Y0710657D01*
X0370680Y0710257D01*
X0370638Y0709855D01*
X0370606Y0709453D01*
X0370584Y0709050D01*
X0370572Y0708647D01*
X0370569Y0708243D01*
X0370577Y0707840D01*
X0370594Y0707436D01*
X0370621Y0707034D01*
X0370658Y0706632D01*
X0370705Y0706231D01*
X0370762Y0705832D01*
X0370828Y0705433D01*
X0370904Y0705037D01*
X0370990Y0704643D01*
X0371085Y0704251D01*
X0371190Y0703861D01*
X0371304Y0703474D01*
X0371428Y0703090D01*
X0371561Y0702709D01*
X0371704Y0702331D01*
X0371855Y0701957D01*
X0372016Y0701587D01*
X0372186Y0701221D01*
X0372364Y0700859D01*
X0372552Y0700502D01*
X0372748Y0700149D01*
X0372953Y0699801D01*
X0373166Y0699458D01*
X0373387Y0699121D01*
X0373617Y0698789D01*
X0373854Y0698463D01*
X0374100Y0698143D01*
X0374353Y0697828D01*
X0374614Y0697521D01*
X0374883Y0697219D01*
X0375158Y0696924D01*
X0375441Y0696636D01*
X0375731Y0696356D01*
X0376027Y0696082D01*
X0376331Y0695815D01*
X0376640Y0695556D01*
X0376956Y0695305D01*
X0377278Y0695062D01*
X0377605Y0694826D01*
X0377939Y0694599D01*
X0378278Y0694379D01*
X0378622Y0694168D01*
X0378971Y0693966D01*
X0379325Y0693772D01*
X0379683Y0693587D01*
X0380046Y0693411D01*
X0380414Y0693243D01*
X0380785Y0693085D01*
X0381160Y0692936D01*
X0381538Y0692796D01*
X0381920Y0692665D01*
X0382305Y0692544D01*
X0382693Y0692432D01*
X0383083Y0692330D01*
X0383476Y0692237D01*
X0383871Y0692154D01*
X0384268Y0692080D01*
X0384666Y0692017D01*
X0385066Y0691963D01*
X0385467Y0691918D01*
X0385870Y0691884D01*
X0386272Y0691859D01*
X0386676Y0691845D01*
X0387079Y0691840D01*
X0387483Y0691845D01*
X0387886Y0691860D01*
X0388289Y0691885D01*
X0388691Y0691919D01*
X0389092Y0691964D01*
X0389492Y0692018D01*
X0389890Y0692082D01*
X0390287Y0692156D01*
X0390682Y0692239D01*
X0391075Y0692332D01*
X0391465Y0692435D01*
X0391853Y0692547D01*
X0392238Y0692669D01*
X0392619Y0692799D01*
X0392998Y0692940D01*
X0393373Y0693089D01*
X0393744Y0693248D01*
X0394111Y0693415D01*
X0394474Y0693592D01*
X0394832Y0693777D01*
X0395186Y0693971D01*
X0395535Y0694174D01*
X0395879Y0694385D01*
X0396218Y0694604D01*
X0396551Y0694832D01*
X0396879Y0695068D01*
X0397200Y0695312D01*
X0397516Y0695563D01*
X0397825Y0695822D01*
X0398128Y0696089D01*
X0398425Y0696363D01*
X0398714Y0696644D01*
X0398997Y0696932D01*
X0399272Y0697227D01*
X0399541Y0697528D01*
X0399801Y0697836D01*
X0400054Y0698151D01*
X0400300Y0698471D01*
X0400537Y0698797D01*
X0400767Y0699130D01*
X0400988Y0699467D01*
X0401201Y0699810D01*
X0401405Y0700158D01*
X0401601Y0700511D01*
X0401788Y0700868D01*
X0401967Y0701230D01*
X0402136Y0701596D01*
X0402297Y0701967D01*
X0402448Y0702341D01*
X0402590Y0702719D01*
X0402723Y0703100D01*
X0402847Y0703484D01*
X0402961Y0703871D01*
X0403066Y0704261D01*
X0403161Y0704653D01*
X0403246Y0705047D01*
X0403322Y0705444D01*
X0403388Y0705842D01*
X0403444Y0706241D01*
X0403491Y0706642D01*
X0403528Y0707044D01*
X0403555Y0707447D01*
X0403572Y0707850D01*
X0403579Y0708254D01*
X0403576Y0708657D01*
X0403563Y0709061D01*
X0403541Y0709464D01*
X0403509Y0709866D01*
X0403467Y0710267D01*
X0403415Y0710667D01*
X0403353Y0711066D01*
X0403282Y0711463D01*
X0403201Y0711859D01*
X0403110Y0712252D01*
X0403010Y0712643D01*
X0402900Y0713031D01*
X0402780Y0713417D01*
X0402652Y0713799D01*
X0402514Y0714179D01*
X0402366Y0714554D01*
X0402210Y0714926D01*
X0402045Y0715294D01*
X0401870Y0715658D01*
X0401687Y0716018D01*
X0401495Y0716373D01*
X0401294Y0716723D01*
X0401085Y0717068D01*
X0400868Y0717408D01*
X0400642Y0717743D01*
X0400408Y0718072D01*
X0400167Y0718395D01*
X0399917Y0718712D01*
X0399660Y0719023D01*
X0399395Y0719327D01*
X0399123Y0719625D01*
X0398843Y0719917D01*
X0398557Y0720201D01*
X0398263Y0720478D01*
X0397963Y0720748D01*
X0397657Y0721011D01*
X0397344Y0721266D01*
X0397025Y0721513D01*
X0396700Y0721752D01*
X0396369Y0721984D01*
X0396033Y0722207D01*
X0395692Y0722422D01*
X0395345Y0722628D01*
X0394993Y0722826D01*
X0394637Y0723015D01*
X0394276Y0723196D01*
X0393911Y0723368D01*
X0402819Y0750649D02*
X0403847Y0750304D01*
X0404866Y0749934D01*
X0405876Y0749538D01*
X0406876Y0749118D01*
X0407866Y0748674D01*
X0408844Y0748206D01*
X0409810Y0747714D01*
X0410764Y0747198D01*
X0411706Y0746659D01*
X0412633Y0746098D01*
X0413547Y0745513D01*
X0414446Y0744907D01*
X0415330Y0744278D01*
X0416198Y0743629D01*
X0417050Y0742958D01*
X0417886Y0742266D01*
X0418704Y0741554D01*
X0419505Y0740823D01*
X0420287Y0740072D01*
X0421051Y0739302D01*
X0421796Y0738513D01*
X0422521Y0737707D01*
X0423226Y0736883D01*
X0423911Y0736042D01*
X0424575Y0735185D01*
X0425218Y0734311D01*
X0425839Y0733422D01*
X0426438Y0732518D01*
X0427015Y0731600D01*
X0427569Y0730668D01*
X0428101Y0729722D01*
X0428609Y0728764D01*
X0429093Y0727794D01*
X0429553Y0726812D01*
X0429990Y0725819D01*
X0430402Y0724815D01*
X0430789Y0723802D01*
X0431151Y0722780D01*
X0431488Y0721749D01*
X0431800Y0720710D01*
X0432086Y0719664D01*
X0432346Y0718612D01*
X0432581Y0717553D01*
X0432789Y0716488D01*
X0432972Y0715419D01*
X0433128Y0714346D01*
X0433258Y0713269D01*
X0433361Y0712190D01*
X0433438Y0711108D01*
X0433489Y0710025D01*
X0433513Y0708940D01*
X0433510Y0707856D01*
X0433481Y0706772D01*
X0433425Y0705689D01*
X0433343Y0704607D01*
X0433234Y0703528D01*
X0433099Y0702452D01*
X0432938Y0701380D01*
X0432750Y0700312D01*
X0432537Y0699248D01*
X0432297Y0698191D01*
X0432031Y0697139D01*
X0431740Y0696094D01*
X0431423Y0695057D01*
X0431081Y0694028D01*
X0430714Y0693007D01*
X0430322Y0691996D01*
X0429906Y0690995D01*
X0429465Y0690004D01*
X0428999Y0689024D01*
X0428510Y0688056D01*
X0427998Y0687101D01*
X0427462Y0686158D01*
X0426903Y0685228D01*
X0426322Y0684313D01*
X0425718Y0683412D01*
X0425093Y0682526D01*
X0424446Y0681655D01*
X0423778Y0680801D01*
X0423089Y0679963D01*
X0422380Y0679143D01*
X0421650Y0678340D01*
X0420902Y0677555D01*
X0420134Y0676789D01*
X0419348Y0676042D01*
X0418544Y0675314D01*
X0417723Y0674606D01*
X0416884Y0673919D01*
X0416028Y0673252D01*
X0415157Y0672606D01*
X0414270Y0671982D01*
X0413368Y0671380D01*
X0412452Y0670800D01*
X0411521Y0670243D01*
X0410577Y0669708D01*
X0409621Y0669197D01*
X0408652Y0668710D01*
X0407672Y0668246D01*
X0724558Y0393121D02*
X0724441Y0393507D01*
X0724315Y0393891D01*
X0724180Y0394271D01*
X0724035Y0394648D01*
X0723881Y0395021D01*
X0723718Y0395390D01*
X0723546Y0395755D01*
X0723366Y0396116D01*
X0723176Y0396472D01*
X0722978Y0396824D01*
X0722771Y0397171D01*
X0722556Y0397512D01*
X0722333Y0397848D01*
X0722101Y0398179D01*
X0721862Y0398503D01*
X0721614Y0398822D01*
X0721359Y0399135D01*
X0721096Y0399441D01*
X0720826Y0399741D01*
X0720549Y0400034D01*
X0720264Y0400320D01*
X0719973Y0400600D01*
X0719675Y0400872D01*
X0719370Y0401136D01*
X0719059Y0401393D01*
X0718742Y0401643D01*
X0718418Y0401884D01*
X0718089Y0402118D01*
X0717755Y0402344D01*
X0717415Y0402561D01*
X0717069Y0402770D01*
X0716719Y0402970D01*
X0716364Y0403162D01*
X0716004Y0403345D01*
X0715640Y0403519D01*
X0715272Y0403684D01*
X0714900Y0403840D01*
X0714524Y0403987D01*
X0714144Y0404125D01*
X0713762Y0404254D01*
X0713376Y0404373D01*
X0712988Y0404482D01*
X0712597Y0404582D01*
X0712204Y0404673D01*
X0711808Y0404754D01*
X0711411Y0404825D01*
X0711012Y0404886D01*
X0710612Y0404938D01*
X0710210Y0404980D01*
X0709808Y0405012D01*
X0709405Y0405034D01*
X0709002Y0405046D01*
X0708598Y0405049D01*
X0708195Y0405041D01*
X0707791Y0405024D01*
X0707389Y0404997D01*
X0706987Y0404960D01*
X0706586Y0404913D01*
X0706187Y0404856D01*
X0705788Y0404790D01*
X0705392Y0404714D01*
X0704998Y0404628D01*
X0704606Y0404533D01*
X0704216Y0404428D01*
X0703829Y0404314D01*
X0703445Y0404190D01*
X0703064Y0404057D01*
X0702686Y0403914D01*
X0702312Y0403763D01*
X0701942Y0403602D01*
X0701576Y0403432D01*
X0701214Y0403254D01*
X0700857Y0403066D01*
X0700504Y0402870D01*
X0700156Y0402665D01*
X0699813Y0402452D01*
X0699476Y0402231D01*
X0699144Y0402001D01*
X0698818Y0401764D01*
X0698498Y0401518D01*
X0698183Y0401265D01*
X0697876Y0401004D01*
X0697574Y0400735D01*
X0697279Y0400460D01*
X0696991Y0400177D01*
X0696711Y0399887D01*
X0696437Y0399591D01*
X0696170Y0399287D01*
X0695911Y0398978D01*
X0695660Y0398662D01*
X0695417Y0398340D01*
X0695181Y0398013D01*
X0694954Y0397679D01*
X0694734Y0397340D01*
X0694523Y0396996D01*
X0694321Y0396647D01*
X0694127Y0396293D01*
X0693942Y0395935D01*
X0693766Y0395572D01*
X0693598Y0395204D01*
X0693440Y0394833D01*
X0693291Y0394458D01*
X0693151Y0394080D01*
X0693020Y0393698D01*
X0692899Y0393313D01*
X0692787Y0392925D01*
X0692685Y0392535D01*
X0692592Y0392142D01*
X0692509Y0391747D01*
X0692435Y0391350D01*
X0692372Y0390952D01*
X0692318Y0390552D01*
X0692273Y0390151D01*
X0692239Y0389748D01*
X0692214Y0389346D01*
X0692200Y0388942D01*
X0692195Y0388539D01*
X0692200Y0388135D01*
X0692215Y0387732D01*
X0692240Y0387329D01*
X0692274Y0386927D01*
X0692319Y0386526D01*
X0692373Y0386126D01*
X0692437Y0385728D01*
X0692511Y0385331D01*
X0692594Y0384936D01*
X0692687Y0384543D01*
X0692790Y0384153D01*
X0692902Y0383765D01*
X0693024Y0383380D01*
X0693154Y0382999D01*
X0693295Y0382620D01*
X0693444Y0382245D01*
X0693603Y0381874D01*
X0693770Y0381507D01*
X0693947Y0381144D01*
X0694132Y0380786D01*
X0694326Y0380432D01*
X0694529Y0380083D01*
X0694740Y0379739D01*
X0694959Y0379400D01*
X0695187Y0379067D01*
X0695423Y0378739D01*
X0695667Y0378418D01*
X0695918Y0378102D01*
X0696177Y0377793D01*
X0696444Y0377490D01*
X0696718Y0377193D01*
X0696999Y0376904D01*
X0697287Y0376621D01*
X0697582Y0376346D01*
X0697883Y0376077D01*
X0698191Y0375817D01*
X0698506Y0375564D01*
X0698826Y0375318D01*
X0699152Y0375081D01*
X0699485Y0374851D01*
X0699822Y0374630D01*
X0700165Y0374417D01*
X0700513Y0374213D01*
X0700866Y0374017D01*
X0701223Y0373830D01*
X0701585Y0373651D01*
X0701951Y0373482D01*
X0702322Y0373321D01*
X0702696Y0373170D01*
X0703074Y0373028D01*
X0703455Y0372895D01*
X0703839Y0372771D01*
X0704226Y0372657D01*
X0704616Y0372552D01*
X0705008Y0372457D01*
X0705402Y0372372D01*
X0705799Y0372296D01*
X0706197Y0372230D01*
X0706596Y0372174D01*
X0706997Y0372127D01*
X0707399Y0372090D01*
X0707802Y0372063D01*
X0708205Y0372046D01*
X0708609Y0372039D01*
X0709012Y0372042D01*
X0709416Y0372055D01*
X0709819Y0372077D01*
X0710221Y0372109D01*
X0710622Y0372151D01*
X0711022Y0372203D01*
X0711421Y0372265D01*
X0711818Y0372336D01*
X0712214Y0372417D01*
X0712607Y0372508D01*
X0712998Y0372608D01*
X0713386Y0372718D01*
X0713772Y0372838D01*
X0714154Y0372966D01*
X0714534Y0373104D01*
X0714909Y0373252D01*
X0715281Y0373408D01*
X0715649Y0373573D01*
X0716013Y0373748D01*
X0716373Y0373931D01*
X0716728Y0374123D01*
X0717078Y0374324D01*
X0717423Y0374533D01*
X0717763Y0374750D01*
X0718098Y0374976D01*
X0718427Y0375210D01*
X0718750Y0375451D01*
X0719067Y0375701D01*
X0719378Y0375958D01*
X0719682Y0376223D01*
X0719980Y0376495D01*
X0720272Y0376775D01*
X0720556Y0377061D01*
X0720833Y0377355D01*
X0721103Y0377655D01*
X0721366Y0377961D01*
X0721621Y0378274D01*
X0721868Y0378593D01*
X0722107Y0378918D01*
X0722339Y0379249D01*
X0722562Y0379585D01*
X0722777Y0379926D01*
X0722983Y0380273D01*
X0723181Y0380625D01*
X0723370Y0380981D01*
X0723551Y0381342D01*
X0723723Y0381707D01*
X0751005Y0372799D01*
X0752397Y0400359D02*
X0724558Y0393121D01*
X0752397Y0400359D02*
X0752088Y0401403D01*
X0751753Y0402438D01*
X0751393Y0403465D01*
X0751008Y0404482D01*
X0750598Y0405490D01*
X0750164Y0406488D01*
X0749705Y0407474D01*
X0749223Y0408450D01*
X0748716Y0409413D01*
X0748187Y0410363D01*
X0747634Y0411300D01*
X0747058Y0412223D01*
X0746460Y0413132D01*
X0745840Y0414027D01*
X0745199Y0414905D01*
X0744536Y0415768D01*
X0743852Y0416614D01*
X0743147Y0417443D01*
X0742423Y0418255D01*
X0741679Y0419049D01*
X0740915Y0419824D01*
X0740133Y0420580D01*
X0739333Y0421318D01*
X0738515Y0422035D01*
X0737679Y0422732D01*
X0736827Y0423408D01*
X0735958Y0424063D01*
X0735074Y0424697D01*
X0734175Y0425309D01*
X0733260Y0425899D01*
X0732332Y0426467D01*
X0731390Y0427011D01*
X0730435Y0427532D01*
X0729467Y0428030D01*
X0728488Y0428504D01*
X0727497Y0428954D01*
X0726496Y0429379D01*
X0725484Y0429780D01*
X0724463Y0430156D01*
X0723433Y0430507D01*
X0722395Y0430832D01*
X0721349Y0431132D01*
X0720296Y0431407D01*
X0719237Y0431655D01*
X0718172Y0431878D01*
X0717102Y0432074D01*
X0716027Y0432244D01*
X0714949Y0432388D01*
X0713867Y0432506D01*
X0712783Y0432597D01*
X0711697Y0432661D01*
X0710609Y0432699D01*
X0709521Y0432710D01*
X0708434Y0432694D01*
X0707346Y0432652D01*
X0706260Y0432584D01*
X0705177Y0432489D01*
X0704095Y0432367D01*
X0703017Y0432219D01*
X0701944Y0432044D01*
X0700874Y0431844D01*
X0699810Y0431617D01*
X0698752Y0431364D01*
X0697700Y0431086D01*
X0696655Y0430782D01*
X0695618Y0430452D01*
X0694590Y0430097D01*
X0693570Y0429717D01*
X0692560Y0429312D01*
X0691561Y0428883D01*
X0690572Y0428429D01*
X0689594Y0427952D01*
X0688629Y0427450D01*
X0687676Y0426925D01*
X0686736Y0426377D01*
X0685810Y0425806D01*
X0684898Y0425212D01*
X0684001Y0424597D01*
X0683119Y0423959D01*
X0682253Y0423301D01*
X0681403Y0422621D01*
X0680570Y0421921D01*
X0679755Y0421200D01*
X0678958Y0420460D01*
X0678179Y0419701D01*
X0677418Y0418922D01*
X0676677Y0418126D01*
X0675956Y0417311D01*
X0675255Y0416479D01*
X0674574Y0415630D01*
X0673915Y0414765D01*
X0673276Y0413884D01*
X0672660Y0412987D01*
X0672065Y0412076D01*
X0671494Y0411150D01*
X0670944Y0410211D01*
X0670418Y0409258D01*
X0669916Y0408293D01*
X0669437Y0407316D01*
X0668602Y0367946D02*
X0669066Y0366966D01*
X0669553Y0365997D01*
X0670064Y0365041D01*
X0670599Y0364097D01*
X0671156Y0363166D01*
X0671736Y0362250D01*
X0672338Y0361348D01*
X0672962Y0360461D01*
X0673608Y0359590D01*
X0674275Y0358734D01*
X0674962Y0357895D01*
X0675670Y0357074D01*
X0676398Y0356270D01*
X0677145Y0355484D01*
X0677911Y0354716D01*
X0678696Y0353968D01*
X0679499Y0353238D01*
X0680319Y0352529D01*
X0681157Y0351840D01*
X0682011Y0351172D01*
X0682882Y0350525D01*
X0683768Y0349900D01*
X0684669Y0349296D01*
X0685584Y0348715D01*
X0686514Y0348156D01*
X0687457Y0347620D01*
X0688412Y0347108D01*
X0689380Y0346619D01*
X0690360Y0346153D01*
X0691351Y0345712D01*
X0692352Y0345296D01*
X0693363Y0344904D01*
X0694384Y0344537D01*
X0695413Y0344195D01*
X0696450Y0343878D01*
X0697495Y0343587D01*
X0698547Y0343321D01*
X0699604Y0343081D01*
X0700668Y0342868D01*
X0701736Y0342680D01*
X0702808Y0342519D01*
X0703884Y0342384D01*
X0704963Y0342275D01*
X0706045Y0342193D01*
X0707128Y0342137D01*
X0708212Y0342108D01*
X0709296Y0342105D01*
X0710381Y0342129D01*
X0711464Y0342180D01*
X0712546Y0342257D01*
X0713625Y0342360D01*
X0714702Y0342490D01*
X0715775Y0342646D01*
X0716844Y0342829D01*
X0717909Y0343037D01*
X0718968Y0343272D01*
X0720020Y0343532D01*
X0721066Y0343818D01*
X0722105Y0344130D01*
X0723136Y0344467D01*
X0724158Y0344829D01*
X0725171Y0345216D01*
X0726175Y0345628D01*
X0727168Y0346065D01*
X0728150Y0346525D01*
X0729120Y0347009D01*
X0730078Y0347517D01*
X0731024Y0348049D01*
X0731956Y0348603D01*
X0732874Y0349180D01*
X0733778Y0349779D01*
X0734667Y0350400D01*
X0735541Y0351043D01*
X0736398Y0351707D01*
X0737239Y0352392D01*
X0738063Y0353097D01*
X0738869Y0353822D01*
X0739658Y0354567D01*
X0740428Y0355331D01*
X0741179Y0356113D01*
X0741910Y0356914D01*
X0742622Y0357732D01*
X0743314Y0358568D01*
X0743985Y0359420D01*
X0744634Y0360288D01*
X0745263Y0361172D01*
X0745869Y0362071D01*
X0746454Y0362985D01*
X0747015Y0363912D01*
X0747554Y0364854D01*
X0748070Y0365808D01*
X0748562Y0366774D01*
X0749030Y0367752D01*
X0749474Y0368742D01*
X0749894Y0369742D01*
X0750290Y0370752D01*
X0750660Y0371771D01*
X0751005Y0372799D01*
D11*
X0524987Y0513802D02*
X0523919Y0512734D01*
X0521784Y0512734D01*
X0520717Y0513802D01*
X0524987Y0518072D01*
X0524987Y0513802D01*
X0524987Y0518072D02*
X0523919Y0519140D01*
X0521784Y0519140D01*
X0520717Y0518072D01*
X0520717Y0513802D01*
X0518541Y0512734D02*
X0514271Y0512734D01*
X0516406Y0512734D02*
X0516406Y0519140D01*
X0514271Y0517005D01*
X0515339Y0508510D02*
X0514271Y0507442D01*
X0514271Y0506375D01*
X0515339Y0505307D01*
X0518541Y0505307D01*
X0518541Y0503172D02*
X0518541Y0507442D01*
X0517474Y0508510D01*
X0515339Y0508510D01*
X0514271Y0503172D02*
X0515339Y0502104D01*
X0517474Y0502104D01*
X0518541Y0503172D01*
X0517867Y0498274D02*
X0518935Y0497206D01*
X0518935Y0496138D01*
X0517867Y0495071D01*
X0515732Y0495071D01*
X0514665Y0496138D01*
X0514665Y0497206D01*
X0515732Y0498274D01*
X0517867Y0498274D01*
X0517867Y0495071D02*
X0518935Y0494003D01*
X0518935Y0492936D01*
X0517867Y0491868D01*
X0515732Y0491868D01*
X0514665Y0492936D01*
X0514665Y0494003D01*
X0515732Y0495071D01*
X0514665Y0488825D02*
X0518935Y0488825D01*
X0518935Y0487757D01*
X0514665Y0483487D01*
X0514665Y0482419D01*
X0516012Y0477915D02*
X0513877Y0475780D01*
X0517080Y0475780D01*
X0518148Y0474712D01*
X0518148Y0473644D01*
X0517080Y0472577D01*
X0514945Y0472577D01*
X0513877Y0473644D01*
X0513877Y0475780D01*
X0516012Y0477915D02*
X0518148Y0478982D01*
X0518148Y0467565D02*
X0513877Y0467565D01*
X0513877Y0464362D01*
X0516012Y0465430D01*
X0517080Y0465430D01*
X0518148Y0464362D01*
X0518148Y0462227D01*
X0517080Y0461159D01*
X0514945Y0461159D01*
X0513877Y0462227D01*
X0517080Y0457722D02*
X0513877Y0454520D01*
X0518148Y0454520D01*
X0517080Y0457722D02*
X0517080Y0451317D01*
X0517080Y0447486D02*
X0518148Y0446419D01*
X0518148Y0445351D01*
X0517080Y0444283D01*
X0518148Y0443216D01*
X0518148Y0442148D01*
X0517080Y0441081D01*
X0514945Y0441081D01*
X0513877Y0442148D01*
X0516012Y0444283D02*
X0517080Y0444283D01*
X0517080Y0447486D02*
X0514945Y0447486D01*
X0513877Y0446419D01*
X0515339Y0438431D02*
X0514271Y0437364D01*
X0515339Y0438431D02*
X0517474Y0438431D01*
X0518541Y0437364D01*
X0518541Y0436296D01*
X0514271Y0432026D01*
X0518541Y0432026D01*
X0516012Y0427407D02*
X0516012Y0421002D01*
X0513877Y0421002D02*
X0518148Y0421002D01*
X0513877Y0425272D02*
X0516012Y0427407D01*
X0329526Y0468179D02*
X0329526Y0469647D01*
X0328792Y0470381D01*
X0325122Y0470381D01*
X0326590Y0472049D02*
X0325122Y0473517D01*
X0329526Y0473517D01*
X0329526Y0472049D02*
X0329526Y0474985D01*
X0329526Y0468179D02*
X0328792Y0467445D01*
X0325122Y0467445D01*
D12*
X0329325Y0477395D02*
X0329325Y0518340D01*
X0367908Y0518340D01*
X0367908Y0477395D01*
X0329325Y0477395D01*
X0308951Y0478970D02*
X0304030Y0478970D01*
X0305803Y0485899D02*
X0305805Y0485925D01*
X0305811Y0485951D01*
X0305820Y0485975D01*
X0305834Y0485998D01*
X0305850Y0486019D01*
X0305869Y0486037D01*
X0305891Y0486051D01*
X0305915Y0486063D01*
X0305940Y0486071D01*
X0305966Y0486075D01*
X0305992Y0486075D01*
X0306018Y0486071D01*
X0306043Y0486063D01*
X0306067Y0486051D01*
X0306089Y0486037D01*
X0306108Y0486019D01*
X0306124Y0485998D01*
X0306138Y0485975D01*
X0306147Y0485951D01*
X0306153Y0485925D01*
X0306155Y0485899D01*
X0306153Y0485873D01*
X0306147Y0485847D01*
X0306138Y0485823D01*
X0306124Y0485800D01*
X0306108Y0485779D01*
X0306089Y0485761D01*
X0306067Y0485747D01*
X0306043Y0485735D01*
X0306018Y0485727D01*
X0305992Y0485723D01*
X0305966Y0485723D01*
X0305940Y0485727D01*
X0305915Y0485735D01*
X0305891Y0485747D01*
X0305869Y0485761D01*
X0305850Y0485779D01*
X0305834Y0485800D01*
X0305820Y0485823D01*
X0305811Y0485847D01*
X0305805Y0485873D01*
X0305803Y0485899D01*
X0304030Y0486844D02*
X0308951Y0486844D01*
X0369877Y0563222D02*
X0369877Y0583694D01*
X0383262Y0583694D01*
X0383262Y0563222D01*
X0369877Y0563222D01*
X0391107Y0570515D02*
X0391812Y0569811D01*
X0394631Y0569811D01*
X0395335Y0570515D01*
X0395335Y0571925D01*
X0394631Y0572629D01*
X0394631Y0574161D02*
X0393926Y0574161D01*
X0393221Y0574866D01*
X0393221Y0576275D01*
X0393926Y0576980D01*
X0394631Y0576980D01*
X0395335Y0576275D01*
X0395335Y0574866D01*
X0394631Y0574161D01*
X0393221Y0574866D02*
X0392517Y0574161D01*
X0391812Y0574161D01*
X0391107Y0574866D01*
X0391107Y0576275D01*
X0391812Y0576980D01*
X0392517Y0576980D01*
X0393221Y0576275D01*
X0391812Y0572629D02*
X0391107Y0571925D01*
X0391107Y0570515D01*
X0393892Y0619718D02*
X0370270Y0619718D01*
X0370270Y0635466D01*
X0393892Y0635466D01*
X0393892Y0619718D01*
X0376788Y0642487D02*
X0376788Y0646715D01*
X0374674Y0644601D01*
X0377493Y0644601D01*
X0373142Y0643192D02*
X0373142Y0646011D01*
X0372438Y0646715D01*
X0370324Y0646715D01*
X0370324Y0642487D01*
X0372438Y0642487D01*
X0373142Y0643192D01*
X0408066Y0518340D02*
X0446648Y0518340D01*
X0446648Y0477395D01*
X0408066Y0477395D01*
X0408066Y0518340D01*
X0498587Y0477534D02*
X0499292Y0478239D01*
X0499997Y0478239D01*
X0500702Y0477534D01*
X0501406Y0478239D01*
X0502111Y0478239D01*
X0502816Y0477534D01*
X0502816Y0476125D01*
X0502111Y0475420D01*
X0500702Y0476830D02*
X0500702Y0477534D01*
X0498587Y0477534D02*
X0498587Y0476125D01*
X0499292Y0475420D01*
X0498587Y0473889D02*
X0498587Y0472479D01*
X0498587Y0473184D02*
X0502111Y0473184D01*
X0502816Y0472479D01*
X0502816Y0471775D01*
X0502111Y0471070D01*
X0539168Y0401411D02*
X0559640Y0401411D01*
X0559640Y0388025D01*
X0539168Y0388025D01*
X0539168Y0401411D01*
X0557174Y0384200D02*
X0557174Y0381381D01*
X0557879Y0380676D01*
X0559288Y0380676D01*
X0559993Y0381381D01*
X0561524Y0381381D02*
X0562229Y0380676D01*
X0563638Y0380676D01*
X0564343Y0381381D01*
X0564343Y0382086D01*
X0563638Y0382790D01*
X0561524Y0382790D01*
X0561524Y0381381D01*
X0561524Y0382790D02*
X0562934Y0384200D01*
X0564343Y0384904D01*
X0559993Y0384200D02*
X0559288Y0384904D01*
X0557879Y0384904D01*
X0557174Y0384200D01*
X0609837Y0377395D02*
X0609837Y0401017D01*
X0625585Y0401017D01*
X0625585Y0377395D01*
X0609837Y0377395D01*
X0637721Y0398275D02*
X0637721Y0400389D01*
X0638426Y0401094D01*
X0641245Y0401094D01*
X0641949Y0400389D01*
X0641949Y0398275D01*
X0637721Y0398275D01*
X0638426Y0402625D02*
X0637721Y0403330D01*
X0637721Y0404739D01*
X0638426Y0405444D01*
X0639131Y0405444D01*
X0639835Y0404739D01*
X0640540Y0405444D01*
X0641245Y0405444D01*
X0641949Y0404739D01*
X0641949Y0403330D01*
X0641245Y0402625D01*
X0639835Y0404034D02*
X0639835Y0404739D01*
X0497997Y0301429D02*
X0497997Y0298426D01*
X0497997Y0299928D02*
X0493494Y0299928D01*
X0494995Y0298426D01*
X0495745Y0296825D02*
X0496496Y0296074D01*
X0496496Y0293822D01*
X0497997Y0293822D02*
X0493494Y0293822D01*
X0493494Y0296074D01*
X0494244Y0296825D01*
X0495745Y0296825D01*
X0493494Y0292221D02*
X0493494Y0290720D01*
X0493494Y0291470D02*
X0497247Y0291470D01*
X0497997Y0290720D01*
X0497997Y0289969D01*
X0497247Y0289219D01*
X0470207Y0271192D02*
X0470207Y0268373D01*
X0470207Y0269783D02*
X0465979Y0269783D01*
X0467389Y0268373D01*
X0466684Y0266842D02*
X0465979Y0266137D01*
X0465979Y0264728D01*
X0466684Y0264023D01*
X0469503Y0264023D01*
X0470207Y0264728D01*
X0470207Y0266137D01*
X0469503Y0266842D01*
X0450470Y0309889D02*
X0451221Y0310640D01*
X0451221Y0311390D01*
X0450470Y0312141D01*
X0446717Y0312141D01*
X0446717Y0311390D02*
X0446717Y0312892D01*
X0448218Y0314493D02*
X0446717Y0315994D01*
X0451221Y0315994D01*
X0451221Y0314493D02*
X0451221Y0317495D01*
X0460056Y0350210D02*
X0460760Y0350915D01*
X0460760Y0351620D01*
X0460056Y0352324D01*
X0456532Y0352324D01*
X0456532Y0351620D02*
X0456532Y0353029D01*
X0457237Y0354560D02*
X0456532Y0355265D01*
X0456532Y0356674D01*
X0457237Y0357379D01*
X0457942Y0357379D01*
X0460760Y0354560D01*
X0460760Y0357379D01*
X0398229Y0376408D02*
X0398229Y0398755D01*
X0377744Y0398955D01*
X0377644Y0376408D01*
X0398229Y0376408D01*
X0390349Y0391174D02*
X0390351Y0391213D01*
X0390357Y0391252D01*
X0390367Y0391290D01*
X0390380Y0391327D01*
X0390397Y0391362D01*
X0390417Y0391396D01*
X0390441Y0391427D01*
X0390468Y0391456D01*
X0390497Y0391482D01*
X0390529Y0391505D01*
X0390563Y0391525D01*
X0390599Y0391541D01*
X0390636Y0391553D01*
X0390675Y0391562D01*
X0390714Y0391567D01*
X0390753Y0391568D01*
X0390792Y0391565D01*
X0390831Y0391558D01*
X0390868Y0391547D01*
X0390905Y0391533D01*
X0390940Y0391515D01*
X0390973Y0391494D01*
X0391004Y0391469D01*
X0391032Y0391442D01*
X0391057Y0391412D01*
X0391079Y0391379D01*
X0391098Y0391345D01*
X0391113Y0391309D01*
X0391125Y0391271D01*
X0391133Y0391233D01*
X0391137Y0391194D01*
X0391137Y0391154D01*
X0391133Y0391115D01*
X0391125Y0391077D01*
X0391113Y0391039D01*
X0391098Y0391003D01*
X0391079Y0390969D01*
X0391057Y0390936D01*
X0391032Y0390906D01*
X0391004Y0390879D01*
X0390973Y0390854D01*
X0390940Y0390833D01*
X0390905Y0390815D01*
X0390868Y0390801D01*
X0390831Y0390790D01*
X0390792Y0390783D01*
X0390753Y0390780D01*
X0390714Y0390781D01*
X0390675Y0390786D01*
X0390636Y0390795D01*
X0390599Y0390807D01*
X0390563Y0390823D01*
X0390529Y0390843D01*
X0390497Y0390866D01*
X0390468Y0390892D01*
X0390441Y0390921D01*
X0390417Y0390952D01*
X0390397Y0390986D01*
X0390380Y0391021D01*
X0390367Y0391058D01*
X0390357Y0391096D01*
X0390351Y0391135D01*
X0390349Y0391174D01*
X0337199Y0296883D02*
X0298617Y0296883D01*
X0298617Y0255938D01*
X0337199Y0255938D01*
X0337199Y0296883D01*
X0263745Y0297245D02*
X0260743Y0300248D01*
X0259992Y0300248D01*
X0259242Y0299497D01*
X0259242Y0297996D01*
X0259992Y0297245D01*
X0259992Y0295644D02*
X0261494Y0295644D01*
X0262244Y0294893D01*
X0262244Y0292641D01*
X0263745Y0292641D02*
X0259242Y0292641D01*
X0259242Y0294893D01*
X0259992Y0295644D01*
X0263745Y0297245D02*
X0263745Y0300248D01*
X0262995Y0290289D02*
X0259242Y0290289D01*
X0259242Y0289539D02*
X0259242Y0291040D01*
X0262995Y0290289D02*
X0263745Y0289539D01*
X0263745Y0288788D01*
X0262995Y0288037D01*
X0247829Y0379363D02*
X0227357Y0379363D01*
X0227357Y0392749D01*
X0247829Y0392749D01*
X0247829Y0379363D01*
X0225248Y0390755D02*
X0222429Y0390755D01*
X0225248Y0393574D01*
X0225248Y0394278D01*
X0224543Y0394983D01*
X0223134Y0394983D01*
X0222429Y0394278D01*
X0220898Y0394278D02*
X0220193Y0394983D01*
X0218784Y0394983D01*
X0218079Y0394278D01*
X0218079Y0391460D01*
X0218784Y0390755D01*
X0220193Y0390755D01*
X0220898Y0391460D01*
X0173223Y0393143D02*
X0173223Y0369521D01*
X0157475Y0369521D01*
X0157475Y0393143D01*
X0173223Y0393143D01*
X0150060Y0379893D02*
X0150060Y0377074D01*
X0150060Y0378484D02*
X0145832Y0378484D01*
X0147241Y0377074D01*
X0146536Y0375543D02*
X0145832Y0374838D01*
X0145832Y0372724D01*
X0150060Y0372724D01*
X0150060Y0374838D01*
X0149355Y0375543D01*
X0146536Y0375543D01*
X0381422Y0211589D02*
X0383536Y0209475D01*
X0383536Y0212294D01*
X0385650Y0211589D02*
X0381422Y0211589D01*
X0382127Y0207944D02*
X0381422Y0207239D01*
X0381422Y0205830D01*
X0382127Y0205125D01*
X0384945Y0205125D01*
X0385650Y0205830D01*
X0385650Y0207239D01*
X0384945Y0207944D01*
X0392317Y0209285D02*
X0392317Y0229757D01*
X0405703Y0229757D01*
X0405703Y0209285D01*
X0392317Y0209285D01*
X0404128Y0159482D02*
X0380506Y0159482D01*
X0380506Y0143733D01*
X0404128Y0143733D01*
X0404128Y0159482D01*
X0403685Y0136322D02*
X0402981Y0135617D01*
X0403685Y0136322D02*
X0405095Y0136322D01*
X0405799Y0135617D01*
X0405799Y0134912D01*
X0402981Y0132094D01*
X0405799Y0132094D01*
X0401449Y0132798D02*
X0401449Y0135617D01*
X0400744Y0136322D01*
X0398630Y0136322D01*
X0398630Y0132094D01*
X0400744Y0132094D01*
X0401449Y0132798D01*
D13*
X0399524Y0157062D02*
X0396454Y0157062D01*
X0397121Y0160134D02*
X0397121Y0164738D01*
X0394819Y0162436D01*
X0397889Y0162436D01*
X0393285Y0161669D02*
X0392517Y0162436D01*
X0390983Y0162436D01*
X0390216Y0163204D01*
X0390216Y0163971D01*
X0390983Y0164738D01*
X0392517Y0164738D01*
X0393285Y0163971D01*
X0391750Y0165506D02*
X0391750Y0159367D01*
X0390983Y0160134D02*
X0392517Y0160134D01*
X0393285Y0160902D01*
X0393285Y0161669D01*
X0390983Y0160134D02*
X0390216Y0160902D01*
X0388681Y0160902D02*
X0388681Y0164738D01*
X0385612Y0164738D02*
X0385612Y0160902D01*
X0386379Y0160134D01*
X0387914Y0160134D01*
X0388681Y0160902D01*
X0386178Y0158597D02*
X0386178Y0155528D01*
X0384643Y0157062D02*
X0387713Y0157062D01*
X0387553Y0235256D02*
X0386952Y0235857D01*
X0387553Y0235256D02*
X0388754Y0235256D01*
X0389354Y0235857D01*
X0389354Y0237058D01*
X0388754Y0237658D01*
X0388153Y0237658D01*
X0386952Y0237058D01*
X0386952Y0238859D01*
X0389354Y0238859D01*
X0385671Y0238259D02*
X0385071Y0238859D01*
X0383870Y0238859D01*
X0383269Y0238259D01*
X0383269Y0235857D01*
X0383870Y0235256D01*
X0385071Y0235256D01*
X0385671Y0235857D01*
X0395187Y0242493D02*
X0395187Y0246096D01*
X0396988Y0246096D01*
X0397589Y0245495D01*
X0397589Y0244294D01*
X0396988Y0243694D01*
X0395187Y0243694D01*
X0396388Y0243694D02*
X0397589Y0242493D01*
X0398870Y0242493D02*
X0401272Y0242493D01*
X0400071Y0242493D02*
X0400071Y0246096D01*
X0398870Y0244895D01*
X0402553Y0244294D02*
X0404355Y0244294D01*
X0404955Y0243694D01*
X0404955Y0243093D01*
X0404355Y0242493D01*
X0403154Y0242493D01*
X0402553Y0243093D01*
X0402553Y0244294D01*
X0403754Y0245495D01*
X0404955Y0246096D01*
X0405029Y0260603D02*
X0405029Y0264206D01*
X0406831Y0264206D01*
X0407431Y0263605D01*
X0407431Y0262404D01*
X0406831Y0261804D01*
X0405029Y0261804D01*
X0406230Y0261804D02*
X0407431Y0260603D01*
X0408712Y0260603D02*
X0411114Y0260603D01*
X0409913Y0260603D02*
X0409913Y0264206D01*
X0408712Y0263005D01*
X0412396Y0264206D02*
X0414798Y0264206D01*
X0414798Y0263605D01*
X0412396Y0261203D01*
X0412396Y0260603D01*
X0327203Y0254561D02*
X0325669Y0253794D01*
X0324134Y0252259D01*
X0326436Y0252259D01*
X0327203Y0251492D01*
X0327203Y0250724D01*
X0326436Y0249957D01*
X0324901Y0249957D01*
X0324134Y0250724D01*
X0324134Y0252259D01*
X0322599Y0250724D02*
X0322599Y0253794D01*
X0321832Y0254561D01*
X0319530Y0254561D01*
X0319530Y0249957D01*
X0321832Y0249957D01*
X0322599Y0250724D01*
X0322889Y0353256D02*
X0319286Y0353256D01*
X0319286Y0355058D01*
X0319887Y0355658D01*
X0321088Y0355658D01*
X0321688Y0355058D01*
X0321688Y0353256D01*
X0321688Y0354457D02*
X0322889Y0355658D01*
X0322289Y0356939D02*
X0322889Y0357540D01*
X0322889Y0358741D01*
X0322289Y0359342D01*
X0319887Y0359342D01*
X0319286Y0358741D01*
X0319286Y0357540D01*
X0319887Y0356939D01*
X0320487Y0356939D01*
X0321088Y0357540D01*
X0321088Y0359342D01*
X0305999Y0359528D02*
X0305999Y0358327D01*
X0305399Y0357727D01*
X0304198Y0357727D02*
X0303597Y0358928D01*
X0303597Y0359528D01*
X0304198Y0360129D01*
X0305399Y0360129D01*
X0305999Y0359528D01*
X0304198Y0357727D02*
X0302396Y0357727D01*
X0302396Y0360129D01*
X0302997Y0356446D02*
X0302396Y0355845D01*
X0302396Y0354044D01*
X0305999Y0354044D01*
X0304798Y0354044D02*
X0304798Y0355845D01*
X0304198Y0356446D01*
X0302997Y0356446D01*
X0304798Y0355245D02*
X0305999Y0356446D01*
X0294582Y0356052D02*
X0293381Y0354851D01*
X0293381Y0355452D02*
X0293381Y0353650D01*
X0294582Y0353650D02*
X0290979Y0353650D01*
X0290979Y0355452D01*
X0291579Y0356052D01*
X0292780Y0356052D01*
X0293381Y0355452D01*
X0292180Y0357333D02*
X0290979Y0358534D01*
X0294582Y0358534D01*
X0294582Y0357333D02*
X0294582Y0359735D01*
X0270895Y0391682D02*
X0271495Y0392282D01*
X0271495Y0393483D01*
X0270895Y0394084D01*
X0270895Y0395365D02*
X0271495Y0395965D01*
X0271495Y0397166D01*
X0270895Y0397767D01*
X0270294Y0397767D01*
X0269694Y0397166D01*
X0269694Y0396566D01*
X0269694Y0397166D02*
X0269093Y0397767D01*
X0268493Y0397767D01*
X0267892Y0397166D01*
X0267892Y0395965D01*
X0268493Y0395365D01*
X0268493Y0394084D02*
X0267892Y0393483D01*
X0267892Y0392282D01*
X0268493Y0391682D01*
X0270895Y0391682D01*
X0255503Y0375800D02*
X0255503Y0374599D01*
X0254903Y0373998D01*
X0255503Y0372717D02*
X0254302Y0371516D01*
X0254302Y0372117D02*
X0254302Y0370315D01*
X0255503Y0370315D02*
X0251900Y0370315D01*
X0251900Y0372117D01*
X0252501Y0372717D01*
X0253702Y0372717D01*
X0254302Y0372117D01*
X0252501Y0373998D02*
X0251900Y0374599D01*
X0251900Y0375800D01*
X0252501Y0376400D01*
X0253101Y0376400D01*
X0253702Y0375800D01*
X0254302Y0376400D01*
X0254903Y0376400D01*
X0255503Y0375800D01*
X0253702Y0375800D02*
X0253702Y0375199D01*
X0236205Y0376267D02*
X0233803Y0373865D01*
X0233803Y0373264D01*
X0232522Y0373264D02*
X0231321Y0374465D01*
X0231921Y0374465D02*
X0230120Y0374465D01*
X0230120Y0373264D02*
X0230120Y0376867D01*
X0231921Y0376867D01*
X0232522Y0376267D01*
X0232522Y0375066D01*
X0231921Y0374465D01*
X0233803Y0376867D02*
X0236205Y0376867D01*
X0236205Y0376267D01*
X0251053Y0429351D02*
X0252254Y0429351D01*
X0252854Y0429951D01*
X0254135Y0429351D02*
X0256537Y0429351D01*
X0255336Y0429351D02*
X0255336Y0432954D01*
X0254135Y0431753D01*
X0252854Y0432353D02*
X0252254Y0432954D01*
X0251053Y0432954D01*
X0250452Y0432353D01*
X0250452Y0429951D01*
X0251053Y0429351D01*
X0257819Y0429951D02*
X0258419Y0429351D01*
X0259620Y0429351D01*
X0260221Y0429951D01*
X0260221Y0430552D01*
X0259620Y0431152D01*
X0259020Y0431152D01*
X0259620Y0431152D02*
X0260221Y0431753D01*
X0260221Y0432353D01*
X0259620Y0432954D01*
X0258419Y0432954D01*
X0257819Y0432353D01*
X0265226Y0478170D02*
X0266427Y0478170D01*
X0267028Y0478770D01*
X0268309Y0478170D02*
X0270711Y0478170D01*
X0269510Y0478170D02*
X0269510Y0481773D01*
X0268309Y0480572D01*
X0267028Y0481172D02*
X0266427Y0481773D01*
X0265226Y0481773D01*
X0264626Y0481172D01*
X0264626Y0478770D01*
X0265226Y0478170D01*
X0271992Y0478770D02*
X0271992Y0479371D01*
X0272592Y0479971D01*
X0273793Y0479971D01*
X0274394Y0479371D01*
X0274394Y0478770D01*
X0273793Y0478170D01*
X0272592Y0478170D01*
X0271992Y0478770D01*
X0272592Y0479971D02*
X0271992Y0480572D01*
X0271992Y0481172D01*
X0272592Y0481773D01*
X0273793Y0481773D01*
X0274394Y0481172D01*
X0274394Y0480572D01*
X0273793Y0479971D01*
X0289281Y0492518D02*
X0289882Y0491918D01*
X0291083Y0491918D01*
X0291683Y0492518D01*
X0292964Y0491918D02*
X0295366Y0491918D01*
X0296191Y0492579D02*
X0300027Y0492579D01*
X0300795Y0493346D01*
X0300795Y0494881D01*
X0300027Y0495648D01*
X0296191Y0495648D01*
X0296648Y0494920D02*
X0296648Y0494320D01*
X0297248Y0493719D01*
X0299050Y0493719D01*
X0299050Y0492518D02*
X0299050Y0494920D01*
X0298449Y0495521D01*
X0297248Y0495521D01*
X0296648Y0494920D01*
X0296958Y0497183D02*
X0296191Y0497950D01*
X0296191Y0499485D01*
X0296958Y0500252D01*
X0297725Y0501787D02*
X0296191Y0503321D01*
X0300795Y0503321D01*
X0300795Y0501787D02*
X0300795Y0504856D01*
X0300027Y0500252D02*
X0299260Y0500252D01*
X0298493Y0499485D01*
X0298493Y0497950D01*
X0297725Y0497183D01*
X0296958Y0497183D01*
X0295423Y0498717D02*
X0301562Y0498717D01*
X0300795Y0497950D02*
X0300795Y0499485D01*
X0300027Y0500252D01*
X0300795Y0497950D02*
X0300027Y0497183D01*
X0299050Y0492518D02*
X0298449Y0491918D01*
X0297248Y0491918D01*
X0296648Y0492518D01*
X0294165Y0491918D02*
X0294165Y0495521D01*
X0292964Y0494320D01*
X0291683Y0494920D02*
X0291083Y0495521D01*
X0289882Y0495521D01*
X0289281Y0494920D01*
X0289281Y0492518D01*
X0313045Y0484641D02*
X0317649Y0484641D01*
X0317649Y0483107D02*
X0317649Y0486176D01*
X0314580Y0483107D02*
X0313045Y0484641D01*
X0313812Y0481572D02*
X0314580Y0481572D01*
X0315347Y0480805D01*
X0315347Y0478503D01*
X0315347Y0480805D02*
X0316114Y0481572D01*
X0316882Y0481572D01*
X0317649Y0480805D01*
X0317649Y0478503D01*
X0313045Y0478503D01*
X0313045Y0480805D01*
X0313812Y0481572D01*
X0350239Y0476018D02*
X0350239Y0471414D01*
X0352541Y0471414D01*
X0353308Y0472181D01*
X0353308Y0475250D01*
X0352541Y0476018D01*
X0350239Y0476018D01*
X0354843Y0475250D02*
X0354843Y0474483D01*
X0355610Y0473716D01*
X0357912Y0473716D01*
X0357912Y0475250D02*
X0357145Y0476018D01*
X0355610Y0476018D01*
X0354843Y0475250D01*
X0354843Y0472181D02*
X0355610Y0471414D01*
X0357145Y0471414D01*
X0357912Y0472181D01*
X0357912Y0475250D01*
X0366318Y0474245D02*
X0368119Y0474245D01*
X0367519Y0475446D01*
X0367519Y0476046D01*
X0368119Y0476647D01*
X0369320Y0476647D01*
X0369921Y0476046D01*
X0369921Y0474845D01*
X0369320Y0474245D01*
X0369921Y0472964D02*
X0369921Y0470562D01*
X0369921Y0471763D02*
X0366318Y0471763D01*
X0367519Y0470562D01*
X0366918Y0469280D02*
X0366318Y0468680D01*
X0366318Y0467479D01*
X0366918Y0466878D01*
X0369320Y0466878D01*
X0369921Y0467479D01*
X0369921Y0468680D01*
X0369320Y0469280D01*
X0366318Y0474245D02*
X0366318Y0476647D01*
X0361441Y0454970D02*
X0360240Y0454970D01*
X0359640Y0454369D01*
X0361441Y0454970D02*
X0362042Y0454369D01*
X0362042Y0453769D01*
X0359640Y0451367D01*
X0362042Y0451367D01*
X0358359Y0451367D02*
X0355957Y0451367D01*
X0357158Y0451367D02*
X0357158Y0454970D01*
X0355957Y0453769D01*
X0354675Y0454369D02*
X0354075Y0454970D01*
X0352874Y0454970D01*
X0352273Y0454369D01*
X0352273Y0451967D01*
X0352874Y0451367D01*
X0354075Y0451367D01*
X0354675Y0451967D01*
X0341015Y0439404D02*
X0341015Y0436335D01*
X0341015Y0437870D02*
X0336411Y0437870D01*
X0337946Y0436335D01*
X0337179Y0434800D02*
X0336411Y0434800D01*
X0337179Y0434800D02*
X0338713Y0433266D01*
X0341015Y0433266D01*
X0338713Y0433266D02*
X0337179Y0431731D01*
X0336411Y0431731D01*
X0352814Y0421723D02*
X0352814Y0419321D01*
X0353415Y0418721D01*
X0354616Y0418721D01*
X0355217Y0419321D01*
X0356498Y0418721D02*
X0358900Y0421123D01*
X0358900Y0421723D01*
X0358299Y0422324D01*
X0357098Y0422324D01*
X0356498Y0421723D01*
X0355217Y0421723D02*
X0354616Y0422324D01*
X0353415Y0422324D01*
X0352814Y0421723D01*
X0356498Y0418721D02*
X0358900Y0418721D01*
X0360181Y0419321D02*
X0360781Y0418721D01*
X0361982Y0418721D01*
X0362583Y0419321D01*
X0362583Y0421723D01*
X0360181Y0419321D01*
X0360181Y0421723D01*
X0360781Y0422324D01*
X0361982Y0422324D01*
X0362583Y0421723D01*
X0364918Y0426475D02*
X0364318Y0427075D01*
X0364318Y0428276D01*
X0364918Y0428877D01*
X0365519Y0430158D02*
X0364318Y0431359D01*
X0367921Y0431359D01*
X0367921Y0430158D02*
X0367921Y0432560D01*
X0366119Y0433841D02*
X0366119Y0436243D01*
X0364318Y0435642D02*
X0367921Y0435642D01*
X0366119Y0433841D02*
X0364318Y0435642D01*
X0367320Y0428877D02*
X0367921Y0428276D01*
X0367921Y0427075D01*
X0367320Y0426475D01*
X0364918Y0426475D01*
X0375789Y0408757D02*
X0377591Y0408757D01*
X0378191Y0408157D01*
X0378191Y0406955D01*
X0377591Y0406355D01*
X0375789Y0406355D01*
X0376990Y0406355D02*
X0378191Y0405154D01*
X0379472Y0405754D02*
X0379472Y0406355D01*
X0380073Y0406955D01*
X0381274Y0406955D01*
X0381874Y0406355D01*
X0381874Y0405754D01*
X0381274Y0405154D01*
X0380073Y0405154D01*
X0379472Y0405754D01*
X0380073Y0406955D02*
X0379472Y0407556D01*
X0379472Y0408157D01*
X0380073Y0408757D01*
X0381274Y0408757D01*
X0381874Y0408157D01*
X0381874Y0407556D01*
X0381274Y0406955D01*
X0375789Y0405154D02*
X0375789Y0408757D01*
X0407656Y0409718D02*
X0407656Y0407316D01*
X0409458Y0407316D01*
X0408857Y0408517D01*
X0408857Y0409117D01*
X0409458Y0409718D01*
X0410659Y0409718D01*
X0411259Y0409117D01*
X0411259Y0407916D01*
X0410659Y0407316D01*
X0411259Y0406034D02*
X0411259Y0403632D01*
X0408857Y0406034D01*
X0408257Y0406034D01*
X0407656Y0405434D01*
X0407656Y0404233D01*
X0408257Y0403632D01*
X0408257Y0402351D02*
X0407656Y0401751D01*
X0407656Y0400550D01*
X0408257Y0399949D01*
X0410659Y0399949D01*
X0411259Y0400550D01*
X0411259Y0401751D01*
X0410659Y0402351D01*
X0427470Y0401967D02*
X0428071Y0401367D01*
X0429272Y0401367D01*
X0429872Y0401967D01*
X0431153Y0401367D02*
X0433555Y0403769D01*
X0433555Y0404369D01*
X0432955Y0404970D01*
X0431754Y0404970D01*
X0431153Y0404369D01*
X0429872Y0404369D02*
X0429272Y0404970D01*
X0428071Y0404970D01*
X0427470Y0404369D01*
X0427470Y0401967D01*
X0431153Y0401367D02*
X0433555Y0401367D01*
X0434837Y0401967D02*
X0435437Y0401367D01*
X0436638Y0401367D01*
X0437239Y0401967D01*
X0437239Y0402568D01*
X0436638Y0403168D01*
X0436038Y0403168D01*
X0436638Y0403168D02*
X0437239Y0403769D01*
X0437239Y0404369D01*
X0436638Y0404970D01*
X0435437Y0404970D01*
X0434837Y0404369D01*
X0422278Y0424201D02*
X0419876Y0424201D01*
X0422278Y0426603D01*
X0422278Y0427204D01*
X0421677Y0427804D01*
X0420476Y0427804D01*
X0419876Y0427204D01*
X0418595Y0427204D02*
X0417994Y0427804D01*
X0416793Y0427804D01*
X0416193Y0427204D01*
X0414912Y0427204D02*
X0414311Y0427804D01*
X0413110Y0427804D01*
X0412510Y0427204D01*
X0412510Y0424802D01*
X0413110Y0424201D01*
X0414311Y0424201D01*
X0414912Y0424802D01*
X0416193Y0424201D02*
X0418595Y0426603D01*
X0418595Y0427204D01*
X0418595Y0424201D02*
X0416193Y0424201D01*
X0416096Y0466508D02*
X0418498Y0466508D01*
X0417297Y0466508D02*
X0417297Y0470111D01*
X0416096Y0468910D01*
X0414815Y0466508D02*
X0412413Y0466508D01*
X0413614Y0466508D02*
X0413614Y0470111D01*
X0412413Y0468910D01*
X0411132Y0468310D02*
X0410532Y0467709D01*
X0408730Y0467709D01*
X0408730Y0466508D02*
X0408730Y0470111D01*
X0410532Y0470111D01*
X0411132Y0469511D01*
X0411132Y0468310D01*
X0409931Y0467709D02*
X0411132Y0466508D01*
X0424375Y0471414D02*
X0424375Y0476018D01*
X0426677Y0476018D01*
X0427444Y0475250D01*
X0427444Y0472181D01*
X0426677Y0471414D01*
X0424375Y0471414D01*
X0428979Y0471414D02*
X0432048Y0471414D01*
X0430514Y0471414D02*
X0430514Y0476018D01*
X0428979Y0474483D01*
X0433583Y0475250D02*
X0434350Y0476018D01*
X0435885Y0476018D01*
X0436652Y0475250D01*
X0433583Y0472181D01*
X0434350Y0471414D01*
X0435885Y0471414D01*
X0436652Y0472181D01*
X0436652Y0475250D01*
X0433583Y0475250D02*
X0433583Y0472181D01*
X0454719Y0491642D02*
X0454719Y0493444D01*
X0455320Y0494044D01*
X0456521Y0494044D01*
X0457121Y0493444D01*
X0457121Y0491642D01*
X0457121Y0492843D02*
X0458322Y0494044D01*
X0458322Y0495325D02*
X0458322Y0497727D01*
X0458322Y0496526D02*
X0454719Y0496526D01*
X0455920Y0495325D01*
X0455320Y0499008D02*
X0454719Y0499609D01*
X0454719Y0500810D01*
X0455320Y0501410D01*
X0457722Y0499008D01*
X0458322Y0499609D01*
X0458322Y0500810D01*
X0457722Y0501410D01*
X0455320Y0501410D01*
X0455320Y0499008D02*
X0457722Y0499008D01*
X0458322Y0491642D02*
X0454719Y0491642D01*
X0390248Y0554723D02*
X0390248Y0557125D01*
X0389648Y0557726D01*
X0388447Y0557726D01*
X0387846Y0557125D01*
X0387846Y0556525D01*
X0388447Y0555924D01*
X0390248Y0555924D01*
X0390248Y0554723D02*
X0389648Y0554122D01*
X0388447Y0554122D01*
X0387846Y0554723D01*
X0386565Y0554723D02*
X0385965Y0554122D01*
X0384764Y0554122D01*
X0384163Y0554723D01*
X0384163Y0557125D01*
X0384764Y0557726D01*
X0385965Y0557726D01*
X0386565Y0557125D01*
X0380299Y0549702D02*
X0379098Y0549101D01*
X0377897Y0547900D01*
X0379699Y0547900D01*
X0380299Y0547300D01*
X0380299Y0546699D01*
X0379699Y0546099D01*
X0378498Y0546099D01*
X0377897Y0546699D01*
X0377897Y0547900D01*
X0376616Y0547900D02*
X0376016Y0547300D01*
X0374214Y0547300D01*
X0374214Y0546099D02*
X0374214Y0549702D01*
X0376016Y0549702D01*
X0376616Y0549101D01*
X0376616Y0547900D01*
X0375415Y0547300D02*
X0376616Y0546099D01*
X0376599Y0540426D02*
X0377800Y0540426D01*
X0378401Y0539826D01*
X0378401Y0538625D01*
X0377800Y0538024D01*
X0376599Y0538024D02*
X0375999Y0539225D01*
X0375999Y0539826D01*
X0376599Y0540426D01*
X0374798Y0540426D02*
X0374798Y0538024D01*
X0376599Y0538024D01*
X0378401Y0536743D02*
X0378401Y0534341D01*
X0378401Y0535542D02*
X0374798Y0535542D01*
X0375999Y0534341D01*
X0376599Y0533060D02*
X0377200Y0532459D01*
X0377200Y0530658D01*
X0377200Y0531859D02*
X0378401Y0533060D01*
X0376599Y0533060D02*
X0375398Y0533060D01*
X0374798Y0532459D01*
X0374798Y0530658D01*
X0378401Y0530658D01*
X0381514Y0613698D02*
X0381514Y0619836D01*
X0382281Y0619069D02*
X0383049Y0618302D01*
X0382281Y0619069D02*
X0380747Y0619069D01*
X0379979Y0618302D01*
X0379979Y0617534D01*
X0380747Y0616767D01*
X0382281Y0616767D01*
X0383049Y0616000D01*
X0383049Y0615232D01*
X0382281Y0614465D01*
X0380747Y0614465D01*
X0379979Y0615232D01*
X0378445Y0615232D02*
X0378445Y0619069D01*
X0375375Y0619069D02*
X0375375Y0615232D01*
X0376143Y0614465D01*
X0377677Y0614465D01*
X0378445Y0615232D01*
X0384583Y0615232D02*
X0385351Y0614465D01*
X0386885Y0614465D01*
X0387652Y0615232D01*
X0387652Y0616000D01*
X0386885Y0616767D01*
X0384583Y0616767D01*
X0384583Y0615232D01*
X0384583Y0616767D02*
X0386118Y0618302D01*
X0387652Y0619069D01*
X0387086Y0620606D02*
X0387086Y0623676D01*
X0385551Y0622141D02*
X0388621Y0622141D01*
X0376810Y0622141D02*
X0373740Y0622141D01*
X0519680Y0407402D02*
X0521481Y0405601D01*
X0521481Y0408003D01*
X0519680Y0407402D02*
X0523283Y0407402D01*
X0523283Y0404320D02*
X0522082Y0403119D01*
X0522082Y0403719D02*
X0522082Y0401918D01*
X0523283Y0401918D02*
X0519680Y0401918D01*
X0519680Y0403719D01*
X0520280Y0404320D01*
X0521481Y0404320D01*
X0522082Y0403719D01*
X0511114Y0396676D02*
X0510514Y0397277D01*
X0509313Y0397277D01*
X0508712Y0396676D01*
X0507431Y0396676D02*
X0507431Y0395475D01*
X0506831Y0394875D01*
X0505029Y0394875D01*
X0506230Y0394875D02*
X0507431Y0393674D01*
X0508712Y0393674D02*
X0511114Y0396076D01*
X0511114Y0396676D01*
X0511114Y0393674D02*
X0508712Y0393674D01*
X0507431Y0396676D02*
X0506831Y0397277D01*
X0505029Y0397277D01*
X0505029Y0393674D01*
X0526129Y0387030D02*
X0526729Y0387030D01*
X0529131Y0384628D01*
X0529732Y0384628D01*
X0529131Y0383347D02*
X0529732Y0382747D01*
X0529732Y0381546D01*
X0529131Y0380945D01*
X0526729Y0380945D01*
X0526129Y0381546D01*
X0526129Y0382747D01*
X0526729Y0383347D01*
X0526129Y0384628D02*
X0526129Y0387030D01*
X0603813Y0388639D02*
X0609952Y0388639D01*
X0609184Y0389406D02*
X0608417Y0390173D01*
X0607650Y0390173D01*
X0606882Y0389406D01*
X0606882Y0387871D01*
X0606115Y0387104D01*
X0605348Y0387104D01*
X0604580Y0387871D01*
X0604580Y0389406D01*
X0605348Y0390173D01*
X0604580Y0391708D02*
X0606882Y0391708D01*
X0606115Y0393243D01*
X0606115Y0394010D01*
X0606882Y0394777D01*
X0608417Y0394777D01*
X0609184Y0394010D01*
X0609184Y0392475D01*
X0608417Y0391708D01*
X0609184Y0389406D02*
X0609184Y0387871D01*
X0608417Y0387104D01*
X0608417Y0385569D02*
X0604580Y0385569D01*
X0604580Y0382500D02*
X0608417Y0382500D01*
X0609184Y0383267D01*
X0609184Y0384802D01*
X0608417Y0385569D01*
X0610722Y0383067D02*
X0613791Y0383067D01*
X0612256Y0381532D02*
X0612256Y0384601D01*
X0612256Y0393343D02*
X0612256Y0396412D01*
X0604580Y0394777D02*
X0604580Y0391708D01*
X0409259Y0369314D02*
X0409259Y0366912D01*
X0409259Y0368113D02*
X0405656Y0368113D01*
X0406857Y0366912D01*
X0406857Y0365631D02*
X0406257Y0365631D01*
X0405656Y0365030D01*
X0405656Y0363829D01*
X0406257Y0363229D01*
X0406257Y0361948D02*
X0405656Y0361347D01*
X0405656Y0360146D01*
X0406257Y0359545D01*
X0408659Y0359545D01*
X0409259Y0360146D01*
X0409259Y0361347D01*
X0408659Y0361948D01*
X0409259Y0363229D02*
X0406857Y0365631D01*
X0409259Y0365631D02*
X0409259Y0363229D01*
X0179243Y0380765D02*
X0173104Y0380765D01*
X0173872Y0381532D02*
X0174639Y0382299D01*
X0173872Y0381532D02*
X0173872Y0379997D01*
X0174639Y0379230D01*
X0175406Y0379230D01*
X0176174Y0379997D01*
X0176174Y0381532D01*
X0176941Y0382299D01*
X0177708Y0382299D01*
X0178476Y0381532D01*
X0178476Y0379997D01*
X0177708Y0379230D01*
X0177708Y0377695D02*
X0173872Y0377695D01*
X0173872Y0374626D02*
X0177708Y0374626D01*
X0178476Y0375393D01*
X0178476Y0376928D01*
X0177708Y0377695D01*
X0178476Y0383834D02*
X0175406Y0386903D01*
X0174639Y0386903D01*
X0173872Y0386136D01*
X0173872Y0384601D01*
X0174639Y0383834D01*
X0172334Y0386337D02*
X0169265Y0386337D01*
X0170800Y0384802D02*
X0170800Y0387871D01*
X0178476Y0386903D02*
X0178476Y0383834D01*
X0170800Y0376060D02*
X0170800Y0372991D01*
D14*
X0337790Y0358694D02*
X0337792Y0358799D01*
X0337798Y0358904D01*
X0337808Y0359008D01*
X0337822Y0359112D01*
X0337840Y0359216D01*
X0337862Y0359318D01*
X0337887Y0359420D01*
X0337917Y0359521D01*
X0337950Y0359620D01*
X0337987Y0359718D01*
X0338028Y0359815D01*
X0338073Y0359910D01*
X0338121Y0360003D01*
X0338172Y0360095D01*
X0338228Y0360184D01*
X0338286Y0360271D01*
X0338348Y0360356D01*
X0338412Y0360439D01*
X0338480Y0360519D01*
X0338551Y0360596D01*
X0338625Y0360670D01*
X0338702Y0360742D01*
X0338781Y0360811D01*
X0338863Y0360876D01*
X0338947Y0360939D01*
X0339034Y0360998D01*
X0339123Y0361054D01*
X0339214Y0361107D01*
X0339307Y0361156D01*
X0339401Y0361201D01*
X0339497Y0361243D01*
X0339595Y0361281D01*
X0339694Y0361315D01*
X0339795Y0361346D01*
X0339896Y0361372D01*
X0339999Y0361395D01*
X0340102Y0361414D01*
X0340206Y0361429D01*
X0340310Y0361440D01*
X0340415Y0361447D01*
X0340520Y0361450D01*
X0340625Y0361449D01*
X0340730Y0361444D01*
X0340834Y0361435D01*
X0340938Y0361422D01*
X0341042Y0361405D01*
X0341145Y0361384D01*
X0341247Y0361359D01*
X0341348Y0361331D01*
X0341447Y0361298D01*
X0341546Y0361262D01*
X0341643Y0361222D01*
X0341738Y0361179D01*
X0341832Y0361131D01*
X0341924Y0361081D01*
X0342014Y0361027D01*
X0342102Y0360969D01*
X0342187Y0360908D01*
X0342270Y0360844D01*
X0342351Y0360777D01*
X0342429Y0360707D01*
X0342504Y0360633D01*
X0342576Y0360558D01*
X0342646Y0360479D01*
X0342712Y0360398D01*
X0342776Y0360314D01*
X0342836Y0360228D01*
X0342892Y0360140D01*
X0342946Y0360049D01*
X0342996Y0359957D01*
X0343042Y0359863D01*
X0343085Y0359767D01*
X0343124Y0359669D01*
X0343159Y0359571D01*
X0343190Y0359470D01*
X0343218Y0359369D01*
X0343242Y0359267D01*
X0343262Y0359164D01*
X0343278Y0359060D01*
X0343290Y0358956D01*
X0343298Y0358851D01*
X0343302Y0358746D01*
X0343302Y0358642D01*
X0343298Y0358537D01*
X0343290Y0358432D01*
X0343278Y0358328D01*
X0343262Y0358224D01*
X0343242Y0358121D01*
X0343218Y0358019D01*
X0343190Y0357918D01*
X0343159Y0357817D01*
X0343124Y0357719D01*
X0343085Y0357621D01*
X0343042Y0357525D01*
X0342996Y0357431D01*
X0342946Y0357339D01*
X0342892Y0357248D01*
X0342836Y0357160D01*
X0342776Y0357074D01*
X0342712Y0356990D01*
X0342646Y0356909D01*
X0342576Y0356830D01*
X0342504Y0356755D01*
X0342429Y0356681D01*
X0342351Y0356611D01*
X0342270Y0356544D01*
X0342187Y0356480D01*
X0342102Y0356419D01*
X0342014Y0356361D01*
X0341924Y0356307D01*
X0341832Y0356257D01*
X0341738Y0356209D01*
X0341643Y0356166D01*
X0341546Y0356126D01*
X0341447Y0356090D01*
X0341348Y0356057D01*
X0341247Y0356029D01*
X0341145Y0356004D01*
X0341042Y0355983D01*
X0340938Y0355966D01*
X0340834Y0355953D01*
X0340730Y0355944D01*
X0340625Y0355939D01*
X0340520Y0355938D01*
X0340415Y0355941D01*
X0340310Y0355948D01*
X0340206Y0355959D01*
X0340102Y0355974D01*
X0339999Y0355993D01*
X0339896Y0356016D01*
X0339795Y0356042D01*
X0339694Y0356073D01*
X0339595Y0356107D01*
X0339497Y0356145D01*
X0339401Y0356187D01*
X0339307Y0356232D01*
X0339214Y0356281D01*
X0339123Y0356334D01*
X0339034Y0356390D01*
X0338947Y0356449D01*
X0338863Y0356512D01*
X0338781Y0356577D01*
X0338702Y0356646D01*
X0338625Y0356718D01*
X0338551Y0356792D01*
X0338480Y0356869D01*
X0338412Y0356949D01*
X0338348Y0357032D01*
X0338286Y0357117D01*
X0338228Y0357204D01*
X0338172Y0357293D01*
X0338121Y0357385D01*
X0338073Y0357478D01*
X0338028Y0357573D01*
X0337987Y0357670D01*
X0337950Y0357768D01*
X0337917Y0357867D01*
X0337887Y0357968D01*
X0337862Y0358070D01*
X0337840Y0358172D01*
X0337822Y0358276D01*
X0337808Y0358380D01*
X0337798Y0358484D01*
X0337792Y0358589D01*
X0337790Y0358694D01*
X0337790Y0416568D02*
X0337792Y0416673D01*
X0337798Y0416778D01*
X0337808Y0416882D01*
X0337822Y0416986D01*
X0337840Y0417090D01*
X0337862Y0417192D01*
X0337887Y0417294D01*
X0337917Y0417395D01*
X0337950Y0417494D01*
X0337987Y0417592D01*
X0338028Y0417689D01*
X0338073Y0417784D01*
X0338121Y0417877D01*
X0338172Y0417969D01*
X0338228Y0418058D01*
X0338286Y0418145D01*
X0338348Y0418230D01*
X0338412Y0418313D01*
X0338480Y0418393D01*
X0338551Y0418470D01*
X0338625Y0418544D01*
X0338702Y0418616D01*
X0338781Y0418685D01*
X0338863Y0418750D01*
X0338947Y0418813D01*
X0339034Y0418872D01*
X0339123Y0418928D01*
X0339214Y0418981D01*
X0339307Y0419030D01*
X0339401Y0419075D01*
X0339497Y0419117D01*
X0339595Y0419155D01*
X0339694Y0419189D01*
X0339795Y0419220D01*
X0339896Y0419246D01*
X0339999Y0419269D01*
X0340102Y0419288D01*
X0340206Y0419303D01*
X0340310Y0419314D01*
X0340415Y0419321D01*
X0340520Y0419324D01*
X0340625Y0419323D01*
X0340730Y0419318D01*
X0340834Y0419309D01*
X0340938Y0419296D01*
X0341042Y0419279D01*
X0341145Y0419258D01*
X0341247Y0419233D01*
X0341348Y0419205D01*
X0341447Y0419172D01*
X0341546Y0419136D01*
X0341643Y0419096D01*
X0341738Y0419053D01*
X0341832Y0419005D01*
X0341924Y0418955D01*
X0342014Y0418901D01*
X0342102Y0418843D01*
X0342187Y0418782D01*
X0342270Y0418718D01*
X0342351Y0418651D01*
X0342429Y0418581D01*
X0342504Y0418507D01*
X0342576Y0418432D01*
X0342646Y0418353D01*
X0342712Y0418272D01*
X0342776Y0418188D01*
X0342836Y0418102D01*
X0342892Y0418014D01*
X0342946Y0417923D01*
X0342996Y0417831D01*
X0343042Y0417737D01*
X0343085Y0417641D01*
X0343124Y0417543D01*
X0343159Y0417445D01*
X0343190Y0417344D01*
X0343218Y0417243D01*
X0343242Y0417141D01*
X0343262Y0417038D01*
X0343278Y0416934D01*
X0343290Y0416830D01*
X0343298Y0416725D01*
X0343302Y0416620D01*
X0343302Y0416516D01*
X0343298Y0416411D01*
X0343290Y0416306D01*
X0343278Y0416202D01*
X0343262Y0416098D01*
X0343242Y0415995D01*
X0343218Y0415893D01*
X0343190Y0415792D01*
X0343159Y0415691D01*
X0343124Y0415593D01*
X0343085Y0415495D01*
X0343042Y0415399D01*
X0342996Y0415305D01*
X0342946Y0415213D01*
X0342892Y0415122D01*
X0342836Y0415034D01*
X0342776Y0414948D01*
X0342712Y0414864D01*
X0342646Y0414783D01*
X0342576Y0414704D01*
X0342504Y0414629D01*
X0342429Y0414555D01*
X0342351Y0414485D01*
X0342270Y0414418D01*
X0342187Y0414354D01*
X0342102Y0414293D01*
X0342014Y0414235D01*
X0341924Y0414181D01*
X0341832Y0414131D01*
X0341738Y0414083D01*
X0341643Y0414040D01*
X0341546Y0414000D01*
X0341447Y0413964D01*
X0341348Y0413931D01*
X0341247Y0413903D01*
X0341145Y0413878D01*
X0341042Y0413857D01*
X0340938Y0413840D01*
X0340834Y0413827D01*
X0340730Y0413818D01*
X0340625Y0413813D01*
X0340520Y0413812D01*
X0340415Y0413815D01*
X0340310Y0413822D01*
X0340206Y0413833D01*
X0340102Y0413848D01*
X0339999Y0413867D01*
X0339896Y0413890D01*
X0339795Y0413916D01*
X0339694Y0413947D01*
X0339595Y0413981D01*
X0339497Y0414019D01*
X0339401Y0414061D01*
X0339307Y0414106D01*
X0339214Y0414155D01*
X0339123Y0414208D01*
X0339034Y0414264D01*
X0338947Y0414323D01*
X0338863Y0414386D01*
X0338781Y0414451D01*
X0338702Y0414520D01*
X0338625Y0414592D01*
X0338551Y0414666D01*
X0338480Y0414743D01*
X0338412Y0414823D01*
X0338348Y0414906D01*
X0338286Y0414991D01*
X0338228Y0415078D01*
X0338172Y0415167D01*
X0338121Y0415259D01*
X0338073Y0415352D01*
X0338028Y0415447D01*
X0337987Y0415544D01*
X0337950Y0415642D01*
X0337917Y0415741D01*
X0337887Y0415842D01*
X0337862Y0415944D01*
X0337840Y0416046D01*
X0337822Y0416150D01*
X0337808Y0416254D01*
X0337798Y0416358D01*
X0337792Y0416463D01*
X0337790Y0416568D01*
X0432672Y0416568D02*
X0432674Y0416673D01*
X0432680Y0416778D01*
X0432690Y0416882D01*
X0432704Y0416986D01*
X0432722Y0417090D01*
X0432744Y0417192D01*
X0432769Y0417294D01*
X0432799Y0417395D01*
X0432832Y0417494D01*
X0432869Y0417592D01*
X0432910Y0417689D01*
X0432955Y0417784D01*
X0433003Y0417877D01*
X0433054Y0417969D01*
X0433110Y0418058D01*
X0433168Y0418145D01*
X0433230Y0418230D01*
X0433294Y0418313D01*
X0433362Y0418393D01*
X0433433Y0418470D01*
X0433507Y0418544D01*
X0433584Y0418616D01*
X0433663Y0418685D01*
X0433745Y0418750D01*
X0433829Y0418813D01*
X0433916Y0418872D01*
X0434005Y0418928D01*
X0434096Y0418981D01*
X0434189Y0419030D01*
X0434283Y0419075D01*
X0434379Y0419117D01*
X0434477Y0419155D01*
X0434576Y0419189D01*
X0434677Y0419220D01*
X0434778Y0419246D01*
X0434881Y0419269D01*
X0434984Y0419288D01*
X0435088Y0419303D01*
X0435192Y0419314D01*
X0435297Y0419321D01*
X0435402Y0419324D01*
X0435507Y0419323D01*
X0435612Y0419318D01*
X0435716Y0419309D01*
X0435820Y0419296D01*
X0435924Y0419279D01*
X0436027Y0419258D01*
X0436129Y0419233D01*
X0436230Y0419205D01*
X0436329Y0419172D01*
X0436428Y0419136D01*
X0436525Y0419096D01*
X0436620Y0419053D01*
X0436714Y0419005D01*
X0436806Y0418955D01*
X0436896Y0418901D01*
X0436984Y0418843D01*
X0437069Y0418782D01*
X0437152Y0418718D01*
X0437233Y0418651D01*
X0437311Y0418581D01*
X0437386Y0418507D01*
X0437458Y0418432D01*
X0437528Y0418353D01*
X0437594Y0418272D01*
X0437658Y0418188D01*
X0437718Y0418102D01*
X0437774Y0418014D01*
X0437828Y0417923D01*
X0437878Y0417831D01*
X0437924Y0417737D01*
X0437967Y0417641D01*
X0438006Y0417543D01*
X0438041Y0417445D01*
X0438072Y0417344D01*
X0438100Y0417243D01*
X0438124Y0417141D01*
X0438144Y0417038D01*
X0438160Y0416934D01*
X0438172Y0416830D01*
X0438180Y0416725D01*
X0438184Y0416620D01*
X0438184Y0416516D01*
X0438180Y0416411D01*
X0438172Y0416306D01*
X0438160Y0416202D01*
X0438144Y0416098D01*
X0438124Y0415995D01*
X0438100Y0415893D01*
X0438072Y0415792D01*
X0438041Y0415691D01*
X0438006Y0415593D01*
X0437967Y0415495D01*
X0437924Y0415399D01*
X0437878Y0415305D01*
X0437828Y0415213D01*
X0437774Y0415122D01*
X0437718Y0415034D01*
X0437658Y0414948D01*
X0437594Y0414864D01*
X0437528Y0414783D01*
X0437458Y0414704D01*
X0437386Y0414629D01*
X0437311Y0414555D01*
X0437233Y0414485D01*
X0437152Y0414418D01*
X0437069Y0414354D01*
X0436984Y0414293D01*
X0436896Y0414235D01*
X0436806Y0414181D01*
X0436714Y0414131D01*
X0436620Y0414083D01*
X0436525Y0414040D01*
X0436428Y0414000D01*
X0436329Y0413964D01*
X0436230Y0413931D01*
X0436129Y0413903D01*
X0436027Y0413878D01*
X0435924Y0413857D01*
X0435820Y0413840D01*
X0435716Y0413827D01*
X0435612Y0413818D01*
X0435507Y0413813D01*
X0435402Y0413812D01*
X0435297Y0413815D01*
X0435192Y0413822D01*
X0435088Y0413833D01*
X0434984Y0413848D01*
X0434881Y0413867D01*
X0434778Y0413890D01*
X0434677Y0413916D01*
X0434576Y0413947D01*
X0434477Y0413981D01*
X0434379Y0414019D01*
X0434283Y0414061D01*
X0434189Y0414106D01*
X0434096Y0414155D01*
X0434005Y0414208D01*
X0433916Y0414264D01*
X0433829Y0414323D01*
X0433745Y0414386D01*
X0433663Y0414451D01*
X0433584Y0414520D01*
X0433507Y0414592D01*
X0433433Y0414666D01*
X0433362Y0414743D01*
X0433294Y0414823D01*
X0433230Y0414906D01*
X0433168Y0414991D01*
X0433110Y0415078D01*
X0433054Y0415167D01*
X0433003Y0415259D01*
X0432955Y0415352D01*
X0432910Y0415447D01*
X0432869Y0415544D01*
X0432832Y0415642D01*
X0432799Y0415741D01*
X0432769Y0415842D01*
X0432744Y0415944D01*
X0432722Y0416046D01*
X0432704Y0416150D01*
X0432690Y0416254D01*
X0432680Y0416358D01*
X0432674Y0416463D01*
X0432672Y0416568D01*
X0432672Y0358694D02*
X0432674Y0358799D01*
X0432680Y0358904D01*
X0432690Y0359008D01*
X0432704Y0359112D01*
X0432722Y0359216D01*
X0432744Y0359318D01*
X0432769Y0359420D01*
X0432799Y0359521D01*
X0432832Y0359620D01*
X0432869Y0359718D01*
X0432910Y0359815D01*
X0432955Y0359910D01*
X0433003Y0360003D01*
X0433054Y0360095D01*
X0433110Y0360184D01*
X0433168Y0360271D01*
X0433230Y0360356D01*
X0433294Y0360439D01*
X0433362Y0360519D01*
X0433433Y0360596D01*
X0433507Y0360670D01*
X0433584Y0360742D01*
X0433663Y0360811D01*
X0433745Y0360876D01*
X0433829Y0360939D01*
X0433916Y0360998D01*
X0434005Y0361054D01*
X0434096Y0361107D01*
X0434189Y0361156D01*
X0434283Y0361201D01*
X0434379Y0361243D01*
X0434477Y0361281D01*
X0434576Y0361315D01*
X0434677Y0361346D01*
X0434778Y0361372D01*
X0434881Y0361395D01*
X0434984Y0361414D01*
X0435088Y0361429D01*
X0435192Y0361440D01*
X0435297Y0361447D01*
X0435402Y0361450D01*
X0435507Y0361449D01*
X0435612Y0361444D01*
X0435716Y0361435D01*
X0435820Y0361422D01*
X0435924Y0361405D01*
X0436027Y0361384D01*
X0436129Y0361359D01*
X0436230Y0361331D01*
X0436329Y0361298D01*
X0436428Y0361262D01*
X0436525Y0361222D01*
X0436620Y0361179D01*
X0436714Y0361131D01*
X0436806Y0361081D01*
X0436896Y0361027D01*
X0436984Y0360969D01*
X0437069Y0360908D01*
X0437152Y0360844D01*
X0437233Y0360777D01*
X0437311Y0360707D01*
X0437386Y0360633D01*
X0437458Y0360558D01*
X0437528Y0360479D01*
X0437594Y0360398D01*
X0437658Y0360314D01*
X0437718Y0360228D01*
X0437774Y0360140D01*
X0437828Y0360049D01*
X0437878Y0359957D01*
X0437924Y0359863D01*
X0437967Y0359767D01*
X0438006Y0359669D01*
X0438041Y0359571D01*
X0438072Y0359470D01*
X0438100Y0359369D01*
X0438124Y0359267D01*
X0438144Y0359164D01*
X0438160Y0359060D01*
X0438172Y0358956D01*
X0438180Y0358851D01*
X0438184Y0358746D01*
X0438184Y0358642D01*
X0438180Y0358537D01*
X0438172Y0358432D01*
X0438160Y0358328D01*
X0438144Y0358224D01*
X0438124Y0358121D01*
X0438100Y0358019D01*
X0438072Y0357918D01*
X0438041Y0357817D01*
X0438006Y0357719D01*
X0437967Y0357621D01*
X0437924Y0357525D01*
X0437878Y0357431D01*
X0437828Y0357339D01*
X0437774Y0357248D01*
X0437718Y0357160D01*
X0437658Y0357074D01*
X0437594Y0356990D01*
X0437528Y0356909D01*
X0437458Y0356830D01*
X0437386Y0356755D01*
X0437311Y0356681D01*
X0437233Y0356611D01*
X0437152Y0356544D01*
X0437069Y0356480D01*
X0436984Y0356419D01*
X0436896Y0356361D01*
X0436806Y0356307D01*
X0436714Y0356257D01*
X0436620Y0356209D01*
X0436525Y0356166D01*
X0436428Y0356126D01*
X0436329Y0356090D01*
X0436230Y0356057D01*
X0436129Y0356029D01*
X0436027Y0356004D01*
X0435924Y0355983D01*
X0435820Y0355966D01*
X0435716Y0355953D01*
X0435612Y0355944D01*
X0435507Y0355939D01*
X0435402Y0355938D01*
X0435297Y0355941D01*
X0435192Y0355948D01*
X0435088Y0355959D01*
X0434984Y0355974D01*
X0434881Y0355993D01*
X0434778Y0356016D01*
X0434677Y0356042D01*
X0434576Y0356073D01*
X0434477Y0356107D01*
X0434379Y0356145D01*
X0434283Y0356187D01*
X0434189Y0356232D01*
X0434096Y0356281D01*
X0434005Y0356334D01*
X0433916Y0356390D01*
X0433829Y0356449D01*
X0433745Y0356512D01*
X0433663Y0356577D01*
X0433584Y0356646D01*
X0433507Y0356718D01*
X0433433Y0356792D01*
X0433362Y0356869D01*
X0433294Y0356949D01*
X0433230Y0357032D01*
X0433168Y0357117D01*
X0433110Y0357204D01*
X0433054Y0357293D01*
X0433003Y0357385D01*
X0432955Y0357478D01*
X0432910Y0357573D01*
X0432869Y0357670D01*
X0432832Y0357768D01*
X0432799Y0357867D01*
X0432769Y0357968D01*
X0432744Y0358070D01*
X0432722Y0358172D01*
X0432704Y0358276D01*
X0432690Y0358380D01*
X0432680Y0358484D01*
X0432674Y0358589D01*
X0432672Y0358694D01*
D15*
X0444010Y0352894D02*
X0444010Y0369560D01*
X0454010Y0369560D01*
X0454010Y0349560D01*
X0447344Y0349560D01*
X0411963Y0373458D02*
X0411963Y0381332D01*
X0404955Y0381332D02*
X0404955Y0373458D01*
X0404955Y0388812D02*
X0404955Y0396686D01*
X0411963Y0396686D02*
X0411963Y0388812D01*
X0416333Y0400663D02*
X0424207Y0400663D01*
X0424207Y0407670D02*
X0416333Y0407670D01*
X0409247Y0423497D02*
X0401373Y0423497D01*
X0401373Y0430505D02*
X0409247Y0430505D01*
X0393892Y0408379D02*
X0386018Y0408379D01*
X0386018Y0401529D02*
X0393892Y0401529D01*
X0374601Y0416017D02*
X0366727Y0416017D01*
X0366727Y0423025D02*
X0374601Y0423025D01*
X0370625Y0440387D02*
X0370625Y0448261D01*
X0363617Y0448261D02*
X0363617Y0440387D01*
X0363617Y0455741D02*
X0363617Y0463615D01*
X0370625Y0463615D02*
X0370625Y0455741D01*
X0349010Y0457670D02*
X0341136Y0457670D01*
X0341136Y0450663D02*
X0349010Y0450663D01*
X0397593Y0466883D02*
X0405467Y0466883D01*
X0405467Y0473733D02*
X0397593Y0473733D01*
X0378026Y0519521D02*
X0378026Y0527395D01*
X0371176Y0527395D02*
X0371176Y0519521D01*
X0384443Y0542474D02*
X0392317Y0542474D01*
X0392317Y0549324D02*
X0384443Y0549324D01*
X0380900Y0553419D02*
X0373026Y0553419D01*
X0373026Y0560426D02*
X0380900Y0560426D01*
X0386806Y0583891D02*
X0386806Y0615919D01*
X0404916Y0615919D01*
X0404916Y0583891D01*
X0398499Y0638419D02*
X0383459Y0638419D01*
X0383459Y0645505D02*
X0398499Y0645505D01*
X0398499Y0638419D01*
X0503066Y0520820D02*
X0503066Y0424154D01*
X0506399Y0420820D02*
X0513066Y0420820D01*
X0513066Y0520820D01*
X0503066Y0520820D01*
X0457947Y0488379D02*
X0457947Y0480505D01*
X0451097Y0480505D02*
X0451097Y0488379D01*
X0493892Y0400899D02*
X0501766Y0400899D01*
X0501766Y0394048D02*
X0493892Y0394048D01*
X0516058Y0390781D02*
X0516058Y0398655D01*
X0522908Y0398655D02*
X0522908Y0390781D01*
X0525428Y0391174D02*
X0525428Y0399048D01*
X0532436Y0399048D02*
X0532436Y0391174D01*
X0571254Y0389206D02*
X0603282Y0389206D01*
X0603282Y0371096D01*
X0571254Y0371096D01*
X0633656Y0378300D02*
X0633656Y0393340D01*
X0640743Y0393340D02*
X0640743Y0378300D01*
X0633656Y0378300D01*
X0477987Y0271411D02*
X0477987Y0263537D01*
X0470979Y0263537D02*
X0470979Y0271411D01*
X0401766Y0267828D02*
X0393892Y0267828D01*
X0393892Y0260978D02*
X0401766Y0260978D01*
X0391924Y0249718D02*
X0384050Y0249718D01*
X0384050Y0242867D02*
X0391924Y0242867D01*
X0393499Y0239560D02*
X0401373Y0239560D01*
X0401373Y0232552D02*
X0393499Y0232552D01*
X0389955Y0199245D02*
X0389955Y0167218D01*
X0371845Y0167218D01*
X0371845Y0199245D01*
X0378656Y0140387D02*
X0393695Y0140387D01*
X0393695Y0133300D02*
X0378656Y0133300D01*
X0378656Y0140387D01*
X0322514Y0342119D02*
X0322514Y0349993D01*
X0315664Y0349993D02*
X0315664Y0342119D01*
X0305625Y0342907D02*
X0305625Y0350781D01*
X0298774Y0350781D02*
X0298774Y0342907D01*
X0294207Y0342513D02*
X0294207Y0350387D01*
X0287357Y0350387D02*
X0287357Y0342513D01*
X0272199Y0380545D02*
X0272199Y0388419D01*
X0265191Y0388419D02*
X0265191Y0380545D01*
X0259128Y0380545D02*
X0259128Y0388419D01*
X0252278Y0388419D02*
X0252278Y0380545D01*
X0248223Y0376489D02*
X0240349Y0376489D01*
X0240349Y0369639D02*
X0248223Y0369639D01*
X0212199Y0386450D02*
X0180172Y0386450D01*
X0180172Y0404560D01*
X0212199Y0404560D01*
X0264365Y0426647D02*
X0272239Y0426647D01*
X0272239Y0433655D02*
X0264365Y0433655D01*
X0278538Y0475466D02*
X0286412Y0475466D01*
X0286412Y0482474D02*
X0278538Y0482474D01*
X0278144Y0491214D02*
X0286018Y0491214D01*
X0286018Y0498222D02*
X0278144Y0498222D01*
X0154128Y0400899D02*
X0154128Y0385859D01*
X0147042Y0385859D02*
X0147042Y0400899D01*
X0154128Y0400899D01*
D16*
X0150191Y0402159D02*
X0150193Y0402198D01*
X0150199Y0402237D01*
X0150209Y0402275D01*
X0150222Y0402312D01*
X0150239Y0402347D01*
X0150259Y0402381D01*
X0150283Y0402412D01*
X0150310Y0402441D01*
X0150339Y0402467D01*
X0150371Y0402490D01*
X0150405Y0402510D01*
X0150441Y0402526D01*
X0150478Y0402538D01*
X0150517Y0402547D01*
X0150556Y0402552D01*
X0150595Y0402553D01*
X0150634Y0402550D01*
X0150673Y0402543D01*
X0150710Y0402532D01*
X0150747Y0402518D01*
X0150782Y0402500D01*
X0150815Y0402479D01*
X0150846Y0402454D01*
X0150874Y0402427D01*
X0150899Y0402397D01*
X0150921Y0402364D01*
X0150940Y0402330D01*
X0150955Y0402294D01*
X0150967Y0402256D01*
X0150975Y0402218D01*
X0150979Y0402179D01*
X0150979Y0402139D01*
X0150975Y0402100D01*
X0150967Y0402062D01*
X0150955Y0402024D01*
X0150940Y0401988D01*
X0150921Y0401954D01*
X0150899Y0401921D01*
X0150874Y0401891D01*
X0150846Y0401864D01*
X0150815Y0401839D01*
X0150782Y0401818D01*
X0150747Y0401800D01*
X0150710Y0401786D01*
X0150673Y0401775D01*
X0150634Y0401768D01*
X0150595Y0401765D01*
X0150556Y0401766D01*
X0150517Y0401771D01*
X0150478Y0401780D01*
X0150441Y0401792D01*
X0150405Y0401808D01*
X0150371Y0401828D01*
X0150339Y0401851D01*
X0150310Y0401877D01*
X0150283Y0401906D01*
X0150259Y0401937D01*
X0150239Y0401971D01*
X0150222Y0402006D01*
X0150209Y0402043D01*
X0150199Y0402081D01*
X0150193Y0402120D01*
X0150191Y0402159D01*
X0178518Y0395505D02*
X0178520Y0395544D01*
X0178526Y0395583D01*
X0178536Y0395621D01*
X0178549Y0395658D01*
X0178566Y0395693D01*
X0178586Y0395727D01*
X0178610Y0395758D01*
X0178637Y0395787D01*
X0178666Y0395813D01*
X0178698Y0395836D01*
X0178732Y0395856D01*
X0178768Y0395872D01*
X0178805Y0395884D01*
X0178844Y0395893D01*
X0178883Y0395898D01*
X0178922Y0395899D01*
X0178961Y0395896D01*
X0179000Y0395889D01*
X0179037Y0395878D01*
X0179074Y0395864D01*
X0179109Y0395846D01*
X0179142Y0395825D01*
X0179173Y0395800D01*
X0179201Y0395773D01*
X0179226Y0395743D01*
X0179248Y0395710D01*
X0179267Y0395676D01*
X0179282Y0395640D01*
X0179294Y0395602D01*
X0179302Y0395564D01*
X0179306Y0395525D01*
X0179306Y0395485D01*
X0179302Y0395446D01*
X0179294Y0395408D01*
X0179282Y0395370D01*
X0179267Y0395334D01*
X0179248Y0395300D01*
X0179226Y0395267D01*
X0179201Y0395237D01*
X0179173Y0395210D01*
X0179142Y0395185D01*
X0179109Y0395164D01*
X0179074Y0395146D01*
X0179037Y0395132D01*
X0179000Y0395121D01*
X0178961Y0395114D01*
X0178922Y0395111D01*
X0178883Y0395112D01*
X0178844Y0395117D01*
X0178805Y0395126D01*
X0178768Y0395138D01*
X0178732Y0395154D01*
X0178698Y0395174D01*
X0178666Y0395197D01*
X0178637Y0395223D01*
X0178610Y0395252D01*
X0178586Y0395283D01*
X0178566Y0395317D01*
X0178549Y0395352D01*
X0178536Y0395389D01*
X0178526Y0395427D01*
X0178520Y0395466D01*
X0178518Y0395505D01*
X0241333Y0385466D02*
X0241335Y0385493D01*
X0241341Y0385520D01*
X0241350Y0385546D01*
X0241363Y0385570D01*
X0241379Y0385593D01*
X0241398Y0385612D01*
X0241420Y0385629D01*
X0241444Y0385643D01*
X0241469Y0385653D01*
X0241496Y0385660D01*
X0241523Y0385663D01*
X0241551Y0385662D01*
X0241578Y0385657D01*
X0241604Y0385649D01*
X0241628Y0385637D01*
X0241651Y0385621D01*
X0241672Y0385603D01*
X0241689Y0385582D01*
X0241704Y0385558D01*
X0241715Y0385533D01*
X0241723Y0385507D01*
X0241727Y0385480D01*
X0241727Y0385452D01*
X0241723Y0385425D01*
X0241715Y0385399D01*
X0241704Y0385374D01*
X0241689Y0385350D01*
X0241672Y0385329D01*
X0241651Y0385311D01*
X0241629Y0385295D01*
X0241604Y0385283D01*
X0241578Y0385275D01*
X0241551Y0385270D01*
X0241523Y0385269D01*
X0241496Y0385272D01*
X0241469Y0385279D01*
X0241444Y0385289D01*
X0241420Y0385303D01*
X0241398Y0385320D01*
X0241379Y0385339D01*
X0241363Y0385362D01*
X0241350Y0385386D01*
X0241341Y0385412D01*
X0241335Y0385439D01*
X0241333Y0385466D01*
X0399404Y0223458D02*
X0399406Y0223485D01*
X0399412Y0223512D01*
X0399421Y0223538D01*
X0399434Y0223562D01*
X0399450Y0223585D01*
X0399469Y0223604D01*
X0399491Y0223621D01*
X0399515Y0223635D01*
X0399540Y0223645D01*
X0399567Y0223652D01*
X0399594Y0223655D01*
X0399622Y0223654D01*
X0399649Y0223649D01*
X0399675Y0223641D01*
X0399699Y0223629D01*
X0399722Y0223613D01*
X0399743Y0223595D01*
X0399760Y0223574D01*
X0399775Y0223550D01*
X0399786Y0223525D01*
X0399794Y0223499D01*
X0399798Y0223472D01*
X0399798Y0223444D01*
X0399794Y0223417D01*
X0399786Y0223391D01*
X0399775Y0223366D01*
X0399760Y0223342D01*
X0399743Y0223321D01*
X0399722Y0223303D01*
X0399700Y0223287D01*
X0399675Y0223275D01*
X0399649Y0223267D01*
X0399622Y0223262D01*
X0399594Y0223261D01*
X0399567Y0223264D01*
X0399540Y0223271D01*
X0399515Y0223281D01*
X0399491Y0223295D01*
X0399469Y0223312D01*
X0399450Y0223331D01*
X0399434Y0223354D01*
X0399421Y0223378D01*
X0399412Y0223404D01*
X0399406Y0223431D01*
X0399404Y0223458D01*
X0380506Y0165958D02*
X0380508Y0165997D01*
X0380514Y0166036D01*
X0380524Y0166074D01*
X0380537Y0166111D01*
X0380554Y0166146D01*
X0380574Y0166180D01*
X0380598Y0166211D01*
X0380625Y0166240D01*
X0380654Y0166266D01*
X0380686Y0166289D01*
X0380720Y0166309D01*
X0380756Y0166325D01*
X0380793Y0166337D01*
X0380832Y0166346D01*
X0380871Y0166351D01*
X0380910Y0166352D01*
X0380949Y0166349D01*
X0380988Y0166342D01*
X0381025Y0166331D01*
X0381062Y0166317D01*
X0381097Y0166299D01*
X0381130Y0166278D01*
X0381161Y0166253D01*
X0381189Y0166226D01*
X0381214Y0166196D01*
X0381236Y0166163D01*
X0381255Y0166129D01*
X0381270Y0166093D01*
X0381282Y0166055D01*
X0381290Y0166017D01*
X0381294Y0165978D01*
X0381294Y0165938D01*
X0381290Y0165899D01*
X0381282Y0165861D01*
X0381270Y0165823D01*
X0381255Y0165787D01*
X0381236Y0165753D01*
X0381214Y0165720D01*
X0381189Y0165690D01*
X0381161Y0165663D01*
X0381130Y0165638D01*
X0381097Y0165617D01*
X0381062Y0165599D01*
X0381025Y0165585D01*
X0380988Y0165574D01*
X0380949Y0165567D01*
X0380910Y0165564D01*
X0380871Y0165565D01*
X0380832Y0165570D01*
X0380793Y0165579D01*
X0380756Y0165591D01*
X0380720Y0165607D01*
X0380686Y0165627D01*
X0380654Y0165650D01*
X0380625Y0165676D01*
X0380598Y0165705D01*
X0380574Y0165736D01*
X0380554Y0165770D01*
X0380537Y0165805D01*
X0380524Y0165842D01*
X0380514Y0165880D01*
X0380508Y0165919D01*
X0380506Y0165958D01*
X0377002Y0136844D02*
X0377004Y0136883D01*
X0377010Y0136922D01*
X0377020Y0136960D01*
X0377033Y0136997D01*
X0377050Y0137032D01*
X0377070Y0137066D01*
X0377094Y0137097D01*
X0377121Y0137126D01*
X0377150Y0137152D01*
X0377182Y0137175D01*
X0377216Y0137195D01*
X0377252Y0137211D01*
X0377289Y0137223D01*
X0377328Y0137232D01*
X0377367Y0137237D01*
X0377406Y0137238D01*
X0377445Y0137235D01*
X0377484Y0137228D01*
X0377521Y0137217D01*
X0377558Y0137203D01*
X0377593Y0137185D01*
X0377626Y0137164D01*
X0377657Y0137139D01*
X0377685Y0137112D01*
X0377710Y0137082D01*
X0377732Y0137049D01*
X0377751Y0137015D01*
X0377766Y0136979D01*
X0377778Y0136941D01*
X0377786Y0136903D01*
X0377790Y0136864D01*
X0377790Y0136824D01*
X0377786Y0136785D01*
X0377778Y0136747D01*
X0377766Y0136709D01*
X0377751Y0136673D01*
X0377732Y0136639D01*
X0377710Y0136606D01*
X0377685Y0136576D01*
X0377657Y0136549D01*
X0377626Y0136524D01*
X0377593Y0136503D01*
X0377558Y0136485D01*
X0377521Y0136471D01*
X0377484Y0136460D01*
X0377445Y0136453D01*
X0377406Y0136450D01*
X0377367Y0136451D01*
X0377328Y0136456D01*
X0377289Y0136465D01*
X0377252Y0136477D01*
X0377216Y0136493D01*
X0377182Y0136513D01*
X0377150Y0136536D01*
X0377121Y0136562D01*
X0377094Y0136591D01*
X0377070Y0136622D01*
X0377050Y0136656D01*
X0377033Y0136691D01*
X0377020Y0136728D01*
X0377010Y0136766D01*
X0377004Y0136805D01*
X0377002Y0136844D01*
X0604148Y0380151D02*
X0604150Y0380190D01*
X0604156Y0380229D01*
X0604166Y0380267D01*
X0604179Y0380304D01*
X0604196Y0380339D01*
X0604216Y0380373D01*
X0604240Y0380404D01*
X0604267Y0380433D01*
X0604296Y0380459D01*
X0604328Y0380482D01*
X0604362Y0380502D01*
X0604398Y0380518D01*
X0604435Y0380530D01*
X0604474Y0380539D01*
X0604513Y0380544D01*
X0604552Y0380545D01*
X0604591Y0380542D01*
X0604630Y0380535D01*
X0604667Y0380524D01*
X0604704Y0380510D01*
X0604739Y0380492D01*
X0604772Y0380471D01*
X0604803Y0380446D01*
X0604831Y0380419D01*
X0604856Y0380389D01*
X0604878Y0380356D01*
X0604897Y0380322D01*
X0604912Y0380286D01*
X0604924Y0380248D01*
X0604932Y0380210D01*
X0604936Y0380171D01*
X0604936Y0380131D01*
X0604932Y0380092D01*
X0604924Y0380054D01*
X0604912Y0380016D01*
X0604897Y0379980D01*
X0604878Y0379946D01*
X0604856Y0379913D01*
X0604831Y0379883D01*
X0604803Y0379856D01*
X0604772Y0379831D01*
X0604739Y0379810D01*
X0604704Y0379792D01*
X0604667Y0379778D01*
X0604630Y0379767D01*
X0604591Y0379760D01*
X0604552Y0379757D01*
X0604513Y0379758D01*
X0604474Y0379763D01*
X0604435Y0379772D01*
X0604398Y0379784D01*
X0604362Y0379800D01*
X0604328Y0379820D01*
X0604296Y0379843D01*
X0604267Y0379869D01*
X0604240Y0379898D01*
X0604216Y0379929D01*
X0604196Y0379963D01*
X0604179Y0379998D01*
X0604166Y0380035D01*
X0604156Y0380073D01*
X0604150Y0380112D01*
X0604148Y0380151D01*
X0636805Y0377041D02*
X0636807Y0377080D01*
X0636813Y0377119D01*
X0636823Y0377157D01*
X0636836Y0377194D01*
X0636853Y0377229D01*
X0636873Y0377263D01*
X0636897Y0377294D01*
X0636924Y0377323D01*
X0636953Y0377349D01*
X0636985Y0377372D01*
X0637019Y0377392D01*
X0637055Y0377408D01*
X0637092Y0377420D01*
X0637131Y0377429D01*
X0637170Y0377434D01*
X0637209Y0377435D01*
X0637248Y0377432D01*
X0637287Y0377425D01*
X0637324Y0377414D01*
X0637361Y0377400D01*
X0637396Y0377382D01*
X0637429Y0377361D01*
X0637460Y0377336D01*
X0637488Y0377309D01*
X0637513Y0377279D01*
X0637535Y0377246D01*
X0637554Y0377212D01*
X0637569Y0377176D01*
X0637581Y0377138D01*
X0637589Y0377100D01*
X0637593Y0377061D01*
X0637593Y0377021D01*
X0637589Y0376982D01*
X0637581Y0376944D01*
X0637569Y0376906D01*
X0637554Y0376870D01*
X0637535Y0376836D01*
X0637513Y0376803D01*
X0637488Y0376773D01*
X0637460Y0376746D01*
X0637429Y0376721D01*
X0637396Y0376700D01*
X0637361Y0376682D01*
X0637324Y0376668D01*
X0637287Y0376657D01*
X0637248Y0376650D01*
X0637209Y0376647D01*
X0637170Y0376648D01*
X0637131Y0376653D01*
X0637092Y0376662D01*
X0637055Y0376674D01*
X0637019Y0376690D01*
X0636985Y0376710D01*
X0636953Y0376733D01*
X0636924Y0376759D01*
X0636897Y0376788D01*
X0636873Y0376819D01*
X0636853Y0376853D01*
X0636836Y0376888D01*
X0636823Y0376925D01*
X0636813Y0376963D01*
X0636807Y0377002D01*
X0636805Y0377041D01*
X0545270Y0395308D02*
X0545272Y0395335D01*
X0545278Y0395362D01*
X0545287Y0395388D01*
X0545300Y0395412D01*
X0545316Y0395435D01*
X0545335Y0395454D01*
X0545357Y0395471D01*
X0545381Y0395485D01*
X0545406Y0395495D01*
X0545433Y0395502D01*
X0545460Y0395505D01*
X0545488Y0395504D01*
X0545515Y0395499D01*
X0545541Y0395491D01*
X0545565Y0395479D01*
X0545588Y0395463D01*
X0545609Y0395445D01*
X0545626Y0395424D01*
X0545641Y0395400D01*
X0545652Y0395375D01*
X0545660Y0395349D01*
X0545664Y0395322D01*
X0545664Y0395294D01*
X0545660Y0395267D01*
X0545652Y0395241D01*
X0545641Y0395216D01*
X0545626Y0395192D01*
X0545609Y0395171D01*
X0545588Y0395153D01*
X0545566Y0395137D01*
X0545541Y0395125D01*
X0545515Y0395117D01*
X0545488Y0395112D01*
X0545460Y0395111D01*
X0545433Y0395114D01*
X0545406Y0395121D01*
X0545381Y0395131D01*
X0545357Y0395145D01*
X0545335Y0395162D01*
X0545316Y0395181D01*
X0545300Y0395204D01*
X0545287Y0395228D01*
X0545278Y0395254D01*
X0545272Y0395281D01*
X0545270Y0395308D01*
X0375782Y0569521D02*
X0375784Y0569548D01*
X0375790Y0569575D01*
X0375799Y0569601D01*
X0375812Y0569625D01*
X0375828Y0569648D01*
X0375847Y0569667D01*
X0375869Y0569684D01*
X0375893Y0569698D01*
X0375918Y0569708D01*
X0375945Y0569715D01*
X0375972Y0569718D01*
X0376000Y0569717D01*
X0376027Y0569712D01*
X0376053Y0569704D01*
X0376077Y0569692D01*
X0376100Y0569676D01*
X0376121Y0569658D01*
X0376138Y0569637D01*
X0376153Y0569613D01*
X0376164Y0569588D01*
X0376172Y0569562D01*
X0376176Y0569535D01*
X0376176Y0569507D01*
X0376172Y0569480D01*
X0376164Y0569454D01*
X0376153Y0569429D01*
X0376138Y0569405D01*
X0376121Y0569384D01*
X0376100Y0569366D01*
X0376078Y0569350D01*
X0376053Y0569338D01*
X0376027Y0569330D01*
X0376000Y0569325D01*
X0375972Y0569324D01*
X0375945Y0569327D01*
X0375918Y0569334D01*
X0375893Y0569344D01*
X0375869Y0569358D01*
X0375847Y0569375D01*
X0375828Y0569394D01*
X0375812Y0569417D01*
X0375799Y0569441D01*
X0375790Y0569467D01*
X0375784Y0569494D01*
X0375782Y0569521D01*
X0395467Y0617178D02*
X0395469Y0617217D01*
X0395475Y0617256D01*
X0395485Y0617294D01*
X0395498Y0617331D01*
X0395515Y0617366D01*
X0395535Y0617400D01*
X0395559Y0617431D01*
X0395586Y0617460D01*
X0395615Y0617486D01*
X0395647Y0617509D01*
X0395681Y0617529D01*
X0395717Y0617545D01*
X0395754Y0617557D01*
X0395793Y0617566D01*
X0395832Y0617571D01*
X0395871Y0617572D01*
X0395910Y0617569D01*
X0395949Y0617562D01*
X0395986Y0617551D01*
X0396023Y0617537D01*
X0396058Y0617519D01*
X0396091Y0617498D01*
X0396122Y0617473D01*
X0396150Y0617446D01*
X0396175Y0617416D01*
X0396197Y0617383D01*
X0396216Y0617349D01*
X0396231Y0617313D01*
X0396243Y0617275D01*
X0396251Y0617237D01*
X0396255Y0617198D01*
X0396255Y0617158D01*
X0396251Y0617119D01*
X0396243Y0617081D01*
X0396231Y0617043D01*
X0396216Y0617007D01*
X0396197Y0616973D01*
X0396175Y0616940D01*
X0396150Y0616910D01*
X0396122Y0616883D01*
X0396091Y0616858D01*
X0396058Y0616837D01*
X0396023Y0616819D01*
X0395986Y0616805D01*
X0395949Y0616794D01*
X0395910Y0616787D01*
X0395871Y0616784D01*
X0395832Y0616785D01*
X0395793Y0616790D01*
X0395754Y0616799D01*
X0395717Y0616811D01*
X0395681Y0616827D01*
X0395647Y0616847D01*
X0395615Y0616870D01*
X0395586Y0616896D01*
X0395559Y0616925D01*
X0395535Y0616956D01*
X0395515Y0616990D01*
X0395498Y0617025D01*
X0395485Y0617062D01*
X0395475Y0617100D01*
X0395469Y0617139D01*
X0395467Y0617178D01*
X0399364Y0641962D02*
X0399366Y0642001D01*
X0399372Y0642040D01*
X0399382Y0642078D01*
X0399395Y0642115D01*
X0399412Y0642150D01*
X0399432Y0642184D01*
X0399456Y0642215D01*
X0399483Y0642244D01*
X0399512Y0642270D01*
X0399544Y0642293D01*
X0399578Y0642313D01*
X0399614Y0642329D01*
X0399651Y0642341D01*
X0399690Y0642350D01*
X0399729Y0642355D01*
X0399768Y0642356D01*
X0399807Y0642353D01*
X0399846Y0642346D01*
X0399883Y0642335D01*
X0399920Y0642321D01*
X0399955Y0642303D01*
X0399988Y0642282D01*
X0400019Y0642257D01*
X0400047Y0642230D01*
X0400072Y0642200D01*
X0400094Y0642167D01*
X0400113Y0642133D01*
X0400128Y0642097D01*
X0400140Y0642059D01*
X0400148Y0642021D01*
X0400152Y0641982D01*
X0400152Y0641942D01*
X0400148Y0641903D01*
X0400140Y0641865D01*
X0400128Y0641827D01*
X0400113Y0641791D01*
X0400094Y0641757D01*
X0400072Y0641724D01*
X0400047Y0641694D01*
X0400019Y0641667D01*
X0399988Y0641642D01*
X0399955Y0641621D01*
X0399920Y0641603D01*
X0399883Y0641589D01*
X0399846Y0641578D01*
X0399807Y0641571D01*
X0399768Y0641568D01*
X0399729Y0641569D01*
X0399690Y0641574D01*
X0399651Y0641583D01*
X0399614Y0641595D01*
X0399578Y0641611D01*
X0399544Y0641631D01*
X0399512Y0641654D01*
X0399483Y0641680D01*
X0399456Y0641709D01*
X0399432Y0641740D01*
X0399412Y0641774D01*
X0399395Y0641809D01*
X0399382Y0641846D01*
X0399372Y0641884D01*
X0399366Y0641923D01*
X0399364Y0641962D01*
D17*
X0361839Y0475820D02*
X0361841Y0475867D01*
X0361847Y0475913D01*
X0361856Y0475959D01*
X0361870Y0476003D01*
X0361887Y0476047D01*
X0361908Y0476088D01*
X0361932Y0476128D01*
X0361959Y0476166D01*
X0361990Y0476201D01*
X0362023Y0476234D01*
X0362059Y0476264D01*
X0362098Y0476290D01*
X0362138Y0476314D01*
X0362180Y0476333D01*
X0362224Y0476350D01*
X0362269Y0476362D01*
X0362315Y0476371D01*
X0362361Y0476376D01*
X0362408Y0476377D01*
X0362454Y0476374D01*
X0362500Y0476367D01*
X0362546Y0476356D01*
X0362590Y0476342D01*
X0362633Y0476324D01*
X0362674Y0476302D01*
X0362714Y0476277D01*
X0362751Y0476249D01*
X0362786Y0476218D01*
X0362818Y0476184D01*
X0362847Y0476147D01*
X0362872Y0476109D01*
X0362895Y0476068D01*
X0362914Y0476025D01*
X0362929Y0475981D01*
X0362941Y0475936D01*
X0362949Y0475890D01*
X0362953Y0475843D01*
X0362953Y0475797D01*
X0362949Y0475750D01*
X0362941Y0475704D01*
X0362929Y0475659D01*
X0362914Y0475615D01*
X0362895Y0475572D01*
X0362872Y0475531D01*
X0362847Y0475493D01*
X0362818Y0475456D01*
X0362786Y0475422D01*
X0362751Y0475391D01*
X0362714Y0475363D01*
X0362675Y0475338D01*
X0362633Y0475316D01*
X0362590Y0475298D01*
X0362546Y0475284D01*
X0362500Y0475273D01*
X0362454Y0475266D01*
X0362408Y0475263D01*
X0362361Y0475264D01*
X0362315Y0475269D01*
X0362269Y0475278D01*
X0362224Y0475290D01*
X0362180Y0475307D01*
X0362138Y0475326D01*
X0362098Y0475350D01*
X0362059Y0475376D01*
X0362023Y0475406D01*
X0361990Y0475439D01*
X0361959Y0475474D01*
X0361932Y0475512D01*
X0361908Y0475552D01*
X0361887Y0475593D01*
X0361870Y0475637D01*
X0361856Y0475681D01*
X0361847Y0475727D01*
X0361841Y0475773D01*
X0361839Y0475820D01*
X0440579Y0475820D02*
X0440581Y0475867D01*
X0440587Y0475913D01*
X0440596Y0475959D01*
X0440610Y0476003D01*
X0440627Y0476047D01*
X0440648Y0476088D01*
X0440672Y0476128D01*
X0440699Y0476166D01*
X0440730Y0476201D01*
X0440763Y0476234D01*
X0440799Y0476264D01*
X0440838Y0476290D01*
X0440878Y0476314D01*
X0440920Y0476333D01*
X0440964Y0476350D01*
X0441009Y0476362D01*
X0441055Y0476371D01*
X0441101Y0476376D01*
X0441148Y0476377D01*
X0441194Y0476374D01*
X0441240Y0476367D01*
X0441286Y0476356D01*
X0441330Y0476342D01*
X0441373Y0476324D01*
X0441414Y0476302D01*
X0441454Y0476277D01*
X0441491Y0476249D01*
X0441526Y0476218D01*
X0441558Y0476184D01*
X0441587Y0476147D01*
X0441612Y0476109D01*
X0441635Y0476068D01*
X0441654Y0476025D01*
X0441669Y0475981D01*
X0441681Y0475936D01*
X0441689Y0475890D01*
X0441693Y0475843D01*
X0441693Y0475797D01*
X0441689Y0475750D01*
X0441681Y0475704D01*
X0441669Y0475659D01*
X0441654Y0475615D01*
X0441635Y0475572D01*
X0441612Y0475531D01*
X0441587Y0475493D01*
X0441558Y0475456D01*
X0441526Y0475422D01*
X0441491Y0475391D01*
X0441454Y0475363D01*
X0441415Y0475338D01*
X0441373Y0475316D01*
X0441330Y0475298D01*
X0441286Y0475284D01*
X0441240Y0475273D01*
X0441194Y0475266D01*
X0441148Y0475263D01*
X0441101Y0475264D01*
X0441055Y0475269D01*
X0441009Y0475278D01*
X0440964Y0475290D01*
X0440920Y0475307D01*
X0440878Y0475326D01*
X0440838Y0475350D01*
X0440799Y0475376D01*
X0440763Y0475406D01*
X0440730Y0475439D01*
X0440699Y0475474D01*
X0440672Y0475512D01*
X0440648Y0475552D01*
X0440627Y0475593D01*
X0440610Y0475637D01*
X0440596Y0475681D01*
X0440587Y0475727D01*
X0440581Y0475773D01*
X0440579Y0475820D01*
X0331131Y0254363D02*
X0331133Y0254410D01*
X0331139Y0254456D01*
X0331148Y0254502D01*
X0331162Y0254546D01*
X0331179Y0254590D01*
X0331200Y0254631D01*
X0331224Y0254671D01*
X0331251Y0254709D01*
X0331282Y0254744D01*
X0331315Y0254777D01*
X0331351Y0254807D01*
X0331390Y0254833D01*
X0331430Y0254857D01*
X0331472Y0254876D01*
X0331516Y0254893D01*
X0331561Y0254905D01*
X0331607Y0254914D01*
X0331653Y0254919D01*
X0331700Y0254920D01*
X0331746Y0254917D01*
X0331792Y0254910D01*
X0331838Y0254899D01*
X0331882Y0254885D01*
X0331925Y0254867D01*
X0331966Y0254845D01*
X0332006Y0254820D01*
X0332043Y0254792D01*
X0332078Y0254761D01*
X0332110Y0254727D01*
X0332139Y0254690D01*
X0332164Y0254652D01*
X0332187Y0254611D01*
X0332206Y0254568D01*
X0332221Y0254524D01*
X0332233Y0254479D01*
X0332241Y0254433D01*
X0332245Y0254386D01*
X0332245Y0254340D01*
X0332241Y0254293D01*
X0332233Y0254247D01*
X0332221Y0254202D01*
X0332206Y0254158D01*
X0332187Y0254115D01*
X0332164Y0254074D01*
X0332139Y0254036D01*
X0332110Y0253999D01*
X0332078Y0253965D01*
X0332043Y0253934D01*
X0332006Y0253906D01*
X0331967Y0253881D01*
X0331925Y0253859D01*
X0331882Y0253841D01*
X0331838Y0253827D01*
X0331792Y0253816D01*
X0331746Y0253809D01*
X0331700Y0253806D01*
X0331653Y0253807D01*
X0331607Y0253812D01*
X0331561Y0253821D01*
X0331516Y0253833D01*
X0331472Y0253850D01*
X0331430Y0253869D01*
X0331390Y0253893D01*
X0331351Y0253919D01*
X0331315Y0253949D01*
X0331282Y0253982D01*
X0331251Y0254017D01*
X0331224Y0254055D01*
X0331200Y0254095D01*
X0331179Y0254136D01*
X0331162Y0254180D01*
X0331148Y0254224D01*
X0331139Y0254270D01*
X0331133Y0254316D01*
X0331131Y0254363D01*
D18*
X0275664Y0267415D02*
X0275664Y0272415D01*
X0273164Y0274915D01*
X0275664Y0277415D01*
X0275664Y0282415D01*
X0273164Y0284915D01*
X0275664Y0287415D01*
X0275664Y0292415D01*
X0273164Y0294915D01*
X0275664Y0297415D01*
X0275664Y0302415D01*
X0273164Y0304915D01*
X0275664Y0307415D01*
X0275664Y0312415D01*
X0273164Y0314915D01*
X0275664Y0317415D01*
X0275664Y0322415D01*
X0273164Y0324915D01*
X0268164Y0324915D01*
X0265664Y0322415D01*
X0265664Y0317415D01*
X0268164Y0314915D01*
X0265664Y0312415D01*
X0265664Y0307415D01*
X0268164Y0304915D01*
X0265664Y0302415D01*
X0265664Y0297415D01*
X0268164Y0294915D01*
X0265664Y0292415D01*
X0265664Y0287415D01*
X0268164Y0284915D01*
X0265664Y0282415D01*
X0265664Y0277415D01*
X0268164Y0274915D01*
X0265664Y0272415D01*
X0265664Y0267415D01*
X0268164Y0264915D01*
X0273164Y0264915D01*
X0275664Y0267415D01*
X0348577Y0426450D02*
X0350940Y0426450D01*
X0356058Y0433930D02*
X0356058Y0438655D01*
X0350940Y0446135D02*
X0348577Y0446135D01*
X0343459Y0438655D02*
X0343459Y0433930D01*
X0324207Y0428970D02*
X0324207Y0427789D01*
X0323026Y0427789D01*
X0289955Y0427789D02*
X0288774Y0427789D01*
X0288774Y0428970D01*
X0288774Y0462041D02*
X0288774Y0463222D01*
X0289955Y0463222D01*
X0323026Y0463222D02*
X0324207Y0462041D01*
X0312566Y0496241D02*
X0312566Y0515241D01*
X0309566Y0512741D02*
X0308066Y0514241D01*
X0306566Y0512741D01*
X0308066Y0514241D02*
X0308066Y0510741D01*
X0303566Y0515241D02*
X0303566Y0496241D01*
X0456471Y0339639D02*
X0471471Y0339639D01*
X0473971Y0337139D01*
X0473971Y0332139D01*
X0471471Y0329639D01*
X0456471Y0329639D01*
X0453971Y0332139D01*
X0453971Y0337139D01*
X0456471Y0339639D01*
X0456471Y0329639D02*
X0453971Y0327139D01*
X0453971Y0322139D01*
X0456471Y0319639D02*
X0453971Y0317139D01*
X0453971Y0312139D01*
X0456471Y0309639D01*
X0471471Y0309639D01*
X0473971Y0312139D02*
X0473971Y0317139D01*
X0471471Y0319639D02*
X0456471Y0319639D01*
X0471471Y0319639D02*
X0473971Y0322139D01*
X0473971Y0327139D01*
X0471471Y0329639D01*
X0499916Y0323596D02*
X0502416Y0326096D01*
X0507416Y0326096D01*
X0509916Y0323596D01*
X0509916Y0318596D01*
X0507416Y0316096D01*
X0509916Y0313596D01*
X0509916Y0308596D01*
X0507416Y0306096D01*
X0509916Y0303596D01*
X0509916Y0298596D01*
X0507416Y0296096D01*
X0509916Y0293596D01*
X0509916Y0288596D01*
X0507416Y0286096D01*
X0509916Y0283596D01*
X0509916Y0278596D01*
X0507416Y0276096D01*
X0509916Y0273596D01*
X0509916Y0268596D01*
X0507416Y0266096D01*
X0502416Y0266096D01*
X0499916Y0268596D01*
X0499916Y0273596D01*
X0502416Y0276096D01*
X0499916Y0278596D01*
X0499916Y0283596D01*
X0502416Y0286096D01*
X0499916Y0288596D01*
X0499916Y0293596D01*
X0502416Y0296096D01*
X0499916Y0298596D01*
X0499916Y0303596D01*
X0502416Y0306096D01*
X0499916Y0308596D01*
X0499916Y0313596D01*
X0502416Y0316096D01*
X0499916Y0318596D01*
X0499916Y0323596D01*
D19*
X0553229Y0381401D02*
X0552701Y0381929D01*
X0552701Y0382985D01*
X0553229Y0383512D01*
X0555340Y0383512D01*
X0555868Y0382985D01*
X0555868Y0381929D01*
X0555340Y0381401D01*
X0553229Y0381401D01*
X0554813Y0382457D02*
X0555868Y0383512D01*
X0555340Y0384591D02*
X0555868Y0385119D01*
X0555868Y0386175D01*
X0555340Y0386703D01*
X0554813Y0386703D01*
X0554285Y0386175D01*
X0554285Y0385647D01*
X0554285Y0386175D02*
X0553757Y0386703D01*
X0553229Y0386703D01*
X0552701Y0386175D01*
X0552701Y0385119D01*
X0553229Y0384591D01*
X0401844Y0389409D02*
X0401844Y0390465D01*
X0401316Y0390993D01*
X0398677Y0390993D01*
X0399204Y0392071D02*
X0398677Y0392599D01*
X0398677Y0393655D01*
X0399204Y0394183D01*
X0399732Y0394183D01*
X0401844Y0392071D01*
X0401844Y0394183D01*
X0401844Y0389409D02*
X0401316Y0388881D01*
X0398677Y0388881D01*
X0234293Y0393821D02*
X0233766Y0393293D01*
X0231654Y0393293D01*
X0231126Y0393821D01*
X0231126Y0394877D01*
X0231654Y0395404D01*
X0233766Y0395404D01*
X0234293Y0394877D01*
X0234293Y0393821D01*
X0233238Y0394349D02*
X0234293Y0395404D01*
X0234293Y0396483D02*
X0234293Y0398595D01*
X0234293Y0397539D02*
X0231126Y0397539D01*
X0232182Y0396483D01*
X0384334Y0576758D02*
X0383806Y0577285D01*
X0383806Y0579397D01*
X0384334Y0579925D01*
X0385390Y0579925D01*
X0385918Y0579397D01*
X0385918Y0577285D01*
X0385390Y0576758D01*
X0384334Y0576758D01*
X0384862Y0577813D02*
X0385918Y0576758D01*
X0386996Y0578341D02*
X0389108Y0578341D01*
X0388580Y0576758D02*
X0388580Y0579925D01*
X0386996Y0578341D01*
X0387277Y0216224D02*
X0387805Y0215696D01*
X0387805Y0213585D01*
X0387277Y0213057D01*
X0386221Y0213057D01*
X0385694Y0213585D01*
X0385694Y0215696D01*
X0386221Y0216224D01*
X0387277Y0216224D01*
X0388884Y0215696D02*
X0389412Y0216224D01*
X0390467Y0216224D01*
X0390995Y0215696D01*
X0390995Y0215168D01*
X0388884Y0213057D01*
X0390995Y0213057D01*
X0387805Y0213057D02*
X0386749Y0214112D01*
M02*
