%
M48
M72
T01C0.01500
T02C0.02362
T03C0.03937
T04C0.04000
T05C0.04331
T06C0.05512
%
T01
X330987Y300631
X342387Y307831
X351387Y307831
X325587Y334531
X321987Y330631
X325587Y380731
X303387Y425731
X303687Y438631
X310587Y443131
X319287Y428431
X327387Y436231
X311487Y460831
X291387Y465031
X288087Y453931
X285087Y447931
X294687Y447931
X280587Y427531
X270687Y445831
X271887Y401431
X266787Y394531
X252687Y376231
X211287Y374431
X193287Y395131
X373287Y403831
X381387Y409531
X390087Y410431
X380487Y420031
X377187Y439831
X381387Y377431
X390387Y314431
X394287Y270031
X386787Y242131
X445587Y310831
X466887Y288031
X461487Y378031
X465687Y389431
X501087Y386131
X525087Y390931
X514587Y499831
X395787Y602731
X388287Y577831
T02
X317121Y493143
X310821Y493143
X310821Y484482
X317121Y484482
X272239Y484482
X272239Y492356
X258066Y354560
X258066Y342749
T03
X445487Y377631
X445487Y387631
T04
X270664Y269915
X270664Y279915
X270664Y289915
X270664Y299915
X270664Y309915
X270664Y319915
X296254Y272670
X306254Y272670
X316254Y272670
X326254Y272670
X336254Y272670
X346254Y272670
X316884Y372789
X316884Y382789
X306884Y382789
X296884Y382789
X296884Y372789
X306884Y372789
T05
X449010Y364560
X449010Y354560
X507672Y419915
X507672Y429915
X507672Y439915
X507672Y449915
X507672Y459915
X507672Y469915
X507672Y479915
X507672Y489915
X507672Y499915
X507672Y509915
T06
X435428Y416568
X435428Y358694
X340546Y358694
X340546Y416568
M30
