G75*
%MOIN*%
%OFA0B0*%
%FSLAX25Y25*%
%IPPOS*%
%LPD*%
%AMOC8*
5,1,8,0,0,1.08239X$1,22.5*
%
%ADD10R,0.03150X0.01378*%
%ADD11C,0.05937*%
%ADD12C,0.01956*%
%ADD13C,0.01959*%
%ADD14C,0.01575*%
%ADD15C,0.07874*%
%ADD16R,0.07400X0.07400*%
%ADD17OC8,0.07400*%
%ADD18R,0.06496X0.06496*%
%ADD19C,0.06496*%
%ADD20C,0.07400*%
%ADD21R,0.08858X0.11417*%
%ADD22R,0.09055X0.03937*%
%ADD23R,0.11417X0.08858*%
%ADD24R,0.03937X0.09055*%
%ADD25C,0.01811*%
%ADD26R,0.10000X0.04000*%
%ADD27R,0.07874X0.07874*%
%ADD28R,0.01102X0.06150*%
%ADD29R,0.06150X0.01102*%
%ADD30C,0.00453*%
%ADD31R,0.04331X0.07480*%
%ADD32C,0.00600*%
%ADD33C,0.04500*%
%ADD34OC8,0.05362*%
%ADD35C,0.01800*%
D10*
X0303341Y0480348D03*
X0303341Y0482907D03*
X0303341Y0485466D03*
X0309640Y0485466D03*
X0309640Y0482907D03*
X0309640Y0480348D03*
D11*
X0442518Y0387631D02*
X0448455Y0387631D01*
X0448455Y0377631D02*
X0442518Y0377631D01*
D12*
X0424942Y0402350D02*
X0422646Y0402350D01*
X0422646Y0405984D01*
X0424942Y0405984D01*
X0424942Y0402350D01*
X0424942Y0404305D02*
X0422646Y0404305D01*
X0417895Y0405984D02*
X0415599Y0405984D01*
X0417895Y0405984D02*
X0417895Y0402350D01*
X0415599Y0402350D01*
X0415599Y0405984D01*
X0415599Y0404305D02*
X0417895Y0404305D01*
X0410276Y0397421D02*
X0410276Y0395125D01*
X0406642Y0395125D01*
X0406642Y0397421D01*
X0410276Y0397421D01*
X0410276Y0397080D02*
X0406642Y0397080D01*
X0406642Y0390374D02*
X0406642Y0388078D01*
X0406642Y0390374D02*
X0410276Y0390374D01*
X0410276Y0388078D01*
X0406642Y0388078D01*
X0406642Y0390033D02*
X0410276Y0390033D01*
X0410276Y0382067D02*
X0410276Y0379771D01*
X0406642Y0379771D01*
X0406642Y0382067D01*
X0410276Y0382067D01*
X0410276Y0381726D02*
X0406642Y0381726D01*
X0406642Y0375019D02*
X0406642Y0372723D01*
X0406642Y0375019D02*
X0410276Y0375019D01*
X0410276Y0372723D01*
X0406642Y0372723D01*
X0406642Y0374678D02*
X0410276Y0374678D01*
X0375336Y0417704D02*
X0373040Y0417704D01*
X0373040Y0421338D01*
X0375336Y0421338D01*
X0375336Y0417704D01*
X0375336Y0419659D02*
X0373040Y0419659D01*
X0368288Y0421338D02*
X0365992Y0421338D01*
X0368288Y0421338D02*
X0368288Y0417704D01*
X0365992Y0417704D01*
X0365992Y0421338D01*
X0365992Y0419659D02*
X0368288Y0419659D01*
X0365304Y0439652D02*
X0365304Y0441948D01*
X0368938Y0441948D01*
X0368938Y0439652D01*
X0365304Y0439652D01*
X0365304Y0441607D02*
X0368938Y0441607D01*
X0368938Y0446700D02*
X0368938Y0448996D01*
X0368938Y0446700D02*
X0365304Y0446700D01*
X0365304Y0448996D01*
X0368938Y0448996D01*
X0368938Y0448655D02*
X0365304Y0448655D01*
X0365304Y0455007D02*
X0365304Y0457303D01*
X0368938Y0457303D01*
X0368938Y0455007D01*
X0365304Y0455007D01*
X0365304Y0456962D02*
X0368938Y0456962D01*
X0368938Y0462054D02*
X0368938Y0464350D01*
X0368938Y0462054D02*
X0365304Y0462054D01*
X0365304Y0464350D01*
X0368938Y0464350D01*
X0368938Y0464009D02*
X0365304Y0464009D01*
X0349745Y0452350D02*
X0347449Y0452350D01*
X0347449Y0455984D01*
X0349745Y0455984D01*
X0349745Y0452350D01*
X0349745Y0454305D02*
X0347449Y0454305D01*
X0342698Y0455984D02*
X0340402Y0455984D01*
X0342698Y0455984D02*
X0342698Y0452350D01*
X0340402Y0452350D01*
X0340402Y0455984D01*
X0340402Y0454305D02*
X0342698Y0454305D01*
X0400638Y0428818D02*
X0402934Y0428818D01*
X0402934Y0425184D01*
X0400638Y0425184D01*
X0400638Y0428818D01*
X0400638Y0427139D02*
X0402934Y0427139D01*
X0407685Y0425184D02*
X0409981Y0425184D01*
X0407685Y0425184D02*
X0407685Y0428818D01*
X0409981Y0428818D01*
X0409981Y0425184D01*
X0409981Y0427139D02*
X0407685Y0427139D01*
X0530749Y0399783D02*
X0530749Y0397487D01*
X0527115Y0397487D01*
X0527115Y0399783D01*
X0530749Y0399783D01*
X0530749Y0399442D02*
X0527115Y0399442D01*
X0527115Y0392736D02*
X0527115Y0390440D01*
X0527115Y0392736D02*
X0530749Y0392736D01*
X0530749Y0390440D01*
X0527115Y0390440D01*
X0527115Y0392395D02*
X0530749Y0392395D01*
X0476300Y0272145D02*
X0476300Y0269849D01*
X0472666Y0269849D01*
X0472666Y0272145D01*
X0476300Y0272145D01*
X0476300Y0271804D02*
X0472666Y0271804D01*
X0472666Y0265098D02*
X0472666Y0262802D01*
X0472666Y0265098D02*
X0476300Y0265098D01*
X0476300Y0262802D01*
X0472666Y0262802D01*
X0472666Y0264757D02*
X0476300Y0264757D01*
X0402107Y0234239D02*
X0399811Y0234239D01*
X0399811Y0237873D01*
X0402107Y0237873D01*
X0402107Y0234239D01*
X0402107Y0236194D02*
X0399811Y0236194D01*
X0395060Y0237873D02*
X0392764Y0237873D01*
X0395060Y0237873D02*
X0395060Y0234239D01*
X0392764Y0234239D01*
X0392764Y0237873D01*
X0392764Y0236194D02*
X0395060Y0236194D01*
X0266878Y0379810D02*
X0266878Y0382106D01*
X0270512Y0382106D01*
X0270512Y0379810D01*
X0266878Y0379810D01*
X0266878Y0381765D02*
X0270512Y0381765D01*
X0270512Y0386857D02*
X0270512Y0389153D01*
X0270512Y0386857D02*
X0266878Y0386857D01*
X0266878Y0389153D01*
X0270512Y0389153D01*
X0270512Y0388812D02*
X0266878Y0388812D01*
X0265926Y0431968D02*
X0263630Y0431968D01*
X0265926Y0431968D02*
X0265926Y0428334D01*
X0263630Y0428334D01*
X0263630Y0431968D01*
X0263630Y0430289D02*
X0265926Y0430289D01*
X0270677Y0428334D02*
X0272973Y0428334D01*
X0270677Y0428334D02*
X0270677Y0431968D01*
X0272973Y0431968D01*
X0272973Y0428334D01*
X0272973Y0430289D02*
X0270677Y0430289D01*
X0277803Y0480787D02*
X0280099Y0480787D01*
X0280099Y0477153D01*
X0277803Y0477153D01*
X0277803Y0480787D01*
X0277803Y0479108D02*
X0280099Y0479108D01*
X0284851Y0477153D02*
X0287147Y0477153D01*
X0284851Y0477153D02*
X0284851Y0480787D01*
X0287147Y0480787D01*
X0287147Y0477153D01*
X0287147Y0479108D02*
X0284851Y0479108D01*
X0284457Y0492901D02*
X0286753Y0492901D01*
X0284457Y0492901D02*
X0284457Y0496535D01*
X0286753Y0496535D01*
X0286753Y0492901D01*
X0286753Y0494856D02*
X0284457Y0494856D01*
X0279706Y0496535D02*
X0277410Y0496535D01*
X0279706Y0496535D02*
X0279706Y0492901D01*
X0277410Y0492901D01*
X0277410Y0496535D01*
X0277410Y0494856D02*
X0279706Y0494856D01*
X0372292Y0558739D02*
X0374588Y0558739D01*
X0374588Y0555105D01*
X0372292Y0555105D01*
X0372292Y0558739D01*
X0372292Y0557060D02*
X0374588Y0557060D01*
X0379339Y0555105D02*
X0381635Y0555105D01*
X0379339Y0555105D02*
X0379339Y0558739D01*
X0381635Y0558739D01*
X0381635Y0555105D01*
X0381635Y0557060D02*
X0379339Y0557060D01*
D13*
X0392057Y0582292D02*
X0392057Y0589664D01*
X0399665Y0589664D01*
X0399665Y0582292D01*
X0392057Y0582292D01*
X0392057Y0584250D02*
X0399665Y0584250D01*
X0399665Y0586208D02*
X0392057Y0586208D01*
X0392057Y0588166D02*
X0399665Y0588166D01*
X0399665Y0606859D02*
X0399665Y0614231D01*
X0399665Y0606859D02*
X0392057Y0606859D01*
X0392057Y0614231D01*
X0399665Y0614231D01*
X0399665Y0608817D02*
X0392057Y0608817D01*
X0392057Y0610775D02*
X0399665Y0610775D01*
X0399665Y0612733D02*
X0392057Y0612733D01*
X0213799Y0391701D02*
X0206427Y0391701D01*
X0206427Y0399309D01*
X0213799Y0399309D01*
X0213799Y0391701D01*
X0213799Y0393659D02*
X0206427Y0393659D01*
X0206427Y0395617D02*
X0213799Y0395617D01*
X0213799Y0397575D02*
X0206427Y0397575D01*
X0189232Y0399309D02*
X0181860Y0399309D01*
X0189232Y0399309D02*
X0189232Y0391701D01*
X0181860Y0391701D01*
X0181860Y0399309D01*
X0181860Y0393659D02*
X0189232Y0393659D01*
X0189232Y0395617D02*
X0181860Y0395617D01*
X0181860Y0397575D02*
X0189232Y0397575D01*
X0384704Y0200845D02*
X0384704Y0193473D01*
X0377096Y0193473D01*
X0377096Y0200845D01*
X0384704Y0200845D01*
X0384704Y0195431D02*
X0377096Y0195431D01*
X0377096Y0197389D02*
X0384704Y0197389D01*
X0384704Y0199347D02*
X0377096Y0199347D01*
X0377096Y0176278D02*
X0377096Y0168906D01*
X0377096Y0176278D02*
X0384704Y0176278D01*
X0384704Y0168906D01*
X0377096Y0168906D01*
X0377096Y0170864D02*
X0384704Y0170864D01*
X0384704Y0172822D02*
X0377096Y0172822D01*
X0377096Y0174780D02*
X0384704Y0174780D01*
X0569655Y0383955D02*
X0577027Y0383955D01*
X0577027Y0376347D01*
X0569655Y0376347D01*
X0569655Y0383955D01*
X0569655Y0378305D02*
X0577027Y0378305D01*
X0577027Y0380263D02*
X0569655Y0380263D01*
X0569655Y0382221D02*
X0577027Y0382221D01*
X0594222Y0376347D02*
X0601594Y0376347D01*
X0594222Y0376347D02*
X0594222Y0383955D01*
X0601594Y0383955D01*
X0601594Y0376347D01*
X0601594Y0378305D02*
X0594222Y0378305D01*
X0594222Y0380263D02*
X0601594Y0380263D01*
X0601594Y0382221D02*
X0594222Y0382221D01*
D14*
X0636411Y0383143D02*
X0636411Y0379797D01*
X0636411Y0383143D02*
X0637987Y0383143D01*
X0637987Y0379797D01*
X0636411Y0379797D01*
X0636411Y0381371D02*
X0637987Y0381371D01*
X0637987Y0382945D02*
X0636411Y0382945D01*
X0637987Y0392907D02*
X0637987Y0396253D01*
X0637987Y0392907D02*
X0636411Y0392907D01*
X0636411Y0396253D01*
X0637987Y0396253D01*
X0637987Y0394481D02*
X0636411Y0394481D01*
X0636411Y0396055D02*
X0637987Y0396055D01*
X0397002Y0641174D02*
X0393656Y0641174D01*
X0393656Y0642750D01*
X0397002Y0642750D01*
X0397002Y0641174D01*
X0397002Y0642748D02*
X0393656Y0642748D01*
X0383892Y0642750D02*
X0380546Y0642750D01*
X0383892Y0642750D02*
X0383892Y0641174D01*
X0380546Y0641174D01*
X0380546Y0642750D01*
X0380546Y0642748D02*
X0383892Y0642748D01*
X0151373Y0399403D02*
X0151373Y0396057D01*
X0149797Y0396057D01*
X0149797Y0399403D01*
X0151373Y0399403D01*
X0151373Y0397631D02*
X0149797Y0397631D01*
X0149797Y0399205D02*
X0151373Y0399205D01*
X0149797Y0386292D02*
X0149797Y0382946D01*
X0149797Y0386292D02*
X0151373Y0386292D01*
X0151373Y0382946D01*
X0149797Y0382946D01*
X0149797Y0384520D02*
X0151373Y0384520D01*
X0151373Y0386094D02*
X0149797Y0386094D01*
X0380152Y0137632D02*
X0383498Y0137632D01*
X0383498Y0136056D01*
X0380152Y0136056D01*
X0380152Y0137632D01*
X0380152Y0137630D02*
X0383498Y0137630D01*
X0393263Y0136056D02*
X0396609Y0136056D01*
X0393263Y0136056D02*
X0393263Y0137632D01*
X0396609Y0137632D01*
X0396609Y0136056D01*
X0396609Y0137630D02*
X0393263Y0137630D01*
D15*
X0332475Y0292159D02*
X0324601Y0292159D01*
X0332475Y0292159D02*
X0332475Y0260663D01*
X0324601Y0260663D01*
X0324601Y0292159D01*
X0324601Y0268536D02*
X0332475Y0268536D01*
X0332475Y0276409D02*
X0324601Y0276409D01*
X0324601Y0284282D02*
X0332475Y0284282D01*
X0332475Y0292155D02*
X0324601Y0292155D01*
X0311215Y0292159D02*
X0303341Y0292159D01*
X0311215Y0292159D02*
X0311215Y0260663D01*
X0303341Y0260663D01*
X0303341Y0292159D01*
X0303341Y0268536D02*
X0311215Y0268536D01*
X0311215Y0276409D02*
X0303341Y0276409D01*
X0303341Y0284282D02*
X0311215Y0284282D01*
X0311215Y0292155D02*
X0303341Y0292155D01*
X0334050Y0513615D02*
X0341924Y0513615D01*
X0341924Y0482119D01*
X0334050Y0482119D01*
X0334050Y0513615D01*
X0334050Y0489992D02*
X0341924Y0489992D01*
X0341924Y0497865D02*
X0334050Y0497865D01*
X0334050Y0505738D02*
X0341924Y0505738D01*
X0341924Y0513611D02*
X0334050Y0513611D01*
X0355310Y0513615D02*
X0363184Y0513615D01*
X0363184Y0482119D01*
X0355310Y0482119D01*
X0355310Y0513615D01*
X0355310Y0489992D02*
X0363184Y0489992D01*
X0363184Y0497865D02*
X0355310Y0497865D01*
X0355310Y0505738D02*
X0363184Y0505738D01*
X0363184Y0513611D02*
X0355310Y0513611D01*
X0412790Y0513615D02*
X0420664Y0513615D01*
X0420664Y0482119D01*
X0412790Y0482119D01*
X0412790Y0513615D01*
X0412790Y0489992D02*
X0420664Y0489992D01*
X0420664Y0497865D02*
X0412790Y0497865D01*
X0412790Y0505738D02*
X0420664Y0505738D01*
X0420664Y0513611D02*
X0412790Y0513611D01*
X0434050Y0513615D02*
X0441924Y0513615D01*
X0441924Y0482119D01*
X0434050Y0482119D01*
X0434050Y0513615D01*
X0434050Y0489992D02*
X0441924Y0489992D01*
X0441924Y0497865D02*
X0434050Y0497865D01*
X0434050Y0505738D02*
X0441924Y0505738D01*
X0441924Y0513611D02*
X0434050Y0513611D01*
D16*
X0468971Y0314639D03*
D17*
X0458971Y0314639D03*
X0458971Y0324639D03*
X0468971Y0324639D03*
X0468971Y0334639D03*
X0458971Y0334639D03*
D18*
X0449010Y0354560D03*
X0508066Y0425820D03*
D19*
X0508066Y0435820D03*
X0508066Y0445820D03*
X0508066Y0455820D03*
X0508066Y0465820D03*
X0508066Y0475820D03*
X0508066Y0485820D03*
X0508066Y0495820D03*
X0508066Y0505820D03*
X0508066Y0515820D03*
X0449010Y0364560D03*
D20*
X0270664Y0269915D03*
X0270664Y0279915D03*
X0270664Y0289915D03*
X0270664Y0299915D03*
X0270664Y0309915D03*
X0270664Y0319915D03*
X0504916Y0321096D03*
X0504916Y0311096D03*
X0504916Y0301096D03*
X0504916Y0291096D03*
X0504916Y0281096D03*
X0504916Y0271096D03*
D21*
X0554325Y0394718D03*
X0232672Y0386056D03*
D22*
X0242514Y0382316D03*
X0242514Y0389796D03*
X0544483Y0390978D03*
X0544483Y0398458D03*
D23*
X0376569Y0578379D03*
X0399010Y0214600D03*
D24*
X0395270Y0224442D03*
X0402751Y0224442D03*
X0380310Y0568537D03*
X0372829Y0568537D03*
D25*
X0383715Y0547710D02*
X0385527Y0547710D01*
X0385527Y0544088D01*
X0383715Y0544088D01*
X0383715Y0547710D01*
X0383715Y0545898D02*
X0385527Y0545898D01*
X0385527Y0547708D02*
X0383715Y0547708D01*
X0391234Y0544088D02*
X0393046Y0544088D01*
X0391234Y0544088D02*
X0391234Y0547710D01*
X0393046Y0547710D01*
X0393046Y0544088D01*
X0393046Y0545898D02*
X0391234Y0545898D01*
X0391234Y0547708D02*
X0393046Y0547708D01*
X0376412Y0528124D02*
X0376412Y0526312D01*
X0372790Y0526312D01*
X0372790Y0528124D01*
X0376412Y0528124D01*
X0376412Y0528122D02*
X0372790Y0528122D01*
X0372790Y0520604D02*
X0372790Y0518792D01*
X0372790Y0520604D02*
X0376412Y0520604D01*
X0376412Y0518792D01*
X0372790Y0518792D01*
X0372790Y0520602D02*
X0376412Y0520602D01*
X0396864Y0472119D02*
X0398676Y0472119D01*
X0398676Y0468497D01*
X0396864Y0468497D01*
X0396864Y0472119D01*
X0396864Y0470307D02*
X0398676Y0470307D01*
X0398676Y0472117D02*
X0396864Y0472117D01*
X0404384Y0468497D02*
X0406196Y0468497D01*
X0404384Y0468497D02*
X0404384Y0472119D01*
X0406196Y0472119D01*
X0406196Y0468497D01*
X0406196Y0470307D02*
X0404384Y0470307D01*
X0404384Y0472117D02*
X0406196Y0472117D01*
X0452711Y0479776D02*
X0452711Y0481588D01*
X0456333Y0481588D01*
X0456333Y0479776D01*
X0452711Y0479776D01*
X0452711Y0481586D02*
X0456333Y0481586D01*
X0456333Y0487296D02*
X0456333Y0489108D01*
X0456333Y0487296D02*
X0452711Y0487296D01*
X0452711Y0489108D01*
X0456333Y0489108D01*
X0456333Y0489106D02*
X0452711Y0489106D01*
X0394621Y0403143D02*
X0392809Y0403143D01*
X0392809Y0406765D01*
X0394621Y0406765D01*
X0394621Y0403143D01*
X0394621Y0404953D02*
X0392809Y0404953D01*
X0392809Y0406763D02*
X0394621Y0406763D01*
X0387101Y0406765D02*
X0385289Y0406765D01*
X0387101Y0406765D02*
X0387101Y0403143D01*
X0385289Y0403143D01*
X0385289Y0406765D01*
X0385289Y0404953D02*
X0387101Y0404953D01*
X0387101Y0406763D02*
X0385289Y0406763D01*
X0320900Y0350722D02*
X0320900Y0348910D01*
X0317278Y0348910D01*
X0317278Y0350722D01*
X0320900Y0350722D01*
X0320900Y0350720D02*
X0317278Y0350720D01*
X0317278Y0343202D02*
X0317278Y0341390D01*
X0317278Y0343202D02*
X0320900Y0343202D01*
X0320900Y0341390D01*
X0317278Y0341390D01*
X0317278Y0343200D02*
X0320900Y0343200D01*
X0300388Y0343990D02*
X0300388Y0342178D01*
X0300388Y0343990D02*
X0304010Y0343990D01*
X0304010Y0342178D01*
X0300388Y0342178D01*
X0300388Y0343988D02*
X0304010Y0343988D01*
X0304010Y0349698D02*
X0304010Y0351510D01*
X0304010Y0349698D02*
X0300388Y0349698D01*
X0300388Y0351510D01*
X0304010Y0351510D01*
X0304010Y0351508D02*
X0300388Y0351508D01*
X0292593Y0351116D02*
X0292593Y0349304D01*
X0288971Y0349304D01*
X0288971Y0351116D01*
X0292593Y0351116D01*
X0292593Y0351114D02*
X0288971Y0351114D01*
X0288971Y0343596D02*
X0288971Y0341784D01*
X0288971Y0343596D02*
X0292593Y0343596D01*
X0292593Y0341784D01*
X0288971Y0341784D01*
X0288971Y0343594D02*
X0292593Y0343594D01*
X0253892Y0379816D02*
X0253892Y0381628D01*
X0257514Y0381628D01*
X0257514Y0379816D01*
X0253892Y0379816D01*
X0253892Y0381626D02*
X0257514Y0381626D01*
X0257514Y0387335D02*
X0257514Y0389147D01*
X0257514Y0387335D02*
X0253892Y0387335D01*
X0253892Y0389147D01*
X0257514Y0389147D01*
X0257514Y0389145D02*
X0253892Y0389145D01*
X0248952Y0371253D02*
X0247140Y0371253D01*
X0247140Y0374875D01*
X0248952Y0374875D01*
X0248952Y0371253D01*
X0248952Y0373063D02*
X0247140Y0373063D01*
X0247140Y0374873D02*
X0248952Y0374873D01*
X0241432Y0374875D02*
X0239620Y0374875D01*
X0241432Y0374875D02*
X0241432Y0371253D01*
X0239620Y0371253D01*
X0239620Y0374875D01*
X0239620Y0373063D02*
X0241432Y0373063D01*
X0241432Y0374873D02*
X0239620Y0374873D01*
X0383321Y0248104D02*
X0385133Y0248104D01*
X0385133Y0244482D01*
X0383321Y0244482D01*
X0383321Y0248104D01*
X0383321Y0246292D02*
X0385133Y0246292D01*
X0385133Y0248102D02*
X0383321Y0248102D01*
X0390841Y0244482D02*
X0392653Y0244482D01*
X0390841Y0244482D02*
X0390841Y0248104D01*
X0392653Y0248104D01*
X0392653Y0244482D01*
X0392653Y0246292D02*
X0390841Y0246292D01*
X0390841Y0248102D02*
X0392653Y0248102D01*
X0393163Y0266214D02*
X0394975Y0266214D01*
X0394975Y0262592D01*
X0393163Y0262592D01*
X0393163Y0266214D01*
X0393163Y0264402D02*
X0394975Y0264402D01*
X0394975Y0266212D02*
X0393163Y0266212D01*
X0400683Y0262592D02*
X0402495Y0262592D01*
X0400683Y0262592D02*
X0400683Y0266214D01*
X0402495Y0266214D01*
X0402495Y0262592D01*
X0402495Y0264402D02*
X0400683Y0264402D01*
X0400683Y0266212D02*
X0402495Y0266212D01*
X0517672Y0390052D02*
X0517672Y0391864D01*
X0521294Y0391864D01*
X0521294Y0390052D01*
X0517672Y0390052D01*
X0517672Y0391862D02*
X0521294Y0391862D01*
X0521294Y0397572D02*
X0521294Y0399384D01*
X0521294Y0397572D02*
X0517672Y0397572D01*
X0517672Y0399384D01*
X0521294Y0399384D01*
X0521294Y0399382D02*
X0517672Y0399382D01*
X0502495Y0395663D02*
X0500683Y0395663D01*
X0500683Y0399285D01*
X0502495Y0399285D01*
X0502495Y0395663D01*
X0502495Y0397473D02*
X0500683Y0397473D01*
X0500683Y0399283D02*
X0502495Y0399283D01*
X0494975Y0399285D02*
X0493163Y0399285D01*
X0494975Y0399285D02*
X0494975Y0395663D01*
X0493163Y0395663D01*
X0493163Y0399285D01*
X0493163Y0397473D02*
X0494975Y0397473D01*
X0494975Y0399283D02*
X0493163Y0399283D01*
D26*
X0308066Y0492741D03*
X0308066Y0518741D03*
D27*
X0376176Y0628576D03*
X0387987Y0628576D03*
X0618695Y0395111D03*
X0618695Y0383300D03*
X0398223Y0150623D03*
X0386412Y0150623D03*
X0164365Y0375426D03*
X0164365Y0387237D03*
D28*
X0291727Y0426289D03*
X0293695Y0426289D03*
X0295664Y0426289D03*
X0297632Y0426289D03*
X0299601Y0426289D03*
X0301569Y0426289D03*
X0303538Y0426289D03*
X0305506Y0426289D03*
X0307475Y0426289D03*
X0309443Y0426289D03*
X0311412Y0426289D03*
X0313380Y0426289D03*
X0315349Y0426289D03*
X0317317Y0426289D03*
X0319286Y0426289D03*
X0321254Y0426289D03*
X0321254Y0464722D03*
X0319286Y0464722D03*
X0317317Y0464722D03*
X0315349Y0464722D03*
X0313380Y0464722D03*
X0311412Y0464722D03*
X0309443Y0464722D03*
X0307475Y0464722D03*
X0305506Y0464722D03*
X0303538Y0464722D03*
X0301569Y0464722D03*
X0299601Y0464722D03*
X0297632Y0464722D03*
X0295664Y0464722D03*
X0293695Y0464722D03*
X0291727Y0464722D03*
D29*
X0287274Y0460269D03*
X0287274Y0458300D03*
X0287274Y0456332D03*
X0287274Y0454363D03*
X0287274Y0452395D03*
X0287274Y0450426D03*
X0287274Y0448458D03*
X0287274Y0446489D03*
X0287274Y0444521D03*
X0287274Y0442552D03*
X0287274Y0440584D03*
X0287274Y0438615D03*
X0287274Y0436647D03*
X0287274Y0434678D03*
X0287274Y0432710D03*
X0287274Y0430741D03*
X0325707Y0430741D03*
X0325707Y0432710D03*
X0325707Y0434678D03*
X0325707Y0436647D03*
X0325707Y0438615D03*
X0325707Y0440584D03*
X0325707Y0442552D03*
X0325707Y0444521D03*
X0325707Y0446489D03*
X0325707Y0448458D03*
X0325707Y0450426D03*
X0325707Y0452395D03*
X0325707Y0454363D03*
X0325707Y0456332D03*
X0325707Y0458300D03*
X0325707Y0460269D03*
D30*
X0378764Y0393921D02*
X0378764Y0393467D01*
X0378764Y0393921D02*
X0383824Y0393921D01*
X0383824Y0393467D01*
X0378764Y0393467D01*
X0378764Y0393919D02*
X0383824Y0393919D01*
X0385122Y0392778D02*
X0385576Y0392778D01*
X0385122Y0392778D02*
X0385122Y0397838D01*
X0385576Y0397838D01*
X0385576Y0392778D01*
X0385576Y0393230D02*
X0385122Y0393230D01*
X0385122Y0393682D02*
X0385576Y0393682D01*
X0385576Y0394134D02*
X0385122Y0394134D01*
X0385122Y0394586D02*
X0385576Y0394586D01*
X0385576Y0395038D02*
X0385122Y0395038D01*
X0385122Y0395490D02*
X0385576Y0395490D01*
X0385576Y0395942D02*
X0385122Y0395942D01*
X0385122Y0396394D02*
X0385576Y0396394D01*
X0385576Y0396846D02*
X0385122Y0396846D01*
X0385122Y0397298D02*
X0385576Y0397298D01*
X0385576Y0397750D02*
X0385122Y0397750D01*
X0386882Y0392778D02*
X0387336Y0392778D01*
X0386882Y0392778D02*
X0386882Y0397838D01*
X0387336Y0397838D01*
X0387336Y0392778D01*
X0387336Y0393230D02*
X0386882Y0393230D01*
X0386882Y0393682D02*
X0387336Y0393682D01*
X0387336Y0394134D02*
X0386882Y0394134D01*
X0386882Y0394586D02*
X0387336Y0394586D01*
X0387336Y0395038D02*
X0386882Y0395038D01*
X0386882Y0395490D02*
X0387336Y0395490D01*
X0387336Y0395942D02*
X0386882Y0395942D01*
X0386882Y0396394D02*
X0387336Y0396394D01*
X0387336Y0396846D02*
X0386882Y0396846D01*
X0386882Y0397298D02*
X0387336Y0397298D01*
X0387336Y0397750D02*
X0386882Y0397750D01*
X0388638Y0392778D02*
X0389092Y0392778D01*
X0388638Y0392778D02*
X0388638Y0397838D01*
X0389092Y0397838D01*
X0389092Y0392778D01*
X0389092Y0393230D02*
X0388638Y0393230D01*
X0388638Y0393682D02*
X0389092Y0393682D01*
X0389092Y0394134D02*
X0388638Y0394134D01*
X0388638Y0394586D02*
X0389092Y0394586D01*
X0389092Y0395038D02*
X0388638Y0395038D01*
X0388638Y0395490D02*
X0389092Y0395490D01*
X0389092Y0395942D02*
X0388638Y0395942D01*
X0388638Y0396394D02*
X0389092Y0396394D01*
X0389092Y0396846D02*
X0388638Y0396846D01*
X0388638Y0397298D02*
X0389092Y0397298D01*
X0389092Y0397750D02*
X0388638Y0397750D01*
X0390398Y0392778D02*
X0390852Y0392778D01*
X0390398Y0392778D02*
X0390398Y0397838D01*
X0390852Y0397838D01*
X0390852Y0392778D01*
X0390852Y0393230D02*
X0390398Y0393230D01*
X0390398Y0393682D02*
X0390852Y0393682D01*
X0390852Y0394134D02*
X0390398Y0394134D01*
X0390398Y0394586D02*
X0390852Y0394586D01*
X0390852Y0395038D02*
X0390398Y0395038D01*
X0390398Y0395490D02*
X0390852Y0395490D01*
X0390852Y0395942D02*
X0390398Y0395942D01*
X0390398Y0396394D02*
X0390852Y0396394D01*
X0390852Y0396846D02*
X0390398Y0396846D01*
X0390398Y0397298D02*
X0390852Y0397298D01*
X0390852Y0397750D02*
X0390398Y0397750D01*
X0392150Y0393921D02*
X0392150Y0393467D01*
X0392150Y0393921D02*
X0397210Y0393921D01*
X0397210Y0393467D01*
X0392150Y0393467D01*
X0392150Y0393919D02*
X0397210Y0393919D01*
X0397210Y0392189D02*
X0397210Y0391735D01*
X0392150Y0391735D01*
X0392150Y0392189D01*
X0397210Y0392189D01*
X0397210Y0392187D02*
X0392150Y0392187D01*
X0392150Y0390457D02*
X0392150Y0390003D01*
X0392150Y0390457D02*
X0397210Y0390457D01*
X0397210Y0390003D01*
X0392150Y0390003D01*
X0392150Y0390455D02*
X0397210Y0390455D01*
X0392150Y0388724D02*
X0392150Y0388270D01*
X0392150Y0388724D02*
X0397210Y0388724D01*
X0397210Y0388270D01*
X0392150Y0388270D01*
X0392150Y0388722D02*
X0397210Y0388722D01*
X0392150Y0386992D02*
X0392150Y0386538D01*
X0392150Y0386992D02*
X0397210Y0386992D01*
X0397210Y0386538D01*
X0392150Y0386538D01*
X0392150Y0386990D02*
X0397210Y0386990D01*
X0392150Y0385260D02*
X0392150Y0384806D01*
X0392150Y0385260D02*
X0397210Y0385260D01*
X0397210Y0384806D01*
X0392150Y0384806D01*
X0392150Y0385258D02*
X0397210Y0385258D01*
X0392150Y0383527D02*
X0392150Y0383073D01*
X0392150Y0383527D02*
X0397210Y0383527D01*
X0397210Y0383073D01*
X0392150Y0383073D01*
X0392150Y0383525D02*
X0397210Y0383525D01*
X0392150Y0381795D02*
X0392150Y0381341D01*
X0392150Y0381795D02*
X0397210Y0381795D01*
X0397210Y0381341D01*
X0392150Y0381341D01*
X0392150Y0381793D02*
X0397210Y0381793D01*
X0390852Y0377424D02*
X0390398Y0377424D01*
X0390398Y0382484D01*
X0390852Y0382484D01*
X0390852Y0377424D01*
X0390852Y0377876D02*
X0390398Y0377876D01*
X0390398Y0378328D02*
X0390852Y0378328D01*
X0390852Y0378780D02*
X0390398Y0378780D01*
X0390398Y0379232D02*
X0390852Y0379232D01*
X0390852Y0379684D02*
X0390398Y0379684D01*
X0390398Y0380136D02*
X0390852Y0380136D01*
X0390852Y0380588D02*
X0390398Y0380588D01*
X0390398Y0381040D02*
X0390852Y0381040D01*
X0390852Y0381492D02*
X0390398Y0381492D01*
X0390398Y0381944D02*
X0390852Y0381944D01*
X0390852Y0382396D02*
X0390398Y0382396D01*
X0389092Y0377424D02*
X0388638Y0377424D01*
X0388638Y0382484D01*
X0389092Y0382484D01*
X0389092Y0377424D01*
X0389092Y0377876D02*
X0388638Y0377876D01*
X0388638Y0378328D02*
X0389092Y0378328D01*
X0389092Y0378780D02*
X0388638Y0378780D01*
X0388638Y0379232D02*
X0389092Y0379232D01*
X0389092Y0379684D02*
X0388638Y0379684D01*
X0388638Y0380136D02*
X0389092Y0380136D01*
X0389092Y0380588D02*
X0388638Y0380588D01*
X0388638Y0381040D02*
X0389092Y0381040D01*
X0389092Y0381492D02*
X0388638Y0381492D01*
X0388638Y0381944D02*
X0389092Y0381944D01*
X0389092Y0382396D02*
X0388638Y0382396D01*
X0387336Y0377424D02*
X0386882Y0377424D01*
X0386882Y0382484D01*
X0387336Y0382484D01*
X0387336Y0377424D01*
X0387336Y0377876D02*
X0386882Y0377876D01*
X0386882Y0378328D02*
X0387336Y0378328D01*
X0387336Y0378780D02*
X0386882Y0378780D01*
X0386882Y0379232D02*
X0387336Y0379232D01*
X0387336Y0379684D02*
X0386882Y0379684D01*
X0386882Y0380136D02*
X0387336Y0380136D01*
X0387336Y0380588D02*
X0386882Y0380588D01*
X0386882Y0381040D02*
X0387336Y0381040D01*
X0387336Y0381492D02*
X0386882Y0381492D01*
X0386882Y0381944D02*
X0387336Y0381944D01*
X0387336Y0382396D02*
X0386882Y0382396D01*
X0385576Y0377424D02*
X0385122Y0377424D01*
X0385122Y0382484D01*
X0385576Y0382484D01*
X0385576Y0377424D01*
X0385576Y0377876D02*
X0385122Y0377876D01*
X0385122Y0378328D02*
X0385576Y0378328D01*
X0385576Y0378780D02*
X0385122Y0378780D01*
X0385122Y0379232D02*
X0385576Y0379232D01*
X0385576Y0379684D02*
X0385122Y0379684D01*
X0385122Y0380136D02*
X0385576Y0380136D01*
X0385576Y0380588D02*
X0385122Y0380588D01*
X0385122Y0381040D02*
X0385576Y0381040D01*
X0385576Y0381492D02*
X0385122Y0381492D01*
X0385122Y0381944D02*
X0385576Y0381944D01*
X0385576Y0382396D02*
X0385122Y0382396D01*
X0378764Y0381795D02*
X0378764Y0381341D01*
X0378764Y0381795D02*
X0383824Y0381795D01*
X0383824Y0381341D01*
X0378764Y0381341D01*
X0378764Y0381793D02*
X0383824Y0381793D01*
X0378764Y0383073D02*
X0378764Y0383527D01*
X0383824Y0383527D01*
X0383824Y0383073D01*
X0378764Y0383073D01*
X0378764Y0383525D02*
X0383824Y0383525D01*
X0378764Y0384806D02*
X0378764Y0385260D01*
X0383824Y0385260D01*
X0383824Y0384806D01*
X0378764Y0384806D01*
X0378764Y0385258D02*
X0383824Y0385258D01*
X0378764Y0386538D02*
X0378764Y0386992D01*
X0383824Y0386992D01*
X0383824Y0386538D01*
X0378764Y0386538D01*
X0378764Y0386990D02*
X0383824Y0386990D01*
X0378764Y0388270D02*
X0378764Y0388724D01*
X0383824Y0388724D01*
X0383824Y0388270D01*
X0378764Y0388270D01*
X0378764Y0388722D02*
X0383824Y0388722D01*
X0378764Y0390003D02*
X0378764Y0390457D01*
X0383824Y0390457D01*
X0383824Y0390003D01*
X0378764Y0390003D01*
X0378764Y0390455D02*
X0383824Y0390455D01*
X0383824Y0391735D02*
X0383824Y0392189D01*
X0383824Y0391735D02*
X0378764Y0391735D01*
X0378764Y0392189D01*
X0383824Y0392189D01*
X0383824Y0392187D02*
X0378764Y0392187D01*
D31*
X0354286Y0429009D03*
X0345231Y0429009D03*
X0345231Y0443576D03*
X0354286Y0443576D03*
D32*
X0345387Y0443731D02*
X0357687Y0456031D01*
X0366987Y0456031D01*
X0367121Y0456155D01*
X0370887Y0458731D02*
X0370887Y0445831D01*
X0367287Y0442231D01*
X0367287Y0441031D01*
X0367121Y0440800D01*
X0366987Y0446431D02*
X0354537Y0433981D01*
X0354387Y0434131D01*
X0347487Y0434131D01*
X0337287Y0444331D01*
X0325887Y0444331D01*
X0325707Y0444521D01*
X0325887Y0446431D02*
X0325707Y0446489D01*
X0325887Y0446431D02*
X0342387Y0446431D01*
X0345087Y0443731D01*
X0345231Y0443576D01*
X0345387Y0443731D01*
X0343587Y0448531D02*
X0325887Y0448531D01*
X0325707Y0448458D01*
X0325587Y0448231D01*
X0322287Y0448231D01*
X0321837Y0447781D01*
X0321687Y0447931D01*
X0321687Y0453331D01*
X0321837Y0453481D01*
X0321687Y0453631D01*
X0317187Y0453631D01*
X0309237Y0461581D01*
X0308187Y0460531D01*
X0304587Y0460531D01*
X0303837Y0461281D01*
X0300087Y0457531D01*
X0291387Y0457531D01*
X0291237Y0457381D01*
X0290187Y0458431D01*
X0287787Y0458431D01*
X0287274Y0458300D01*
X0287487Y0458431D01*
X0287487Y0460231D01*
X0287274Y0460269D01*
X0291237Y0457381D02*
X0291387Y0457231D01*
X0291387Y0454831D01*
X0290637Y0454081D01*
X0291387Y0453331D01*
X0291387Y0447631D01*
X0290637Y0446881D01*
X0291687Y0445831D01*
X0291687Y0426331D01*
X0291727Y0426289D01*
X0291387Y0423331D01*
X0292587Y0422131D01*
X0294687Y0422131D01*
X0295587Y0423031D01*
X0295587Y0426031D01*
X0295664Y0426289D01*
X0293787Y0426331D02*
X0293787Y0429331D01*
X0294987Y0430531D01*
X0294987Y0434731D01*
X0294987Y0430531D02*
X0312087Y0430531D01*
X0313287Y0429331D01*
X0313287Y0426331D01*
X0313380Y0426289D01*
X0315349Y0426289D02*
X0315387Y0426331D01*
X0315387Y0435331D01*
X0322437Y0442381D01*
X0321687Y0443131D01*
X0321687Y0447631D01*
X0321837Y0447781D01*
X0325707Y0450426D02*
X0325887Y0450331D01*
X0343587Y0450331D01*
X0344787Y0451531D01*
X0344787Y0459331D01*
X0341550Y0454167D02*
X0341487Y0453931D01*
X0330387Y0453931D01*
X0328887Y0452431D01*
X0325887Y0452431D01*
X0325707Y0452395D01*
X0325587Y0454231D02*
X0325707Y0454363D01*
X0325587Y0454231D02*
X0322587Y0454231D01*
X0321837Y0453481D01*
X0322587Y0442531D02*
X0325587Y0442531D01*
X0325707Y0442552D01*
X0325887Y0440731D02*
X0325707Y0440584D01*
X0325887Y0440731D02*
X0331887Y0440731D01*
X0330987Y0434431D02*
X0336687Y0428731D01*
X0336687Y0425131D01*
X0338787Y0423031D01*
X0364887Y0423031D01*
X0376287Y0434431D01*
X0494187Y0434431D01*
X0494187Y0397531D01*
X0494069Y0397474D01*
X0496887Y0394831D02*
X0483687Y0381631D01*
X0421887Y0381631D01*
X0396987Y0356731D01*
X0393987Y0356731D01*
X0393837Y0356581D01*
X0393987Y0356431D01*
X0393987Y0264631D01*
X0394069Y0264403D01*
X0328538Y0276411D02*
X0328287Y0276631D01*
X0328287Y0282031D01*
X0302487Y0307831D01*
X0302487Y0342931D01*
X0302199Y0343084D01*
X0304587Y0347431D02*
X0307287Y0350131D01*
X0307287Y0422131D01*
X0322287Y0422131D01*
X0326487Y0426331D01*
X0330987Y0426331D01*
X0334287Y0429331D02*
X0330987Y0432631D01*
X0325887Y0432631D01*
X0325707Y0432710D01*
X0325887Y0434431D02*
X0325707Y0434678D01*
X0325887Y0434431D02*
X0330987Y0434431D01*
X0334287Y0429331D02*
X0334287Y0416131D01*
X0393837Y0356581D01*
X0402687Y0374131D02*
X0395187Y0381631D01*
X0394680Y0381568D01*
X0394587Y0381331D01*
X0393387Y0380131D01*
X0390687Y0380131D01*
X0390625Y0379954D01*
X0390387Y0380131D01*
X0388887Y0380131D01*
X0388865Y0379954D01*
X0388587Y0380131D01*
X0387387Y0380131D01*
X0387109Y0379954D01*
X0387087Y0380131D01*
X0385587Y0380131D01*
X0385349Y0379954D01*
X0385287Y0380131D01*
X0378087Y0380131D01*
X0368787Y0389431D01*
X0368787Y0419731D01*
X0367140Y0419521D01*
X0367287Y0419731D01*
X0368487Y0419731D01*
X0372087Y0423331D01*
X0399687Y0423331D01*
X0399987Y0423031D01*
X0404787Y0423031D01*
X0408687Y0426931D01*
X0408833Y0427001D01*
X0406887Y0430831D02*
X0410787Y0430831D01*
X0415287Y0426331D01*
X0415287Y0404131D01*
X0416747Y0404167D01*
X0416487Y0404131D01*
X0415287Y0404131D01*
X0410487Y0404131D01*
X0408537Y0402181D01*
X0412287Y0398431D01*
X0412287Y0394231D01*
X0411087Y0393031D01*
X0406587Y0393031D01*
X0403587Y0390031D01*
X0395187Y0390031D01*
X0394680Y0390230D01*
X0394887Y0390031D01*
X0394887Y0388531D01*
X0394680Y0388497D01*
X0394680Y0386765D02*
X0394887Y0386731D01*
X0402687Y0386731D01*
X0408387Y0381031D01*
X0408459Y0380919D01*
X0412287Y0382831D02*
X0408687Y0386431D01*
X0408687Y0389131D01*
X0408459Y0389226D01*
X0408987Y0389131D01*
X0423987Y0404131D01*
X0423794Y0404167D01*
X0423987Y0404131D02*
X0431187Y0396931D01*
X0465387Y0396931D01*
X0445487Y0377631D02*
X0445587Y0377431D01*
X0445587Y0368131D01*
X0448887Y0364831D01*
X0449010Y0364560D01*
X0412287Y0378331D02*
X0408387Y0374431D01*
X0408459Y0373871D01*
X0408387Y0374131D01*
X0402687Y0374131D01*
X0394887Y0381631D02*
X0394680Y0381568D01*
X0394887Y0381631D02*
X0394887Y0383131D01*
X0394680Y0383300D01*
X0394887Y0383431D01*
X0394887Y0384931D01*
X0394680Y0385033D01*
X0394680Y0391962D02*
X0394887Y0392131D01*
X0403887Y0392131D01*
X0407787Y0396031D01*
X0408387Y0396031D01*
X0408459Y0396273D01*
X0407787Y0401431D02*
X0400287Y0393931D01*
X0394887Y0393931D01*
X0394680Y0393694D01*
X0390687Y0395431D02*
X0390625Y0395308D01*
X0390687Y0395431D02*
X0393687Y0398431D01*
X0393987Y0398431D01*
X0393687Y0398431D02*
X0393687Y0404731D01*
X0393715Y0404954D01*
X0393987Y0405031D01*
X0410787Y0421831D01*
X0411987Y0421831D01*
X0414087Y0431131D02*
X0411987Y0433231D01*
X0400587Y0433231D01*
X0395187Y0427831D01*
X0401787Y0427231D02*
X0401786Y0427001D01*
X0401787Y0427231D02*
X0403287Y0427231D01*
X0406887Y0430831D01*
X0414087Y0431131D02*
X0457587Y0431131D01*
X0494187Y0434431D02*
X0494187Y0451831D01*
X0507987Y0465631D01*
X0508066Y0465820D01*
X0512487Y0460231D02*
X0508287Y0456031D01*
X0508066Y0455820D01*
X0512487Y0460231D02*
X0512487Y0477331D01*
X0509787Y0480031D01*
X0506187Y0480031D01*
X0503187Y0477031D01*
X0410787Y0477031D01*
X0408537Y0479281D01*
X0402387Y0473131D01*
X0402387Y0469531D01*
X0367587Y0434731D01*
X0359787Y0434731D01*
X0354537Y0433981D02*
X0354387Y0433831D01*
X0354387Y0429031D01*
X0354286Y0429009D01*
X0358887Y0424231D02*
X0342087Y0424231D01*
X0339987Y0426331D01*
X0325707Y0430741D02*
X0325587Y0430831D01*
X0322587Y0430831D01*
X0319587Y0433831D01*
X0319587Y0434731D01*
X0322437Y0442381D02*
X0322587Y0442531D01*
X0309237Y0461581D02*
X0309387Y0461731D01*
X0309387Y0464431D01*
X0309443Y0464722D01*
X0309687Y0464731D01*
X0309687Y0468031D01*
X0312387Y0470731D01*
X0312387Y0481231D01*
X0310887Y0482731D01*
X0309687Y0482731D01*
X0309640Y0482907D01*
X0309640Y0480348D02*
X0309387Y0480331D01*
X0309387Y0469831D01*
X0307587Y0468031D01*
X0307587Y0464731D01*
X0307475Y0464722D01*
X0305506Y0464722D02*
X0305487Y0464731D01*
X0305487Y0467731D01*
X0303387Y0469831D01*
X0303387Y0480331D01*
X0303341Y0480348D01*
X0303087Y0482731D02*
X0303341Y0482907D01*
X0303087Y0482731D02*
X0289887Y0482731D01*
X0286287Y0479131D01*
X0285999Y0478970D01*
X0280287Y0478831D02*
X0286587Y0472531D01*
X0296787Y0472531D01*
X0301587Y0467731D01*
X0301587Y0465031D01*
X0301569Y0464722D01*
X0301587Y0464731D01*
X0303387Y0464731D01*
X0303538Y0464722D01*
X0303687Y0464431D01*
X0303687Y0461431D01*
X0303837Y0461281D01*
X0299601Y0464722D02*
X0299487Y0464731D01*
X0299487Y0468031D01*
X0296187Y0471331D01*
X0289587Y0471331D01*
X0260487Y0442231D01*
X0260487Y0424831D01*
X0290487Y0394831D01*
X0290487Y0350431D01*
X0290782Y0350210D01*
X0288087Y0347431D02*
X0304587Y0347431D01*
X0302199Y0350604D02*
X0302187Y0350731D01*
X0302187Y0384931D01*
X0261687Y0425431D01*
X0261687Y0436831D01*
X0267387Y0442531D01*
X0267387Y0447331D01*
X0290187Y0470131D01*
X0293187Y0470131D01*
X0295587Y0467731D01*
X0295587Y0464731D01*
X0295664Y0464722D01*
X0293695Y0464722D02*
X0293487Y0464731D01*
X0293487Y0468031D01*
X0292587Y0468931D01*
X0290787Y0468931D01*
X0268587Y0446731D01*
X0268587Y0427531D01*
X0279687Y0416431D01*
X0280887Y0413131D02*
X0291687Y0423931D01*
X0291687Y0426031D01*
X0291727Y0426289D01*
X0293695Y0426289D02*
X0293787Y0426331D01*
X0281787Y0425431D02*
X0277887Y0429331D01*
X0277887Y0438331D01*
X0283887Y0444331D01*
X0287187Y0444331D01*
X0287274Y0444521D01*
X0287274Y0446489D02*
X0287487Y0446731D01*
X0290487Y0446731D01*
X0290637Y0446881D01*
X0287187Y0448231D02*
X0287274Y0448458D01*
X0287187Y0448231D02*
X0282387Y0448231D01*
X0281187Y0447031D01*
X0279987Y0450331D02*
X0287187Y0450331D01*
X0287274Y0450426D01*
X0287487Y0450631D01*
X0287487Y0452131D01*
X0287274Y0452395D01*
X0287487Y0454231D02*
X0287274Y0454363D01*
X0287487Y0454231D02*
X0290487Y0454231D01*
X0290637Y0454081D01*
X0279987Y0450331D02*
X0271887Y0442231D01*
X0271887Y0430231D01*
X0271825Y0430151D01*
X0264987Y0429931D02*
X0264778Y0430151D01*
X0264987Y0429931D02*
X0264987Y0426631D01*
X0271587Y0420031D01*
X0278487Y0413131D01*
X0280887Y0413131D01*
X0281187Y0430531D02*
X0281187Y0439531D01*
X0284187Y0442531D01*
X0287187Y0442531D01*
X0287274Y0442552D01*
X0307475Y0426289D02*
X0307287Y0426031D01*
X0307287Y0422131D01*
X0343587Y0448531D02*
X0348387Y0453331D01*
X0348387Y0453931D01*
X0348597Y0454167D01*
X0348687Y0454231D01*
X0354087Y0454231D01*
X0362787Y0462931D01*
X0366987Y0462931D01*
X0367121Y0463202D01*
X0366987Y0462631D01*
X0370887Y0458731D01*
X0367121Y0447848D02*
X0366987Y0447631D01*
X0366987Y0446431D01*
X0370287Y0435631D02*
X0358887Y0424231D01*
X0374188Y0419521D02*
X0374487Y0419431D01*
X0374487Y0416431D01*
X0380187Y0410731D01*
X0383037Y0407881D01*
X0378387Y0403231D01*
X0378387Y0400531D01*
X0382887Y0396031D01*
X0382887Y0395131D01*
X0383037Y0394981D01*
X0383187Y0395131D01*
X0385287Y0395131D01*
X0385349Y0395308D01*
X0387087Y0395431D02*
X0387109Y0395308D01*
X0387087Y0395431D02*
X0387087Y0398131D01*
X0383487Y0401731D01*
X0381687Y0401731D01*
X0386487Y0400531D02*
X0388587Y0398431D01*
X0388587Y0395431D01*
X0388865Y0395308D01*
X0386487Y0400531D02*
X0386487Y0404731D01*
X0386195Y0404954D01*
X0385887Y0405031D01*
X0383037Y0407881D01*
X0383037Y0394981D02*
X0381687Y0393631D01*
X0381294Y0393694D01*
X0381387Y0393631D01*
X0381387Y0392131D01*
X0381294Y0391962D01*
X0381387Y0391831D01*
X0381387Y0390331D01*
X0381294Y0390230D01*
X0381087Y0390031D01*
X0378387Y0390031D01*
X0377487Y0389131D01*
X0377487Y0382531D01*
X0378387Y0381631D01*
X0381087Y0381631D01*
X0381294Y0381568D01*
X0407787Y0401431D02*
X0408537Y0402181D01*
X0412287Y0382831D02*
X0412287Y0378331D01*
X0379887Y0435631D02*
X0370287Y0435631D01*
X0379887Y0435631D02*
X0419787Y0475531D01*
X0507987Y0475531D01*
X0508066Y0475820D01*
X0508066Y0445820D02*
X0507987Y0445531D01*
X0507987Y0441631D01*
X0496887Y0430531D01*
X0496887Y0394831D01*
X0454522Y0488202D02*
X0454287Y0488431D01*
X0447387Y0488431D01*
X0438087Y0497731D01*
X0437987Y0497867D01*
X0408537Y0479281D02*
X0374787Y0513031D01*
X0374787Y0519631D01*
X0374601Y0519698D01*
X0359487Y0497731D02*
X0359247Y0497867D01*
X0359487Y0497731D02*
X0386787Y0470431D01*
X0397587Y0470431D01*
X0397770Y0470308D01*
X0280287Y0478831D02*
X0279087Y0478831D01*
X0278951Y0478970D01*
X0278787Y0479131D01*
X0278787Y0494431D01*
X0278558Y0494718D01*
X0262587Y0372931D02*
X0248187Y0372931D01*
X0248046Y0373064D01*
X0262587Y0372931D02*
X0288087Y0347431D01*
X0290782Y0342690D02*
X0290787Y0342631D01*
X0290787Y0337831D01*
X0313587Y0347731D02*
X0318987Y0342331D01*
X0319089Y0342296D01*
X0324687Y0344131D02*
X0319287Y0349531D01*
X0319089Y0349816D01*
X0270664Y0319915D02*
X0270687Y0319831D01*
X0306987Y0283531D01*
X0306987Y0276631D01*
X0307278Y0276411D01*
X0474483Y0270997D02*
X0474687Y0270931D01*
X0504687Y0270931D01*
X0504916Y0271096D01*
D33*
X0401487Y0258631D03*
X0396087Y0250831D03*
X0324687Y0344131D03*
X0313587Y0347731D03*
X0290787Y0337831D03*
X0279687Y0416431D03*
X0271587Y0420031D03*
X0281787Y0425431D03*
X0281187Y0430531D03*
X0294987Y0434731D03*
X0281187Y0447031D03*
X0260487Y0420331D03*
X0315687Y0475531D03*
X0344787Y0459331D03*
X0331887Y0440731D03*
X0319587Y0434731D03*
X0330987Y0426331D03*
X0339987Y0426331D03*
X0359787Y0434731D03*
X0380187Y0410731D03*
X0381687Y0401731D03*
X0393987Y0398431D03*
X0407787Y0401431D03*
X0411987Y0421831D03*
X0395187Y0427831D03*
X0410187Y0470431D03*
X0405987Y0507331D03*
X0448587Y0480331D03*
X0457587Y0431131D03*
X0465387Y0396931D03*
X0482487Y0378331D03*
X0499887Y0390931D03*
X0193287Y0395731D03*
D34*
X0271845Y0332513D03*
X0495467Y0485663D03*
X0498223Y0511647D03*
D35*
X0508066Y0495820D02*
X0508587Y0495031D01*
X0514287Y0489331D01*
X0514287Y0416131D01*
X0526587Y0403831D01*
X0566787Y0403831D01*
X0590187Y0380431D01*
X0597087Y0380431D01*
X0597908Y0380151D01*
X0597987Y0380431D01*
X0615687Y0380431D01*
X0618087Y0382831D01*
X0618695Y0383300D01*
X0618987Y0383131D01*
X0620487Y0381631D01*
X0636987Y0381631D01*
X0637199Y0381470D01*
X0640287Y0378631D02*
X0635487Y0373831D01*
X0593187Y0373831D01*
X0572487Y0394531D01*
X0554487Y0394531D01*
X0554325Y0394718D01*
X0545187Y0390631D02*
X0555387Y0380431D01*
X0573087Y0380431D01*
X0573341Y0380151D01*
X0545187Y0390631D02*
X0544483Y0390978D01*
X0544287Y0391231D01*
X0529587Y0391231D01*
X0528932Y0391588D01*
X0528687Y0391531D01*
X0528387Y0391231D01*
X0519687Y0391231D01*
X0519483Y0390958D01*
X0518787Y0390931D01*
X0499887Y0390931D01*
X0499887Y0390331D01*
X0453687Y0344131D01*
X0453687Y0305431D01*
X0402987Y0254731D01*
X0393987Y0254731D01*
X0385287Y0246031D01*
X0384227Y0246293D01*
X0384387Y0246031D01*
X0384387Y0245431D01*
X0393687Y0236131D01*
X0393912Y0236056D01*
X0394587Y0235531D01*
X0395187Y0234931D01*
X0395187Y0224731D01*
X0395270Y0224442D01*
X0394587Y0223831D01*
X0381087Y0210331D01*
X0381087Y0197431D01*
X0380900Y0197159D01*
X0374487Y0192331D02*
X0374487Y0242731D01*
X0391887Y0260131D01*
X0396087Y0260131D01*
X0398187Y0262231D01*
X0398187Y0303631D01*
X0448887Y0354331D01*
X0449010Y0354560D01*
X0501589Y0397474D02*
X0501687Y0397531D01*
X0518487Y0397531D01*
X0519387Y0398431D01*
X0519483Y0398478D01*
X0520287Y0398731D01*
X0528687Y0398731D01*
X0528932Y0398635D01*
X0529587Y0398731D01*
X0544287Y0398731D01*
X0544483Y0398458D01*
X0618695Y0395111D02*
X0618987Y0394831D01*
X0636987Y0394831D01*
X0637199Y0394580D01*
X0637587Y0393931D01*
X0640287Y0391231D01*
X0640287Y0378631D01*
X0507987Y0495631D02*
X0508066Y0495820D01*
X0507987Y0495631D02*
X0469587Y0495631D01*
X0468687Y0494731D01*
X0444087Y0519331D01*
X0411087Y0519331D01*
X0404187Y0526231D01*
X0404187Y0588931D01*
X0395787Y0597331D01*
X0395787Y0609631D01*
X0395861Y0610545D01*
X0395787Y0610831D01*
X0395787Y0620731D01*
X0388587Y0627931D01*
X0387987Y0628576D01*
X0387987Y0628831D01*
X0395187Y0636031D01*
X0395187Y0641731D01*
X0395329Y0641962D01*
X0382219Y0641962D02*
X0381987Y0641731D01*
X0381987Y0634531D01*
X0376287Y0628831D01*
X0376176Y0628576D01*
X0376587Y0627931D01*
X0376587Y0578431D01*
X0376569Y0578379D01*
X0380487Y0569431D02*
X0380310Y0568537D01*
X0380187Y0568531D01*
X0380187Y0557731D01*
X0380487Y0556922D01*
X0380487Y0556831D01*
X0391287Y0546031D01*
X0391887Y0546031D01*
X0392140Y0545899D01*
X0392487Y0545131D01*
X0392487Y0523231D01*
X0357087Y0523231D01*
X0338187Y0504331D01*
X0338187Y0498631D01*
X0337987Y0497867D01*
X0337887Y0497731D01*
X0315687Y0475531D01*
X0303341Y0485466D02*
X0303387Y0485731D01*
X0303387Y0488131D01*
X0297087Y0494431D01*
X0285687Y0494431D01*
X0285605Y0494718D01*
X0303387Y0488131D02*
X0307887Y0492631D01*
X0308066Y0492741D01*
X0374601Y0527218D02*
X0374787Y0527431D01*
X0374787Y0536131D01*
X0384387Y0545731D01*
X0384621Y0545899D01*
X0383787Y0546331D01*
X0373887Y0556231D01*
X0373440Y0556922D01*
X0373287Y0557131D01*
X0373287Y0568231D01*
X0372987Y0568531D01*
X0372829Y0568537D01*
X0380487Y0569431D02*
X0395787Y0584731D01*
X0395787Y0585931D01*
X0395861Y0585978D01*
X0392487Y0523231D02*
X0392487Y0522031D01*
X0406587Y0507931D01*
X0405987Y0507331D01*
X0406587Y0507931D02*
X0416487Y0498031D01*
X0416727Y0497867D01*
X0410187Y0470431D02*
X0405387Y0470431D01*
X0405290Y0470308D01*
X0448587Y0480331D02*
X0453987Y0480331D01*
X0454287Y0480631D01*
X0454522Y0480682D01*
X0455187Y0481231D01*
X0468687Y0494731D01*
X0268587Y0388231D02*
X0268695Y0388005D01*
X0268587Y0388231D02*
X0260487Y0388231D01*
X0260487Y0420331D01*
X0254187Y0389731D02*
X0242787Y0389731D01*
X0242514Y0389796D01*
X0241887Y0390331D01*
X0236787Y0395431D01*
X0210387Y0395431D01*
X0210113Y0395505D01*
X0232672Y0386056D02*
X0232587Y0385831D01*
X0174987Y0385831D01*
X0165087Y0375931D01*
X0164365Y0375426D01*
X0164187Y0375631D01*
X0155487Y0384331D01*
X0150687Y0384331D01*
X0150585Y0384619D01*
X0150687Y0397531D02*
X0150585Y0397730D01*
X0150687Y0397531D02*
X0153987Y0397531D01*
X0164187Y0387331D01*
X0164365Y0387237D01*
X0165087Y0387631D01*
X0172887Y0395431D01*
X0185487Y0395431D01*
X0185546Y0395505D01*
X0186387Y0395731D01*
X0193287Y0395731D01*
X0240687Y0380431D02*
X0240687Y0373231D01*
X0240526Y0373064D01*
X0240687Y0380431D02*
X0242487Y0382231D01*
X0242514Y0382316D01*
X0242787Y0381331D01*
X0255087Y0381331D01*
X0255703Y0380722D01*
X0255987Y0380731D01*
X0268587Y0380731D01*
X0268695Y0380958D01*
X0260487Y0388231D02*
X0255987Y0388231D01*
X0255703Y0388241D01*
X0255087Y0388831D01*
X0254187Y0389731D01*
X0401487Y0264331D02*
X0401487Y0258631D01*
X0401487Y0264331D02*
X0401589Y0264403D01*
X0396087Y0250831D02*
X0392187Y0246931D01*
X0391747Y0246293D01*
X0391887Y0246031D01*
X0391887Y0245131D01*
X0400887Y0236131D01*
X0400959Y0236056D01*
X0401187Y0235231D01*
X0402687Y0233731D01*
X0402687Y0224731D01*
X0402751Y0224442D01*
X0399010Y0214600D02*
X0398787Y0214531D01*
X0398787Y0151231D01*
X0398223Y0150623D01*
X0398187Y0150331D01*
X0395187Y0147331D01*
X0395187Y0137131D01*
X0394936Y0136844D01*
X0381987Y0137131D02*
X0381987Y0146131D01*
X0386187Y0150331D01*
X0386412Y0150623D01*
X0385887Y0151231D01*
X0381087Y0156031D01*
X0381087Y0172531D01*
X0380900Y0172592D01*
X0380787Y0173431D01*
X0380787Y0186031D01*
X0374487Y0192331D01*
X0381987Y0137131D02*
X0381825Y0136844D01*
M02*
