%
M48
M72
T01C0.01500
T02C0.02362
T03C0.03937
T04C0.04000
T05C0.04331
T06C0.05512
%
T01
X290787Y337831
X313587Y347731
X324687Y344131
X381687Y401731
X380187Y410731
X393987Y398431
X407787Y401431
X411987Y421831
X395187Y427831
X359787Y434731
X339987Y426331
X330987Y426331
X319587Y434731
X331887Y440731
X344787Y459331
X315687Y475531
X281187Y447031
X281187Y430531
X281787Y425431
X279687Y416431
X271587Y420031
X260487Y420331
X294987Y434731
X193287Y395731
X396087Y250831
X401487Y258631
X482487Y378331
X499887Y390931
X465387Y396931
X457587Y431131
X448587Y480331
X410187Y470431
X405987Y507331
T02
X495467Y485663
X498223Y511647
X271845Y332513
T03
X445487Y377631
X445487Y387631
T04
X270664Y269915
X270664Y279915
X270664Y289915
X270664Y299915
X270664Y309915
X270664Y319915
X458971Y324639
X458971Y314639
X468971Y314639
X468971Y324639
X468971Y334639
X458971Y334639
X504916Y321096
X504916Y311096
X504916Y301096
X504916Y291096
X504916Y281096
X504916Y271096
T05
X449010Y354560
X449010Y364560
X508066Y425820
X508066Y435820
X508066Y445820
X508066Y455820
X508066Y465820
X508066Y475820
X508066Y485820
X508066Y495820
X508066Y505820
X508066Y515820
T06
X435428Y416568
X435428Y358694
X340546Y358694
X340546Y416568
M30
