%
M48
M72
T01C0.01500
T02C0.02362
T03C0.03937
T04C0.04000
T05C0.04331
T06C0.05512
%
T01
X290787Y337831
X271587Y351031
X261387Y381031
X277887Y420331
X280587Y427531
X288087Y438631
X296187Y438631
X301287Y444331
X297087Y450931
X291387Y465031
X263787Y454531
X308787Y440731
X317187Y433231
X303087Y426631
X304287Y420031
X312687Y416131
X304287Y396631
X313587Y395431
X316887Y390931
X316587Y374131
X329187Y369631
X329187Y352531
X375687Y386131
X381387Y365731
X408087Y395131
X388287Y409531
X351087Y439231
X336987Y435631
X323487Y447031
X323487Y456631
X211287Y374431
X386787Y242131
X381087Y180331
X447987Y347131
X482187Y378031
X475587Y389431
X479787Y392731
X499587Y390931
X525087Y390931
X514587Y499831
X395787Y602731
X388287Y577831
T02
X317121Y493143
X310034Y493143
X309247Y484482
X317121Y484482
X272239Y484482
X272239Y492356
X306884Y357710
X303735Y336450
X256491Y341174
X256491Y349836
T03
X445487Y377631
X445487Y387631
T04
X270664Y269915
X270664Y279915
X270664Y289915
X270664Y299915
X270664Y309915
X270664Y319915
X296254Y272670
X306254Y272670
X316254Y272670
X326254Y272670
X336254Y272670
X346254Y272670
X382199Y313458
X382199Y323458
X382199Y333458
X392199Y333458
X392199Y323458
X392199Y313458
T05
X449010Y354560
X449010Y364560
X507672Y419915
X507672Y429915
X507672Y439915
X507672Y449915
X507672Y459915
X507672Y469915
X507672Y479915
X507672Y489915
X507672Y499915
X507672Y509915
T06
X435428Y416568
X435428Y358694
X340546Y358694
X340546Y416568
M30
