G75*
%MOIN*%
%OFA0B0*%
%FSLAX25Y25*%
%IPPOS*%
%LPD*%
%AMOC8*
5,1,8,0,0,1.08239X$1,22.5*
%
%ADD10C,0.05937*%
%ADD11C,0.01956*%
%ADD12C,0.07874*%
%ADD13R,0.07400X0.07400*%
%ADD14OC8,0.07400*%
%ADD15R,0.06496X0.06496*%
%ADD16C,0.06496*%
%ADD17C,0.07400*%
%ADD18R,0.02362X0.02362*%
%ADD19R,0.04724X0.02165*%
%ADD20C,0.00600*%
%ADD21C,0.04500*%
%ADD22OC8,0.05362*%
%ADD23C,0.01600*%
%ADD24C,0.01800*%
D10*
X0442518Y0377631D02*
X0448455Y0377631D01*
X0448455Y0387631D02*
X0442518Y0387631D01*
D11*
X0471300Y0370256D02*
X0471300Y0367960D01*
X0467666Y0367960D01*
X0467666Y0370256D01*
X0471300Y0370256D01*
X0471300Y0369915D02*
X0467666Y0369915D01*
X0467666Y0363208D02*
X0467666Y0360912D01*
X0467666Y0363208D02*
X0471300Y0363208D01*
X0471300Y0360912D01*
X0467666Y0360912D01*
X0467666Y0362867D02*
X0471300Y0362867D01*
X0488138Y0368786D02*
X0488138Y0371082D01*
X0491772Y0371082D01*
X0491772Y0368786D01*
X0488138Y0368786D01*
X0488138Y0370741D02*
X0491772Y0370741D01*
X0491772Y0375834D02*
X0491772Y0378130D01*
X0491772Y0375834D02*
X0488138Y0375834D01*
X0488138Y0378130D01*
X0491772Y0378130D01*
X0491772Y0377789D02*
X0488138Y0377789D01*
X0487646Y0388267D02*
X0489942Y0388267D01*
X0489942Y0384633D01*
X0487646Y0384633D01*
X0487646Y0388267D01*
X0487646Y0386588D02*
X0489942Y0386588D01*
X0494693Y0384633D02*
X0496989Y0384633D01*
X0494693Y0384633D02*
X0494693Y0388267D01*
X0496989Y0388267D01*
X0496989Y0384633D01*
X0496989Y0386588D02*
X0494693Y0386588D01*
D12*
X0332593Y0317356D02*
X0324719Y0317356D01*
X0332593Y0317356D02*
X0332593Y0285860D01*
X0324719Y0285860D01*
X0324719Y0317356D01*
X0324719Y0293733D02*
X0332593Y0293733D01*
X0332593Y0301606D02*
X0324719Y0301606D01*
X0324719Y0309479D02*
X0332593Y0309479D01*
X0332593Y0317352D02*
X0324719Y0317352D01*
X0311333Y0317356D02*
X0303459Y0317356D01*
X0311333Y0317356D02*
X0311333Y0285860D01*
X0303459Y0285860D01*
X0303459Y0317356D01*
X0303459Y0293733D02*
X0311333Y0293733D01*
X0311333Y0301606D02*
X0303459Y0301606D01*
X0303459Y0309479D02*
X0311333Y0309479D01*
X0311333Y0317352D02*
X0303459Y0317352D01*
D13*
X0468971Y0314639D03*
D14*
X0458971Y0314639D03*
X0458971Y0324639D03*
X0468971Y0324639D03*
X0468971Y0334639D03*
X0458971Y0334639D03*
D15*
X0449010Y0354560D03*
X0508066Y0425820D03*
D16*
X0508066Y0435820D03*
X0508066Y0445820D03*
X0508066Y0455820D03*
X0508066Y0465820D03*
X0508066Y0475820D03*
X0508066Y0485820D03*
X0508066Y0495820D03*
X0508066Y0505820D03*
X0508066Y0515820D03*
X0449010Y0364560D03*
D17*
X0270664Y0269915D03*
X0270664Y0279915D03*
X0270664Y0289915D03*
X0270664Y0299915D03*
X0270664Y0309915D03*
X0270664Y0319915D03*
X0504916Y0321096D03*
X0504916Y0311096D03*
X0504916Y0301096D03*
X0504916Y0291096D03*
X0504916Y0281096D03*
X0504916Y0271096D03*
D18*
X0465152Y0392749D03*
X0462790Y0392749D03*
D19*
X0465940Y0385859D03*
X0465940Y0382119D03*
X0465940Y0378379D03*
X0476176Y0378379D03*
X0476176Y0385859D03*
D20*
X0476187Y0386131D01*
X0488487Y0386131D01*
X0488787Y0386431D01*
X0488794Y0386450D01*
X0495687Y0386431D02*
X0495841Y0386450D01*
X0495687Y0386431D02*
X0495687Y0375931D01*
X0489987Y0370231D01*
X0489955Y0369934D01*
X0489687Y0369931D01*
X0473187Y0369931D01*
X0473187Y0375931D01*
X0467187Y0381931D01*
X0465987Y0381931D01*
X0465940Y0382119D01*
X0465152Y0392749D02*
X0465387Y0393031D01*
X0465387Y0396931D01*
X0476176Y0378379D02*
X0476187Y0378331D01*
X0482487Y0378331D01*
X0488487Y0378331D01*
X0489687Y0377131D01*
X0489955Y0376982D01*
X0473187Y0369931D02*
X0473187Y0365731D01*
X0469587Y0362131D01*
X0469483Y0362060D01*
X0469287Y0361831D01*
X0469287Y0345031D01*
X0459087Y0334831D01*
X0458971Y0334639D01*
X0393987Y0398431D02*
X0325587Y0398431D01*
X0298587Y0425431D01*
X0281787Y0425431D01*
X0281187Y0430531D02*
X0282087Y0431431D01*
X0339387Y0431431D01*
X0369087Y0401731D01*
X0381687Y0401731D01*
X0395187Y0415231D01*
X0395187Y0427831D01*
X0411987Y0421831D02*
X0415887Y0425731D01*
X0507987Y0425731D01*
X0508066Y0425820D01*
X0507987Y0435631D02*
X0508066Y0435820D01*
X0507987Y0435631D02*
X0462087Y0435631D01*
X0457587Y0431131D01*
X0359787Y0434731D02*
X0319587Y0434731D01*
X0330987Y0426331D02*
X0339987Y0426331D01*
X0313587Y0382531D02*
X0279687Y0416431D01*
X0313587Y0382531D02*
X0313587Y0347731D01*
X0324687Y0344131D02*
X0324687Y0305731D01*
X0328587Y0301831D01*
X0328656Y0301608D01*
X0307396Y0301608D02*
X0307287Y0301831D01*
X0288687Y0301831D01*
X0270687Y0319831D01*
X0270664Y0319915D01*
D21*
X0290787Y0337831D03*
X0313587Y0347731D03*
X0324687Y0344131D03*
X0381687Y0401731D03*
X0380187Y0410731D03*
X0393987Y0398431D03*
X0407787Y0401431D03*
X0411987Y0421831D03*
X0395187Y0427831D03*
X0359787Y0434731D03*
X0339987Y0426331D03*
X0330987Y0426331D03*
X0319587Y0434731D03*
X0331887Y0440731D03*
X0344787Y0459331D03*
X0315687Y0475531D03*
X0281187Y0447031D03*
X0281187Y0430531D03*
X0281787Y0425431D03*
X0279687Y0416431D03*
X0271587Y0420031D03*
X0260487Y0420331D03*
X0294987Y0434731D03*
X0193287Y0395731D03*
X0396087Y0250831D03*
X0401487Y0258631D03*
X0482487Y0378331D03*
X0499887Y0390931D03*
X0465387Y0396931D03*
X0457587Y0431131D03*
X0448587Y0480331D03*
X0410187Y0470431D03*
X0405987Y0507331D03*
D22*
X0495467Y0485663D03*
X0498223Y0511647D03*
X0271845Y0332513D03*
D23*
X0270664Y0332513D01*
X0270664Y0319915D01*
X0462087Y0387631D02*
X0462087Y0392749D01*
X0462790Y0392749D01*
X0495467Y0485663D02*
X0508066Y0485663D01*
X0508066Y0485820D01*
X0498223Y0511647D02*
X0498223Y0515820D01*
X0508066Y0515820D01*
D24*
X0506487Y0507331D02*
X0507387Y0506431D01*
X0508066Y0505820D01*
X0508287Y0505531D01*
X0508287Y0502531D01*
X0513087Y0497731D01*
X0513087Y0404131D01*
X0499887Y0390931D01*
X0486687Y0390931D01*
X0485787Y0390031D01*
X0464487Y0390031D01*
X0462087Y0387631D01*
X0445487Y0387631D01*
X0449487Y0383131D02*
X0440487Y0383131D01*
X0408087Y0415531D01*
X0408087Y0469831D01*
X0315087Y0469831D01*
X0277287Y0432031D01*
X0277287Y0431731D01*
X0241287Y0395731D01*
X0193287Y0395731D01*
X0260487Y0420331D02*
X0315687Y0475531D01*
X0408087Y0469831D02*
X0409587Y0469831D01*
X0410187Y0470431D01*
X0438687Y0470431D01*
X0448587Y0480331D01*
X0405987Y0507331D02*
X0506487Y0507331D01*
X0449487Y0383131D02*
X0453987Y0378631D01*
X0465087Y0378631D01*
X0465940Y0378379D01*
X0465987Y0378331D01*
X0465987Y0372631D01*
X0466587Y0372031D01*
X0449187Y0354631D01*
X0449010Y0354560D01*
X0466587Y0372031D02*
X0469287Y0369331D01*
X0469483Y0369108D01*
X0401487Y0258631D02*
X0401487Y0256231D01*
X0396087Y0250831D01*
M02*
